<svg xmlns="http://www.w3.org/2000/svg" xmlns:xlink="http://www.w3.org/1999/xlink" xmlns:inkscape="http://www.inkscape.org/namespaces/inkscape" version="1.1" width="566.93" height="566.93" viewBox="0 0 566.93 566.93">
<defs>
<clipPath id="clip_0">
<path transform="matrix(1,0,0,-1,0,566.93)" d="M0 566.93H566.93V0H0Z"/>
</clipPath>
</defs>
<g inkscape:groupmode="layer" inkscape:label="Layer 1">
<g clip-path="url(#clip_0)">
<path transform="matrix(1,0,0,-1,237.728,377.3184)" d="M0 0C-2.351 2.296-5.769 3.445-10.255 3.445H-26.119V-21.632H-11.617C-6.383-21.632-2.511-20.484 0-18.187 2.404-16.104 3.605-13.167 3.605-9.374 3.605-5.476 2.404-2.352 0 0M.721 18.507C.721 21.872-.4 24.517-2.644 26.439-4.887 28.362-8.04 29.323-12.098 29.323-16.372 29.323-19.683 28.174-22.033 25.878-24.757 23.367-26.119 19.896-26.119 15.463V6.329H-14.822C-9.534 6.329-5.636 7.291-3.125 9.214-.615 11.188 .641 14.287 .641 18.507ZM3.035-20.11C.035-23.048-4.194-24.517-9.654-24.517H-26.119-29.323-33.33V-21.632H-29.323V3.445H-33.33V6.329H-29.404V13.38C-29.404 19.682-27.909 24.408-24.917 27.561-21.873 30.658-17.494 32.208-11.777 32.208-6.543 32.208-2.538 30.818 .24 28.041 2.857 25.53 4.166 22.353 4.166 18.507 4.166 16.905 4.019 15.449 3.726 14.141 3.432 12.831 3.017 11.644 2.484 10.575 1.094 8.064-1.149 6.302-4.246 5.288-1.576 5.233 .908 3.846 3.205 1.121 5.821-1.816 7.131-5.368 7.131-9.534 7.131-13.86 5.765-17.386 3.035-20.11" fill="#666666"/>
<path transform="matrix(1,0,0,-1,289.1641,363.2686)" d="M0 0C0 4.77-1.42 8.493-4.258 11.174-7.15 13.906-11.032 15.273-15.904 15.273-20.724 15.273-24.58 13.906-27.471 11.174-30.363 8.439-31.808 4.716-31.808 0V-8.441H0ZM-.16-38.566V-11.326H-31.808V-38.566H-35.013V-11.326H-38.938V-8.441H-35.013V-1.013C-35.013 5.003-33.311 9.69-29.906 13.045-26.502 16.453-21.848 18.158-15.944 18.158-10.041 18.158-5.387 16.448-1.982 13.03 1.475 9.558 3.205 4.858 3.205-1.07V-38.566Z" fill="#666666"/>
<path transform="matrix(1,0,0,-1,315.1201,401.835)" d="M0 0C-3.739 0-6.971 1.362-9.694 4.086-12.687 7.131-14.182 11.217-14.182 16.345V55.763H-10.977V16.505C-10.977 12.604-9.883 9.347-7.691 6.73-5.448 4.166-2.512 2.885 1.121 2.885H11.697V0Z" fill="#666666"/>
<path transform="matrix(1,0,0,-1,0,566.93)" d="M331.625 220.858H334.829V165.095H331.625Z" fill="#666666"/>
<path transform="matrix(1,0,0,-1,372.6445,363.5381)" d="M0 0C-2.243-4.861-4.887-7.611-7.932-8.252-3.819-8.306-.428-9.774 2.243-12.659 5.234-15.917 6.73-20.484 6.73-26.359V-38.297H3.525V-26.359C3.525-21.125 2.216-17.199-.4-14.582-2.964-11.965-7.131-10.656-12.899-10.656H-25.478V-38.297H-28.843V17.466H-25.558V-7.771H-16.665C-12.552-7.771-9.481-6.838-7.451-4.968-6.543-4.113-5.556-2.844-4.486-1.162-3.419 .521-2.323 2.67-1.201 5.288L4.06 17.466H7.852Z" fill="#666666"/>
<path transform="matrix(1,0,0,-1,220.1143,445.2832)" d="M0 0V12.491H-13.976V0H-15.424V25.2H-13.976V13.795H0V25.2H1.557V0Z" fill="#666666"/>
<path transform="matrix(1,0,0,-1,243.2139,427.8545)" d="M0 0C0 2.155-.642 3.839-1.924 5.05-3.231 6.285-4.985 6.902-7.187 6.902-9.365 6.902-11.108 6.285-12.415 5.05-13.721 3.814-14.374 2.131-14.374 0V-3.814H0ZM-.072-17.429V-5.118H-14.374V-17.429H-15.823V-5.118H-17.597V-3.814H-15.823V-.458C-15.823 2.262-15.054 4.379-13.515 5.896-11.977 7.436-9.873 8.206-7.205 8.206-4.537 8.206-2.435 7.434-.896 5.889 .667 4.319 1.448 2.195 1.448-.483V-17.429Z" fill="#666666"/>
<path transform="matrix(1,0,0,-1,263.8516,445.7178)" d="M0 0C-.507 0-.905 .109-1.195 .327-1.629 .617-1.992 1.089-2.281 1.743L-12.274 23.35C-12.758 24.293-13.095 24.766-13.288 24.766-13.578 24.766-13.723 24.549-13.723 24.114V.507H-15.244V24.114C-15.244 24.663-15.099 25.131-14.809 25.52-14.52 25.886-14.049 26.069-13.397 26.069-12.866 26.069-12.444 25.973-12.13 25.779-11.792 25.562-11.49 25.151-11.225 24.549L-.688 2.027C-.495 1.689-.302 1.521-.109 1.521 .181 1.521 .326 1.75 .326 2.209V26.069H1.882V1.811C1.882 .604 1.254 0 0 0" fill="#666666"/>
<path transform="matrix(1,0,0,-1,284.7715,424.8115)" d="M0 0C-1.959 2.283-4.524 3.425-7.693 3.425H-12.448V-19.168H-9.037C-5.649-19.168-2.842-18.087-.616-15.925 1.633-13.739 2.76-11.042 2.76-7.835 2.76-4.75 1.84-2.139 0 0M.441-16.996C-2.069-19.313-5.038-20.472-8.465-20.472H-13.896V3.425H-15.489V4.729H-13.896-12.448-7.549C-4.163 4.729-1.345 3.57 .904 1.253 3.203-1.113 4.352-4.143 4.352-7.835 4.352-11.528 3.049-14.582 .441-16.996" fill="#666666"/>
<path transform="matrix(1,0,0,-1,317.6543,445.2832)" d="M0 0-3.114 23.137C-3.235 23.836-3.403 24.187-3.621 24.187-3.838 24.187-4.056 23.836-4.272 23.137L-10.319 2.462C-10.657 1.279-10.959 .519-11.225 .181-11.441-.133-11.853-.29-12.455-.29-13.06-.29-13.47-.145-13.687 .145-13.808 .29-13.94 .555-14.085 .941-14.229 1.327-14.398 1.834-14.592 2.462L-20.603 23.137C-20.819 23.836-21.037 24.187-21.254 24.187-21.471 24.187-21.641 23.836-21.761 23.137L-24.911 0H-26.396L-23.281 23.027C-23.233 23.486-23.161 23.879-23.064 24.204-22.968 24.53-22.859 24.789-22.738 24.983-22.497 25.418-22.051 25.635-21.398 25.635-20.699 25.635-20.229 25.478-19.986 25.164-19.866 24.995-19.715 24.699-19.534 24.277-19.353 23.854-19.166 23.293-18.973 22.594L-12.926 2.136C-12.806 1.774-12.722 1.557-12.673 1.484-12.601 1.363-12.516 1.304-12.419 1.304-12.323 1.304-12.238 1.388-12.166 1.557-12.118 1.653-12.088 1.75-12.075 1.847-12.063 1.942-12.033 2.039-11.984 2.136L-5.902 22.594C-5.517 23.945-5.19 24.789-4.925 25.128-4.659 25.466-4.177 25.635-3.477 25.635-2.873 25.635-2.438 25.418-2.173 24.983-1.883 24.5-1.69 23.848-1.594 23.027L1.521 0Z" fill="#666666"/>
<path transform="matrix(1,0,0,-1,339.2334,427.8545)" d="M0 0C0 2.155-.642 3.839-1.924 5.05-3.23 6.285-4.985 6.902-7.187 6.902-9.365 6.902-11.107 6.285-12.414 5.05-13.722 3.814-14.374 2.131-14.374 0V-3.814H0ZM-.072-17.429V-5.118H-14.374V-17.429H-15.822V-5.118H-17.597V-3.814H-15.822V-.458C-15.822 2.262-15.054 4.379-13.515 5.896-11.977 7.436-9.873 8.206-7.205 8.206-4.537 8.206-2.435 7.434-.896 5.889 .667 4.319 1.448 2.195 1.448-.483V-17.429Z" fill="#666666"/>
<path transform="matrix(1,0,0,-1,359.8281,424.8115)" d="M0 0C-1.96 2.283-4.524 3.425-7.694 3.425H-12.448V-19.168H-9.037C-5.649-19.168-2.843-18.087-.617-15.925 1.633-13.739 2.759-11.042 2.759-7.835 2.759-4.75 1.839-2.139 0 0M.441-16.996C-2.069-19.313-5.038-20.472-8.466-20.472H-13.896V3.425H-15.49V4.729H-13.896-12.448-7.55C-4.163 4.729-1.346 3.57 .904 1.253 3.202-1.113 4.352-4.143 4.352-7.835 4.352-11.528 3.048-14.582 .441-16.996" fill="#666666"/>
<path transform="matrix(1,0,0,-1,378.9521,445.2832)" d="M0 0C-3.331 0-6.18 1.074-8.545 3.223-11.08 5.588-12.347 8.701-12.347 12.563-12.347 16.45-11.08 19.575-8.545 21.941-6.204 24.114-3.355 25.2 0 25.2H2.896V23.896H.072C-2.993 23.896-5.612 22.802-7.785 20.613-9.861 18.496-10.898 16.163-10.898 13.614H2.896V12.311H-10.898C-10.898 8.835-9.631 6.07-7.097 4.019-4.9 2.209-2.342 1.304 .579 1.304H2.896V0Z" fill="#666666"/>
<path transform="matrix(1,0,0,-1,339.8447,152.68949)" d="M0 0H.301C.301 12.648-3.915 22.585-12.347 29.813-20.78 37.04-32.627 40.653-47.881 40.653-63.945 40.653-76.39 36.334-85.222 27.705-95.46 18.265-100.58 5.218-100.58-11.443V-45.772H-58.12C-38.245-45.772-23.593-42.159-14.154-34.932-4.72-27.507 0-15.862 0 0" fill="#bcbc37"/>
<path transform="matrix(1,0,0,-1,298.8887,235.1709)" d="M0 0H-59.624V-93.089C-58.866-93.48-58.114-93.883-57.345-94.256H-5.119C14.554-94.256 29.108-89.941 38.547-81.308 47.581-73.478 52.098-62.438 52.098-48.182 52.098-33.53 47.581-21.786 38.547-12.949 29.71-4.32 16.864 0 0 0" fill="#6f6a4d"/>
<path transform="matrix(1,0,0,-1,364.4814,110.6055)" d="M0 0C6.197-10.203 9.305-21.981 9.305-35.346 9.305-43.52 8.552-50.944 7.06-57.617 5.559-64.296 3.444-70.355 .724-75.801-6.362-88.609-17.806-97.6-33.602-102.771-19.98-103.044-7.314-110.125 4.401-124.02 17.747-139.004 24.424-157.118 24.424-178.368 24.424-191.943 21.777-203.965 16.507-214.446 42.67-189.015 58.948-153.466 58.948-114.097 58.948-67 35.661-25.368 0 0" fill="#357c5a"/>
<path transform="matrix(1,0,0,-1,202.9771,339.17579)" d="M0 0V116.401L-.407 131.112V167.072C-.407 199.214 7.215 223.322 22.476 239.4 24.089 241.042 25.794 242.577 27.555 244.048-23.495 223.171-59.477 173.036-59.477 114.473-59.477 67.143-35.96 25.331 0 0" fill="#204566"/>
<g inkscape:groupmode="layer" inkscape:label="Layer 3">
</g>
<g inkscape:groupmode="layer" inkscape:label="Layer 2">
</g>
</g>
</g>
</svg>
