<?xml version="1.0" encoding="UTF-8" standalone="no"?>
<!-- Created with Inkscape (http://www.inkscape.org/) -->

<svg
   width="210mm"
   height="297mm"
   viewBox="0 0 210 297"
   version="1.1"
   id="svg4032"
   inkscape:version="1.4 (86a8ad7, 2024-10-11)"
   sodipodi:docname="2025.05.19 logo na targi.svg"
   inkscape:export-filename="pieczątka EFALLO I CERAMIC 4.jpg"
   inkscape:export-xdpi="96"
   inkscape:export-ydpi="96"
   xmlns:inkscape="http://www.inkscape.org/namespaces/inkscape"
   xmlns:sodipodi="http://sodipodi.sourceforge.net/DTD/sodipodi-0.dtd"
   xmlns="http://www.w3.org/2000/svg"
   xmlns:svg="http://www.w3.org/2000/svg"
   xmlns:rdf="http://www.w3.org/1999/02/22-rdf-syntax-ns#"
   xmlns:cc="http://creativecommons.org/ns#"
   xmlns:dc="http://purl.org/dc/elements/1.1/">
  <defs
     id="defs4026">
    <rect
       x="55.792683"
       y="56.402439"
       width="210.36586"
       height="30.487806"
       id="rect11" />
    <rect
       x="239.16084"
       y="321.67832"
       width="110.13986"
       height="10.13986"
       id="rect9" />
    <rect
       x="249.65035"
       y="294.40559"
       width="122.37762"
       height="12.587412"
       id="rect8" />
    <rect
       x="57.692308"
       y="364.68531"
       width="102.79721"
       height="10.13986"
       id="rect7" />
    <rect
       x="56.643357"
       y="339.86014"
       width="155.24476"
       height="11.188811"
       id="rect6" />
    <rect
       x="58.391608"
       y="322.37762"
       width="146.15385"
       height="15.034965"
       id="rect5" />
    <rect
       x="52.097902"
       y="326.22378"
       width="161.53846"
       height="29.370629"
       id="rect3" />
    <rect
       x="52.097902"
       y="331.81818"
       width="134.96503"
       height="11.538461"
       id="rect1" />
    <rect
       x="230.77678"
       y="37.718355"
       width="229.2879"
       height="365.27249"
       id="rect4" />
    <linearGradient
       id="linearGradient4522"
       inkscape:swatch="solid">
      <stop
         style="stop-color:#000000;stop-opacity:1;"
         offset="0"
         id="stop4520" />
    </linearGradient>
    <rect
       x="55.792683"
       y="56.402439"
       width="203.04562"
       height="21.790427"
       id="rect11-0" />
  </defs>
  <sodipodi:namedview
     id="base"
     pagecolor="#ffffff"
     bordercolor="#666666"
     borderopacity="1.0"
     inkscape:pageopacity="0.0"
     inkscape:pageshadow="2"
     inkscape:zoom="2.67"
     inkscape:cx="227.90262"
     inkscape:cy="129.40075"
     inkscape:document-units="mm"
     inkscape:current-layer="layer1"
     showgrid="true"
     inkscape:window-width="1920"
     inkscape:window-height="1009"
     inkscape:window-x="-8"
     inkscape:window-y="-8"
     inkscape:window-maximized="1"
     inkscape:snap-text-baseline="true"
     inkscape:showpageshadow="2"
     inkscape:pagecheckerboard="0"
     inkscape:deskcolor="#d1d1d1"
     showguides="false">
    <inkscape:grid
       id="grid3"
       units="mm"
       originx="0"
       originy="0"
       spacingx="0.99999998"
       spacingy="1"
       empcolor="#0099e5"
       empopacity="0.30196078"
       color="#0099e5"
       opacity="0.14901961"
       empspacing="5"
       dotted="false"
       gridanglex="30"
       gridanglez="30"
       visible="true" />
  </sodipodi:namedview>
  <metadata
     id="metadata4029">
    <rdf:RDF>
      <cc:Work
         rdf:about="">
        <dc:format>image/svg+xml</dc:format>
        <dc:type
           rdf:resource="http://purl.org/dc/dcmitype/StillImage" />
      </cc:Work>
    </rdf:RDF>
  </metadata>
  <g
     inkscape:label="Layer 1"
     inkscape:groupmode="layer"
     id="layer1">
    <flowRoot
       xml:space="preserve"
       id="flowRoot4804"
       style="font-style:normal;font-weight:normal;font-size:40px;line-height:1.25;font-family:sans-serif;letter-spacing:42.57px;word-spacing:0px;fill:#000000;fill-opacity:1;stroke:none"
       transform="translate(-55.619256,-3.0317444)"><flowRegion
         id="flowRegion4806"><rect
           id="rect4808"
           width="219.85831"
           height="344.92444"
           x="220.3546"
           y="19.754097" /></flowRegion><flowPara
         id="flowPara4810" /></flowRoot>
    <text
       xml:space="preserve"
       transform="matrix(0.26458333,0,0,0.26458333,-55.619256,-3.0317444)"
       id="text4"
       style="font-style:normal;font-variant:normal;font-weight:bold;font-stretch:normal;font-size:8px;line-height:1.25;font-family:'DejaVu Sans';-inkscape-font-specification:'DejaVu Sans';font-variant-ligatures:normal;font-variant-position:normal;font-variant-caps:normal;font-variant-numeric:normal;font-variant-alternates:normal;font-variant-east-asian:normal;font-feature-settings:normal;font-variation-settings:normal;text-indent:0;text-align:start;text-decoration-line:none;text-decoration-style:solid;text-decoration-color:#000000;letter-spacing:1.31505px;word-spacing:0px;text-transform:none;writing-mode:lr-tb;direction:ltr;text-orientation:mixed;dominant-baseline:auto;baseline-shift:baseline;white-space:pre;shape-inside:url(#rect4);display:inline;opacity:1;vector-effect:none;fill:#000000;fill-opacity:1;stroke:none;stroke-width:1.88542;stroke-linecap:butt;stroke-linejoin:miter;stroke-miterlimit:4;stroke-dasharray:none;stroke-dashoffset:0;stroke-opacity:1;-inkscape-stroke:none" />
    <text
       xml:space="preserve"
       style="font-style:normal;font-weight:normal;font-size:2.26748px;line-height:1.2;font-family:sans-serif;letter-spacing:3.11777px;word-spacing:0px;fill:#000000;fill-opacity:1;stroke:none;stroke-width:0.948651;stroke-miterlimit:4;stroke-dasharray:none"
       x="67.583626"
       y="37.193745"
       id="text4051-1-2-5"
       transform="scale(0.68600115,1.4577235)"><tspan
         sodipodi:role="line"
         x="69.142509"
         y="37.193745"
         style="font-style:normal;font-variant:normal;font-weight:bold;font-stretch:normal;font-size:2.26748px;line-height:1.2;font-family:'DejaVu Sans';-inkscape-font-specification:'DejaVu Sans';text-align:center;letter-spacing:3.11777px;text-anchor:middle;stroke-width:0.948651;stroke-miterlimit:4;stroke-dasharray:none"
         id="tspan2-4-8">CERAMIC</tspan></text>
    <path
       style="fill:#000000;stroke-width:0.103391"
       d="m 33.370181,55.837751 c -0.127947,-0.05971 -0.232631,-0.184903 -0.232631,-0.278186 0,-0.09329 -0.06616,-0.224519 -0.147034,-0.291633 -0.1737,-0.144159 -0.22429,-1.764333 -0.05508,-1.764333 0.09879,0 0.03616,-0.449729 -0.09359,-0.672042 -0.136086,-0.233176 -0.175806,-1.16581 -0.07926,-1.86104 0.03159,-0.22746 0.0626,-0.785773 0.06891,-1.240694 0.0063,-0.45492 0.077,-1.199337 0.157085,-1.654258 0.08008,-0.454921 0.2158,-1.362178 0.301587,-2.016128 0.08578,-0.653948 0.184375,-1.355397 0.219085,-1.558776 0.06311,-0.369778 0.06311,-0.369778 -1.007268,-0.343914 -1.641039,0.03965 -1.601024,0.03612 -1.455798,0.128297 0.158185,0.100395 -1.32658,0.177825 -2.302748,0.120089 -0.113726,-0.0068 -0.509201,0.01389 -0.878825,0.04584 -0.713606,0.06167 -4.045526,0.275664 -4.394123,0.28222 -0.192622,0.0037 -2.368289,-0.0023 -2.946647,-0.0081 -0.142162,-0.0014 -0.421319,-0.02299 -0.620347,-0.04797 -0.199028,-0.02497 -0.420026,0.0023 -0.491108,0.06075 -0.08931,0.07337 -0.129239,0.07125 -0.129239,-0.0069 0,-0.07527 -0.392421,-0.112407 -1.174295,-0.11115 -0.645865,0.001 -1.215809,-0.0059 -1.266543,-0.01526 -0.305496,-0.05679 -0.47874,0.0425 -0.599212,0.343364 -0.074,0.184812 -0.171705,0.429074 -0.217122,0.542803 -0.09789,0.245113 -0.124406,0.370046 -0.206152,0.971055 -0.03397,0.249752 -0.06739,0.482382 -0.07427,0.516955 -0.0069,0.03457 0.02436,0.248962 0.06942,0.476422 0.174729,0.882024 0.945567,1.482088 2.175784,1.693758 0.829467,0.142719 3.17206,0.308972 3.747917,0.265992 0.213251,-0.01591 0.964625,-0.05782 1.66972,-0.09311 0.705095,-0.0353 1.310662,-0.08191 1.345703,-0.103549 0.03505,-0.02166 0.435193,-0.08945 0.889223,-0.150663 0.752293,-0.101413 1.707679,-0.256456 3.261427,-0.52926 0.31618,-0.05552 0.696697,-0.100937 0.845591,-0.100937 0.148893,0 0.332197,-0.05816 0.407341,-0.129238 0.07515,-0.07108 0.229675,-0.13458 0.343405,-0.141111 0.113726,-0.0064 0.288203,-0.04641 0.387717,-0.0886 0.140942,-0.05978 0.180935,-0.02614 0.180935,0.152172 0,0.155081 0.04727,0.210765 0.146568,0.172661 0.08061,-0.03093 0.285457,0.07648 0.455209,0.23871 0.306295,0.292712 0.307123,0.296581 0.109051,0.509192 -0.109771,0.117828 -0.314619,0.243106 -0.455208,0.278391 -0.140587,0.03528 -0.255616,0.09819 -0.255616,0.139791 0,0.14205 -1.433976,0.520881 -1.974851,0.521717 -0.204758,3.1e-4 -0.507177,0.04622 -0.672042,0.101999 -0.55724,0.188555 -2.086324,0.438934 -3.504879,0.573902 -0.398055,0.03787 -0.754976,0.08801 -0.793156,0.111407 -0.03818,0.0234 -1.061752,0.04665 -2.274604,0.05166 -3.995824,0.01653 -6.178865,-0.464425 -7.226257,-1.592047 -0.222413,-0.23945 -0.404968,-0.493519 -0.405676,-0.5646 -7.11e-4,-0.07108 -0.03862,-0.129238 -0.08427,-0.129238 -0.04563,0 -0.168047,-0.236599 -0.272033,-0.525775 -0.18007,-0.50076 -0.185076,-1.143978 -0.01402,-1.800531 0.257713,-0.989124 0.470106,-1.641623 0.565369,-1.736886 0.0626,-0.0626 0.113812,-0.144986 0.113812,-0.183083 0,-0.06055 -0.553953,-0.168637 -1.188998,-0.231991 -0.113727,-0.01136 -0.253308,-0.04974 -0.310174,-0.08533 -0.05687,-0.03558 -0.250075,-0.09613 -0.429356,-0.134557 -0.451018,-0.09666 -0.65225,-0.562801 -0.405521,-0.939356 0.09456,-0.144311 0.219496,-0.232979 0.277647,-0.197039 0.05815,0.03593 0.164885,-0.01555 0.237189,-0.114435 0.118488,-0.162039 0.212199,-0.168556 0.949489,-0.06604 1.553554,0.216008 1.638499,0.20768 1.970056,-0.193143 0.571362,-0.69073 1.619616,-1.649562 1.803403,-1.649562 0.05203,0 0.0946,-0.04653 0.0946,-0.103394 0,-0.05687 0.06748,-0.103394 0.149948,-0.103394 0.08248,0 0.187156,-0.05941 0.232631,-0.132027 0.298949,-0.477365 1.947536,-1.399297 3.500384,-1.957501 1.639931,-0.58951 1.681523,-0.598641 2.726493,-0.598641 0.669611,0 1.062237,0.04596 1.199416,0.140417 0.112163,0.07722 0.378413,0.17239 0.591657,0.211467 0.213245,0.03908 0.387717,0.115473 0.387717,0.169757 0,0.05429 0.05409,0.09871 0.120187,0.09871 0.239991,0 1.11413,0.642964 1.478226,1.087295 0.329926,0.402632 0.357702,0.479693 0.240526,0.667322 -0.07285,0.116669 -0.225642,0.237793 -0.339511,0.269163 -0.113873,0.03137 -0.302244,0.103427 -0.418605,0.16013 -0.172267,0.08394 -0.328335,0.02512 -0.840167,-0.316671 -0.34573,-0.23087 -0.675031,-0.419764 -0.731779,-0.419764 -0.05674,0 -0.32129,-0.121908 -0.587869,-0.270897 -0.930329,-0.519972 -2.274416,-0.423558 -3.241157,0.23249 -0.19872,0.134855 -0.415187,0.24519 -0.481041,0.24519 -0.379039,0 -1.927722,0.972654 -2.889438,1.814719 -0.220856,0.193378 -0.436565,0.329958 -0.479355,0.303512 -0.04279,-0.02645 -0.101844,0.04389 -0.131244,0.156292 -0.02939,0.112407 -0.174262,0.25031 -0.321928,0.306452 -0.848869,0.32274 0.307284,0.40266 5.056159,0.349515 3.035843,-0.03397 4.333371,-0.07746 5.634818,-0.188837 0.312757,-0.02677 1.220015,-0.0752 2.016128,-0.107634 2.938969,-0.119722 3.390367,-0.182645 3.554226,-0.495401 0.06509,-0.124236 0.09603,-0.33694 0.06877,-0.472676 -0.02727,-0.135735 0.04621,-0.543304 0.163293,-0.905707 0.117084,-0.362403 0.22236,-0.723546 0.233953,-0.802537 0.0116,-0.079 0.06997,-0.206473 0.129737,-0.28329 0.187901,-0.24153 0.237276,-0.486165 0.109095,-0.540553 -0.08308,-0.03526 -0.06279,-0.09064 0.06204,-0.16944 0.11579,-0.07308 0.163024,-0.187776 0.12573,-0.305281 -0.03287,-0.103516 0.0038,-0.251688 0.08132,-0.329269 0.07758,-0.07758 0.125099,-0.18893 0.105597,-0.247441 -0.01951,-0.0585 0.116339,-0.361489 0.301866,-0.673286 0.185528,-0.311796 0.401248,-0.689955 0.479375,-0.840352 0.07813,-0.150398 0.217705,-0.300091 0.310173,-0.33265 0.09247,-0.03256 0.307702,-0.145694 0.478298,-0.251409 0.266963,-0.16543 0.360586,-0.17495 0.672042,-0.06835 0.199028,0.06813 0.361869,0.188971 0.361869,0.268547 0,0.07957 0.03706,0.172029 0.08235,0.205455 0.09031,0.06664 -0.241619,0.712953 -0.366686,0.714005 -0.04265,3.58e-4 -0.07754,0.07044 -0.07754,0.155743 0,0.08529 -0.04653,0.155086 -0.103394,0.155086 -0.05687,0 -0.103395,0.09305 -0.103395,0.206782 0,0.113726 -0.05428,0.206783 -0.120625,0.206783 -0.06634,0 -0.09146,0.02916 -0.05581,0.0648 0.03564,0.03564 -0.0032,0.196172 -0.08615,0.356734 -0.08303,0.160561 -0.150964,0.387293 -0.150964,0.503846 0,0.11656 -0.03877,0.211917 -0.08617,0.211917 -0.04739,0 -0.09046,0.05815 -0.09571,0.129239 -0.0052,0.07108 -0.08472,0.385132 -0.17661,0.697891 -0.269633,0.917821 -0.280105,0.962915 -0.324115,1.395781 -0.02313,0.227459 -0.08837,0.548452 -0.144985,0.713317 -0.05661,0.164865 -0.10294,0.321665 -0.10294,0.348444 0,0.02678 0.383839,0.01355 0.852976,-0.02939 0.469137,-0.04295 0.95766,-0.07673 1.085606,-0.07505 0.127947,0.0017 0.23263,-0.04171 0.23263,-0.0964 0,-0.05469 0.08864,-0.07129 0.196992,-0.03691 0.108342,0.03438 0.829236,0.0648 1.601982,0.06759 0.772745,0.0028 1.431257,0.04758 1.463371,0.09952 0.149557,0.241987 0.432894,0.06929 0.650786,-0.396649 0.167689,-0.358591 0.218611,-0.414388 0.188733,-0.206782 -0.05734,0.398088 0.07029,0.354401 0.226482,-0.07755 0.134014,-0.370596 0.324252,-0.488763 0.324252,-0.201404 0,0.08825 0.144066,0.210685 0.320146,0.272065 0.17608,0.06137 0.279407,0.14038 0.229625,0.175556 -0.04982,0.03517 -0.08502,0.366375 -0.07827,0.735998 0.0066,0.369623 0.01971,1.281393 0.02889,2.026156 0.01749,1.427104 0.08823,1.65406 0.571059,1.833564 0.157371,0.05851 0.169227,0.09972 0.06487,0.225453 -0.09564,0.115204 -0.09697,0.153864 -0.0055,0.153864 0.06719,0 0.09343,0.04653 0.05823,0.103394 -0.0352,0.05687 -0.01185,0.103394 0.0517,0.103394 0.184449,0 0.0033,0.210541 -0.27032,0.314678 -0.201076,0.07645 -0.241038,0.151368 -0.2034,0.381341 0.05347,0.326437 0.08601,0.900211 0.07063,1.242565 -0.0055,0.133199 -0.07683,0.23263 -0.165563,0.23263 -0.08524,0 -0.155091,0.04505 -0.155091,0.100151 0,0.05507 -0.06233,0.07623 -0.13852,0.04699 -0.07616,-0.02924 -0.198197,0.01874 -0.271138,0.106626 -0.195386,0.235417 -0.368079,0.196651 -0.657793,-0.147656 -0.164002,-0.194906 -0.238647,-0.384141 -0.20391,-0.516958 0.03089,-0.118036 0.0044,-0.209505 -0.06066,-0.209505 -0.06354,0 -0.11545,-0.0945 -0.11545,-0.210027 0,-0.321302 -0.207984,-0.338362 -1.1498,-0.0943 -1.744453,0.452032 -2.547672,0.509956 -3.361692,0.24243 -0.359504,-0.118147 -0.56783,-0.265384 -0.730319,-0.516157 -0.2091,-0.322701 -0.217757,-0.396541 -0.1079,-0.920303 0.07033,-0.335304 0.174436,-0.56945 0.253185,-0.56945 0.07356,0 0.133744,-0.06259 0.133744,-0.139063 0,-0.07648 0.09195,-0.222281 0.204344,-0.32399 0.112395,-0.101712 0.179433,-0.225238 0.148985,-0.274504 -0.03044,-0.04926 0.0019,-0.08957 0.07184,-0.08957 0.06996,0 0.207713,-0.07286 0.306119,-0.161919 0.0984,-0.08906 0.513629,-0.27516 0.922717,-0.413564 0.597331,-0.202091 0.953251,-0.251645 1.807445,-0.251645 1.207186,0 1.186939,0.01626 1.18974,-0.956368 0.0011,-0.431736 -0.124693,-0.658216 -0.222607,-0.400342 -0.01893,0.04993 -0.802135,0.116169 -1.740415,0.147225 -1.888839,0.06251 -3.717816,0.265575 -3.877166,0.43046 -0.05687,0.05884 -0.108187,0.232094 -0.114044,0.385009 -0.01397,0.364649 -0.227833,1.768312 -0.359527,2.359641 -0.05713,0.256548 -0.118696,0.791596 -0.136794,1.188998 -0.0496,1.089119 -0.185636,2.325611 -0.260964,2.372166 -0.03676,0.02273 -0.05376,1.079897 -0.03776,2.349276 0.03511,2.784884 0.01264,2.980005 -0.3431,2.980005 -0.143325,0 -0.338952,0.03783 -0.434728,0.08407 -0.09759,0.04711 -0.276386,0.03634 -0.406767,-0.02452 z m 6.523249,-8.748716 c 1.463801,-0.294246 1.429174,-0.279367 1.392178,-0.598175 -0.03387,-0.291399 -0.275566,-0.403069 -0.580701,-0.268238 -0.0962,0.04251 -0.43079,0.09199 -0.743543,0.10997 -0.944013,0.05427 -1.189305,0.128548 -1.532509,0.464092 -0.180691,0.176661 -0.32853,0.362207 -0.32853,0.412324 0,0.149623 0.677398,0.104302 1.793105,-0.119978 z m 5.391542,3.207754 c -0.03576,-0.0578 -0.106162,-0.07957 -0.156655,-0.04841 -0.127095,0.07854 -0.412581,-0.383578 -0.526491,-0.852251 -0.09321,-0.383568 -0.120077,-2.164025 -0.04483,-2.974829 0.02114,-0.22746 0.06852,-0.762509 0.105498,-1.188998 0.113966,-1.317664 0.191146,-1.824919 0.293201,-1.926976 0.03952,-0.03955 0.07195,-0.335567 0.07195,-0.657803 0,-0.322236 0.03232,-0.618247 0.07196,-0.657803 0.03952,-0.03955 0.08336,-0.128731 0.09731,-0.198167 0.01395,-0.06943 0.04793,-0.226722 0.07539,-0.349525 0.02745,-0.122801 0.08203,-0.436853 0.121183,-0.69789 0.03919,-0.261035 0.115151,-0.474612 0.168929,-0.474612 0.0538,0 0.06775,-0.04856 0.031,-0.107922 -0.03664,-0.05936 -0.01,-0.17567 0.05823,-0.258477 0.06874,-0.0828 0.09299,-0.150557 0.05402,-0.150557 -0.03908,0 0.03365,-0.186104 0.161468,-0.413566 0.127848,-0.22746 0.264972,-0.413564 0.304736,-0.413564 0.03985,0 0.09664,-0.09305 0.126364,-0.206783 0.03233,-0.123717 0.141033,-0.206781 0.27053,-0.206781 0.119069,0 0.216463,-0.04653 0.216463,-0.103394 0,-0.05687 0.07705,-0.103395 0.171121,-0.103395 0.153873,0 0.152268,0.02082 -0.01594,0.206782 -0.160682,0.177546 -0.164158,0.206783 -0.02469,0.206783 0.08934,0 0.185954,-0.05815 0.214637,-0.12924 0.03111,-0.0772 0.05546,-0.05639 0.06033,0.05169 0.0044,0.09951 0.05469,0.180936 0.111487,0.180936 0.147907,0 0.127936,0.552964 -0.0259,0.715983 -0.10273,0.108918 -0.102951,0.146649 -9.74e-4,0.184106 0.08779,0.03219 0.09819,0.103604 0.03299,0.22551 -0.113567,0.212125 -0.422056,1.813026 -0.490446,2.544785 -0.04395,0.470034 -0.181361,2.427691 -0.261309,3.722082 -0.0176,0.284327 -0.06011,0.563482 -0.09454,0.620347 -0.03443,0.05687 -0.07229,0.82282 -0.08402,1.702123 -0.01218,0.879303 -0.0414,1.630982 -0.06587,1.6704 -0.02435,0.03942 -0.137291,0.04735 -0.250969,0.01762 -0.115527,-0.03021 -0.206677,-0.0032 -0.206677,0.0614 0,0.144307 -0.481503,0.153074 -0.569709,0.01041 z m 2.466781,-0.902987 c -0.195287,-0.362615 -0.274106,-0.753758 -0.276043,-1.369933 -0.0022,-0.744558 0.149855,-2.580634 0.239954,-2.894773 0.0569,-0.198375 0.103394,-0.5122 0.103394,-0.697386 0,-0.185187 0.03487,-0.336704 0.07749,-0.336704 0.04262,0 0.07993,-0.15121 0.08258,-0.336021 0.0089,-0.552893 0.08203,-1.052231 0.174154,-1.178115 0.0476,-0.0651 0.07539,-0.158149 0.06177,-0.206782 -0.01373,-0.04864 0.02956,-0.251268 0.09598,-0.450295 0.195585,-0.585563 0.230943,-0.930354 0.09564,-0.932104 -0.08557,-0.0011 -0.08225,-0.02701 0.01107,-0.0862 0.0735,-0.04666 0.22812,-0.637253 0.34461,-1.316652 0.116125,-0.67762 0.253903,-1.276236 0.306031,-1.330257 0.05934,-0.06152 0.09476,-0.05186 0.09476,0.02585 0,0.213347 0.168287,0.135715 0.291363,-0.134409 0.129708,-0.28468 0.32898,-0.347307 0.32898,-0.103394 0,0.0853 0.08767,0.155087 0.194744,0.155087 0.194257,0 0.368599,0.461645 0.248024,0.656746 -0.03033,0.04911 -0.06886,0.803418 -0.08546,1.676265 -0.0166,0.872845 -0.05613,1.670405 -0.08768,1.772356 -0.106272,0.343043 -0.749585,5.770744 -0.791042,6.67316 -0.0044,0.09951 -0.04694,0.180933 -0.09398,0.180933 -0.04716,0 -0.113567,0.11076 -0.14753,0.246124 -0.06299,0.251119 -0.316969,0.370269 -0.794574,0.372812 -0.201198,0.0011 -0.31574,-0.09226 -0.474108,-0.386306 z m 5.228787,-0.378143 c -0.201463,-0.136899 -0.500797,-0.425248 -0.665187,-0.640776 -0.27643,-0.362416 -0.297463,-0.452962 -0.279696,-1.204606 0.01251,-0.527397 0.07362,-0.89039 0.174143,-1.033918 0.14556,-0.207833 0.136305,-0.229006 -0.153464,-0.350842 -0.376304,-0.158226 -0.384152,-0.279247 -0.04672,-0.721549 0.876061,-1.148565 3.118607,-1.753977 4.395779,-1.186709 0.534838,0.237555 1.072709,0.782255 0.988687,1.001232 -0.031,0.08087 -0.01439,0.147036 0.03697,0.147036 0.05136,0 0.0807,0.267525 0.06509,0.594498 -0.04539,0.950383 -0.344843,1.450844 -1.395389,2.332273 -0.847301,0.710899 -1.114377,0.856803 -2.188912,1.19579 -0.494277,0.155929 -0.510295,0.153652 -0.931301,-0.132429 z m 1.181151,-1.629892 c 0.179379,-0.123495 0.593664,-0.489104 0.920639,-0.812463 0.500742,-0.495198 0.594494,-0.645569 0.594494,-0.953399 0,-0.570494 -0.4042,-0.64125 -1.383776,-0.242221 -0.596409,0.242945 -0.609173,0.256634 -0.650154,0.697412 -0.02291,0.247281 -0.0517,0.542654 -0.06376,0.656385 -0.01218,0.113726 -0.06841,0.240963 -0.125279,0.282742 -0.06399,0.04704 -0.05424,0.07657 0.0259,0.07755 0.07107,8.4e-4 0.129232,0.08689 0.129232,0.191133 0,0.377745 0.120774,0.400226 0.552694,0.102874 z"
       id="path3939"
       inkscape:connector-curvature="0" />
    <text
       xml:space="preserve"
       transform="scale(0.26458333)"
       id="text3"
       style="font-style:normal;font-variant:normal;font-weight:normal;font-stretch:normal;font-size:8px;line-height:1;font-family:'DejaVu Sans';-inkscape-font-specification:'DejaVu Sans';text-align:start;text-decoration-color:#000000;letter-spacing:1px;writing-mode:lr-tb;direction:ltr;white-space:pre;shape-inside:url(#rect3);display:inline;fill:#000000;stroke-width:0.00755906" />
  </g>
</svg>
