<svg xmlns="http://www.w3.org/2000/svg" xmlns:xlink="http://www.w3.org/1999/xlink" width="500" zoomAndPan="magnify" viewBox="0 0 375 374.999991" height="500" preserveAspectRatio="xMidYMid meet" version="1.0"><defs><g/><clipPath id="c2f03e7e0c"><path d="M 238.464844 334.828125 L 253.957031 334.828125 L 253.957031 350.578125 L 238.464844 350.578125 Z M 238.464844 334.828125 " clip-rule="nonzero"/></clipPath><clipPath id="7ab0837bfc"><path d="M 253.875 340.351562 C 253.875 345.375 253.273438 346.648438 252.523438 347.550781 C 251.773438 348.523438 250.648438 349.425781 249.601562 349.875 C 248.476562 350.398438 247.050781 350.625 245.851562 350.550781 C 244.648438 350.476562 243.300781 350.101562 242.25 349.425781 C 241.199219 348.824219 240.226562 347.851562 239.625 346.800781 C 238.949219 345.75 238.574219 344.398438 238.5 343.199219 C 238.425781 342 238.648438 340.574219 239.175781 339.523438 C 239.625 338.398438 240.523438 337.273438 241.5 336.523438 C 242.476562 335.773438 243.75 335.175781 244.949219 334.949219 C 246.148438 334.726562 247.5 334.875 248.699219 335.175781 C 249.824219 335.550781 251.925781 337.125 251.925781 337.125 " clip-rule="nonzero"/></clipPath><clipPath id="bca631974a"><path d="M 95.585938 106.195312 L 315 106.195312 L 315 259.195312 L 95.585938 259.195312 Z M 95.585938 106.195312 " clip-rule="nonzero"/></clipPath><clipPath id="9599fc8fac"><path d="M 46 135.527344 L 202.773438 135.527344 L 202.773438 200.519531 L 46 200.519531 Z M 46 135.527344 " clip-rule="nonzero"/></clipPath><clipPath id="b856960a46"><path d="M 79.648438 135.773438 C 112.574219 140.347656 122.546875 141.25 131.625 141.773438 C 140.171875 142.222656 148.796875 142.449219 156.597656 142.222656 C 163.421875 142.074219 170.625 140.347656 175.875 140.796875 C 179.472656 141.097656 182.171875 141.847656 184.949219 143.125 C 187.796875 144.324219 190.574219 146.125 192.898438 148.222656 C 195.222656 150.25 197.25 152.875 198.75 155.574219 C 200.25 158.273438 201.449219 161.347656 201.972656 164.421875 C 202.574219 167.421875 202.648438 170.722656 202.199219 173.796875 C 201.75 176.875 200.773438 180.023438 199.421875 182.796875 C 198 185.574219 196.125 188.273438 193.875 190.449219 C 191.699219 192.625 189 194.5 186.222656 195.921875 C 183.449219 197.273438 180.296875 198.25 177.222656 198.625 C 174.148438 199.074219 170.847656 198.921875 167.847656 198.324219 C 164.773438 197.722656 161.699219 196.597656 159 195.097656 C 156.296875 193.523438 153.75 191.5 151.648438 189.171875 C 149.625 186.847656 147.824219 184.074219 146.625 181.222656 C 145.421875 178.375 144.597656 175.148438 144.375 172.074219 C 144.148438 169 144.449219 165.699219 145.199219 162.699219 C 145.949219 159.699219 147.222656 156.625 148.949219 154.074219 C 150.597656 151.449219 152.847656 148.972656 155.25 147.023438 C 157.648438 145.148438 160.574219 143.5 163.421875 142.449219 C 166.347656 141.398438 169.574219 140.796875 172.722656 140.722656 C 175.796875 140.648438 179.097656 141.097656 182.023438 142 C 185.023438 142.898438 187.949219 144.398438 190.421875 146.199219 C 192.972656 148.074219 195.296875 150.398438 197.097656 152.875 C 198.898438 155.421875 200.324219 158.347656 201.222656 161.347656 C 202.125 164.347656 202.574219 167.574219 202.5 170.648438 C 202.347656 173.796875 201.75 177.023438 200.699219 179.949219 C 199.574219 182.796875 197.921875 185.722656 195.972656 188.125 C 194.023438 190.523438 191.625 192.699219 189 194.347656 C 186.375 196 184.046875 197.125 180.296875 198.023438 C 174.375 199.523438 164.472656 199.972656 156.148438 200.273438 C 147.296875 200.574219 139.5 200.273438 128.699219 199.824219 C 113.324219 199.148438 82.5 197.199219 72.75 195.625 C 69.222656 195.097656 67.875 194.796875 65.625 193.972656 C 63.375 193.074219 61.199219 191.949219 59.171875 190.597656 C 57.222656 189.25 55.347656 187.597656 53.699219 185.796875 C 52.125 184 50.699219 181.972656 49.574219 179.875 C 48.449219 177.773438 47.546875 175.449219 46.949219 173.125 C 46.347656 170.722656 46.046875 168.25 46.046875 165.847656 C 46.046875 163.449219 46.347656 160.972656 46.875 158.648438 C 47.472656 156.324219 48.296875 154 49.421875 151.824219 C 50.546875 149.722656 51.898438 147.699219 53.472656 145.824219 C 55.125 144.023438 56.921875 142.375 58.949219 141.023438 C 60.898438 139.597656 63.074219 138.472656 65.324219 137.574219 C 67.574219 136.75 69.972656 136.148438 72.375 135.847656 C 74.773438 135.546875 79.648438 135.773438 79.648438 135.773438 " clip-rule="nonzero"/></clipPath><clipPath id="3ea291e756"><path d="M 71.589844 131.011719 L 195.78125 131.011719 L 195.78125 203.457031 L 71.589844 203.457031 Z M 71.589844 131.011719 " clip-rule="nonzero"/></clipPath><clipPath id="585222c1db"><path d="M 161.25 197.125 C 137.472656 194.347656 109.421875 193.296875 100.5 192.25 C 97.046875 191.796875 95.625 191.648438 93.296875 190.898438 C 90.972656 190.148438 88.648438 189.171875 86.546875 187.898438 C 84.523438 186.625 82.5 185.046875 80.773438 183.324219 C 79.046875 181.671875 77.472656 179.648438 76.273438 177.546875 C 75 175.523438 73.949219 173.199219 73.199219 170.875 C 72.449219 168.546875 72 166.074219 71.847656 163.671875 C 71.699219 161.199219 71.847656 158.722656 72.296875 156.324219 C 72.75 153.921875 73.5 151.523438 74.472656 149.273438 C 75.523438 147.023438 76.796875 144.921875 78.296875 142.972656 C 79.796875 141.023438 81.597656 139.296875 83.472656 137.796875 C 85.421875 136.296875 87.523438 134.949219 89.773438 133.972656 C 92.023438 132.921875 94.421875 132.171875 96.824219 131.796875 C 99.148438 131.347656 100.949219 130.898438 104.097656 131.273438 C 110.472656 132.171875 122.625 139.148438 131.847656 141.023438 C 140.324219 142.75 150.972656 141.324219 157.273438 142.75 C 161.171875 143.574219 163.722656 144.625 166.5 146.199219 C 169.347656 147.847656 171.972656 150.023438 174.148438 152.5 C 176.324219 154.898438 178.125 157.824219 179.398438 160.824219 C 180.671875 163.824219 181.5 167.199219 181.722656 170.421875 C 181.949219 173.648438 181.648438 177.097656 180.824219 180.25 C 180 183.398438 178.574219 186.625 176.847656 189.324219 C 175.046875 192.023438 172.722656 194.574219 170.171875 196.597656 C 167.625 198.625 164.625 200.273438 161.546875 201.398438 C 158.472656 202.523438 155.097656 203.125 151.796875 203.199219 C 148.574219 203.273438 145.125 202.75 142.046875 201.773438 C 138.972656 200.796875 135.824219 199.222656 133.199219 197.273438 C 130.574219 195.398438 128.171875 192.921875 126.296875 190.222656 C 124.421875 187.597656 122.921875 184.449219 122.023438 181.375 C 121.046875 178.222656 120.597656 174.847656 120.75 171.546875 C 120.898438 168.324219 121.574219 164.949219 122.699219 161.875 C 123.824219 158.875 125.546875 155.875 127.648438 153.324219 C 129.671875 150.773438 132.296875 148.523438 135.074219 146.796875 C 137.773438 145.074219 141 143.722656 144.148438 142.972656 C 147.296875 142.222656 150.75 142 153.972656 142.222656 C 157.199219 142.523438 160.574219 143.421875 163.574219 144.699219 C 166.574219 146.046875 169.421875 147.921875 171.824219 150.097656 C 174.222656 152.273438 176.398438 155.046875 177.972656 157.898438 C 179.546875 160.671875 180.671875 163.972656 181.273438 167.199219 C 181.875 170.347656 181.949219 173.796875 181.5 177.023438 C 180.972656 180.25 179.921875 183.546875 178.5 186.472656 C 177 189.324219 174.972656 192.171875 172.648438 194.421875 C 170.324219 196.75 167.472656 198.699219 164.546875 200.125 C 161.625 201.546875 158.324219 202.523438 155.097656 202.972656 C 151.875 203.347656 149.171875 202.898438 145.273438 202.597656 C 139.574219 202.074219 131.398438 201.25 124.199219 199.671875 C 116.472656 197.949219 106.199219 193.597656 100.5 192.25 C 97.421875 191.421875 95.625 191.648438 93.296875 190.898438 C 90.972656 190.148438 88.648438 189.171875 86.546875 187.898438 C 84.523438 186.625 82.5 185.046875 80.773438 183.324219 C 79.046875 181.671875 77.472656 179.648438 76.273438 177.546875 C 75 175.523438 73.949219 173.199219 73.199219 170.875 C 72.449219 168.546875 72 166.074219 71.847656 163.671875 C 71.699219 161.199219 71.847656 158.722656 72.296875 156.324219 C 72.75 153.921875 73.5 151.523438 74.472656 149.273438 C 75.523438 147.023438 76.796875 144.921875 78.296875 142.972656 C 79.796875 141.097656 81.597656 139.296875 83.472656 137.796875 C 85.421875 136.296875 87.523438 134.949219 89.773438 133.972656 C 92.023438 132.921875 94.421875 132.171875 96.824219 131.796875 C 99.148438 131.347656 100.949219 131.347656 104.097656 131.273438 C 110.171875 131.273438 120.671875 132.097656 130.125 132.773438 C 141.671875 133.597656 160.574219 134.722656 168.296875 136 C 171.671875 136.523438 173.171875 136.824219 175.5 137.722656 C 177.824219 138.546875 180.074219 139.75 182.097656 141.097656 C 184.125 142.523438 186.074219 144.171875 187.648438 146.046875 C 189.296875 147.847656 190.796875 149.949219 191.921875 152.125 C 193.046875 154.296875 194.023438 156.625 194.625 159.023438 C 195.222656 161.421875 195.523438 163.898438 195.523438 166.375 C 195.523438 168.847656 195.222656 171.398438 194.699219 173.722656 C 194.097656 176.125 193.199219 178.523438 192.074219 180.699219 C 190.949219 182.875 189.523438 184.972656 187.875 186.847656 C 186.296875 188.722656 184.421875 190.375 182.398438 191.796875 C 180.375 193.222656 178.125 194.421875 175.796875 195.25 C 173.546875 196.148438 171.074219 196.824219 168.597656 197.125 C 166.199219 197.421875 161.171875 197.125 161.171875 197.125 " clip-rule="nonzero"/></clipPath><clipPath id="9fdbdec85d"><path d="M 67.507812 147 L 200 147 L 200 218.636719 L 67.507812 218.636719 Z M 67.507812 147 " clip-rule="nonzero"/></clipPath><clipPath id="cc7a2b2f05"><path d="M 168.449219 218.347656 C 148.875 217.148438 101.921875 211.75 90.898438 208.972656 C 87.296875 208.074219 86.171875 207.472656 84 206.347656 C 81.824219 205.222656 79.722656 203.722656 77.847656 202.148438 C 76.046875 200.5 74.398438 198.625 72.972656 196.597656 C 71.546875 194.574219 70.421875 192.324219 69.523438 190 C 68.699219 187.75 68.023438 185.273438 67.796875 182.796875 C 67.5 180.398438 67.5 177.847656 67.796875 175.449219 C 68.097656 172.972656 68.699219 170.5 69.523438 168.25 C 70.421875 165.921875 71.625 163.671875 72.972656 161.722656 C 74.398438 159.699219 76.046875 157.75 77.921875 156.171875 C 79.722656 154.523438 81.824219 153.097656 84 151.972656 C 86.171875 150.773438 88.199219 150.023438 90.898438 149.347656 C 94.722656 148.375 100.574219 147.625 104.773438 147.398438 C 108.375 147.25 111.523438 147.097656 114.75 147.773438 C 117.898438 148.375 121.199219 149.648438 124.046875 151.222656 C 126.824219 152.875 129.523438 155.125 131.699219 157.523438 C 133.875 160 135.75 162.921875 136.949219 165.921875 C 138.222656 168.921875 139.046875 172.375 139.273438 175.597656 C 139.574219 178.898438 139.199219 182.347656 138.449219 185.5 C 137.625 188.648438 136.199219 191.875 134.398438 194.574219 C 132.671875 197.347656 130.273438 199.898438 127.722656 201.921875 C 125.171875 203.949219 122.097656 205.671875 119.023438 206.722656 C 115.949219 207.847656 112.574219 208.449219 109.273438 208.523438 C 105.972656 208.597656 102.523438 208.074219 99.449219 207.097656 C 96.296875 206.125 93.222656 204.546875 90.597656 202.597656 C 87.972656 200.722656 85.5 198.25 83.625 195.546875 C 81.75 192.847656 80.25 189.773438 79.273438 186.625 C 78.375 183.472656 77.921875 180.023438 78 176.796875 C 78.148438 173.5 78.824219 170.125 79.949219 167.046875 C 81.148438 163.972656 82.875 160.972656 84.898438 158.421875 C 87 155.875 89.625 153.625 92.398438 151.824219 C 95.171875 150.097656 98.324219 148.75 101.546875 148 C 104.699219 147.25 108.148438 147.023438 111.449219 147.25 C 114.671875 147.546875 118.046875 148.449219 121.046875 149.722656 C 124.046875 151.074219 126.972656 152.949219 129.375 155.199219 C 131.773438 157.375 133.949219 160.074219 135.523438 163 C 137.097656 165.847656 138.296875 169.074219 138.898438 172.296875 C 139.5 175.523438 139.574219 178.972656 139.046875 182.273438 C 138.597656 185.5 137.546875 188.796875 136.046875 191.722656 C 134.625 194.648438 132.523438 197.421875 130.199219 199.75 C 127.875 202 125.023438 204.023438 122.097656 205.449219 C 119.171875 206.875 116.097656 207.546875 112.574219 208.296875 C 108.296875 209.125 102.222656 209.875 98.25 209.875 C 95.398438 209.875 93.296875 209.574219 90.898438 208.972656 C 88.5 208.375 86.171875 207.472656 84 206.347656 C 81.824219 205.222656 79.722656 203.722656 77.847656 202.148438 C 76.046875 200.5 74.398438 198.625 72.972656 196.597656 C 71.546875 194.574219 70.421875 192.324219 69.523438 190 C 68.699219 187.75 68.023438 185.273438 67.796875 182.875 C 67.5 180.398438 67.5 177.847656 67.796875 175.449219 C 68.097656 172.972656 68.699219 170.5 69.523438 168.25 C 70.421875 165.921875 71.625 163.671875 72.972656 161.722656 C 74.398438 159.699219 76.046875 157.75 77.921875 156.171875 C 79.722656 154.523438 81.824219 153.097656 84 151.972656 C 86.171875 150.773438 88.574219 149.875 90.898438 149.347656 C 93.296875 148.75 95.398438 148.523438 98.25 148.449219 C 102.148438 148.296875 106.199219 148.75 112.199219 149.421875 C 123.671875 150.625 149.921875 155.273438 161.699219 156.472656 C 168.222656 157.222656 172.949219 156.699219 177 157.597656 C 179.773438 158.273438 181.722656 159.171875 183.898438 160.375 C 186.074219 161.574219 188.097656 163.074219 189.972656 164.722656 C 191.773438 166.375 193.421875 168.324219 194.773438 170.421875 C 196.125 172.449219 197.25 174.699219 198.074219 177.023438 C 198.972656 179.347656 199.5 181.824219 199.722656 184.296875 C 200.023438 186.773438 199.949219 189.324219 199.648438 191.722656 C 199.273438 194.199219 198.597656 196.671875 197.699219 198.921875 C 196.796875 201.25 195.523438 203.5 194.097656 205.449219 C 192.671875 207.472656 190.949219 209.347656 189.074219 210.921875 C 187.199219 212.574219 185.097656 213.921875 182.847656 215.046875 C 180.671875 216.171875 178.273438 217 175.875 217.597656 C 173.472656 218.125 168.449219 218.347656 168.449219 218.347656 " clip-rule="nonzero"/></clipPath><clipPath id="42b08ef750"><path d="M 24.507812 117.691406 L 180.730469 117.691406 L 180.730469 186.640625 L 24.507812 186.640625 Z M 24.507812 117.691406 " clip-rule="nonzero"/></clipPath><clipPath id="71b3e932aa"><path d="M 24.597656 146.421875 C 24.597656 146.347656 25.199219 144.023438 25.5 142.824219 C 25.722656 141.625 26.324219 139.296875 26.324219 139.296875 C 26.398438 139.222656 27.449219 137.125 28.046875 136 C 28.648438 134.949219 29.699219 132.773438 29.773438 132.773438 C 29.773438 132.699219 31.347656 130.898438 32.171875 130 C 33 129.097656 34.574219 127.296875 34.648438 127.222656 C 34.648438 127.222656 36.671875 125.875 37.648438 125.199219 C 38.699219 124.449219 40.648438 123.097656 40.648438 123.097656 C 40.722656 123.023438 42.972656 122.199219 44.097656 121.75 C 45.296875 121.375 47.472656 120.472656 47.546875 120.472656 C 47.625 120.472656 50.023438 120.171875 51.222656 120.023438 C 52.421875 119.875 53.25 119.722656 54.824219 119.574219 C 57.972656 119.347656 63.449219 119.421875 68.773438 119.273438 C 76.046875 118.972656 85.949219 118.222656 94.5 118.074219 C 103.125 117.921875 115.125 117.847656 120.523438 118.375 C 123 118.597656 123.449219 118.972656 125.847656 119.421875 C 130.875 120.25 148.574219 122.949219 148.722656 123.023438 C 148.796875 123.023438 148.796875 123.023438 148.796875 123.023438 C 148.875 123.023438 151.199219 123.324219 152.398438 123.472656 C 153.597656 123.625 155.921875 123.921875 156 123.921875 C 156.074219 124 158.25 124.824219 159.375 125.273438 C 160.5 125.722656 162.75 126.625 162.75 126.625 C 162.824219 126.625 164.773438 128.046875 165.75 128.722656 C 166.722656 129.398438 168.671875 130.824219 168.75 130.824219 C 168.75 130.898438 170.324219 132.699219 171.148438 133.597656 C 171.898438 134.5 173.472656 136.296875 173.546875 136.375 C 173.546875 136.375 173.625 136.597656 173.699219 136.75 C 173.921875 137.125 174.523438 137.5 174.972656 138.171875 C 175.949219 139.597656 177.597656 142.449219 178.421875 144.773438 C 179.324219 147.097656 179.921875 149.574219 180.222656 151.972656 C 180.523438 154.449219 180.523438 157 180.222656 159.398438 C 179.921875 161.875 179.324219 164.347656 178.421875 166.597656 C 177.597656 168.921875 176.398438 171.171875 174.972656 173.199219 C 173.625 175.222656 171.898438 177.097656 170.097656 178.75 C 168.222656 180.398438 166.125 181.824219 163.949219 182.949219 C 161.773438 184.148438 159.375 185.046875 156.972656 185.574219 C 154.648438 186.171875 152.097656 186.472656 149.625 186.472656 C 147.148438 186.472656 144.824219 186.097656 142.273438 185.574219 C 139.421875 185.046875 137.023438 183.773438 133.273438 183.25 C 127.347656 182.421875 117.898438 182.796875 109.796875 182.722656 C 101.097656 182.574219 91.796875 183.097656 82.648438 182.722656 C 73.421875 182.421875 54.898438 180.546875 54.824219 180.546875 C 54.75 180.546875 52.421875 180.25 51.222656 180.097656 C 50.023438 179.949219 47.625 179.722656 47.546875 179.648438 C 47.472656 179.648438 45.296875 178.824219 44.097656 178.375 C 42.972656 177.921875 40.722656 177.097656 40.648438 177.097656 C 40.648438 177.023438 38.699219 175.671875 37.648438 175 C 36.671875 174.25 34.648438 172.898438 34.648438 172.898438 C 34.574219 172.824219 33 171.023438 32.171875 170.125 C 31.347656 169.222656 29.773438 167.421875 29.773438 167.421875 C 29.699219 167.347656 28.648438 165.25 28.046875 164.125 C 27.449219 163.074219 26.398438 160.898438 26.324219 160.898438 C 26.324219 160.824219 25.722656 158.5 25.5 157.296875 C 25.199219 156.097656 24.597656 153.773438 24.597656 153.773438 C 24.597656 153.699219 24.597656 151.296875 24.597656 150.097656 C 24.597656 148.824219 24.597656 146.421875 24.597656 146.421875 " clip-rule="nonzero"/></clipPath><clipPath id="5de45d283a"><path d="M 14.65625 167.140625 L 201.371094 167.140625 L 201.371094 234.832031 L 14.65625 234.832031 Z M 14.65625 167.140625 " clip-rule="nonzero"/></clipPath><clipPath id="d16393f1a3"><path d="M 171.148438 227.199219 C 134.773438 226.375 126.449219 226.523438 115.421875 227.347656 C 100.199219 228.398438 74.472656 232.296875 61.5 233.5 C 54.222656 234.171875 48.824219 234.773438 44.398438 234.699219 C 41.625 234.625 39.75 234.472656 37.5 234.023438 C 35.25 233.5 33 232.671875 30.898438 231.625 C 28.875 230.648438 26.847656 229.296875 25.125 227.796875 C 23.324219 226.296875 21.75 224.574219 20.398438 222.699219 C 19.046875 220.824219 17.847656 218.722656 17.023438 216.625 C 16.125 214.449219 15.523438 212.125 15.222656 209.875 C 14.847656 207.546875 14.847656 205.222656 15.074219 202.898438 C 15.296875 200.574219 15.824219 198.25 16.574219 196.074219 C 17.324219 193.898438 18.449219 191.796875 19.648438 189.847656 C 20.921875 187.898438 22.5 186.097656 24.222656 184.523438 C 25.875 182.949219 27.824219 181.597656 29.847656 180.472656 C 31.875 179.347656 32.847656 178.671875 36.296875 177.847656 C 48.597656 175 100.574219 173.722656 123 171.773438 C 137.324219 170.5 150.148438 168.171875 158.023438 168.023438 C 162.074219 168.023438 164.324219 168.097656 167.25 168.773438 C 170.171875 169.523438 173.171875 170.796875 175.722656 172.449219 C 178.347656 174.097656 180.75 176.199219 182.625 178.597656 C 184.574219 180.921875 186.148438 183.773438 187.199219 186.625 C 188.25 189.472656 188.847656 192.625 188.921875 195.699219 C 189 198.699219 188.625 201.921875 187.722656 204.847656 C 186.824219 207.773438 185.398438 210.699219 183.597656 213.097656 C 181.875 215.574219 179.546875 217.898438 177.074219 219.699219 C 174.597656 221.421875 171.75 222.921875 168.824219 223.824219 C 165.898438 224.648438 162.671875 225.097656 159.671875 225.023438 C 156.597656 224.949219 153.449219 224.347656 150.597656 223.296875 C 147.75 222.25 144.898438 220.671875 142.574219 218.796875 C 140.171875 216.847656 138 214.449219 136.347656 211.898438 C 134.699219 209.347656 133.421875 206.347656 132.75 203.421875 C 132 200.5 131.699219 197.273438 131.921875 194.199219 C 132.222656 191.199219 132.972656 188.046875 134.171875 185.273438 C 135.375 182.5 137.097656 179.722656 139.125 177.472656 C 141.148438 175.222656 143.699219 173.199219 146.324219 171.699219 C 148.949219 170.199219 152.023438 169.074219 155.023438 168.472656 C 157.949219 167.875 161.25 167.796875 164.25 168.25 C 167.25 168.625 170.324219 169.597656 173.097656 170.949219 C 175.796875 172.296875 178.421875 174.171875 180.597656 176.273438 C 182.699219 178.449219 184.648438 181.074219 186 183.773438 C 187.347656 186.546875 188.25 189.625 188.699219 192.625 C 189.074219 195.625 189 198.847656 188.472656 201.847656 C 187.875 204.847656 186.75 207.847656 185.25 210.546875 C 183.75 213.171875 181.722656 215.722656 179.472656 217.75 C 177.222656 219.773438 174.523438 221.5 171.75 222.699219 C 168.898438 223.898438 167.324219 224.199219 162.75 224.949219 C 148.421875 227.347656 94.199219 231.097656 72.597656 232.75 C 60.597656 233.648438 50.625 234.773438 44.398438 234.699219 C 41.324219 234.625 39.75 234.472656 37.5 234.023438 C 35.25 233.5 33 232.671875 30.898438 231.625 C 28.875 230.648438 26.847656 229.296875 25.125 227.796875 C 23.324219 226.296875 21.75 224.574219 20.398438 222.699219 C 19.046875 220.824219 17.847656 218.722656 17.023438 216.625 C 16.125 214.449219 15.523438 212.125 15.222656 209.875 C 14.847656 207.625 14.847656 205.222656 15.074219 202.898438 C 15.296875 200.574219 15.824219 198.25 16.574219 196.074219 C 17.324219 193.898438 18.449219 191.796875 19.648438 189.847656 C 20.921875 187.972656 22.5 186.097656 24.222656 184.523438 C 25.875 182.949219 27.824219 181.597656 29.847656 180.472656 C 31.875 179.347656 32.847656 178.75 36.296875 177.847656 C 47.625 175.074219 87.824219 171.699219 111.523438 169.898438 C 132.523438 168.324219 160.949219 166.898438 171.148438 167.273438 C 174.75 167.421875 176.023438 167.574219 178.347656 168.171875 C 180.671875 168.699219 183 169.597656 185.097656 170.722656 C 187.199219 171.847656 189.296875 173.199219 191.023438 174.773438 C 192.824219 176.421875 194.472656 178.222656 195.824219 180.25 C 197.171875 182.199219 198.375 184.375 199.199219 186.625 C 200.023438 188.875 200.625 191.273438 200.921875 193.671875 C 201.222656 196 201.222656 198.472656 200.921875 200.875 C 200.625 203.273438 200.023438 205.671875 199.199219 207.847656 C 198.375 210.097656 197.171875 212.347656 195.824219 214.296875 C 194.472656 216.25 192.824219 218.125 191.023438 219.699219 C 189.222656 221.273438 187.199219 222.699219 185.097656 223.824219 C 183 224.875 180.671875 225.773438 178.347656 226.375 C 176.023438 226.898438 171.148438 227.199219 171.148438 227.199219 " clip-rule="nonzero"/></clipPath></defs><rect x="-37.5" width="450" fill="#ffffff" y="-37.499999" height="449.999989" fill-opacity="1"/><rect x="-37.5" width="450" fill="#ffffff" y="-37.499999" height="449.999989" fill-opacity="1"/><g clip-path="url(#c2f03e7e0c)"><g clip-path="url(#7ab0837bfc)"><path fill="#fff8ef" d="M 235.5 331.949219 L 257.175781 331.949219 L 257.175781 353.625 L 235.5 353.625 Z M 235.5 331.949219 " fill-opacity="1" fill-rule="nonzero"/></g></g><g clip-path="url(#bca631974a)"><path fill="#f38814" d="M 100.261719 110.722656 L 272.046875 110.722656 L 272.046875 126.101562 C 272.046875 127.300781 272.980469 128.289062 274.175781 128.359375 C 292.816406 129.460938 307.953125 143.703125 310.167969 162.222656 C 312.6875 183.304688 297.582031 202.503906 276.5 205.023438 L 264.527344 206.457031 C 263.773438 206.546875 263.121094 207 262.777344 207.675781 C 247.964844 236.792969 218.605469 254.882812 186.152344 254.882812 C 138.792969 254.882812 100.261719 216.351562 100.261719 168.992188 Z M 186.152344 259.40625 C 203.109375 259.40625 219.667969 254.628906 234.039062 245.589844 C 247.664062 237.019531 258.78125 225.007812 266.25 210.800781 L 277.035156 209.515625 C 300.59375 206.699219 317.472656 185.242188 314.660156 161.683594 C 312.269531 141.699219 296.414062 126.175781 276.566406 124.023438 L 276.566406 108.460938 C 276.566406 107.210938 275.507812 106.199219 274.257812 106.199219 L 98 106.199219 C 96.75 106.199219 95.738281 107.210938 95.738281 108.460938 L 95.738281 168.992188 C 95.738281 218.847656 136.296875 259.40625 186.152344 259.40625 " fill-opacity="1" fill-rule="nonzero"/></g><path fill="#f38814" d="M 276.566406 139.917969 C 287.835938 142.617188 296.402344 152.066406 297.792969 163.699219 C 298.671875 171.066406 296.609375 178.363281 291.988281 184.238281 C 287.367188 190.121094 280.761719 193.839844 273.394531 194.71875 L 273.390625 194.71875 L 272.789062 194.792969 C 275.296875 186.433594 276.566406 177.773438 276.566406 168.992188 Z M 269.558594 199.71875 C 269.648438 199.71875 269.738281 199.710938 269.828125 199.703125 L 273.929688 199.210938 C 282.496094 198.1875 290.171875 193.863281 295.542969 187.035156 C 300.910156 180.210938 303.304688 171.730469 302.28125 163.164062 C 300.546875 148.625 289.171875 137.023438 274.625 134.949219 C 273.972656 134.851562 273.320312 135.050781 272.824219 135.480469 C 272.328125 135.90625 272.046875 136.53125 272.046875 137.1875 L 272.046875 168.992188 C 272.1875 177.53125 270.488281 187.796875 267.421875 196.722656 C 267.167969 197.457031 267.3125 198.269531 267.800781 198.875 C 268.234375 199.414062 268.878906 199.71875 269.558594 199.71875 " fill-opacity="1" fill-rule="nonzero"/><g clip-path="url(#9599fc8fac)"><g clip-path="url(#b856960a46)"><path fill="#fff8ef" d="M 43.046875 132.773438 L 205.527344 132.773438 L 205.527344 203.273438 L 43.046875 203.273438 Z M 43.046875 132.773438 " fill-opacity="1" fill-rule="nonzero"/></g></g><g clip-path="url(#3ea291e756)"><g clip-path="url(#585222c1db)"><path fill="#fff8ef" d="M 68.847656 128.273438 L 198.519531 128.273438 L 198.519531 206.199219 L 68.847656 206.199219 Z M 68.847656 128.273438 " fill-opacity="1" fill-rule="nonzero"/></g></g><g clip-path="url(#9fdbdec85d)"><g clip-path="url(#cc7a2b2f05)"><path fill="#fff8ef" d="M 64.796875 144.25 L 202.734375 144.25 L 202.734375 221.347656 L 64.796875 221.347656 Z M 64.796875 144.25 " fill-opacity="1" fill-rule="nonzero"/></g></g><g clip-path="url(#42b08ef750)"><g clip-path="url(#71b3e932aa)"><path fill="#fff8ef" d="M 21.597656 115.074219 L 183.347656 115.074219 L 183.347656 189.546875 L 21.597656 189.546875 Z M 21.597656 115.074219 " fill-opacity="1" fill-rule="nonzero"/></g></g><g clip-path="url(#5de45d283a)"><g clip-path="url(#d16393f1a3)"><path fill="#fff8ef" d="M 12.074219 164.273438 L 203.953125 164.273438 L 203.953125 237.699219 L 12.074219 237.699219 Z M 12.074219 164.273438 " fill-opacity="1" fill-rule="nonzero"/></g></g><g fill="#718200" fill-opacity="1"><g transform="translate(95.58415, 228.362459)"><g><path d="M 35.96875 -30.21875 C 36.019531 -27.03125 36.054688 -23.847656 36.078125 -20.671875 C 36.109375 -17.503906 36.125 -14.320312 36.125 -11.125 C 36.125 -10.34375 35.816406 -9.816406 35.203125 -9.546875 C 34.585938 -9.273438 33.957031 -9.273438 33.3125 -9.546875 C 32.675781 -9.816406 32.359375 -10.34375 32.359375 -11.125 C 32.359375 -14.519531 32.359375 -17.925781 32.359375 -21.34375 C 32.359375 -24.757812 32.3125 -28.1875 32.21875 -31.625 C 32.164062 -32.5625 32.101562 -33.703125 32.03125 -35.046875 C 31.957031 -36.398438 31.695312 -37.65625 31.25 -38.8125 C 30.8125 -39.96875 30.023438 -40.765625 28.890625 -41.203125 C 27.273438 -41.742188 25.953125 -41.65625 24.921875 -40.9375 C 23.890625 -40.226562 23.101562 -39.195312 22.5625 -37.84375 C 22.019531 -36.5 21.675781 -35.210938 21.53125 -33.984375 C 21.53125 -33.835938 21.503906 -33.691406 21.453125 -33.546875 C 21.453125 -32.953125 21.460938 -32.375 21.484375 -31.8125 C 21.515625 -31.25 21.53125 -30.71875 21.53125 -30.21875 C 21.570312 -27.03125 21.59375 -23.847656 21.59375 -20.671875 C 21.59375 -17.503906 21.59375 -14.320312 21.59375 -11.125 C 21.59375 -10.34375 21.285156 -9.816406 20.671875 -9.546875 C 20.054688 -9.273438 19.429688 -9.273438 18.796875 -9.546875 C 18.160156 -9.816406 17.84375 -10.34375 17.84375 -11.125 C 17.84375 -14.519531 17.851562 -17.925781 17.875 -21.34375 C 17.894531 -24.757812 17.832031 -28.1875 17.6875 -31.625 C 17.6875 -32.5625 17.648438 -33.703125 17.578125 -35.046875 C 17.503906 -36.398438 17.242188 -37.65625 16.796875 -38.8125 C 16.359375 -39.96875 15.578125 -40.765625 14.453125 -41.203125 C 12.773438 -41.742188 11.429688 -41.644531 10.421875 -40.90625 C 9.421875 -40.175781 8.660156 -39.144531 8.140625 -37.8125 C 7.628906 -36.488281 7.320312 -35.1875 7.21875 -33.90625 C 7.21875 -33.8125 7.195312 -33.691406 7.15625 -33.546875 C 7.195312 -29.804688 7.191406 -26.066406 7.140625 -22.328125 C 7.097656 -18.597656 6.976562 -14.863281 6.78125 -11.125 C 6.78125 -10.34375 6.457031 -9.816406 5.8125 -9.546875 C 5.175781 -9.273438 4.550781 -9.273438 3.9375 -9.546875 C 3.320312 -9.816406 3.015625 -10.34375 3.015625 -11.125 C 3.265625 -16.53125 3.390625 -21.9375 3.390625 -27.34375 C 3.390625 -32.75 3.316406 -38.15625 3.171875 -43.5625 C 3.171875 -44.40625 3.476562 -44.957031 4.09375 -45.21875 C 4.707031 -45.488281 5.332031 -45.488281 5.96875 -45.21875 C 6.601562 -44.957031 6.921875 -44.40625 6.921875 -43.5625 C 6.921875 -43.519531 6.921875 -43.445312 6.921875 -43.34375 C 6.921875 -43.25 6.921875 -43.148438 6.921875 -43.046875 C 7.367188 -43.441406 7.8125 -43.765625 8.25 -44.015625 C 9.78125 -44.898438 11.578125 -45.28125 13.640625 -45.15625 C 15.703125 -45.03125 17.375 -44.28125 18.65625 -42.90625 C 19.09375 -42.414062 19.484375 -41.828125 19.828125 -41.140625 C 20.222656 -41.722656 20.65625 -42.257812 21.125 -42.75 C 21.59375 -43.25 22.117188 -43.671875 22.703125 -44.015625 C 24.273438 -44.898438 26.09375 -45.28125 28.15625 -45.15625 C 30.21875 -45.03125 31.890625 -44.28125 33.171875 -42.90625 C 34.109375 -41.875 34.769531 -40.617188 35.15625 -39.140625 C 35.550781 -37.671875 35.785156 -36.148438 35.859375 -34.578125 C 35.929688 -33.003906 35.96875 -31.550781 35.96875 -30.21875 Z M 35.96875 -30.21875 "/></g></g></g><g fill="#718200" fill-opacity="1"><g transform="translate(134.804606, 228.362459)"><g><path d="M 26.53125 -29.484375 C 26.582031 -26.441406 26.632812 -23.382812 26.6875 -20.3125 C 26.738281 -17.238281 26.785156 -14.175781 26.828125 -11.125 C 26.828125 -10.289062 26.519531 -9.738281 25.90625 -9.46875 C 25.289062 -9.195312 24.664062 -9.195312 24.03125 -9.46875 C 23.394531 -9.738281 23.078125 -10.289062 23.078125 -11.125 C 23.078125 -11.375 23.078125 -11.644531 23.078125 -11.9375 C 23.078125 -12.238281 23.078125 -12.507812 23.078125 -12.75 C 21.898438 -11.664062 20.523438 -10.84375 18.953125 -10.28125 C 17.378906 -9.71875 15.707031 -9.460938 13.9375 -9.515625 C 11.914062 -9.609375 10.109375 -10.195312 8.515625 -11.28125 C 6.921875 -12.363281 5.644531 -13.765625 4.6875 -15.484375 C 3.726562 -17.203125 3.195312 -19.046875 3.09375 -21.015625 C 2.945312 -23.078125 3.289062 -25.003906 4.125 -26.796875 C 4.957031 -28.585938 6.160156 -30.070312 7.734375 -31.25 C 9.304688 -32.4375 11.128906 -33.175781 13.203125 -33.46875 C 14.960938 -33.71875 16.675781 -33.535156 18.34375 -32.921875 C 20.019531 -32.304688 21.5 -31.429688 22.78125 -30.296875 C 22.726562 -30.742188 22.703125 -31.1875 22.703125 -31.625 C 22.703125 -32.0625 22.703125 -32.503906 22.703125 -32.953125 C 22.609375 -35.015625 22.15625 -36.832031 21.34375 -38.40625 C 20.53125 -39.976562 19.066406 -41.082031 16.953125 -41.71875 C 15.085938 -42.257812 13.179688 -42.25 11.234375 -41.6875 C 9.296875 -41.125 7.765625 -40.03125 6.640625 -38.40625 C 6.191406 -37.71875 5.625 -37.421875 4.9375 -37.515625 C 4.25 -37.617188 3.707031 -37.941406 3.3125 -38.484375 C 2.925781 -39.023438 2.953125 -39.613281 3.390625 -40.25 C 4.523438 -41.914062 5.953125 -43.21875 7.671875 -44.15625 C 9.390625 -45.09375 11.21875 -45.644531 13.15625 -45.8125 C 15.101562 -45.988281 16.992188 -45.742188 18.828125 -45.078125 C 20.671875 -44.410156 22.28125 -43.34375 23.65625 -41.875 C 24.695312 -40.738281 25.398438 -39.484375 25.765625 -38.109375 C 26.128906 -36.734375 26.335938 -35.304688 26.390625 -33.828125 C 26.441406 -32.359375 26.488281 -30.910156 26.53125 -29.484375 Z M 6.859375 -21.015625 C 7.003906 -19.046875 7.566406 -17.46875 8.546875 -16.28125 C 9.535156 -15.101562 10.738281 -14.296875 12.15625 -13.859375 C 13.582031 -13.421875 15.046875 -13.347656 16.546875 -13.640625 C 18.046875 -13.929688 19.375 -14.601562 20.53125 -15.65625 C 21.6875 -16.71875 22.484375 -18.160156 22.921875 -19.984375 C 22.921875 -20.367188 22.921875 -20.769531 22.921875 -21.1875 C 22.921875 -21.613281 22.921875 -22.046875 22.921875 -22.484375 C 22.878906 -22.535156 22.878906 -22.535156 22.921875 -22.484375 C 22.578125 -24.492188 21.789062 -26.0625 20.5625 -27.1875 C 19.332031 -28.320312 17.921875 -29.035156 16.328125 -29.328125 C 14.734375 -29.628906 13.1875 -29.507812 11.6875 -28.96875 C 10.1875 -28.425781 8.96875 -27.492188 8.03125 -26.171875 C 7.101562 -24.847656 6.710938 -23.128906 6.859375 -21.015625 Z M 6.859375 -21.015625 "/></g></g></g><g fill="#718200" fill-opacity="1"><g transform="translate(164.736009, 228.362459)"><g><path d="M 35.96875 -30.21875 C 36.019531 -27.03125 36.054688 -23.847656 36.078125 -20.671875 C 36.109375 -17.503906 36.125 -14.320312 36.125 -11.125 C 36.125 -10.34375 35.816406 -9.816406 35.203125 -9.546875 C 34.585938 -9.273438 33.957031 -9.273438 33.3125 -9.546875 C 32.675781 -9.816406 32.359375 -10.34375 32.359375 -11.125 C 32.359375 -14.519531 32.359375 -17.925781 32.359375 -21.34375 C 32.359375 -24.757812 32.3125 -28.1875 32.21875 -31.625 C 32.164062 -32.5625 32.101562 -33.703125 32.03125 -35.046875 C 31.957031 -36.398438 31.695312 -37.65625 31.25 -38.8125 C 30.8125 -39.96875 30.023438 -40.765625 28.890625 -41.203125 C 27.273438 -41.742188 25.953125 -41.65625 24.921875 -40.9375 C 23.890625 -40.226562 23.101562 -39.195312 22.5625 -37.84375 C 22.019531 -36.5 21.675781 -35.210938 21.53125 -33.984375 C 21.53125 -33.835938 21.503906 -33.691406 21.453125 -33.546875 C 21.453125 -32.953125 21.460938 -32.375 21.484375 -31.8125 C 21.515625 -31.25 21.53125 -30.71875 21.53125 -30.21875 C 21.570312 -27.03125 21.59375 -23.847656 21.59375 -20.671875 C 21.59375 -17.503906 21.59375 -14.320312 21.59375 -11.125 C 21.59375 -10.34375 21.285156 -9.816406 20.671875 -9.546875 C 20.054688 -9.273438 19.429688 -9.273438 18.796875 -9.546875 C 18.160156 -9.816406 17.84375 -10.34375 17.84375 -11.125 C 17.84375 -14.519531 17.851562 -17.925781 17.875 -21.34375 C 17.894531 -24.757812 17.832031 -28.1875 17.6875 -31.625 C 17.6875 -32.5625 17.648438 -33.703125 17.578125 -35.046875 C 17.503906 -36.398438 17.242188 -37.65625 16.796875 -38.8125 C 16.359375 -39.96875 15.578125 -40.765625 14.453125 -41.203125 C 12.773438 -41.742188 11.429688 -41.644531 10.421875 -40.90625 C 9.421875 -40.175781 8.660156 -39.144531 8.140625 -37.8125 C 7.628906 -36.488281 7.320312 -35.1875 7.21875 -33.90625 C 7.21875 -33.8125 7.195312 -33.691406 7.15625 -33.546875 C 7.195312 -29.804688 7.191406 -26.066406 7.140625 -22.328125 C 7.097656 -18.597656 6.976562 -14.863281 6.78125 -11.125 C 6.78125 -10.34375 6.457031 -9.816406 5.8125 -9.546875 C 5.175781 -9.273438 4.550781 -9.273438 3.9375 -9.546875 C 3.320312 -9.816406 3.015625 -10.34375 3.015625 -11.125 C 3.265625 -16.53125 3.390625 -21.9375 3.390625 -27.34375 C 3.390625 -32.75 3.316406 -38.15625 3.171875 -43.5625 C 3.171875 -44.40625 3.476562 -44.957031 4.09375 -45.21875 C 4.707031 -45.488281 5.332031 -45.488281 5.96875 -45.21875 C 6.601562 -44.957031 6.921875 -44.40625 6.921875 -43.5625 C 6.921875 -43.519531 6.921875 -43.445312 6.921875 -43.34375 C 6.921875 -43.25 6.921875 -43.148438 6.921875 -43.046875 C 7.367188 -43.441406 7.8125 -43.765625 8.25 -44.015625 C 9.78125 -44.898438 11.578125 -45.28125 13.640625 -45.15625 C 15.703125 -45.03125 17.375 -44.28125 18.65625 -42.90625 C 19.09375 -42.414062 19.484375 -41.828125 19.828125 -41.140625 C 20.222656 -41.722656 20.65625 -42.257812 21.125 -42.75 C 21.59375 -43.25 22.117188 -43.671875 22.703125 -44.015625 C 24.273438 -44.898438 26.09375 -45.28125 28.15625 -45.15625 C 30.21875 -45.03125 31.890625 -44.28125 33.171875 -42.90625 C 34.109375 -41.875 34.769531 -40.617188 35.15625 -39.140625 C 35.550781 -37.671875 35.785156 -36.148438 35.859375 -34.578125 C 35.929688 -33.003906 35.96875 -31.550781 35.96875 -30.21875 Z M 35.96875 -30.21875 "/></g></g></g><g fill="#718200" fill-opacity="1"><g transform="translate(203.956465, 228.362459)"><g><path d="M 22.5625 -43.78125 C 22.601562 -44.570312 22.929688 -45.101562 23.546875 -45.375 C 24.160156 -45.644531 24.785156 -45.644531 25.421875 -45.375 C 26.066406 -45.101562 26.363281 -44.570312 26.3125 -43.78125 C 26.269531 -40.144531 26.207031 -36.507812 26.125 -32.875 C 26.050781 -29.238281 25.992188 -25.601562 25.953125 -21.96875 C 25.898438 -20.644531 25.835938 -19.304688 25.765625 -17.953125 C 25.691406 -16.597656 25.394531 -15.332031 24.875 -14.15625 C 24.363281 -12.976562 23.492188 -11.992188 22.265625 -11.203125 C 21.128906 -10.515625 19.765625 -10 18.171875 -9.65625 C 16.578125 -9.3125 14.929688 -9.1875 13.234375 -9.28125 C 11.535156 -9.382812 9.945312 -9.726562 8.46875 -10.3125 C 7 -10.90625 5.796875 -11.742188 4.859375 -12.828125 C 3.929688 -13.910156 3.46875 -15.285156 3.46875 -16.953125 C 3.46875 -17.785156 3.773438 -18.335938 4.390625 -18.609375 C 5.003906 -18.878906 5.628906 -18.878906 6.265625 -18.609375 C 6.898438 -18.335938 7.21875 -17.785156 7.21875 -16.953125 C 7.21875 -16.015625 7.550781 -15.273438 8.21875 -14.734375 C 8.882812 -14.203125 9.695312 -13.820312 10.65625 -13.59375 C 11.613281 -13.375 12.59375 -13.253906 13.59375 -13.234375 C 14.601562 -13.210938 15.453125 -13.222656 16.140625 -13.265625 C 18.015625 -13.410156 19.453125 -13.925781 20.453125 -14.8125 C 21.460938 -15.695312 22.015625 -17.097656 22.109375 -19.015625 C 22.160156 -20.492188 22.210938 -21.96875 22.265625 -23.4375 C 22.316406 -24.914062 22.363281 -26.390625 22.40625 -27.859375 C 20.9375 -26.679688 19.21875 -25.894531 17.25 -25.5 C 15.28125 -25.113281 13.316406 -25.210938 11.359375 -25.796875 C 9.191406 -26.390625 7.539062 -27.320312 6.40625 -28.59375 C 5.28125 -29.875 4.492188 -31.347656 4.046875 -33.015625 C 3.609375 -34.691406 3.351562 -36.460938 3.28125 -38.328125 C 3.207031 -40.203125 3.117188 -42.070312 3.015625 -43.9375 C 3.015625 -44.71875 3.320312 -45.242188 3.9375 -45.515625 C 4.550781 -45.785156 5.175781 -45.785156 5.8125 -45.515625 C 6.457031 -45.242188 6.78125 -44.71875 6.78125 -43.9375 C 6.832031 -42.3125 6.859375 -40.578125 6.859375 -38.734375 C 6.859375 -36.890625 7.128906 -35.179688 7.671875 -33.609375 C 8.210938 -32.035156 9.316406 -30.832031 10.984375 -30 C 12.554688 -29.164062 14.164062 -28.847656 15.8125 -29.046875 C 17.457031 -29.242188 18.894531 -29.878906 20.125 -30.953125 C 21.351562 -32.035156 22.113281 -33.460938 22.40625 -35.234375 C 22.40625 -35.378906 22.429688 -35.503906 22.484375 -35.609375 C 22.484375 -36.984375 22.492188 -38.34375 22.515625 -39.6875 C 22.546875 -41.039062 22.5625 -42.40625 22.5625 -43.78125 Z M 22.5625 -43.78125 "/></g></g></g><g fill="#4b1b0c" fill-opacity="1"><g transform="translate(59.440858, 175.360636)"><g><path d="M 28.609375 -3.171875 C 29.148438 -2.578125 29.285156 -1.960938 29.015625 -1.328125 C 28.742188 -0.691406 28.300781 -0.25 27.6875 0 C 27.070312 0.25 26.492188 0.078125 25.953125 -0.515625 C 22.710938 -4.203125 19.59375 -8.007812 16.59375 -11.9375 C 13.59375 -15.875 10.492188 -19.6875 7.296875 -23.375 C 7.242188 -19.78125 7.179688 -16.1875 7.109375 -12.59375 C 7.035156 -9.007812 6.925781 -5.425781 6.78125 -1.84375 C 6.78125 -1.050781 6.457031 -0.519531 5.8125 -0.25 C 5.175781 0.0078125 4.550781 0.0078125 3.9375 -0.25 C 3.320312 -0.519531 3.015625 -1.050781 3.015625 -1.84375 C 3.367188 -10.300781 3.53125 -18.734375 3.5 -27.140625 C 3.476562 -35.546875 3.367188 -43.972656 3.171875 -52.421875 C 3.171875 -53.210938 3.476562 -53.742188 4.09375 -54.015625 C 4.707031 -54.285156 5.332031 -54.285156 5.96875 -54.015625 C 6.613281 -53.742188 6.9375 -53.210938 6.9375 -52.421875 C 7.03125 -48.785156 7.097656 -45.148438 7.140625 -41.515625 C 7.191406 -37.878906 7.242188 -34.238281 7.296875 -30.59375 C 10.640625 -33.988281 13.867188 -37.601562 16.984375 -41.4375 C 20.109375 -45.269531 22.953125 -49.15625 25.515625 -53.09375 C 25.953125 -53.78125 26.515625 -54.070312 27.203125 -53.96875 C 27.890625 -53.875 28.429688 -53.554688 28.828125 -53.015625 C 29.222656 -52.472656 29.195312 -51.859375 28.75 -51.171875 C 26 -46.941406 22.941406 -42.75 19.578125 -38.59375 C 16.210938 -34.445312 12.6875 -30.601562 9 -27.0625 C 9.144531 -26.957031 9.265625 -26.859375 9.359375 -26.765625 C 12.703125 -22.929688 15.910156 -19 18.984375 -14.96875 C 22.054688 -10.9375 25.265625 -7.003906 28.609375 -3.171875 Z M 28.609375 -3.171875 "/></g></g></g><g fill="#4b1b0c" fill-opacity="1"><g transform="translate(91.586268, 175.360636)"><g><path d="M 24.546875 -20.28125 C 24.546875 -20.28125 24.546875 -20.253906 24.546875 -20.203125 C 24.597656 -17.304688 24.675781 -14.332031 24.78125 -11.28125 C 24.78125 -10.5 24.472656 -9.972656 23.859375 -9.703125 C 23.242188 -9.429688 22.613281 -9.429688 21.96875 -9.703125 C 21.332031 -9.972656 21.015625 -10.5 21.015625 -11.28125 C 21.015625 -11.375 21 -11.46875 20.96875 -11.5625 C 20.945312 -11.664062 20.9375 -11.769531 20.9375 -11.875 C 20.394531 -11.382812 19.78125 -10.96875 19.09375 -10.625 C 17.863281 -10.03125 16.5 -9.632812 15 -9.4375 C 13.5 -9.238281 12.007812 -9.285156 10.53125 -9.578125 C 9.0625 -9.878906 7.8125 -10.492188 6.78125 -11.421875 C 5.601562 -12.460938 4.78125 -13.742188 4.3125 -15.265625 C 3.84375 -16.785156 3.546875 -18.378906 3.421875 -20.046875 C 3.304688 -21.722656 3.222656 -23.273438 3.171875 -24.703125 C 3.117188 -27.847656 3.09375 -31.015625 3.09375 -34.203125 C 3.09375 -37.398438 3.066406 -40.570312 3.015625 -43.71875 C 3.015625 -44.5625 3.332031 -45.113281 3.96875 -45.375 C 4.613281 -45.644531 5.242188 -45.644531 5.859375 -45.375 C 6.472656 -45.113281 6.78125 -44.5625 6.78125 -43.71875 C 6.832031 -40.082031 6.820312 -36.394531 6.75 -32.65625 C 6.675781 -28.925781 6.785156 -25.242188 7.078125 -21.609375 C 7.171875 -20.035156 7.425781 -18.582031 7.84375 -17.25 C 8.269531 -15.925781 8.972656 -14.867188 9.953125 -14.078125 C 10.929688 -13.296875 12.332031 -12.976562 14.15625 -13.125 C 16.175781 -13.269531 17.722656 -13.941406 18.796875 -15.140625 C 19.878906 -16.347656 20.546875 -17.910156 20.796875 -19.828125 C 20.796875 -19.734375 20.796875 -19.757812 20.796875 -19.90625 C 20.742188 -23.882812 20.726562 -27.863281 20.75 -31.84375 C 20.78125 -35.832031 20.894531 -39.789062 21.09375 -43.71875 C 21.132812 -44.5625 21.472656 -45.113281 22.109375 -45.375 C 22.753906 -45.644531 23.382812 -45.644531 24 -45.375 C 24.613281 -45.113281 24.894531 -44.5625 24.84375 -43.71875 C 24.695312 -39.84375 24.597656 -35.9375 24.546875 -32 C 24.503906 -28.070312 24.503906 -24.164062 24.546875 -20.28125 Z M 24.546875 -20.28125 "/></g></g></g><g fill="#4b1b0c" fill-opacity="1"><g transform="translate(119.529178, 175.360636)"><g><path d="M 19.03125 -28.3125 C 21.1875 -27.769531 23.015625 -26.832031 24.515625 -25.5 C 26.015625 -24.175781 26.640625 -22.210938 26.390625 -19.609375 C 26.242188 -17.796875 25.640625 -16.257812 24.578125 -15 C 23.523438 -13.75 22.203125 -12.726562 20.609375 -11.9375 C 19.015625 -11.15625 17.28125 -10.566406 15.40625 -10.171875 C 13.539062 -9.773438 11.707031 -9.515625 9.90625 -9.390625 C 8.113281 -9.273438 6.507812 -9.265625 5.09375 -9.359375 C 4.59375 -9.316406 4.144531 -9.441406 3.75 -9.734375 C 3.363281 -10.023438 3.171875 -10.492188 3.171875 -11.140625 C 3.171875 -11.140625 3.171875 -11.148438 3.171875 -11.171875 C 3.171875 -11.191406 3.171875 -11.203125 3.171875 -11.203125 C 3.171875 -11.304688 3.171875 -11.40625 3.171875 -11.5 C 3.460938 -22.21875 3.410156 -32.9375 3.015625 -43.65625 C 3.015625 -44.382812 3.335938 -44.898438 3.984375 -45.203125 C 4.273438 -45.398438 4.59375 -45.5 4.9375 -45.5 C 6.5625 -45.539062 8.394531 -45.523438 10.4375 -45.453125 C 12.476562 -45.378906 14.46875 -45.117188 16.40625 -44.671875 C 18.34375 -44.234375 20 -43.4375 21.375 -42.28125 C 22.757812 -41.125 23.597656 -39.441406 23.890625 -37.234375 C 24.179688 -35.171875 23.847656 -33.398438 22.890625 -31.921875 C 21.929688 -30.453125 20.644531 -29.25 19.03125 -28.3125 Z M 19.609375 -38.34375 C 18.867188 -39.570312 17.773438 -40.429688 16.328125 -40.921875 C 14.878906 -41.410156 13.304688 -41.691406 11.609375 -41.765625 C 9.910156 -41.835938 8.328125 -41.851562 6.859375 -41.8125 C 7.003906 -37.582031 7.078125 -33.378906 7.078125 -29.203125 C 7.128906 -29.203125 7.15625 -29.203125 7.15625 -29.203125 C 7.445312 -29.203125 7.738281 -29.203125 8.03125 -29.203125 C 8.332031 -29.203125 8.65625 -29.203125 9 -29.203125 C 10.226562 -29.242188 11.429688 -29.398438 12.609375 -29.671875 C 13.785156 -29.941406 14.914062 -30.347656 16 -30.890625 C 16.882812 -31.378906 17.71875 -32.003906 18.5 -32.765625 C 19.289062 -33.535156 19.832031 -34.398438 20.125 -35.359375 C 20.425781 -36.316406 20.253906 -37.3125 19.609375 -38.34375 Z M 22.34375 -18.875 C 22.925781 -20.394531 22.910156 -21.597656 22.296875 -22.484375 C 21.691406 -23.367188 20.722656 -24.03125 19.390625 -24.46875 C 18.066406 -24.914062 16.617188 -25.203125 15.046875 -25.328125 C 13.472656 -25.453125 11.957031 -25.5 10.5 -25.46875 C 9.050781 -25.445312 7.9375 -25.4375 7.15625 -25.4375 C 7.15625 -21.3125 7.101562 -17.179688 7 -13.046875 C 8.332031 -13.003906 9.785156 -13.039062 11.359375 -13.15625 C 12.929688 -13.28125 14.453125 -13.550781 15.921875 -13.96875 C 17.398438 -14.382812 18.71875 -14.984375 19.875 -15.765625 C 21.03125 -16.554688 21.851562 -17.59375 22.34375 -18.875 Z M 22.34375 -18.875 "/></g></g></g><g fill="#4b1b0c" fill-opacity="1"><g transform="translate(149.094123, 175.360636)"><g><path d="M 26.109375 -12.46875 C 26.742188 -11.96875 26.9375 -11.410156 26.6875 -10.796875 C 26.445312 -10.179688 25.992188 -9.738281 25.328125 -9.46875 C 24.660156 -9.195312 24.035156 -9.3125 23.453125 -9.8125 C 20.648438 -12.113281 17.929688 -14.503906 15.296875 -16.984375 C 12.671875 -19.472656 9.976562 -21.875 7.21875 -24.1875 C 7.175781 -22.019531 7.128906 -19.84375 7.078125 -17.65625 C 7.023438 -15.46875 6.925781 -13.296875 6.78125 -11.140625 C 6.78125 -10.347656 6.457031 -9.816406 5.8125 -9.546875 C 5.175781 -9.273438 4.550781 -9.273438 3.9375 -9.546875 C 3.320312 -9.816406 3.015625 -10.347656 3.015625 -11.140625 C 3.316406 -16.546875 3.46875 -21.953125 3.46875 -27.359375 C 3.46875 -32.765625 3.367188 -38.171875 3.171875 -43.578125 C 3.171875 -44.410156 3.476562 -44.960938 4.09375 -45.234375 C 4.707031 -45.503906 5.332031 -45.503906 5.96875 -45.234375 C 6.613281 -44.960938 6.9375 -44.410156 6.9375 -43.578125 C 7.03125 -41.410156 7.097656 -39.222656 7.140625 -37.015625 C 7.191406 -34.804688 7.21875 -32.59375 7.21875 -30.375 C 13.125 -34.65625 18.484375 -39.445312 23.296875 -44.75 C 23.835938 -45.34375 24.425781 -45.515625 25.0625 -45.265625 C 25.707031 -45.023438 26.148438 -44.582031 26.390625 -43.9375 C 26.640625 -43.300781 26.492188 -42.691406 25.953125 -42.109375 C 23.546875 -39.398438 20.914062 -36.789062 18.0625 -34.28125 C 15.207031 -31.78125 12.304688 -29.445312 9.359375 -27.28125 C 12.210938 -24.925781 14.988281 -22.457031 17.6875 -19.875 C 20.394531 -17.289062 23.203125 -14.820312 26.109375 -12.46875 Z M 26.109375 -12.46875 "/></g></g></g><g fill="#4b1b0c" fill-opacity="1"><g transform="translate(178.880272, 175.360636)"><g><path d="M 6.9375 -34.875 C 7.082031 -30.894531 7.15625 -26.925781 7.15625 -22.96875 C 7.15625 -19.007812 7.03125 -15.066406 6.78125 -11.140625 C 6.78125 -10.296875 6.445312 -9.738281 5.78125 -9.46875 C 5.125 -9.195312 4.5 -9.195312 3.90625 -9.46875 C 3.3125 -9.738281 3.015625 -10.296875 3.015625 -11.140625 C 3.265625 -15.066406 3.390625 -19.007812 3.390625 -22.96875 C 3.390625 -26.925781 3.316406 -30.894531 3.171875 -34.875 C 3.117188 -35.707031 3.410156 -36.242188 4.046875 -36.484375 C 4.691406 -36.734375 5.320312 -36.722656 5.9375 -36.453125 C 6.550781 -36.191406 6.882812 -35.664062 6.9375 -34.875 Z M 4.9375 -41.296875 C 4.15625 -41.296875 3.628906 -41.613281 3.359375 -42.25 C 3.085938 -42.882812 3.085938 -43.507812 3.359375 -44.125 C 3.628906 -44.738281 4.15625 -45.046875 4.9375 -45.046875 C 5.726562 -45.046875 6.257812 -44.738281 6.53125 -44.125 C 6.800781 -43.507812 6.800781 -42.882812 6.53125 -42.25 C 6.257812 -41.613281 5.726562 -41.296875 4.9375 -41.296875 Z M 4.9375 -41.296875 "/></g></g></g><g fill="#f0b801" fill-opacity="1"><g transform="translate(92.808262, 247.527819)"><g><path d="M 23.484375 -9.375 C 23.578125 -9.03125 23.519531 -8.765625 23.3125 -8.578125 C 23.101562 -8.390625 22.847656 -8.300781 22.546875 -8.3125 C 22.242188 -8.320312 22.046875 -8.492188 21.953125 -8.828125 C 21.585938 -9.929688 21.035156 -10.726562 20.296875 -11.21875 C 19.554688 -11.71875 18.726562 -11.972656 17.8125 -11.984375 C 16.90625 -12.003906 15.984375 -11.847656 15.046875 -11.515625 C 14.117188 -11.179688 13.296875 -10.726562 12.578125 -10.15625 C 10.972656 -8.207031 9.351562 -6.28125 7.71875 -4.375 C 6.082031 -2.46875 4.421875 -0.585938 2.734375 1.265625 C 2.492188 1.546875 2.234375 1.640625 1.953125 1.546875 C 1.671875 1.460938 1.46875 1.289062 1.34375 1.03125 C 1.21875 0.769531 1.273438 0.5 1.515625 0.21875 C 3.929688 -2.4375 6.296875 -5.148438 8.609375 -7.921875 C 10.929688 -10.691406 13.222656 -13.484375 15.484375 -16.296875 C 15.710938 -16.566406 15.960938 -16.660156 16.234375 -16.578125 C 16.503906 -16.503906 16.707031 -16.332031 16.84375 -16.0625 C 16.976562 -15.800781 16.929688 -15.535156 16.703125 -15.265625 C 16.148438 -14.566406 15.597656 -13.875 15.046875 -13.1875 C 16.191406 -13.53125 17.328125 -13.640625 18.453125 -13.515625 C 19.578125 -13.390625 20.582031 -13 21.46875 -12.34375 C 22.363281 -11.6875 23.035156 -10.695312 23.484375 -9.375 Z M 23.484375 -9.375 "/></g></g></g><g fill="#f0b801" fill-opacity="1"><g transform="translate(104.337907, 257.093107)"><g><path d="M 12.6875 -1.203125 C 12.863281 -1.503906 13.09375 -1.632812 13.375 -1.59375 C 13.65625 -1.550781 13.878906 -1.398438 14.046875 -1.140625 C 14.210938 -0.890625 14.207031 -0.613281 14.03125 -0.3125 C 13.46875 0.550781 12.726562 1.097656 11.8125 1.328125 C 10.894531 1.554688 9.988281 1.519531 9.09375 1.21875 C 9 1.257812 8.890625 1.28125 8.765625 1.28125 C 8.335938 1.25 7.925781 1.300781 7.53125 1.4375 C 7.144531 1.582031 6.816406 1.820312 6.546875 2.15625 C 6.296875 2.457031 6.1875 2.75 6.21875 3.03125 C 6.25 3.3125 6.390625 3.515625 6.640625 3.640625 C 6.890625 3.765625 7.195312 3.75 7.5625 3.59375 C 7.875 3.457031 8.144531 3.484375 8.375 3.671875 C 8.601562 3.867188 8.71875 4.109375 8.71875 4.390625 C 8.726562 4.679688 8.570312 4.898438 8.25 5.046875 C 7.6875 5.296875 7.09375 5.359375 6.46875 5.234375 C 5.851562 5.117188 5.351562 4.835938 4.96875 4.390625 C 4.59375 3.941406 4.457031 3.363281 4.5625 2.65625 C 4.675781 1.988281 4.960938 1.425781 5.421875 0.96875 C 5.878906 0.519531 6.410156 0.179688 7.015625 -0.046875 C 6.421875 -0.640625 6.015625 -1.304688 5.796875 -2.046875 C 5.554688 -3.015625 5.566406 -4.015625 5.828125 -5.046875 C 6.085938 -6.078125 6.476562 -7.066406 7 -8.015625 C 7.53125 -8.960938 8.078125 -9.8125 8.640625 -10.5625 C 9.179688 -11.25 9.8125 -11.878906 10.53125 -12.453125 C 11.257812 -13.023438 12.046875 -13.414062 12.890625 -13.625 C 13.742188 -13.832031 14.617188 -13.734375 15.515625 -13.328125 C 16.210938 -12.972656 16.835938 -12.484375 17.390625 -11.859375 C 17.941406 -11.234375 18.320312 -10.535156 18.53125 -9.765625 C 18.695312 -8.953125 18.671875 -8.195312 18.453125 -7.5 C 18.234375 -6.8125 17.910156 -6.144531 17.484375 -5.5 C 17.054688 -4.863281 16.628906 -4.226562 16.203125 -3.59375 C 16.117188 -3.5 16.03125 -3.421875 15.9375 -3.359375 C 15.65625 -3.191406 15.375 -3.207031 15.09375 -3.40625 C 14 -4.09375 12.914062 -4.789062 11.84375 -5.5 C 10.769531 -6.207031 9.703125 -6.921875 8.640625 -7.640625 C 8.410156 -7.210938 8.195312 -6.773438 8 -6.328125 C 7.800781 -5.878906 7.632812 -5.421875 7.5 -4.953125 C 7.300781 -4.222656 7.242188 -3.492188 7.328125 -2.765625 C 7.410156 -2.046875 7.78125 -1.429688 8.4375 -0.921875 C 8.832031 -0.578125 9.300781 -0.335938 9.84375 -0.203125 C 10.394531 -0.078125 10.921875 -0.0859375 11.421875 -0.234375 C 11.929688 -0.378906 12.351562 -0.703125 12.6875 -1.203125 Z M 14.453125 -12.015625 C 13.847656 -12.179688 13.265625 -12.148438 12.703125 -11.921875 C 12.148438 -11.703125 11.644531 -11.378906 11.1875 -10.953125 C 10.738281 -10.535156 10.335938 -10.109375 9.984375 -9.671875 C 9.847656 -9.484375 9.695312 -9.257812 9.53125 -9 C 10.46875 -8.34375 11.425781 -7.695312 12.40625 -7.0625 C 13.382812 -6.425781 14.351562 -5.785156 15.3125 -5.140625 C 15.625 -5.554688 15.929688 -6 16.234375 -6.46875 C 16.546875 -6.945312 16.773438 -7.429688 16.921875 -7.921875 C 17.078125 -8.421875 17.082031 -8.925781 16.9375 -9.4375 C 16.78125 -10 16.46875 -10.523438 16 -11.015625 C 15.53125 -11.515625 15.015625 -11.847656 14.453125 -12.015625 Z M 14.453125 -12.015625 "/></g></g></g><g fill="#f0b801" fill-opacity="1"><g transform="translate(116.146813, 264.857902)"><g><path d="M 11.921875 -2.296875 C 12.140625 -2.578125 12.394531 -2.695312 12.6875 -2.65625 C 12.976562 -2.625 13.210938 -2.5 13.390625 -2.28125 C 13.578125 -2.070312 13.570312 -1.820312 13.375 -1.53125 C 12.8125 -0.71875 12.109375 -0.207031 11.265625 0 C 10.421875 0.195312 9.5625 0.164062 8.6875 -0.09375 C 7.8125 -0.363281 7.039062 -0.796875 6.375 -1.390625 C 5.539062 -2.117188 5.070312 -2.9375 4.96875 -3.84375 C 4.875 -4.757812 4.976562 -5.691406 5.28125 -6.640625 C 5.582031 -7.585938 5.941406 -8.488281 6.359375 -9.34375 C 6.679688 -10.007812 7.039062 -10.675781 7.4375 -11.34375 C 7.832031 -12.007812 8.285156 -12.617188 8.796875 -13.171875 C 9.304688 -13.722656 9.894531 -14.144531 10.5625 -14.4375 C 11.226562 -14.738281 11.96875 -14.832031 12.78125 -14.71875 C 13.40625 -14.625 14.039062 -14.414062 14.6875 -14.09375 C 15.34375 -13.78125 15.921875 -13.375 16.421875 -12.875 C 16.929688 -12.382812 17.285156 -11.828125 17.484375 -11.203125 C 17.679688 -10.578125 17.625 -9.914062 17.3125 -9.21875 C 17.175781 -8.914062 16.96875 -8.769531 16.6875 -8.78125 C 16.40625 -8.800781 16.164062 -8.925781 15.96875 -9.15625 C 15.769531 -9.394531 15.738281 -9.664062 15.875 -9.96875 C 16.0625 -10.351562 16.039062 -10.726562 15.8125 -11.09375 C 15.59375 -11.46875 15.296875 -11.796875 14.921875 -12.078125 C 14.546875 -12.367188 14.195312 -12.582031 13.875 -12.71875 C 13.382812 -12.945312 12.859375 -13.082031 12.296875 -13.125 C 11.742188 -13.164062 11.21875 -13.039062 10.71875 -12.75 C 10.03125 -12.332031 9.453125 -11.707031 8.984375 -10.875 C 8.523438 -10.050781 8.128906 -9.289062 7.796875 -8.59375 C 7.546875 -8.070312 7.285156 -7.5 7.015625 -6.875 C 6.742188 -6.25 6.570312 -5.613281 6.5 -4.96875 C 6.4375 -4.332031 6.585938 -3.734375 6.953125 -3.171875 C 7.179688 -2.828125 7.507812 -2.503906 7.9375 -2.203125 C 8.363281 -1.910156 8.828125 -1.691406 9.328125 -1.546875 C 9.828125 -1.410156 10.3125 -1.394531 10.78125 -1.5 C 11.25 -1.601562 11.628906 -1.867188 11.921875 -2.296875 Z M 11.921875 -2.296875 "/></g></g></g><g fill="#f0b801" fill-opacity="1"><g transform="translate(128.364101, 271.146665)"><g><path d="M 11.796875 -1.453125 C 12.109375 -1.328125 12.269531 -1.113281 12.28125 -0.8125 C 12.289062 -0.507812 12.191406 -0.257812 11.984375 -0.0625 C 11.785156 0.132812 11.523438 0.179688 11.203125 0.078125 C 9.910156 -0.421875 8.617188 -0.914062 7.328125 -1.40625 C 6.035156 -1.90625 4.753906 -2.429688 3.484375 -2.984375 C 3.203125 -3.085938 3.035156 -3.296875 2.984375 -3.609375 C 2.929688 -3.921875 3.03125 -4.171875 3.28125 -4.359375 C 5.257812 -5.796875 7.203125 -7.285156 9.109375 -8.828125 C 11.023438 -10.378906 12.957031 -11.890625 14.90625 -13.359375 C 13.832031 -13.773438 12.753906 -14.175781 11.671875 -14.5625 C 10.597656 -14.945312 9.519531 -15.363281 8.4375 -15.8125 C 8.125 -15.9375 7.96875 -16.148438 7.96875 -16.453125 C 7.96875 -16.753906 8.066406 -17.003906 8.265625 -17.203125 C 8.460938 -17.410156 8.71875 -17.453125 9.03125 -17.328125 C 10.332031 -16.796875 11.640625 -16.296875 12.953125 -15.828125 C 14.273438 -15.359375 15.578125 -14.863281 16.859375 -14.34375 C 17.140625 -14.226562 17.304688 -14.007812 17.359375 -13.6875 C 17.421875 -13.363281 17.320312 -13.109375 17.0625 -12.921875 C 15.0625 -11.492188 13.109375 -10.003906 11.203125 -8.453125 C 9.304688 -6.898438 7.378906 -5.390625 5.421875 -3.921875 C 6.472656 -3.503906 7.53125 -3.082031 8.59375 -2.65625 C 9.664062 -2.238281 10.734375 -1.835938 11.796875 -1.453125 Z M 11.796875 -1.453125 "/></g></g></g><g fill="#f0b801" fill-opacity="1"><g transform="translate(141.304334, 276.153641)"><g><path d="M 14.234375 -9.40625 C 13.898438 -8.09375 13.5625 -6.789062 13.21875 -5.5 C 12.875 -4.21875 12.523438 -2.921875 12.171875 -1.609375 C 12.078125 -1.265625 11.882812 -1.070312 11.59375 -1.03125 C 11.3125 -0.988281 11.054688 -1.054688 10.828125 -1.234375 C 10.597656 -1.421875 10.53125 -1.6875 10.625 -2.03125 C 11.03125 -3.519531 11.457031 -5.019531 11.90625 -6.53125 C 12.351562 -8.039062 12.71875 -9.570312 13 -11.125 C 13.1875 -12.175781 13.148438 -13.097656 12.890625 -13.890625 C 12.628906 -14.679688 11.894531 -15.203125 10.6875 -15.453125 C 9.695312 -15.628906 8.890625 -15.484375 8.265625 -15.015625 C 7.640625 -14.546875 7.144531 -13.878906 6.78125 -13.015625 C 6.78125 -13.015625 6.757812 -12.988281 6.71875 -12.9375 C 6.320312 -11.40625 5.90625 -9.878906 5.46875 -8.359375 C 5.03125 -6.847656 4.5625 -5.335938 4.0625 -3.828125 C 3.96875 -3.484375 3.769531 -3.289062 3.46875 -3.25 C 3.175781 -3.21875 2.921875 -3.289062 2.703125 -3.46875 C 2.484375 -3.644531 2.421875 -3.90625 2.515625 -4.25 C 3.242188 -6.457031 3.910156 -8.675781 4.515625 -10.90625 C 5.117188 -13.144531 5.695312 -15.394531 6.25 -17.65625 C 6.34375 -17.988281 6.523438 -18.175781 6.796875 -18.21875 C 7.078125 -18.257812 7.332031 -18.179688 7.5625 -17.984375 C 7.800781 -17.796875 7.878906 -17.546875 7.796875 -17.234375 C 7.765625 -17.128906 7.738281 -17.023438 7.71875 -16.921875 C 7.707031 -16.816406 7.6875 -16.710938 7.65625 -16.609375 C 8.019531 -16.835938 8.40625 -16.992188 8.8125 -17.078125 C 9.382812 -17.191406 10.015625 -17.203125 10.703125 -17.109375 C 11.398438 -17.015625 12.0625 -16.800781 12.6875 -16.46875 C 13.3125 -16.144531 13.804688 -15.738281 14.171875 -15.25 C 14.535156 -14.695312 14.738281 -14.078125 14.78125 -13.390625 C 14.832031 -12.710938 14.789062 -12.023438 14.65625 -11.328125 C 14.53125 -10.640625 14.390625 -10 14.234375 -9.40625 Z M 14.234375 -9.40625 "/></g></g></g><g fill="#f0b801" fill-opacity="1"><g transform="translate(154.357619, 279.542895)"><g><path d="M 5.8125 -14.078125 C 5.539062 -12.398438 5.238281 -10.726562 4.90625 -9.0625 C 4.582031 -7.394531 4.203125 -5.742188 3.765625 -4.109375 C 3.703125 -3.765625 3.519531 -3.5625 3.21875 -3.5 C 2.914062 -3.445312 2.648438 -3.5 2.421875 -3.65625 C 2.203125 -3.820312 2.125 -4.078125 2.1875 -4.421875 C 2.625 -6.054688 3.003906 -7.707031 3.328125 -9.375 C 3.660156 -11.039062 3.960938 -12.710938 4.234375 -14.390625 C 4.273438 -14.742188 4.4375 -14.945312 4.71875 -15 C 5.007812 -15.050781 5.273438 -14.992188 5.515625 -14.828125 C 5.753906 -14.660156 5.851562 -14.410156 5.8125 -14.078125 Z M 5.5 -16.9375 C 5.175781 -17 4.984375 -17.175781 4.921875 -17.46875 C 4.859375 -17.757812 4.910156 -18.019531 5.078125 -18.25 C 5.242188 -18.488281 5.488281 -18.578125 5.8125 -18.515625 C 6.15625 -18.441406 6.351562 -18.265625 6.40625 -17.984375 C 6.46875 -17.710938 6.414062 -17.453125 6.25 -17.203125 C 6.09375 -16.953125 5.84375 -16.863281 5.5 -16.9375 Z M 5.5 -16.9375 "/></g></g></g><g fill="#f0b801" fill-opacity="1"><g transform="translate(159.49417, 280.684534)"><g><path d="M 10.765625 -6.828125 C 10.804688 -7.179688 10.960938 -7.398438 11.234375 -7.484375 C 11.515625 -7.566406 11.78125 -7.53125 12.03125 -7.375 C 12.289062 -7.226562 12.398438 -6.976562 12.359375 -6.625 C 12.285156 -5.6875 11.941406 -4.925781 11.328125 -4.34375 C 10.722656 -3.769531 9.988281 -3.390625 9.125 -3.203125 C 8.257812 -3.015625 7.394531 -3.023438 6.53125 -3.234375 C 5.675781 -3.453125 4.957031 -3.867188 4.375 -4.484375 C 3.695312 -5.203125 3.234375 -6.054688 2.984375 -7.046875 C 2.734375 -8.035156 2.625 -9.054688 2.65625 -10.109375 C 2.6875 -11.160156 2.789062 -12.132812 2.96875 -13.03125 C 3.113281 -13.90625 3.382812 -14.757812 3.78125 -15.59375 C 4.175781 -16.425781 4.703125 -17.125 5.359375 -17.6875 C 6.023438 -18.25 6.859375 -18.550781 7.859375 -18.59375 C 8.691406 -18.613281 9.519531 -18.4375 10.34375 -18.0625 C 11.175781 -17.695312 11.84375 -17.179688 12.34375 -16.515625 C 12.8125 -15.941406 13.082031 -15.3125 13.15625 -14.625 C 13.238281 -13.9375 13.226562 -13.234375 13.125 -12.515625 C 13.03125 -11.804688 12.929688 -11.101562 12.828125 -10.40625 C 12.816406 -10.28125 12.773438 -10.171875 12.703125 -10.078125 C 12.546875 -9.804688 12.296875 -9.695312 11.953125 -9.75 C 10.679688 -9.882812 9.40625 -10.023438 8.125 -10.171875 C 6.851562 -10.316406 5.582031 -10.476562 4.3125 -10.65625 C 4.289062 -10.15625 4.296875 -9.660156 4.328125 -9.171875 C 4.359375 -8.679688 4.421875 -8.207031 4.515625 -7.75 C 4.679688 -6.96875 5.007812 -6.28125 5.5 -5.6875 C 6 -5.09375 6.675781 -4.753906 7.53125 -4.671875 C 8 -4.609375 8.472656 -4.648438 8.953125 -4.796875 C 9.441406 -4.941406 9.851562 -5.179688 10.1875 -5.515625 C 10.53125 -5.859375 10.722656 -6.296875 10.765625 -6.828125 Z M 7.3125 -16.890625 C 6.71875 -16.753906 6.234375 -16.457031 5.859375 -16 C 5.492188 -15.539062 5.207031 -15.03125 5 -14.46875 C 4.800781 -13.90625 4.660156 -13.363281 4.578125 -12.84375 C 4.535156 -12.65625 4.503906 -12.46875 4.484375 -12.28125 C 5.617188 -12.09375 6.757812 -11.929688 7.90625 -11.796875 C 9.0625 -11.671875 10.210938 -11.539062 11.359375 -11.40625 C 11.503906 -12.164062 11.59375 -12.9375 11.625 -13.71875 C 11.65625 -14.5 11.398438 -15.191406 10.859375 -15.796875 C 10.453125 -16.242188 9.90625 -16.570312 9.21875 -16.78125 C 8.53125 -17 7.894531 -17.035156 7.3125 -16.890625 Z M 7.3125 -16.890625 "/></g></g></g><g fill="#f0b801" fill-opacity="1"><g transform="translate(173.272752, 282.218951)"><g/></g></g><g fill="#f0b801" fill-opacity="1"><g transform="translate(181.747947, 282.718077)"><g><path d="M 14.5625 -13.90625 C 14.664062 -12.550781 14.765625 -11.195312 14.859375 -9.84375 C 14.960938 -8.488281 15.054688 -7.125 15.140625 -5.75 C 15.160156 -5.414062 15.039062 -5.179688 14.78125 -5.046875 C 14.53125 -4.910156 14.265625 -4.890625 13.984375 -4.984375 C 13.703125 -5.085938 13.550781 -5.304688 13.53125 -5.640625 C 13.4375 -7.097656 13.34375 -8.554688 13.25 -10.015625 C 13.15625 -11.472656 13.039062 -12.9375 12.90625 -14.40625 C 12.863281 -14.8125 12.804688 -15.300781 12.734375 -15.875 C 12.671875 -16.445312 12.523438 -16.972656 12.296875 -17.453125 C 12.078125 -17.941406 11.722656 -18.265625 11.234375 -18.421875 C 10.515625 -18.617188 9.945312 -18.546875 9.53125 -18.203125 C 9.113281 -17.867188 8.804688 -17.40625 8.609375 -16.8125 C 8.410156 -16.21875 8.296875 -15.65625 8.265625 -15.125 C 8.273438 -15.0625 8.269531 -15 8.25 -14.9375 C 8.269531 -14.6875 8.289062 -14.4375 8.3125 -14.1875 C 8.34375 -13.945312 8.363281 -13.722656 8.375 -13.515625 C 8.476562 -12.160156 8.570312 -10.800781 8.65625 -9.4375 C 8.75 -8.082031 8.835938 -6.71875 8.921875 -5.34375 C 8.941406 -5.007812 8.828125 -4.773438 8.578125 -4.640625 C 8.328125 -4.515625 8.054688 -4.5 7.765625 -4.59375 C 7.484375 -4.6875 7.332031 -4.898438 7.3125 -5.234375 C 7.21875 -6.691406 7.128906 -8.148438 7.046875 -9.609375 C 6.960938 -11.066406 6.84375 -12.53125 6.6875 -14 C 6.664062 -14.40625 6.617188 -14.894531 6.546875 -15.46875 C 6.484375 -16.050781 6.34375 -16.582031 6.125 -17.0625 C 5.90625 -17.539062 5.546875 -17.859375 5.046875 -18.015625 C 4.316406 -18.210938 3.742188 -18.140625 3.328125 -17.796875 C 2.921875 -17.453125 2.625 -16.988281 2.4375 -16.40625 C 2.257812 -15.820312 2.164062 -15.253906 2.15625 -14.703125 C 2.164062 -14.660156 2.160156 -14.609375 2.140625 -14.546875 C 2.265625 -12.941406 2.367188 -11.335938 2.453125 -9.734375 C 2.535156 -8.140625 2.582031 -6.539062 2.59375 -4.9375 C 2.613281 -4.601562 2.488281 -4.367188 2.21875 -4.234375 C 1.957031 -4.109375 1.691406 -4.09375 1.421875 -4.1875 C 1.148438 -4.28125 1.003906 -4.492188 0.984375 -4.828125 C 0.941406 -7.160156 0.847656 -9.484375 0.703125 -11.796875 C 0.554688 -14.109375 0.375 -16.421875 0.15625 -18.734375 C 0.132812 -19.078125 0.25 -19.316406 0.5 -19.453125 C 0.757812 -19.585938 1.03125 -19.601562 1.3125 -19.5 C 1.59375 -19.394531 1.742188 -19.171875 1.765625 -18.828125 C 1.765625 -18.804688 1.765625 -18.773438 1.765625 -18.734375 C 1.773438 -18.691406 1.78125 -18.648438 1.78125 -18.609375 C 1.957031 -18.785156 2.140625 -18.925781 2.328125 -19.03125 C 2.941406 -19.46875 3.691406 -19.679688 4.578125 -19.671875 C 5.472656 -19.671875 6.210938 -19.40625 6.796875 -18.875 C 7.003906 -18.675781 7.191406 -18.429688 7.359375 -18.140625 C 7.503906 -18.410156 7.671875 -18.65625 7.859375 -18.875 C 8.046875 -19.09375 8.265625 -19.28125 8.515625 -19.4375 C 9.148438 -19.863281 9.910156 -20.078125 10.796875 -20.078125 C 11.679688 -20.078125 12.414062 -19.804688 13 -19.265625 C 13.425781 -18.847656 13.742188 -18.328125 13.953125 -17.703125 C 14.171875 -17.085938 14.316406 -16.441406 14.390625 -15.765625 C 14.460938 -15.097656 14.519531 -14.476562 14.5625 -13.90625 Z M 14.5625 -13.90625 "/></g></g></g><g fill="#f0b801" fill-opacity="1"><g transform="translate(199.990596, 281.327272)"><g><path d="M 8.796875 -14.5625 C 9.054688 -13.269531 9.320312 -11.976562 9.59375 -10.6875 C 9.863281 -9.40625 10.132812 -8.128906 10.40625 -6.859375 C 10.46875 -6.503906 10.378906 -6.242188 10.140625 -6.078125 C 9.898438 -5.921875 9.632812 -5.867188 9.34375 -5.921875 C 9.0625 -5.984375 8.890625 -6.191406 8.828125 -6.546875 C 8.804688 -6.640625 8.78125 -6.75 8.75 -6.875 C 8.726562 -7.007812 8.707031 -7.128906 8.6875 -7.234375 C 8.28125 -6.679688 7.765625 -6.222656 7.140625 -5.859375 C 6.523438 -5.492188 5.84375 -5.25 5.09375 -5.125 C 4.238281 -5 3.429688 -5.101562 2.671875 -5.4375 C 1.910156 -5.769531 1.257812 -6.253906 0.71875 -6.890625 C 0.175781 -7.535156 -0.191406 -8.269531 -0.390625 -9.09375 C -0.609375 -9.945312 -0.613281 -10.785156 -0.40625 -11.609375 C -0.207031 -12.441406 0.171875 -13.164062 0.734375 -13.78125 C 1.296875 -14.40625 2.003906 -14.863281 2.859375 -15.15625 C 3.578125 -15.394531 4.3125 -15.453125 5.0625 -15.328125 C 5.820312 -15.210938 6.519531 -14.96875 7.15625 -14.59375 C 7.09375 -14.769531 7.039062 -14.953125 7 -15.140625 C 6.96875 -15.328125 6.9375 -15.515625 6.90625 -15.703125 C 6.695312 -16.566406 6.359375 -17.296875 5.890625 -17.890625 C 5.421875 -18.484375 4.71875 -18.832031 3.78125 -18.9375 C 2.9375 -19.007812 2.128906 -18.847656 1.359375 -18.453125 C 0.585938 -18.054688 0.0351562 -17.46875 -0.296875 -16.6875 C -0.429688 -16.375 -0.644531 -16.207031 -0.9375 -16.1875 C -1.238281 -16.175781 -1.492188 -16.269531 -1.703125 -16.46875 C -1.910156 -16.664062 -1.953125 -16.914062 -1.828125 -17.21875 C -1.484375 -18.007812 -0.984375 -18.671875 -0.328125 -19.203125 C 0.316406 -19.742188 1.039062 -20.125 1.84375 -20.34375 C 2.644531 -20.570312 3.457031 -20.617188 4.28125 -20.484375 C 5.101562 -20.347656 5.867188 -20.023438 6.578125 -19.515625 C 7.117188 -19.128906 7.519531 -18.660156 7.78125 -18.109375 C 8.039062 -17.566406 8.238281 -16.984375 8.375 -16.359375 C 8.519531 -15.742188 8.660156 -15.144531 8.796875 -14.5625 Z M 1.203125 -9.390625 C 1.421875 -8.578125 1.78125 -7.960938 2.28125 -7.546875 C 2.789062 -7.128906 3.363281 -6.882812 4 -6.8125 C 4.632812 -6.75 5.253906 -6.835938 5.859375 -7.078125 C 6.472656 -7.316406 6.976562 -7.707031 7.375 -8.25 C 7.78125 -8.789062 8.003906 -9.457031 8.046875 -10.25 C 8.015625 -10.414062 7.976562 -10.585938 7.9375 -10.765625 C 7.90625 -10.941406 7.875 -11.125 7.84375 -11.3125 C 7.8125 -11.332031 7.8125 -11.332031 7.84375 -11.3125 C 7.53125 -12.132812 7.070312 -12.734375 6.46875 -13.109375 C 5.863281 -13.492188 5.207031 -13.679688 4.5 -13.671875 C 3.800781 -13.660156 3.160156 -13.476562 2.578125 -13.125 C 1.992188 -12.78125 1.554688 -12.289062 1.265625 -11.65625 C 0.984375 -11.019531 0.960938 -10.265625 1.203125 -9.390625 Z M 1.203125 -9.390625 "/></g></g></g><g fill="#f0b801" fill-opacity="1"><g transform="translate(213.838591, 278.600364)"><g><path d="M 8.5 -8.5625 C 8.851562 -8.664062 9.125 -8.601562 9.3125 -8.375 C 9.5 -8.15625 9.578125 -7.898438 9.546875 -7.609375 C 9.515625 -7.328125 9.320312 -7.132812 8.96875 -7.03125 C 7.675781 -6.601562 6.367188 -6.175781 5.046875 -5.75 C 3.734375 -5.332031 2.425781 -4.929688 1.125 -4.546875 C 1.101562 -4.546875 1.066406 -4.535156 1.015625 -4.515625 C 0.796875 -4.398438 0.566406 -4.367188 0.328125 -4.421875 C 0.0859375 -4.484375 -0.0703125 -4.65625 -0.15625 -4.9375 C -0.738281 -7.1875 -1.367188 -9.414062 -2.046875 -11.625 C -2.722656 -13.84375 -3.429688 -16.050781 -4.171875 -18.25 C -4.273438 -18.59375 -4.21875 -18.859375 -4 -19.046875 C -3.789062 -19.234375 -3.535156 -19.3125 -3.234375 -19.28125 C -2.929688 -19.25 -2.726562 -19.0625 -2.625 -18.71875 C -1.9375 -16.664062 -1.269531 -14.597656 -0.625 -12.515625 C 0.0195312 -10.429688 0.625 -8.34375 1.1875 -6.25 C 2.394531 -6.59375 3.609375 -6.960938 4.828125 -7.359375 C 6.054688 -7.765625 7.28125 -8.164062 8.5 -8.5625 Z M 8.5 -8.5625 "/></g></g></g><g fill="#f0b801" fill-opacity="1"><g transform="translate(227.243337, 274.416003)"><g><path d="M 4.21875 -18.078125 C 4.59375 -17.410156 5.019531 -16.632812 5.5 -15.75 C 5.976562 -14.875 6.390625 -13.941406 6.734375 -12.953125 C 7.078125 -11.972656 7.234375 -11.015625 7.203125 -10.078125 C 7.179688 -9.148438 6.875 -8.316406 6.28125 -7.578125 C 5.738281 -6.910156 5.015625 -6.414062 4.109375 -6.09375 C 3.210938 -5.78125 2.347656 -5.679688 1.515625 -5.796875 C 0.617188 -5.898438 -0.101562 -6.21875 -0.65625 -6.75 C -1.207031 -7.28125 -1.6875 -7.914062 -2.09375 -8.65625 C -2.53125 -9.46875 -2.96875 -10.359375 -3.40625 -11.328125 C -3.851562 -12.304688 -4.191406 -13.300781 -4.421875 -14.3125 C -4.648438 -15.320312 -4.664062 -16.289062 -4.46875 -17.21875 C -4.269531 -18.15625 -3.742188 -18.988281 -2.890625 -19.71875 C -2.878906 -19.75 -2.84375 -19.773438 -2.78125 -19.796875 C -2.78125 -19.796875 -2.773438 -19.796875 -2.765625 -19.796875 C -2.753906 -19.804688 -2.75 -19.820312 -2.75 -19.84375 C -2.75 -19.84375 -2.742188 -19.84375 -2.734375 -19.84375 C -2.734375 -19.851562 -2.734375 -19.859375 -2.734375 -19.859375 C -1.421875 -20.703125 -0.132812 -20.945312 1.125 -20.59375 C 2.382812 -20.238281 3.414062 -19.398438 4.21875 -18.078125 Z M 4.84375 -13.015625 C 4.59375 -13.640625 4.328125 -14.253906 4.046875 -14.859375 C 3.765625 -15.472656 3.460938 -16.078125 3.140625 -16.671875 C 2.796875 -17.328125 2.378906 -17.882812 1.890625 -18.34375 C 1.410156 -18.800781 0.863281 -19.070312 0.25 -19.15625 C -0.351562 -19.238281 -1.019531 -19.039062 -1.75 -18.5625 C -1.75 -18.5625 -1.773438 -18.550781 -1.828125 -18.53125 C -1.878906 -18.476562 -1.894531 -18.457031 -1.875 -18.46875 C -2.476562 -17.96875 -2.835938 -17.367188 -2.953125 -16.671875 C -3.078125 -15.984375 -3.039062 -15.265625 -2.84375 -14.515625 C -2.644531 -13.773438 -2.382812 -13.050781 -2.0625 -12.34375 C -1.75 -11.632812 -1.453125 -10.984375 -1.171875 -10.390625 C -0.960938 -9.972656 -0.738281 -9.539062 -0.5 -9.09375 C -0.269531 -8.65625 0.015625 -8.28125 0.359375 -7.96875 C 0.710938 -7.65625 1.15625 -7.457031 1.6875 -7.375 C 2.175781 -7.3125 2.679688 -7.351562 3.203125 -7.5 C 3.722656 -7.644531 4.1875 -7.875 4.59375 -8.1875 C 5.007812 -8.5 5.296875 -8.898438 5.453125 -9.390625 C 5.671875 -9.984375 5.675781 -10.597656 5.46875 -11.234375 C 5.257812 -11.878906 5.050781 -12.472656 4.84375 -13.015625 Z M 4.84375 -13.015625 "/></g></g></g><g fill="#f0b801" fill-opacity="1"><g transform="translate(240.276709, 268.869065)"><g><path d="M 2.546875 -23.234375 C 2.429688 -23.554688 2.476562 -23.804688 2.6875 -23.984375 C 2.90625 -24.160156 3.164062 -24.226562 3.46875 -24.1875 C 3.769531 -24.144531 3.988281 -23.96875 4.125 -23.65625 C 4.957031 -21.476562 5.742188 -19.28125 6.484375 -17.0625 C 7.234375 -14.84375 7.957031 -12.613281 8.65625 -10.375 C 8.726562 -10.101562 8.695312 -9.882812 8.5625 -9.71875 C 8.425781 -9.550781 8.257812 -9.453125 8.0625 -9.421875 C 7.851562 -9.316406 7.640625 -9.332031 7.421875 -9.46875 C 6.578125 -9.976562 5.722656 -10.476562 4.859375 -10.96875 C 3.992188 -11.46875 3.132812 -11.972656 2.28125 -12.484375 C 2.332031 -11.503906 2.390625 -10.523438 2.453125 -9.546875 C 2.515625 -8.566406 2.566406 -7.585938 2.609375 -6.609375 C 2.628906 -6.285156 2.488281 -6.0625 2.1875 -5.9375 C 2.050781 -5.832031 1.898438 -5.78125 1.734375 -5.78125 C 1.566406 -5.78125 1.398438 -5.863281 1.234375 -6.03125 C -0.378906 -7.726562 -1.972656 -9.441406 -3.546875 -11.171875 C -5.117188 -12.910156 -6.644531 -14.679688 -8.125 -16.484375 C -8.34375 -16.742188 -8.394531 -17.015625 -8.28125 -17.296875 C -8.164062 -17.585938 -7.976562 -17.78125 -7.71875 -17.875 C -7.457031 -17.976562 -7.21875 -17.898438 -7 -17.640625 C -5.738281 -16.109375 -4.445312 -14.597656 -3.125 -13.109375 C -1.8125 -11.628906 -0.46875 -10.171875 0.90625 -8.734375 C 0.84375 -9.609375 0.785156 -10.476562 0.734375 -11.34375 C 0.679688 -12.207031 0.628906 -13.078125 0.578125 -13.953125 C 0.554688 -14.273438 0.695312 -14.503906 1 -14.640625 C 1.257812 -14.804688 1.519531 -14.8125 1.78125 -14.65625 C 2.5625 -14.164062 3.34375 -13.695312 4.125 -13.25 C 4.90625 -12.8125 5.695312 -12.363281 6.5 -11.90625 C 5.894531 -13.820312 5.265625 -15.71875 4.609375 -17.59375 C 3.953125 -19.476562 3.265625 -21.359375 2.546875 -23.234375 Z M 2.546875 -23.234375 "/></g></g></g><g fill="#f0b801" fill-opacity="1"><g transform="translate(255.982665, 259.421152)"><g><path d="M 1.3125 -16.953125 C 2.132812 -15.929688 2.953125 -14.90625 3.765625 -13.875 C 4.578125 -12.84375 5.394531 -11.8125 6.21875 -10.78125 C 6.4375 -10.5 6.472656 -10.226562 6.328125 -9.96875 C 6.179688 -9.71875 5.96875 -9.554688 5.6875 -9.484375 C 5.40625 -9.421875 5.15625 -9.53125 4.9375 -9.8125 C 4.875 -9.894531 4.800781 -9.988281 4.71875 -10.09375 C 4.644531 -10.195312 4.578125 -10.289062 4.515625 -10.375 C 4.390625 -9.6875 4.132812 -9.039062 3.75 -8.4375 C 3.363281 -7.832031 2.863281 -7.3125 2.25 -6.875 C 1.539062 -6.375 0.773438 -6.097656 -0.046875 -6.046875 C -0.878906 -6.003906 -1.679688 -6.148438 -2.453125 -6.484375 C -3.222656 -6.816406 -3.882812 -7.304688 -4.4375 -7.953125 C -5.019531 -8.609375 -5.40625 -9.351562 -5.59375 -10.1875 C -5.78125 -11.019531 -5.757812 -11.835938 -5.53125 -12.640625 C -5.300781 -13.453125 -4.875 -14.179688 -4.25 -14.828125 C -3.707031 -15.367188 -3.070312 -15.75 -2.34375 -15.96875 C -1.625 -16.195312 -0.894531 -16.289062 -0.15625 -16.25 C -0.289062 -16.375 -0.414062 -16.515625 -0.53125 -16.671875 C -0.65625 -16.828125 -0.773438 -16.976562 -0.890625 -17.125 C -1.453125 -17.800781 -2.078125 -18.300781 -2.765625 -18.625 C -3.453125 -18.945312 -4.238281 -18.9375 -5.125 -18.59375 C -5.90625 -18.289062 -6.550781 -17.789062 -7.0625 -17.09375 C -7.570312 -16.394531 -7.804688 -15.625 -7.765625 -14.78125 C -7.734375 -14.4375 -7.847656 -14.1875 -8.109375 -14.03125 C -8.367188 -13.882812 -8.640625 -13.851562 -8.921875 -13.9375 C -9.203125 -14.03125 -9.34375 -14.242188 -9.34375 -14.578125 C -9.40625 -15.429688 -9.265625 -16.238281 -8.921875 -17 C -8.578125 -17.769531 -8.097656 -18.4375 -7.484375 -19 C -6.867188 -19.570312 -6.160156 -19.984375 -5.359375 -20.234375 C -4.566406 -20.492188 -3.738281 -20.546875 -2.875 -20.390625 C -2.226562 -20.296875 -1.660156 -20.0625 -1.171875 -19.6875 C -0.691406 -19.3125 -0.253906 -18.878906 0.140625 -18.390625 C 0.546875 -17.898438 0.9375 -17.421875 1.3125 -16.953125 Z M -3.15625 -8.9375 C -2.59375 -8.300781 -1.988281 -7.910156 -1.34375 -7.765625 C -0.695312 -7.628906 -0.078125 -7.671875 0.515625 -7.890625 C 1.109375 -8.109375 1.625 -8.460938 2.0625 -8.953125 C 2.5 -9.441406 2.773438 -10.015625 2.890625 -10.671875 C 3.015625 -11.335938 2.910156 -12.039062 2.578125 -12.78125 C 2.472656 -12.90625 2.363281 -13.039062 2.25 -13.1875 C 2.144531 -13.332031 2.035156 -13.476562 1.921875 -13.625 C 1.890625 -13.632812 1.890625 -13.632812 1.921875 -13.625 C 1.285156 -14.226562 0.613281 -14.5625 -0.09375 -14.625 C -0.8125 -14.6875 -1.484375 -14.554688 -2.109375 -14.234375 C -2.734375 -13.921875 -3.226562 -13.472656 -3.59375 -12.890625 C -3.957031 -12.316406 -4.125 -11.679688 -4.09375 -10.984375 C -4.070312 -10.296875 -3.757812 -9.613281 -3.15625 -8.9375 Z M -3.15625 -8.9375 "/></g></g></g><g fill="#f0b801" fill-opacity="1"><g transform="translate(267.124611, 250.767377)"><g><path d="M -0.71875 -17.046875 C 0.21875 -16.085938 1.148438 -15.128906 2.078125 -14.171875 C 3.015625 -13.210938 3.945312 -12.242188 4.875 -11.265625 C 5.125 -11.003906 5.191406 -10.738281 5.078125 -10.46875 C 4.972656 -10.207031 4.78125 -10.023438 4.5 -9.921875 C 4.226562 -9.816406 3.96875 -9.894531 3.71875 -10.15625 C 2.65625 -11.269531 1.585938 -12.40625 0.515625 -13.5625 C -0.546875 -14.726562 -1.660156 -15.832031 -2.828125 -16.875 C -3.648438 -17.582031 -4.46875 -18.023438 -5.28125 -18.203125 C -6.09375 -18.378906 -6.910156 -18.015625 -7.734375 -17.109375 C -8.398438 -16.359375 -8.691406 -15.59375 -8.609375 -14.8125 C -8.535156 -14.03125 -8.222656 -13.265625 -7.671875 -12.515625 C -7.671875 -12.515625 -7.65625 -12.476562 -7.625 -12.40625 C -6.519531 -11.289062 -5.429688 -10.148438 -4.359375 -8.984375 C -3.285156 -7.828125 -2.234375 -6.648438 -1.203125 -5.453125 C -0.953125 -5.191406 -0.882812 -4.925781 -1 -4.65625 C -1.125 -4.382812 -1.316406 -4.195312 -1.578125 -4.09375 C -1.847656 -4 -2.109375 -4.082031 -2.359375 -4.34375 C -3.867188 -6.113281 -5.425781 -7.832031 -7.03125 -9.5 C -8.644531 -11.164062 -10.269531 -12.8125 -11.90625 -14.4375 C -12.15625 -14.695312 -12.222656 -14.957031 -12.109375 -15.21875 C -11.992188 -15.476562 -11.796875 -15.65625 -11.515625 -15.75 C -11.242188 -15.851562 -10.988281 -15.785156 -10.75 -15.546875 C -10.6875 -15.472656 -10.613281 -15.398438 -10.53125 -15.328125 C -10.445312 -15.265625 -10.367188 -15.195312 -10.296875 -15.125 C -10.304688 -15.550781 -10.242188 -15.957031 -10.109375 -16.34375 C -9.910156 -16.90625 -9.59375 -17.457031 -9.15625 -18 C -8.71875 -18.539062 -8.195312 -18.992188 -7.59375 -19.359375 C -7 -19.722656 -6.394531 -19.9375 -5.78125 -20 C -5.113281 -20.03125 -4.472656 -19.890625 -3.859375 -19.578125 C -3.253906 -19.265625 -2.6875 -18.875 -2.15625 -18.40625 C -1.625 -17.9375 -1.144531 -17.484375 -0.71875 -17.046875 Z M -0.71875 -17.046875 "/></g></g></g><g fill="#f0b801" fill-opacity="1"><g transform="translate(277.147185, 241.108652)"><g><path d="M 0.171875 -12.75 C -0.0976562 -12.976562 -0.191406 -13.226562 -0.109375 -13.5 C -0.0351562 -13.78125 0.128906 -13.988281 0.390625 -14.125 C 0.660156 -14.257812 0.929688 -14.210938 1.203125 -13.984375 C 1.960938 -13.398438 2.410156 -12.691406 2.546875 -11.859375 C 2.691406 -11.035156 2.609375 -10.210938 2.296875 -9.390625 C 1.984375 -8.566406 1.503906 -7.847656 0.859375 -7.234375 C 0.210938 -6.628906 -0.523438 -6.257812 -1.359375 -6.125 C -2.335938 -5.945312 -3.304688 -6.019531 -4.265625 -6.34375 C -5.234375 -6.675781 -6.148438 -7.144531 -7.015625 -7.75 C -7.878906 -8.351562 -8.640625 -8.976562 -9.296875 -9.625 C -9.941406 -10.21875 -10.503906 -10.90625 -10.984375 -11.6875 C -11.472656 -12.476562 -11.769531 -13.300781 -11.875 -14.15625 C -11.988281 -15.019531 -11.789062 -15.882812 -11.28125 -16.75 C -10.84375 -17.445312 -10.242188 -18.039062 -9.484375 -18.53125 C -8.722656 -19.019531 -7.925781 -19.300781 -7.09375 -19.375 C -6.351562 -19.4375 -5.671875 -19.3125 -5.046875 -19 C -4.421875 -18.695312 -3.835938 -18.3125 -3.296875 -17.84375 C -2.765625 -17.375 -2.238281 -16.90625 -1.71875 -16.4375 C -1.613281 -16.351562 -1.546875 -16.257812 -1.515625 -16.15625 C -1.359375 -15.863281 -1.394531 -15.585938 -1.625 -15.328125 C -2.4375 -14.335938 -3.25 -13.34375 -4.0625 -12.34375 C -4.882812 -11.351562 -5.722656 -10.378906 -6.578125 -9.421875 C -6.171875 -9.128906 -5.75 -8.863281 -5.3125 -8.625 C -4.882812 -8.382812 -4.457031 -8.179688 -4.03125 -8.015625 C -3.28125 -7.722656 -2.519531 -7.625 -1.75 -7.71875 C -0.988281 -7.8125 -0.34375 -8.1875 0.1875 -8.84375 C 0.5 -9.207031 0.726562 -9.628906 0.875 -10.109375 C 1.019531 -10.597656 1.039062 -11.078125 0.9375 -11.546875 C 0.84375 -12.023438 0.585938 -12.425781 0.171875 -12.75 Z M -10.15625 -15.34375 C -10.363281 -14.78125 -10.375 -14.21875 -10.1875 -13.65625 C -10.007812 -13.101562 -9.738281 -12.582031 -9.375 -12.09375 C -9.019531 -11.613281 -8.648438 -11.195312 -8.265625 -10.84375 C -8.128906 -10.707031 -7.988281 -10.578125 -7.84375 -10.453125 C -7.0625 -11.316406 -6.300781 -12.191406 -5.5625 -13.078125 C -4.832031 -13.972656 -4.09375 -14.863281 -3.34375 -15.75 C -3.90625 -16.28125 -4.503906 -16.769531 -5.140625 -17.21875 C -5.773438 -17.675781 -6.492188 -17.84375 -7.296875 -17.71875 C -7.898438 -17.625 -8.476562 -17.347656 -9.03125 -16.890625 C -9.582031 -16.429688 -9.957031 -15.914062 -10.15625 -15.34375 Z M -10.15625 -15.34375 "/></g></g></g><g fill="#f0b801" fill-opacity="1"><g transform="translate(285.959562, 230.405732)"><g/></g></g></svg>