<?xml version="1.0" encoding="UTF-8" standalone="no"?><!DOCTYPE svg PUBLIC "-//W3C//DTD SVG 1.1//EN" "http://www.w3.org/Graphics/SVG/1.1/DTD/svg11.dtd"><svg width="100%" height="100%" viewBox="0 0 1182 355" version="1.1" xmlns="http://www.w3.org/2000/svg" xmlns:xlink="http://www.w3.org/1999/xlink" xml:space="preserve" xmlns:serif="http://www.serif.com/" style="fill-rule:evenodd;clip-rule:evenodd;stroke-linejoin:round;stroke-miterlimit:2;"><g id="Layer-2" serif:id="Layer 2"><path d="M283.647,264.498l-62.73,-0l0,-142.758l-61.941,98.512l-45.934,-48.408l0,92.654l-17.962,-0l-0,-177.638l24.987,0l60.121,64.288l40.729,-64.288l62.73,0l-0,177.638Z" style="fill:#231f20;fill-rule:nonzero;"/><path d="M537.179,86.861l-0,97.733l-113.088,-97.733l-0.05,-0l0,83.275l108.713,94.362l22.383,0l0,-177.637l-17.958,-0Z" style="fill:#231f20;fill-rule:nonzero;"/><path d="M321.35,168.188l29.208,-46.445l0,46.445l-29.208,0Zm29.396,-81.329l-56.771,90.279l0,34.588l17.867,-28.404l38.716,-0l0,81.175l62.721,-0l0,-177.638l-62.533,0Z" style="fill:#231f20;fill-rule:nonzero;"/><path d="M679.87,87.02l0,118.533c0,6.046 -0.17,11.067 -0.508,15.071c-0.512,5.025 -2.133,9.454 -4.854,13.283c-6.3,8.938 -17.579,13.413 -33.846,13.413c-18.479,-0 -29.846,-6.13 -34.108,-18.392c-1.359,-4 -2.038,-10.646 -2.038,-19.925l0,-121.983l-38.621,-0l0,166.6c5.384,3.262 11.675,5.845 18.896,7.75c9.388,2.47 22.488,3.704 39.263,3.704c18.65,-0 32.533,-1.538 41.65,-4.596c13.783,-4.683 23.154,-13.242 28.087,-25.675c2.479,-6.213 3.704,-16.9 3.704,-32.063l0,-115.72l-17.625,-0Z" style="fill:#231f20;fill-rule:nonzero;"/><path d="M746.875,123.112l0,-18.388l65.438,0l-0,-17.791l-104.138,-0.017l0,177.637l38.7,0l0,-123.645l48.987,-0l11.196,-17.796l-60.183,-0Z" style="fill:#231f20;fill-rule:nonzero;"/><path d="M1086.02,169.263l0,63.825c0,8.358 -0.679,14.254 -2.037,17.683c-2.725,6.854 -7.896,11.575 -15.5,14.162c-5.03,1.688 -12.684,2.53 -22.971,2.53c-9.254,-0 -16.463,-0.68 -21.625,-2.038c-9.446,-2.496 -16.042,-7.092 -19.792,-13.808c-2.212,-3.95 -3.312,-9.796 -3.312,-17.542l-0,-64.812l33.95,-0l-0,67.275c-0,5.12 0.379,8.783 1.133,10.991c2.342,6.763 8.608,10.146 18.808,10.146c8.967,0 15.188,-2.467 18.667,-7.404c1.504,-2.104 2.392,-4.55 2.679,-7.321c0.188,-2.212 0.279,-4.979 0.279,-8.312l0,-65.375l9.721,-0Z" style="fill:#231f20;fill-rule:nonzero;"/><path d="M847.681,168.905l-29.209,-0l29.209,-46.446l-0,46.446Zm51.25,73.15c-0,-7.405 4.817,-13.696 11.479,-15.938l-0,-138.537l-62.538,-0l-90.683,144.116l0,33.575l0.45,0l51.317,-81.237l38.725,-0l-0,81.179l62.729,-0l-0,-7.225c-6.663,-2.242 -11.479,-8.529 -11.479,-15.933" style="fill:#231f20;fill-rule:nonzero;"/><path d="M991.748,178.914l-0,-9.65l-69.946,0l0,57.113c6.296,2.437 10.775,8.533 10.775,15.675c0,7.146 -4.479,13.241 -10.775,15.679l0,7.696l69.946,-0l-0,-10.009l-35.992,0l0,-57.212l27.088,-0l5.446,-9.654l-32.534,-0l0,-9.638l35.992,0Z" style="fill:#231f20;fill-rule:nonzero;"/><path d="M915.751,228.67c-7.379,0 -13.383,6.004 -13.383,13.383c-0,7.375 6.004,13.384 13.383,13.384c7.384,-0 13.388,-6.009 13.388,-13.384c-0,-7.379 -6.004,-13.383 -13.388,-13.383" style="fill:#231f20;fill-rule:nonzero;"/></g></svg>