<svg xmlns="http://www.w3.org/2000/svg" xmlns:xlink="http://www.w3.org/1999/xlink" width="102" zoomAndPan="magnify" viewBox="0 0 76.5 76.499999" height="102" preserveAspectRatio="xMidYMid meet" version="1.0"><defs><g/><clipPath id="1def2ed9d6"><path d="M 0 0 L 76.003906 0 L 76.003906 76.003906 L 0 76.003906 Z M 0 0 " clip-rule="nonzero"/></clipPath><clipPath id="1032b11845"><path d="M 0 0 L 75.96875 0 L 75.96875 75.96875 L 0 75.96875 Z M 0 0 " clip-rule="nonzero"/></clipPath><clipPath id="bddc8a6d7d"><path d="M 14.609375 32 L 16 32 L 16 51 L 14.609375 51 Z M 14.609375 32 " clip-rule="nonzero"/></clipPath><clipPath id="ee168a62ea"><path d="M 15 49 L 18 49 L 18 53.492188 L 15 53.492188 Z M 15 49 " clip-rule="nonzero"/></clipPath><clipPath id="1a57d05105"><path d="M 16 51 L 35 51 L 35 53.492188 L 16 53.492188 Z M 16 51 " clip-rule="nonzero"/></clipPath><clipPath id="79c046fe5e"><path d="M 14.609375 31 L 17 31 L 17 35 L 14.609375 35 Z M 14.609375 31 " clip-rule="nonzero"/></clipPath><clipPath id="e86a0c2055"><path d="M 34.636719 51.628906 L 60.511719 51.628906 L 60.511719 53.492188 L 34.636719 53.492188 Z M 34.636719 51.628906 " clip-rule="nonzero"/></clipPath><clipPath id="11a1ad8f51"><path d="M 60.082031 27.480469 L 61.339844 27.480469 L 61.339844 52.492188 L 60.082031 52.492188 Z M 60.082031 27.480469 " clip-rule="nonzero"/></clipPath><clipPath id="7652c7f18c"><path d="M 49 27.046875 L 61.339844 27.046875 L 61.339844 29.636719 L 49 29.636719 Z M 49 27.046875 " clip-rule="nonzero"/></clipPath><clipPath id="508df6b2f3"><path d="M 43 8.804688 L 48 8.804688 L 48 26 L 43 26 Z M 43 8.804688 " clip-rule="nonzero"/></clipPath><clipPath id="53cc24eebc"><path d="M 34 31 L 53 31 L 53 53.492188 L 34 53.492188 Z M 34 31 " clip-rule="nonzero"/></clipPath><clipPath id="85e663795e"><path d="M 36 47 L 40 47 L 40 53.492188 L 36 53.492188 Z M 36 47 " clip-rule="nonzero"/></clipPath><clipPath id="9f9d377696"><path d="M 38 48 L 41 48 L 41 53.492188 L 38 53.492188 Z M 38 48 " clip-rule="nonzero"/></clipPath><clipPath id="540116d8c2"><path d="M 39 48 L 42 48 L 42 53.492188 L 39 53.492188 Z M 39 48 " clip-rule="nonzero"/></clipPath><clipPath id="539545ba4f"><path d="M 41 49 L 43 49 L 43 53.492188 L 41 53.492188 Z M 41 49 " clip-rule="nonzero"/></clipPath><clipPath id="7e653a58e9"><path d="M 42 50 L 44 50 L 44 53.492188 L 42 53.492188 Z M 42 50 " clip-rule="nonzero"/></clipPath><clipPath id="97522cd837"><path d="M 43 50 L 45 50 L 45 53.492188 L 43 53.492188 Z M 43 50 " clip-rule="nonzero"/></clipPath><clipPath id="ada9076381"><path d="M 44 51 L 46 51 L 46 53.492188 L 44 53.492188 Z M 44 51 " clip-rule="nonzero"/></clipPath><clipPath id="6ffa246862"><path d="M 46 51 L 48 51 L 48 53.492188 L 46 53.492188 Z M 46 51 " clip-rule="nonzero"/></clipPath><clipPath id="29a268229b"><path d="M 15 39 L 26 39 L 26 53.492188 L 15 53.492188 Z M 15 39 " clip-rule="nonzero"/></clipPath><clipPath id="ebf7699f49"><path d="M 16 49 L 19 49 L 19 53.492188 L 16 53.492188 Z M 16 49 " clip-rule="nonzero"/></clipPath><clipPath id="feb96e3317"><path d="M 18 50 L 20 50 L 20 53.492188 L 18 53.492188 Z M 18 50 " clip-rule="nonzero"/></clipPath><clipPath id="279b01b3e1"><path d="M 20 51 L 21 51 L 21 53.492188 L 20 53.492188 Z M 20 51 " clip-rule="nonzero"/></clipPath></defs><g clip-path="url(#1def2ed9d6)"><path fill="#ffffff" d="M 0 0 L 76.003906 0 L 76.003906 76.003906 L 0 76.003906 Z M 0 0 " fill-opacity="1" fill-rule="nonzero"/></g><g clip-path="url(#1032b11845)"><path fill="#ffffff" d="M 0 0 L 75.96875 0 L 75.96875 75.96875 L 0 75.96875 Z M 0 0 " fill-opacity="1" fill-rule="nonzero"/></g><g clip-path="url(#bddc8a6d7d)"><path fill="#000000" d="M 15 33.121094 C 14.679688 35.910156 14.828125 38.785156 14.847656 41.589844 C 14.871094 44.417969 14.664062 47.34375 15.054688 50.148438 C 15.109375 50.558594 15.355469 50.527344 15.410156 50.140625 C 15.800781 47.339844 15.515625 44.394531 15.46875 41.574219 C 15.421875 38.769531 15.492188 35.90625 15.175781 33.117188 C 15.152344 32.886719 15.023438 32.902344 15 33.121094 " fill-opacity="1" fill-rule="nonzero"/></g><g clip-path="url(#ee168a62ea)"><path fill="#000000" d="M 17.039062 52.625 C 16.820312 52.191406 16.472656 52.277344 16.078125 52.082031 C 15.414062 51.753906 15.324219 50.890625 15.273438 50.230469 C 15.253906 49.988281 15.070312 49.808594 15.046875 50.15625 C 14.996094 50.863281 15.003906 51.542969 15.207031 52.214844 C 15.324219 52.347656 15.445312 52.46875 15.574219 52.59375 C 15.648438 52.671875 15.722656 52.753906 15.796875 52.835938 C 16.179688 52.964844 16.566406 53.089844 16.957031 53.175781 C 17.070312 53.015625 17.125 52.804688 17.039062 52.625 " fill-opacity="1" fill-rule="nonzero"/></g><g clip-path="url(#1a57d05105)"><path fill="#000000" d="M 33.855469 52.042969 C 31.21875 51.582031 28.28125 51.96875 25.605469 52.042969 C 22.589844 52.125 19.53125 52.132812 16.542969 52.582031 C 16.421875 52.601562 16.394531 52.878906 16.453125 53.046875 C 16.757812 53.136719 17.074219 53.214844 17.394531 53.253906 C 17.445312 53.257812 17.492188 53.265625 17.542969 53.269531 C 17.59375 53.273438 17.648438 53.277344 17.703125 53.28125 C 20.066406 53.457031 22.445312 53.335938 24.8125 53.289062 C 27.792969 53.230469 30.941406 53.625 33.886719 53.292969 C 34.253906 53.25 34.214844 52.105469 33.855469 52.042969 " fill-opacity="1" fill-rule="nonzero"/></g><g clip-path="url(#79c046fe5e)"><path fill="#000000" d="M 15.183594 34.457031 C 15.226562 34.175781 15.324219 33.898438 15.464844 33.65625 C 15.660156 33.320312 15.984375 33.160156 16.261719 32.917969 C 16.414062 32.789062 16.46875 31.898438 16.191406 31.910156 C 15.703125 31.929688 15.335938 32.511719 15.152344 32.902344 C 14.921875 33.40625 14.859375 33.992188 15.019531 34.523438 C 15.070312 34.695312 15.167969 34.5625 15.183594 34.457031 " fill-opacity="1" fill-rule="nonzero"/></g><path fill="#000000" d="M 16.003906 32.878906 C 16.738281 33.148438 17.96875 32.953125 18.769531 32.996094 C 20.207031 33.070312 21.597656 32.699219 23.035156 32.890625 C 23.28125 32.925781 23.328125 31.746094 23.003906 31.675781 C 21.605469 31.386719 20.160156 31.867188 18.742188 31.820312 C 17.980469 31.792969 16.511719 31.480469 15.949219 32.121094 C 15.824219 32.261719 15.789062 32.800781 16.003906 32.878906 " fill-opacity="1" fill-rule="nonzero"/><path fill="#000000" d="M 27.546875 32.046875 L 27.492188 31.949219 C 27.441406 31.867188 27.421875 32.136719 27.4375 32.179688 C 27.667969 32.789062 28.648438 32.566406 29.183594 32.585938 C 29.703125 32.605469 30.226562 32.625 30.746094 32.65625 C 31.820312 32.714844 33.074219 33.078125 34.089844 32.695312 C 34.265625 32.628906 34.285156 31.957031 34.105469 31.886719 C 32.691406 31.324219 30.6875 31.507812 29.160156 31.566406 C 28.632812 31.585938 27.636719 31.359375 27.433594 31.972656 C 27.421875 32.015625 27.449219 32.285156 27.496094 32.199219 C 27.511719 32.175781 27.574219 32.09375 27.546875 32.046875 " fill-opacity="1" fill-rule="nonzero"/><path fill="#000000" d="M 34.03125 28.484375 C 33.703125 32.683594 33.878906 36.957031 33.878906 41.167969 C 33.878906 43.394531 33.875 45.621094 33.878906 47.847656 C 33.878906 49.445312 33.65625 51.171875 34.078125 52.730469 C 34.117188 52.882812 34.273438 53.066406 34.347656 52.8125 C 34.738281 51.480469 34.558594 50.046875 34.5625 48.664062 C 34.5625 46.441406 34.554688 44.210938 34.558594 41.988281 C 34.566406 37.5 34.738281 32.949219 34.398438 28.476562 C 34.359375 27.949219 34.070312 27.980469 34.03125 28.484375 " fill-opacity="1" fill-rule="nonzero"/><g clip-path="url(#e86a0c2055)"><path fill="#000000" d="M 34.785156 53.472656 C 36.582031 54 38.699219 53.757812 40.570312 53.746094 C 42.773438 53.734375 44.976562 53.710938 47.175781 53.675781 C 48.332031 53.660156 49.414062 53.269531 50.480469 53.582031 C 51.480469 53.875 52.757812 53.699219 53.785156 53.671875 C 55.804688 53.621094 57.820312 53.566406 59.839844 53.570312 C 60.222656 53.570312 60.199219 51.980469 59.800781 51.984375 C 58.035156 52.003906 56.269531 52.0625 54.503906 52.128906 C 53.425781 52.171875 52.351562 52.21875 51.273438 52.300781 C 50.703125 52.347656 50.15625 52.484375 49.632812 52.714844 C 49.109375 52.433594 48.554688 52.347656 47.972656 52.449219 C 45.769531 52.480469 43.566406 52.492188 41.367188 52.492188 C 39.253906 52.496094 36.792969 52.175781 34.765625 52.78125 C 34.582031 52.835938 34.605469 53.417969 34.785156 53.472656 " fill-opacity="1" fill-rule="nonzero"/></g><g clip-path="url(#11a1ad8f51)"><path fill="#000000" d="M 60.769531 28.144531 C 60.511719 32.234375 60.207031 36.359375 60.402344 40.457031 C 60.507812 42.660156 60.582031 44.863281 60.605469 47.066406 C 60.621094 48.769531 60.449219 50.519531 60.765625 52.199219 C 60.777344 52.273438 60.851562 52.460938 60.929688 52.324219 C 61.539062 51.296875 61.292969 49.84375 61.289062 48.703125 C 61.285156 46.222656 61.164062 43.742188 61.039062 41.265625 C 60.816406 36.890625 61.417969 32.496094 61.085938 28.136719 C 61.050781 27.644531 60.800781 27.667969 60.769531 28.144531 " fill-opacity="1" fill-rule="nonzero"/></g><path fill="#000000" d="M 34.234375 29.027344 C 34.359375 28.765625 34.589844 28.5625 34.800781 28.367188 C 34.84375 28.332031 34.882812 28.304688 34.929688 28.277344 C 35.007812 28.226562 35.019531 28.070312 35.039062 27.988281 C 35.085938 27.769531 35.070312 27.445312 34.90625 27.273438 L 34.8125 27.277344 C 34.5625 27.605469 34.222656 27.859375 34.0625 28.25 C 33.980469 28.441406 33.976562 28.667969 34.019531 28.871094 C 34.039062 28.945312 34.148438 29.21875 34.234375 29.027344 " fill-opacity="1" fill-rule="nonzero"/><path fill="#000000" d="M 46.476562 27.078125 C 46.023438 27.03125 45.566406 26.992188 45.105469 26.964844 C 41.980469 27.148438 38.707031 27.519531 35.644531 27.203125 C 35.375 27.222656 35.105469 27.242188 34.835938 27.261719 C 34.613281 27.28125 34.628906 28.171875 34.855469 28.207031 C 38.695312 28.800781 42.636719 27.945312 46.507812 28.390625 C 46.757812 28.421875 46.808594 27.113281 46.476562 27.078125 " fill-opacity="1" fill-rule="nonzero"/><g clip-path="url(#7652c7f18c)"><path fill="#000000" d="M 60.601562 27.300781 C 57.042969 27.496094 53.378906 27.320312 49.847656 27.121094 C 49.617188 27.195312 49.386719 27.285156 49.167969 27.429688 C 49.125 27.453125 49.136719 27.597656 49.171875 27.625 C 50.289062 28.542969 51.515625 28.308594 52.929688 28.316406 C 54.4375 28.320312 55.9375 28.34375 57.441406 28.46875 C 58.425781 28.550781 60.492188 29.214844 60.644531 28.195312 C 60.597656 28.492188 60.667969 28.734375 60.777344 29.011719 C 61.066406 29.742188 61.191406 28.40625 61.171875 28.195312 C 61.125 27.738281 60.910156 27.46875 60.601562 27.300781 " fill-opacity="1" fill-rule="nonzero"/></g><g clip-path="url(#508df6b2f3)"><path fill="#000000" d="M 45.351562 25.535156 C 45.765625 25.507812 46.171875 25.492188 46.578125 25.476562 C 46.566406 25.320312 46.527344 25.160156 46.492188 25.109375 C 45.390625 23.433594 43.816406 22.546875 44.136719 20.167969 C 44.375 18.4375 45.679688 16.765625 46.476562 15.238281 C 47.53125 13.21875 47.789062 11.21875 47.28125 9.039062 C 47.226562 8.796875 47.140625 9.039062 47.148438 9.160156 C 47.308594 11.75 46.5625 13.621094 45.285156 15.753906 C 44.46875 17.117188 43.816406 18.449219 43.53125 20.019531 C 43.25 21.550781 43.785156 24.5625 45.351562 25.535156 " fill-opacity="1" fill-rule="nonzero"/></g><path fill="#000000" d="M 47.386719 9.441406 C 46.667969 10.722656 47.128906 12.375 47.644531 13.644531 C 48.144531 14.875 49.171875 15.832031 49.890625 16.933594 C 51.789062 19.839844 50.144531 21.570312 48.621094 23.796875 C 48.574219 23.867188 48.539062 24.320312 48.6875 24.296875 C 50.902344 23.972656 51.363281 21.203125 51.308594 19.359375 C 51.199219 15.496094 47.023438 13.484375 47.40625 9.480469 L 47.386719 9.441406 " fill-opacity="1" fill-rule="nonzero"/><path fill="#000000" d="M 45.898438 25.503906 C 46.148438 25.492188 46.394531 25.484375 46.640625 25.472656 L 46.644531 25.414062 C 46.167969 24.710938 45.734375 24.199219 45.675781 23.28125 C 45.628906 22.5 46.292969 21.636719 46.691406 21 C 47.371094 19.914062 47.851562 18.996094 47.859375 17.703125 C 47.859375 17.671875 47.800781 17.355469 47.730469 17.496094 C 46.945312 19.089844 45.480469 20.820312 45.265625 22.617188 C 45.164062 23.457031 45.210938 24.851562 45.898438 25.503906 " fill-opacity="1" fill-rule="nonzero"/><path fill="#000000" d="M 47.683594 17.46875 C 47.339844 18.226562 47.511719 19.222656 47.714844 19.996094 C 47.847656 20.511719 48.109375 20.992188 48.347656 21.464844 C 48.761719 22.285156 48.671875 22.832031 48.769531 23.675781 C 48.808594 23.996094 49.09375 24.207031 49.351562 23.558594 C 49.527344 23.109375 49.46875 22.382812 49.347656 21.929688 C 49.203125 21.394531 49.007812 20.925781 48.738281 20.4375 C 48.183594 19.429688 47.824219 18.808594 47.746094 17.566406 C 47.746094 17.554688 47.714844 17.398438 47.683594 17.46875 " fill-opacity="1" fill-rule="nonzero"/><path fill="#000000" d="M 47.953125 25.203125 C 47.742188 24.636719 47.78125 24.171875 47.710938 23.582031 C 47.703125 23.5 47.6875 23.316406 47.601562 23.269531 C 47.195312 23.050781 47.152344 25.203125 47.164062 25.324219 C 47.175781 25.421875 47.203125 25.519531 47.222656 25.617188 C 47.4375 25.796875 47.503906 26.117188 47.421875 26.390625 C 47.59375 26.949219 47.625 27.410156 47.582031 28.003906 C 47.578125 28.089844 47.566406 28.394531 47.679688 28.4375 C 47.808594 28.480469 47.855469 28.511719 47.984375 28.496094 C 48.191406 28.46875 48.246094 28.152344 48.28125 27.996094 C 48.488281 27.03125 48.292969 26.109375 47.953125 25.203125 " fill-opacity="1" fill-rule="nonzero"/><path fill="#000000" d="M 25.230469 33.570312 C 26.324219 32.636719 26.429688 31.121094 25.957031 29.835938 C 25.621094 28.914062 25.230469 29.984375 25.316406 30.476562 C 25.410156 31.039062 25.644531 31.503906 25.316406 32.015625 C 25.117188 32.328125 24.992188 32.613281 24.945312 32.976562 C 24.933594 33.058594 25.003906 33.765625 25.230469 33.570312 " fill-opacity="1" fill-rule="nonzero"/><path fill="#000000" d="M 25.417969 18.125 C 25.765625 21.925781 22.632812 23.671875 22.296875 27.15625 C 22.1875 28.328125 22.769531 30.226562 24.039062 30.4375 C 24.257812 30.472656 24.171875 29.804688 24.101562 29.714844 C 21.667969 26.6875 24.476562 24.386719 25.480469 21.621094 C 25.917969 20.417969 25.902344 19.058594 25.566406 17.84375 C 25.492188 17.578125 25.410156 18.050781 25.417969 18.125 " fill-opacity="1" fill-rule="nonzero"/><path fill="#000000" d="M 25.523438 18.445312 C 25.59375 19.527344 25.796875 20.4375 26.289062 21.414062 C 26.6875 22.207031 27.339844 22.90625 27.808594 23.660156 C 29.050781 25.65625 27.859375 27.570312 26.855469 29.195312 C 26.816406 29.257812 26.769531 29.664062 26.914062 29.648438 C 28.488281 29.480469 28.902344 27.03125 28.828125 25.742188 C 28.777344 24.878906 28.644531 24.09375 28.34375 23.277344 C 27.65625 21.386719 26.050781 20.445312 25.683594 18.304688 C 25.636719 18.023438 25.515625 18.304688 25.523438 18.445312 " fill-opacity="1" fill-rule="nonzero"/><path fill="#000000" d="M 25.875 25.261719 C 25.792969 25.125 25.730469 24.984375 25.6875 24.84375 C 25.125 26.757812 23.382812 28.0625 23.695312 30.195312 C 23.832031 30.261719 23.964844 30.324219 24.101562 30.386719 L 24.210938 30.335938 C 24.210938 30.285156 24.210938 30.246094 24.210938 30.226562 C 24.085938 28.714844 25.144531 28.039062 25.585938 26.730469 C 25.75 26.242188 25.84375 25.757812 25.875 25.261719 " fill-opacity="1" fill-rule="nonzero"/><path fill="#000000" d="M 26.929688 29.542969 L 26.996094 29.492188 C 27.136719 29.414062 27.261719 29.308594 27.386719 29.199219 C 27.578125 27.421875 26.300781 26.054688 25.78125 24.394531 C 25.765625 24.351562 25.742188 24.359375 25.726562 24.398438 C 25.128906 25.917969 26.808594 27.667969 26.839844 29.179688 C 26.84375 29.246094 26.878906 29.394531 26.929688 29.542969 " fill-opacity="1" fill-rule="nonzero"/><g clip-path="url(#53cc24eebc)"><path fill="#000000" d="M 34.367188 31.371094 C 33.769531 36.050781 35.378906 41.433594 37.84375 45.378906 C 41.070312 50.542969 46.429688 52.679688 52.273438 53.101562 C 52.355469 53.105469 52.351562 52.859375 52.265625 52.84375 C 49.894531 52.402344 47.65625 52.277344 45.40625 51.269531 C 43.15625 50.261719 41.257812 49.109375 39.597656 47.253906 C 35.984375 43.214844 33.957031 36.824219 34.414062 31.429688 C 34.417969 31.390625 34.378906 31.273438 34.367188 31.371094 " fill-opacity="1" fill-rule="nonzero"/></g><path fill="#000000" d="M 34.976562 38.441406 C 34.9375 39.027344 34.550781 39.523438 34.382812 40.070312 C 34.371094 40.109375 34.402344 40.363281 34.445312 40.277344 C 34.734375 39.738281 35.09375 39.109375 35.0625 38.476562 C 35.058594 38.371094 34.984375 38.296875 34.976562 38.441406 " fill-opacity="1" fill-rule="nonzero"/><path fill="#000000" d="M 35.417969 39.921875 C 35.042969 40.3125 34.886719 40.886719 34.660156 41.367188 C 34.492188 41.726562 34.308594 42.046875 34.355469 42.457031 C 34.375 42.644531 34.507812 42.636719 34.523438 42.453125 C 34.554688 42.101562 34.75 41.792969 34.882812 41.472656 C 35.070312 41.019531 35.246094 40.574219 35.457031 40.132812 C 35.472656 40.101562 35.460938 39.875 35.417969 39.921875 " fill-opacity="1" fill-rule="nonzero"/><path fill="#000000" d="M 35.855469 41.191406 C 35.484375 41.65625 35.28125 42.238281 35.058594 42.785156 C 34.8125 43.390625 34.4375 43.957031 34.257812 44.585938 C 34.238281 44.652344 34.320312 45.074219 34.40625 44.90625 C 34.472656 44.785156 34.484375 44.660156 34.417969 44.53125 C 34.40625 44.664062 34.394531 44.800781 34.382812 44.933594 C 34.722656 44.699219 34.871094 43.894531 35.039062 43.523438 C 35.347656 42.828125 35.550781 42.109375 35.914062 41.429688 C 35.9375 41.378906 35.921875 41.101562 35.855469 41.191406 " fill-opacity="1" fill-rule="nonzero"/><path fill="#000000" d="M 36.453125 42.691406 C 36.507812 42.972656 35.808594 43.957031 35.605469 44.304688 C 35.152344 45.082031 34.757812 45.878906 34.285156 46.644531 C 34.199219 46.777344 34.1875 47.058594 34.328125 47.164062 L 34.34375 47.175781 C 34.382812 47.207031 34.425781 47.144531 34.4375 47.113281 C 34.59375 46.707031 34.957031 46.308594 35.152344 45.902344 C 35.421875 45.351562 35.675781 44.792969 35.953125 44.246094 C 36.15625 43.847656 36.738281 43.042969 36.507812 42.570312 C 36.460938 42.476562 36.445312 42.660156 36.453125 42.691406 " fill-opacity="1" fill-rule="nonzero"/><path fill="#000000" d="M 37.132812 43.839844 C 36.347656 45.234375 35.671875 46.6875 34.867188 48.070312 C 34.699219 48.359375 34.292969 48.996094 34.601562 49.328125 C 34.664062 49.398438 34.714844 49.308594 34.730469 49.253906 C 34.910156 48.683594 35.238281 48.207031 35.503906 47.671875 C 36.097656 46.472656 36.75 45.28125 37.191406 44.015625 C 37.203125 43.980469 37.175781 43.765625 37.132812 43.839844 " fill-opacity="1" fill-rule="nonzero"/><path fill="#000000" d="M 37.789062 45.082031 C 37.015625 46.75 36.097656 48.292969 35.191406 49.886719 C 34.890625 50.414062 34.570312 51.261719 34.550781 51.875 C 34.546875 51.9375 34.578125 52.109375 34.675781 52.074219 C 34.945312 51.980469 35.449219 50.042969 35.515625 49.917969 C 36.335938 48.390625 37.289062 46.933594 37.847656 45.28125 C 37.863281 45.238281 37.824219 45.007812 37.789062 45.082031 " fill-opacity="1" fill-rule="nonzero"/><path fill="#000000" d="M 38.632812 46.320312 C 37.777344 47.433594 37.277344 48.894531 36.550781 50.105469 C 36.074219 50.902344 35.546875 51.550781 35.300781 52.445312 C 35.277344 52.523438 35.269531 52.800781 35.398438 52.808594 L 35.417969 52.808594 C 35.515625 52.8125 35.511719 52.585938 35.503906 52.53125 C 35.566406 52.894531 35.898438 51.746094 35.851562 51.832031 C 36.164062 51.253906 36.5625 50.710938 36.886719 50.136719 C 37.550781 48.96875 38.011719 47.695312 38.683594 46.539062 C 38.710938 46.492188 38.691406 46.246094 38.632812 46.320312 " fill-opacity="1" fill-rule="nonzero"/><g clip-path="url(#85e663795e)"><path fill="#000000" d="M 39.46875 47.324219 C 38.761719 47.980469 38.351562 49.117188 37.929688 49.972656 C 37.535156 50.773438 36.738281 51.785156 36.660156 52.71875 C 36.652344 52.816406 36.78125 53.273438 36.878906 52.992188 L 36.917969 52.878906 C 36.941406 52.800781 36.972656 52.433594 36.808594 52.492188 L 36.742188 52.515625 C 36.796875 52.632812 36.851562 52.746094 36.90625 52.863281 C 36.964844 52.226562 37.652344 51.257812 37.914062 50.671875 C 38.390625 49.621094 38.871094 48.511719 39.511719 47.550781 C 39.539062 47.511719 39.515625 47.277344 39.46875 47.324219 " fill-opacity="1" fill-rule="nonzero"/></g><g clip-path="url(#9f9d377696)"><path fill="#000000" d="M 40.363281 48.308594 C 39.808594 49.078125 39.5 50.019531 39.050781 50.84375 C 38.71875 51.445312 38.324219 51.996094 38.035156 52.617188 C 37.957031 52.789062 38.132812 53.328125 38.230469 53.039062 C 38.253906 52.980469 38.273438 52.917969 38.292969 52.859375 C 38.316406 52.804688 38.347656 52.492188 38.222656 52.511719 L 38.125 52.527344 C 38.160156 52.699219 38.195312 52.867188 38.230469 53.039062 C 38.929688 51.496094 39.789062 50.058594 40.414062 48.476562 C 40.429688 48.441406 40.414062 48.242188 40.363281 48.308594 " fill-opacity="1" fill-rule="nonzero"/></g><g clip-path="url(#540116d8c2)"><path fill="#000000" d="M 41.371094 48.945312 C 40.65625 50.113281 40.136719 51.445312 39.59375 52.699219 C 39.523438 52.867188 39.699219 53.390625 39.789062 53.109375 C 39.804688 53.054688 39.824219 53 39.839844 52.949219 C 39.859375 52.890625 39.886719 52.492188 39.734375 52.574219 L 39.652344 52.621094 C 39.695312 52.785156 39.742188 52.945312 39.789062 53.109375 C 40.304688 51.777344 40.960938 50.492188 41.4375 49.148438 C 41.449219 49.109375 41.425781 48.859375 41.371094 48.945312 " fill-opacity="1" fill-rule="nonzero"/></g><g clip-path="url(#539545ba4f)"><path fill="#000000" d="M 42.417969 49.726562 C 42.125 50.144531 41.964844 50.640625 41.773438 51.109375 C 41.546875 51.664062 41.183594 52.148438 41.132812 52.757812 C 41.125 52.816406 41.148438 53.179688 41.285156 53.089844 C 41.335938 53.058594 41.351562 53.039062 41.378906 52.988281 C 41.417969 52.929688 41.46875 52.527344 41.320312 52.558594 L 41.273438 52.566406 C 41.300781 52.699219 41.328125 52.828125 41.355469 52.960938 C 41.441406 52.421875 41.722656 51.957031 41.921875 51.453125 C 42.117188 50.953125 42.28125 50.4375 42.492188 49.941406 C 42.507812 49.898438 42.484375 49.636719 42.417969 49.726562 " fill-opacity="1" fill-rule="nonzero"/></g><g clip-path="url(#7e653a58e9)"><path fill="#000000" d="M 43.578125 50.507812 C 43.3125 51.355469 42.6875 52.046875 42.503906 52.925781 C 42.480469 53.042969 42.582031 53.574219 42.714844 53.277344 L 42.765625 53.167969 C 42.796875 53.097656 42.820312 52.839844 42.714844 52.808594 L 42.644531 52.789062 C 42.675781 52.933594 42.703125 53.074219 42.734375 53.21875 C 42.960938 52.347656 43.515625 51.609375 43.695312 50.722656 C 43.707031 50.65625 43.636719 50.328125 43.578125 50.507812 " fill-opacity="1" fill-rule="nonzero"/></g><g clip-path="url(#97522cd837)"><path fill="#000000" d="M 44.566406 51.039062 C 44.3125 51.769531 43.703125 52.339844 43.609375 53.125 C 43.597656 53.242188 43.71875 53.707031 43.84375 53.417969 L 43.878906 53.335938 C 43.921875 53.242188 43.941406 52.988281 43.824219 52.933594 L 43.773438 52.90625 C 43.804688 53.03125 43.84375 53.15625 43.878906 53.28125 C 43.984375 52.515625 44.683594 51.941406 44.664062 51.136719 C 44.664062 51.09375 44.605469 50.917969 44.566406 51.039062 " fill-opacity="1" fill-rule="nonzero"/></g><g clip-path="url(#ada9076381)"><path fill="#000000" d="M 45.558594 51.519531 C 45.261719 51.996094 44.882812 52.667969 44.980469 53.25 C 44.996094 53.335938 45.089844 53.507812 45.152344 53.347656 C 45.246094 53.109375 45.285156 52.859375 45.382812 52.621094 C 45.496094 52.34375 45.625 52.078125 45.675781 51.78125 C 45.683594 51.738281 45.644531 51.378906 45.558594 51.519531 " fill-opacity="1" fill-rule="nonzero"/></g><g clip-path="url(#6ffa246862)"><path fill="#000000" d="M 46.890625 51.90625 C 46.71875 52.28125 46.335938 52.640625 46.476562 53.09375 C 46.492188 53.140625 46.527344 53.230469 46.589844 53.195312 C 46.707031 53.132812 46.722656 52.890625 46.765625 52.777344 C 46.84375 52.574219 46.949219 52.386719 47.015625 52.175781 C 47.042969 52.089844 47.046875 51.988281 47.007812 51.902344 C 46.976562 51.828125 46.921875 51.835938 46.890625 51.90625 " fill-opacity="1" fill-rule="nonzero"/></g><g clip-path="url(#29a268229b)"><path fill="#000000" d="M 15.152344 39.726562 C 14.996094 45.527344 18.820312 53.292969 25.574219 53.019531 C 25.726562 53.011719 25.710938 52.59375 25.5625 52.570312 C 19.210938 51.644531 15.140625 46.15625 15.230469 39.726562 C 15.234375 39.601562 15.152344 39.605469 15.152344 39.726562 " fill-opacity="1" fill-rule="nonzero"/></g><path fill="#000000" d="M 15.953125 44.554688 C 15.6875 44.988281 15.496094 45.472656 15.316406 45.949219 C 15.292969 46.011719 15.347656 46.328125 15.398438 46.222656 C 15.636719 45.742188 15.824219 45.230469 16.003906 44.726562 C 16.015625 44.695312 15.996094 44.488281 15.953125 44.554688 " fill-opacity="1" fill-rule="nonzero"/><path fill="#000000" d="M 16.433594 45.820312 C 16.125 46.386719 15.902344 46.992188 15.574219 47.546875 C 15.335938 47.949219 15.144531 48.335938 15.136719 48.808594 C 15.132812 48.917969 15.226562 49.066406 15.273438 48.894531 C 15.410156 48.40625 15.664062 48.015625 15.863281 47.5625 C 16.089844 47.046875 16.304688 46.527344 16.488281 45.992188 C 16.5 45.957031 16.476562 45.746094 16.433594 45.820312 " fill-opacity="1" fill-rule="nonzero"/><path fill="#000000" d="M 16.941406 47.175781 C 16.558594 47.808594 16.238281 48.476562 15.882812 49.128906 C 15.582031 49.675781 15.222656 50.148438 15.183594 50.789062 C 15.175781 50.925781 15.300781 51.253906 15.382812 50.96875 C 15.730469 49.761719 16.476562 48.582031 17.003906 47.433594 C 17.03125 47.375 17 47.078125 16.941406 47.175781 " fill-opacity="1" fill-rule="nonzero"/><path fill="#000000" d="M 17.566406 48.050781 C 17.257812 48.707031 16.882812 49.339844 16.566406 49.992188 C 16.269531 50.601562 15.824219 51.25 15.695312 51.921875 C 15.679688 52.023438 15.789062 52.511719 15.890625 52.238281 C 16.15625 51.507812 16.535156 50.804688 16.847656 50.09375 C 17.117188 49.488281 17.527344 48.847656 17.636719 48.191406 C 17.644531 48.152344 17.617188 47.9375 17.566406 48.050781 " fill-opacity="1" fill-rule="nonzero"/><g clip-path="url(#ebf7699f49)"><path fill="#000000" d="M 18.71875 49.351562 C 18.421875 49.175781 18.070312 50.253906 17.976562 50.417969 C 17.566406 51.15625 16.863281 51.871094 16.648438 52.699219 C 16.625 52.789062 16.667969 53.304688 16.84375 53.109375 L 16.910156 53.035156 C 16.996094 52.941406 16.996094 52.597656 16.84375 52.5625 L 16.761719 52.546875 C 16.804688 52.695312 16.847656 52.847656 16.890625 53 C 17.097656 52.328125 17.65625 51.6875 17.988281 51.070312 C 18.144531 50.78125 18.285156 50.484375 18.417969 50.1875 C 18.507812 49.992188 18.507812 49.703125 18.722656 49.601562 C 18.78125 49.570312 18.769531 49.382812 18.71875 49.351562 " fill-opacity="1" fill-rule="nonzero"/></g><g clip-path="url(#feb96e3317)"><path fill="#000000" d="M 19.441406 50.328125 C 19.191406 50.929688 18.902344 51.519531 18.566406 52.074219 C 18.386719 52.375 18.226562 52.761719 18.382812 53.101562 C 18.460938 53.265625 18.554688 53.085938 18.5625 52.988281 C 18.597656 52.660156 18.804688 52.421875 18.929688 52.128906 C 19.148438 51.625 19.378906 51.132812 19.566406 50.621094 C 19.601562 50.523438 19.527344 50.125 19.441406 50.328125 " fill-opacity="1" fill-rule="nonzero"/></g><g clip-path="url(#279b01b3e1)"><path fill="#000000" d="M 20.699219 51.316406 C 20.394531 51.773438 20.09375 52.359375 20.070312 52.921875 C 20.066406 53.074219 20.203125 53.449219 20.300781 53.121094 C 20.445312 52.617188 20.617188 52.148438 20.824219 51.664062 C 20.855469 51.585938 20.804688 51.160156 20.699219 51.316406 " fill-opacity="1" fill-rule="nonzero"/></g><g fill="#000000" fill-opacity="1"><g transform="translate(2.084321, 66.656258)"><g><path d="M 5.25 -0.75 L 4.1875 0.1875 C 4.269531 -0.695312 4.332031 -1.4375 4.375 -2.03125 C 4.425781 -2.625 4.460938 -3.101562 4.484375 -3.46875 C 4.515625 -3.894531 4.535156 -4.226562 4.546875 -4.46875 C 4.566406 -4.738281 4.554688 -4.960938 4.515625 -5.140625 C 4.484375 -5.316406 4.429688 -5.453125 4.359375 -5.546875 C 4.285156 -5.640625 4.203125 -5.703125 4.109375 -5.734375 C 4.023438 -5.773438 3.9375 -5.796875 3.84375 -5.796875 C 3.75 -5.796875 3.664062 -5.773438 3.59375 -5.734375 C 3.519531 -5.703125 3.445312 -5.648438 3.375 -5.578125 C 3.3125 -5.515625 3.242188 -5.429688 3.171875 -5.328125 C 3.097656 -5.222656 3.023438 -5.097656 2.953125 -4.953125 C 2.890625 -4.828125 2.816406 -4.664062 2.734375 -4.46875 C 2.671875 -4.300781 2.597656 -4.085938 2.515625 -3.828125 C 2.429688 -3.566406 2.335938 -3.25 2.234375 -2.875 L 2.234375 -2.75 C 2.222656 -2.539062 2.210938 -2.320312 2.203125 -2.09375 C 2.191406 -1.894531 2.175781 -1.671875 2.15625 -1.421875 C 2.132812 -1.179688 2.113281 -0.929688 2.09375 -0.671875 L 1.078125 0.21875 C 1.128906 -0.820312 1.171875 -1.679688 1.203125 -2.359375 C 1.242188 -3.035156 1.273438 -3.570312 1.296875 -3.96875 C 1.316406 -4.425781 1.335938 -4.78125 1.359375 -5.03125 C 1.367188 -5.3125 1.328125 -5.515625 1.234375 -5.640625 C 1.148438 -5.765625 1.039062 -5.828125 0.90625 -5.828125 C 0.800781 -5.828125 0.691406 -5.789062 0.578125 -5.71875 C 0.460938 -5.65625 0.347656 -5.578125 0.234375 -5.484375 C 0.347656 -5.597656 0.46875 -5.722656 0.59375 -5.859375 C 0.726562 -6.003906 0.867188 -6.132812 1.015625 -6.25 C 1.160156 -6.363281 1.304688 -6.457031 1.453125 -6.53125 C 1.609375 -6.613281 1.757812 -6.65625 1.90625 -6.65625 C 2 -6.65625 2.078125 -6.628906 2.140625 -6.578125 C 2.210938 -6.523438 2.265625 -6.441406 2.296875 -6.328125 C 2.328125 -6.253906 2.347656 -6.140625 2.359375 -5.984375 C 2.367188 -5.835938 2.375 -5.671875 2.375 -5.484375 C 2.375 -5.359375 2.367188 -5.222656 2.359375 -5.078125 C 2.359375 -4.941406 2.351562 -4.800781 2.34375 -4.65625 C 2.4375 -4.800781 2.523438 -4.9375 2.609375 -5.0625 C 2.691406 -5.1875 2.769531 -5.289062 2.84375 -5.375 C 2.914062 -5.476562 2.988281 -5.570312 3.0625 -5.65625 C 3.238281 -5.84375 3.421875 -6.007812 3.609375 -6.15625 C 3.804688 -6.3125 3.992188 -6.429688 4.171875 -6.515625 C 4.359375 -6.609375 4.53125 -6.664062 4.6875 -6.6875 C 4.851562 -6.71875 5 -6.691406 5.125 -6.609375 C 5.207031 -6.554688 5.28125 -6.492188 5.34375 -6.421875 C 5.40625 -6.359375 5.453125 -6.28125 5.484375 -6.1875 C 5.523438 -6.09375 5.550781 -5.976562 5.5625 -5.84375 C 5.582031 -5.71875 5.59375 -5.566406 5.59375 -5.390625 C 5.59375 -5.253906 5.59375 -5.117188 5.59375 -4.984375 C 5.59375 -4.859375 5.585938 -4.726562 5.578125 -4.59375 C 5.679688 -4.738281 5.773438 -4.867188 5.859375 -4.984375 C 5.953125 -5.109375 6.035156 -5.21875 6.109375 -5.3125 C 6.179688 -5.414062 6.253906 -5.507812 6.328125 -5.59375 C 6.492188 -5.78125 6.660156 -5.941406 6.828125 -6.078125 C 7.003906 -6.222656 7.175781 -6.335938 7.34375 -6.421875 C 7.507812 -6.515625 7.660156 -6.578125 7.796875 -6.609375 C 7.941406 -6.648438 8.066406 -6.660156 8.171875 -6.640625 C 8.367188 -6.585938 8.503906 -6.4375 8.578125 -6.1875 C 8.648438 -5.945312 8.6875 -5.613281 8.6875 -5.1875 C 8.6875 -4.863281 8.675781 -4.546875 8.65625 -4.234375 C 8.632812 -3.929688 8.609375 -3.628906 8.578125 -3.328125 C 8.554688 -3.035156 8.535156 -2.738281 8.515625 -2.4375 C 8.492188 -2.144531 8.484375 -1.851562 8.484375 -1.5625 C 8.484375 -1.363281 8.5 -1.203125 8.53125 -1.078125 C 8.5625 -0.960938 8.625 -0.894531 8.71875 -0.875 C 8.8125 -0.875 8.914062 -0.898438 9.03125 -0.953125 C 9.132812 -1.003906 9.253906 -1.09375 9.390625 -1.21875 C 9.523438 -1.351562 9.675781 -1.546875 9.84375 -1.796875 L 9.78125 -1.390625 C 9.664062 -1.265625 9.53125 -1.109375 9.375 -0.921875 C 9.226562 -0.742188 9.070312 -0.578125 8.90625 -0.421875 C 8.738281 -0.265625 8.570312 -0.128906 8.40625 -0.015625 C 8.238281 0.0859375 8.082031 0.128906 7.9375 0.109375 C 7.769531 0.0859375 7.632812 0 7.53125 -0.15625 C 7.425781 -0.320312 7.375 -0.585938 7.375 -0.953125 C 7.375 -1.304688 7.382812 -1.660156 7.40625 -2.015625 C 7.4375 -2.367188 7.46875 -2.71875 7.5 -3.0625 C 7.53125 -3.414062 7.554688 -3.765625 7.578125 -4.109375 C 7.597656 -4.460938 7.601562 -4.816406 7.59375 -5.171875 C 7.582031 -5.367188 7.523438 -5.515625 7.421875 -5.609375 C 7.328125 -5.703125 7.21875 -5.75 7.09375 -5.75 C 6.9375 -5.75 6.789062 -5.6875 6.65625 -5.5625 C 6.582031 -5.488281 6.5 -5.390625 6.40625 -5.265625 C 6.320312 -5.148438 6.226562 -4.992188 6.125 -4.796875 C 6.03125 -4.597656 5.925781 -4.359375 5.8125 -4.078125 C 5.707031 -3.804688 5.601562 -3.488281 5.5 -3.125 C 5.457031 -2.71875 5.414062 -2.316406 5.375 -1.921875 C 5.332031 -1.535156 5.289062 -1.144531 5.25 -0.75 Z M 5.25 -0.75 "/></g></g></g><g fill="#000000" fill-opacity="1"><g transform="translate(11.886374, 66.656258)"><g><path d="M 4.984375 -4.953125 C 4.992188 -4.617188 4.976562 -4.289062 4.9375 -3.96875 C 4.90625 -3.644531 4.851562 -3.34375 4.78125 -3.0625 C 4.71875 -2.78125 4.640625 -2.523438 4.546875 -2.296875 C 4.453125 -2.066406 4.347656 -1.878906 4.234375 -1.734375 C 4.160156 -1.640625 4.054688 -1.523438 3.921875 -1.390625 C 3.796875 -1.265625 3.648438 -1.128906 3.484375 -0.984375 C 3.328125 -0.847656 3.15625 -0.707031 2.96875 -0.5625 C 2.78125 -0.425781 2.597656 -0.304688 2.421875 -0.203125 C 2.242188 -0.0976562 2.070312 -0.015625 1.90625 0.046875 C 1.738281 0.109375 1.59375 0.140625 1.46875 0.140625 C 1.320312 0.140625 1.195312 0.101562 1.09375 0.03125 C 0.988281 -0.0390625 0.894531 -0.132812 0.8125 -0.25 C 0.738281 -0.375 0.675781 -0.515625 0.625 -0.671875 C 0.570312 -0.828125 0.53125 -0.976562 0.5 -1.125 C 0.46875 -1.28125 0.445312 -1.425781 0.4375 -1.5625 C 0.425781 -1.707031 0.421875 -1.828125 0.421875 -1.921875 C 0.421875 -2.296875 0.453125 -2.671875 0.515625 -3.046875 C 0.585938 -3.421875 0.695312 -3.773438 0.84375 -4.109375 C 0.988281 -4.441406 1.171875 -4.75 1.390625 -5.03125 C 1.609375 -5.3125 1.867188 -5.554688 2.171875 -5.765625 C 2.367188 -5.898438 2.546875 -6.019531 2.703125 -6.125 C 2.867188 -6.238281 3.015625 -6.332031 3.140625 -6.40625 C 3.273438 -6.476562 3.394531 -6.535156 3.5 -6.578125 C 3.613281 -6.617188 3.722656 -6.640625 3.828125 -6.640625 C 3.921875 -6.640625 4.03125 -6.613281 4.15625 -6.5625 C 4.28125 -6.507812 4.398438 -6.421875 4.515625 -6.296875 C 4.628906 -6.171875 4.726562 -6 4.8125 -5.78125 C 4.90625 -5.5625 4.960938 -5.285156 4.984375 -4.953125 Z M 3.96875 -3.890625 C 3.96875 -4.066406 3.953125 -4.269531 3.921875 -4.5 C 3.898438 -4.726562 3.847656 -4.941406 3.765625 -5.140625 C 3.691406 -5.347656 3.582031 -5.519531 3.4375 -5.65625 C 3.300781 -5.800781 3.117188 -5.875 2.890625 -5.875 C 2.796875 -5.875 2.695312 -5.851562 2.59375 -5.8125 C 2.488281 -5.769531 2.394531 -5.707031 2.3125 -5.625 C 2.144531 -5.445312 2.007812 -5.25 1.90625 -5.03125 C 1.800781 -4.8125 1.71875 -4.578125 1.65625 -4.328125 C 1.59375 -4.085938 1.550781 -3.84375 1.53125 -3.59375 C 1.507812 -3.34375 1.5 -3.109375 1.5 -2.890625 C 1.5 -2.773438 1.5 -2.640625 1.5 -2.484375 C 1.507812 -2.328125 1.523438 -2.171875 1.546875 -2.015625 C 1.566406 -1.859375 1.597656 -1.695312 1.640625 -1.53125 C 1.679688 -1.375 1.734375 -1.234375 1.796875 -1.109375 C 1.867188 -0.992188 1.957031 -0.894531 2.0625 -0.8125 C 2.175781 -0.738281 2.3125 -0.703125 2.46875 -0.703125 C 2.664062 -0.703125 2.84375 -0.757812 3 -0.875 C 3.15625 -1 3.285156 -1.15625 3.390625 -1.34375 C 3.503906 -1.53125 3.597656 -1.738281 3.671875 -1.96875 C 3.742188 -2.207031 3.800781 -2.441406 3.84375 -2.671875 C 3.882812 -2.910156 3.914062 -3.132812 3.9375 -3.34375 C 3.957031 -3.5625 3.96875 -3.742188 3.96875 -3.890625 Z M 3.96875 -3.890625 "/></g></g></g><g fill="#000000" fill-opacity="1"><g transform="translate(17.314807, 66.656258)"><g><path d="M 5.25 -0.75 L 4.1875 0.1875 C 4.269531 -0.695312 4.332031 -1.4375 4.375 -2.03125 C 4.425781 -2.625 4.460938 -3.101562 4.484375 -3.46875 C 4.515625 -3.894531 4.535156 -4.226562 4.546875 -4.46875 C 4.566406 -4.738281 4.554688 -4.960938 4.515625 -5.140625 C 4.484375 -5.316406 4.429688 -5.453125 4.359375 -5.546875 C 4.285156 -5.640625 4.203125 -5.703125 4.109375 -5.734375 C 4.023438 -5.773438 3.9375 -5.796875 3.84375 -5.796875 C 3.75 -5.796875 3.664062 -5.773438 3.59375 -5.734375 C 3.519531 -5.703125 3.445312 -5.648438 3.375 -5.578125 C 3.3125 -5.515625 3.242188 -5.429688 3.171875 -5.328125 C 3.097656 -5.222656 3.023438 -5.097656 2.953125 -4.953125 C 2.890625 -4.828125 2.816406 -4.664062 2.734375 -4.46875 C 2.671875 -4.300781 2.597656 -4.085938 2.515625 -3.828125 C 2.429688 -3.566406 2.335938 -3.25 2.234375 -2.875 L 2.234375 -2.75 C 2.222656 -2.539062 2.210938 -2.320312 2.203125 -2.09375 C 2.191406 -1.894531 2.175781 -1.671875 2.15625 -1.421875 C 2.132812 -1.179688 2.113281 -0.929688 2.09375 -0.671875 L 1.078125 0.21875 C 1.128906 -0.820312 1.171875 -1.679688 1.203125 -2.359375 C 1.242188 -3.035156 1.273438 -3.570312 1.296875 -3.96875 C 1.316406 -4.425781 1.335938 -4.78125 1.359375 -5.03125 C 1.367188 -5.3125 1.328125 -5.515625 1.234375 -5.640625 C 1.148438 -5.765625 1.039062 -5.828125 0.90625 -5.828125 C 0.800781 -5.828125 0.691406 -5.789062 0.578125 -5.71875 C 0.460938 -5.65625 0.347656 -5.578125 0.234375 -5.484375 C 0.347656 -5.597656 0.46875 -5.722656 0.59375 -5.859375 C 0.726562 -6.003906 0.867188 -6.132812 1.015625 -6.25 C 1.160156 -6.363281 1.304688 -6.457031 1.453125 -6.53125 C 1.609375 -6.613281 1.757812 -6.65625 1.90625 -6.65625 C 2 -6.65625 2.078125 -6.628906 2.140625 -6.578125 C 2.210938 -6.523438 2.265625 -6.441406 2.296875 -6.328125 C 2.328125 -6.253906 2.347656 -6.140625 2.359375 -5.984375 C 2.367188 -5.835938 2.375 -5.671875 2.375 -5.484375 C 2.375 -5.359375 2.367188 -5.222656 2.359375 -5.078125 C 2.359375 -4.941406 2.351562 -4.800781 2.34375 -4.65625 C 2.4375 -4.800781 2.523438 -4.9375 2.609375 -5.0625 C 2.691406 -5.1875 2.769531 -5.289062 2.84375 -5.375 C 2.914062 -5.476562 2.988281 -5.570312 3.0625 -5.65625 C 3.238281 -5.84375 3.421875 -6.007812 3.609375 -6.15625 C 3.804688 -6.3125 3.992188 -6.429688 4.171875 -6.515625 C 4.359375 -6.609375 4.53125 -6.664062 4.6875 -6.6875 C 4.851562 -6.71875 5 -6.691406 5.125 -6.609375 C 5.207031 -6.554688 5.28125 -6.492188 5.34375 -6.421875 C 5.40625 -6.359375 5.453125 -6.28125 5.484375 -6.1875 C 5.523438 -6.09375 5.550781 -5.976562 5.5625 -5.84375 C 5.582031 -5.71875 5.59375 -5.566406 5.59375 -5.390625 C 5.59375 -5.253906 5.59375 -5.117188 5.59375 -4.984375 C 5.59375 -4.859375 5.585938 -4.726562 5.578125 -4.59375 C 5.679688 -4.738281 5.773438 -4.867188 5.859375 -4.984375 C 5.953125 -5.109375 6.035156 -5.21875 6.109375 -5.3125 C 6.179688 -5.414062 6.253906 -5.507812 6.328125 -5.59375 C 6.492188 -5.78125 6.660156 -5.941406 6.828125 -6.078125 C 7.003906 -6.222656 7.175781 -6.335938 7.34375 -6.421875 C 7.507812 -6.515625 7.660156 -6.578125 7.796875 -6.609375 C 7.941406 -6.648438 8.066406 -6.660156 8.171875 -6.640625 C 8.367188 -6.585938 8.503906 -6.4375 8.578125 -6.1875 C 8.648438 -5.945312 8.6875 -5.613281 8.6875 -5.1875 C 8.6875 -4.863281 8.675781 -4.546875 8.65625 -4.234375 C 8.632812 -3.929688 8.609375 -3.628906 8.578125 -3.328125 C 8.554688 -3.035156 8.535156 -2.738281 8.515625 -2.4375 C 8.492188 -2.144531 8.484375 -1.851562 8.484375 -1.5625 C 8.484375 -1.363281 8.5 -1.203125 8.53125 -1.078125 C 8.5625 -0.960938 8.625 -0.894531 8.71875 -0.875 C 8.8125 -0.875 8.914062 -0.898438 9.03125 -0.953125 C 9.132812 -1.003906 9.253906 -1.09375 9.390625 -1.21875 C 9.523438 -1.351562 9.675781 -1.546875 9.84375 -1.796875 L 9.78125 -1.390625 C 9.664062 -1.265625 9.53125 -1.109375 9.375 -0.921875 C 9.226562 -0.742188 9.070312 -0.578125 8.90625 -0.421875 C 8.738281 -0.265625 8.570312 -0.128906 8.40625 -0.015625 C 8.238281 0.0859375 8.082031 0.128906 7.9375 0.109375 C 7.769531 0.0859375 7.632812 0 7.53125 -0.15625 C 7.425781 -0.320312 7.375 -0.585938 7.375 -0.953125 C 7.375 -1.304688 7.382812 -1.660156 7.40625 -2.015625 C 7.4375 -2.367188 7.46875 -2.71875 7.5 -3.0625 C 7.53125 -3.414062 7.554688 -3.765625 7.578125 -4.109375 C 7.597656 -4.460938 7.601562 -4.816406 7.59375 -5.171875 C 7.582031 -5.367188 7.523438 -5.515625 7.421875 -5.609375 C 7.328125 -5.703125 7.21875 -5.75 7.09375 -5.75 C 6.9375 -5.75 6.789062 -5.6875 6.65625 -5.5625 C 6.582031 -5.488281 6.5 -5.390625 6.40625 -5.265625 C 6.320312 -5.148438 6.226562 -4.992188 6.125 -4.796875 C 6.03125 -4.597656 5.925781 -4.359375 5.8125 -4.078125 C 5.707031 -3.804688 5.601562 -3.488281 5.5 -3.125 C 5.457031 -2.71875 5.414062 -2.316406 5.375 -1.921875 C 5.332031 -1.535156 5.289062 -1.144531 5.25 -0.75 Z M 5.25 -0.75 "/></g></g></g><g fill="#000000" fill-opacity="1"><g transform="translate(27.116859, 66.656258)"><g><path d="M 1.859375 -8.96875 C 1.859375 -8.90625 1.847656 -8.816406 1.828125 -8.703125 C 1.804688 -8.597656 1.78125 -8.476562 1.75 -8.34375 C 1.726562 -8.21875 1.695312 -8.082031 1.65625 -7.9375 C 1.625 -7.800781 1.585938 -7.671875 1.546875 -7.546875 C 1.503906 -7.421875 1.460938 -7.304688 1.421875 -7.203125 C 1.390625 -7.109375 1.351562 -7.035156 1.3125 -6.984375 C 1.257812 -6.890625 1.195312 -6.789062 1.125 -6.6875 C 1.0625 -6.59375 0.992188 -6.5 0.921875 -6.40625 L 0.921875 -6.921875 C 0.921875 -7.109375 0.914062 -7.3125 0.90625 -7.53125 C 0.90625 -7.75 0.894531 -7.953125 0.875 -8.140625 C 0.851562 -8.328125 0.820312 -8.484375 0.78125 -8.609375 C 0.75 -8.742188 0.703125 -8.804688 0.640625 -8.796875 C 0.703125 -8.867188 0.769531 -8.941406 0.84375 -9.015625 C 0.925781 -9.097656 1.015625 -9.171875 1.109375 -9.234375 C 1.203125 -9.296875 1.296875 -9.347656 1.390625 -9.390625 C 1.484375 -9.429688 1.570312 -9.453125 1.65625 -9.453125 C 1.707031 -9.453125 1.742188 -9.429688 1.765625 -9.390625 C 1.796875 -9.359375 1.816406 -9.316406 1.828125 -9.265625 C 1.847656 -9.222656 1.859375 -9.171875 1.859375 -9.109375 C 1.859375 -9.054688 1.859375 -9.007812 1.859375 -8.96875 Z M 1.859375 -8.96875 "/></g></g></g><g fill="#000000" fill-opacity="1"><g transform="translate(29.38085, 66.656258)"><g><path d="M 3.828125 -6.40625 C 3.796875 -6.351562 3.742188 -6.289062 3.671875 -6.21875 C 3.609375 -6.144531 3.515625 -6.050781 3.390625 -5.9375 C 3.265625 -5.832031 3.085938 -5.703125 2.859375 -5.546875 C 2.859375 -5.617188 2.847656 -5.675781 2.828125 -5.71875 C 2.804688 -5.769531 2.773438 -5.8125 2.734375 -5.84375 C 2.703125 -5.875 2.660156 -5.894531 2.609375 -5.90625 C 2.335938 -5.957031 2.125 -5.957031 1.96875 -5.90625 C 1.925781 -5.882812 1.894531 -5.835938 1.875 -5.765625 C 1.851562 -5.703125 1.84375 -5.625 1.84375 -5.53125 C 1.84375 -5.289062 1.882812 -5.078125 1.96875 -4.890625 C 2.0625 -4.710938 2.175781 -4.539062 2.3125 -4.375 C 2.445312 -4.21875 2.585938 -4.066406 2.734375 -3.921875 C 2.890625 -3.773438 3.035156 -3.625 3.171875 -3.46875 C 3.304688 -3.3125 3.414062 -3.148438 3.5 -2.984375 C 3.59375 -2.816406 3.640625 -2.632812 3.640625 -2.4375 C 3.640625 -2.269531 3.601562 -2.09375 3.53125 -1.90625 C 3.457031 -1.726562 3.347656 -1.5625 3.203125 -1.40625 C 3.078125 -1.28125 2.941406 -1.144531 2.796875 -1 C 2.648438 -0.863281 2.5 -0.734375 2.34375 -0.609375 C 2.195312 -0.492188 2.046875 -0.382812 1.890625 -0.28125 C 1.734375 -0.175781 1.578125 -0.09375 1.421875 -0.03125 C 1.160156 0.0625 0.910156 0.109375 0.671875 0.109375 C 0.503906 0.109375 0.359375 0.0820312 0.234375 0.03125 C 0.117188 -0.0078125 0.0507812 -0.078125 0.03125 -0.171875 C 0.0078125 -0.253906 0.03125 -0.347656 0.09375 -0.453125 C 0.164062 -0.566406 0.253906 -0.679688 0.359375 -0.796875 C 0.460938 -0.910156 0.566406 -1.019531 0.671875 -1.125 C 0.785156 -1.226562 0.878906 -1.304688 0.953125 -1.359375 C 0.941406 -1.148438 0.988281 -1 1.09375 -0.90625 C 1.195312 -0.820312 1.363281 -0.773438 1.59375 -0.765625 C 1.707031 -0.753906 1.828125 -0.757812 1.953125 -0.78125 C 2.085938 -0.8125 2.207031 -0.847656 2.3125 -0.890625 C 2.425781 -0.941406 2.515625 -1.003906 2.578125 -1.078125 C 2.648438 -1.160156 2.6875 -1.253906 2.6875 -1.359375 C 2.675781 -1.597656 2.625 -1.816406 2.53125 -2.015625 C 2.445312 -2.210938 2.335938 -2.398438 2.203125 -2.578125 C 2.066406 -2.753906 1.921875 -2.925781 1.765625 -3.09375 C 1.609375 -3.269531 1.460938 -3.445312 1.328125 -3.625 C 1.203125 -3.800781 1.09375 -3.984375 1 -4.171875 C 0.914062 -4.367188 0.875 -4.585938 0.875 -4.828125 C 0.875 -4.921875 0.882812 -5.007812 0.90625 -5.09375 C 0.9375 -5.1875 0.976562 -5.273438 1.03125 -5.359375 C 1.125 -5.503906 1.253906 -5.65625 1.421875 -5.8125 C 1.597656 -5.976562 1.78125 -6.125 1.96875 -6.25 C 2.164062 -6.382812 2.359375 -6.5 2.546875 -6.59375 C 2.742188 -6.6875 2.910156 -6.742188 3.046875 -6.765625 C 3.171875 -6.773438 3.285156 -6.769531 3.390625 -6.75 C 3.503906 -6.738281 3.59375 -6.71875 3.65625 -6.6875 C 3.726562 -6.65625 3.773438 -6.613281 3.796875 -6.5625 C 3.828125 -6.507812 3.835938 -6.457031 3.828125 -6.40625 Z M 3.828125 -6.40625 "/></g></g></g><g fill="#000000" fill-opacity="1"><g transform="translate(33.54222, 66.656258)"><g/></g></g><g fill="#000000" fill-opacity="1"><g transform="translate(36.835298, 66.656258)"><g><path d="M 4.734375 -6.203125 C 4.691406 -6.160156 4.628906 -6.097656 4.546875 -6.015625 C 4.472656 -5.953125 4.375 -5.867188 4.25 -5.765625 C 4.125 -5.671875 3.957031 -5.554688 3.75 -5.421875 C 3.800781 -5.460938 3.828125 -5.503906 3.828125 -5.546875 C 3.835938 -5.585938 3.835938 -5.617188 3.828125 -5.640625 C 3.804688 -5.679688 3.78125 -5.71875 3.75 -5.75 C 3.675781 -5.78125 3.5625 -5.804688 3.40625 -5.828125 C 3.257812 -5.859375 3.097656 -5.875 2.921875 -5.875 C 2.773438 -5.875 2.640625 -5.863281 2.515625 -5.84375 C 2.390625 -5.820312 2.285156 -5.789062 2.203125 -5.75 C 2.117188 -5.695312 2.03125 -5.578125 1.9375 -5.390625 C 1.851562 -5.210938 1.773438 -4.992188 1.703125 -4.734375 C 1.628906 -4.484375 1.566406 -4.203125 1.515625 -3.890625 C 1.472656 -3.585938 1.453125 -3.285156 1.453125 -2.984375 C 1.453125 -2.847656 1.457031 -2.695312 1.46875 -2.53125 C 1.488281 -2.363281 1.515625 -2.195312 1.546875 -2.03125 C 1.585938 -1.863281 1.632812 -1.703125 1.6875 -1.546875 C 1.75 -1.398438 1.828125 -1.269531 1.921875 -1.15625 C 2.015625 -1.039062 2.117188 -0.945312 2.234375 -0.875 C 2.359375 -0.8125 2.5 -0.785156 2.65625 -0.796875 C 2.757812 -0.816406 2.878906 -0.863281 3.015625 -0.9375 C 3.117188 -1 3.242188 -1.09375 3.390625 -1.21875 C 3.535156 -1.34375 3.6875 -1.519531 3.84375 -1.75 L 4.390625 -1.90625 C 4.160156 -1.65625 3.953125 -1.4375 3.765625 -1.25 C 3.585938 -1.070312 3.4375 -0.921875 3.3125 -0.796875 C 3.164062 -0.660156 3.035156 -0.550781 2.921875 -0.46875 C 2.785156 -0.375 2.65625 -0.285156 2.53125 -0.203125 C 2.40625 -0.128906 2.28125 -0.0625 2.15625 0 C 2.039062 0.0507812 1.925781 0.0859375 1.8125 0.109375 C 1.695312 0.128906 1.578125 0.128906 1.453125 0.109375 C 1.359375 0.109375 1.25 0.0546875 1.125 -0.046875 C 1.007812 -0.160156 0.898438 -0.3125 0.796875 -0.5 C 0.691406 -0.695312 0.601562 -0.925781 0.53125 -1.1875 C 0.46875 -1.457031 0.4375 -1.765625 0.4375 -2.109375 C 0.4375 -2.472656 0.472656 -2.84375 0.546875 -3.21875 C 0.617188 -3.601562 0.722656 -3.96875 0.859375 -4.3125 C 1.003906 -4.664062 1.1875 -4.988281 1.40625 -5.28125 C 1.625 -5.582031 1.878906 -5.835938 2.171875 -6.046875 C 2.328125 -6.148438 2.492188 -6.242188 2.671875 -6.328125 C 2.859375 -6.410156 3.039062 -6.476562 3.21875 -6.53125 C 3.40625 -6.582031 3.582031 -6.617188 3.75 -6.640625 C 3.914062 -6.660156 4.066406 -6.664062 4.203125 -6.65625 C 4.453125 -6.644531 4.625 -6.597656 4.71875 -6.515625 C 4.8125 -6.429688 4.816406 -6.328125 4.734375 -6.203125 Z M 4.734375 -6.203125 "/></g></g></g><g fill="#000000" fill-opacity="1"><g transform="translate(41.575529, 66.656258)"><g><path d="M 6.625 -1.671875 C 6.582031 -1.609375 6.523438 -1.535156 6.453125 -1.453125 C 6.390625 -1.367188 6.328125 -1.285156 6.265625 -1.203125 C 6.179688 -1.109375 6.09375 -1.015625 6 -0.921875 C 5.894531 -0.785156 5.773438 -0.648438 5.640625 -0.515625 C 5.515625 -0.390625 5.390625 -0.273438 5.265625 -0.171875 C 5.140625 -0.078125 5.015625 0 4.890625 0.0625 C 4.773438 0.125 4.671875 0.148438 4.578125 0.140625 C 4.390625 0.140625 4.257812 0.0351562 4.1875 -0.171875 C 4.125 -0.390625 4.09375 -0.703125 4.09375 -1.109375 C 4.09375 -1.316406 4.097656 -1.546875 4.109375 -1.796875 C 4.128906 -2.046875 4.148438 -2.328125 4.171875 -2.640625 C 4.078125 -2.484375 3.988281 -2.34375 3.90625 -2.21875 C 3.820312 -2.09375 3.742188 -1.984375 3.671875 -1.890625 C 3.597656 -1.785156 3.519531 -1.6875 3.4375 -1.59375 C 3.207031 -1.3125 2.988281 -1.0625 2.78125 -0.84375 C 2.570312 -0.632812 2.375 -0.457031 2.1875 -0.3125 C 2.007812 -0.164062 1.851562 -0.0546875 1.71875 0.015625 C 1.59375 0.0976562 1.488281 0.140625 1.40625 0.140625 C 1.332031 0.148438 1.238281 0.125 1.125 0.0625 C 1.019531 0.0078125 0.914062 -0.0976562 0.8125 -0.265625 C 0.71875 -0.441406 0.632812 -0.679688 0.5625 -0.984375 C 0.488281 -1.296875 0.457031 -1.703125 0.46875 -2.203125 C 0.46875 -2.691406 0.515625 -3.125 0.609375 -3.5 C 0.710938 -3.875 0.84375 -4.203125 1 -4.484375 C 1.164062 -4.765625 1.347656 -5.003906 1.546875 -5.203125 C 1.742188 -5.410156 1.941406 -5.59375 2.140625 -5.75 C 2.535156 -6.050781 2.914062 -6.289062 3.28125 -6.46875 C 3.644531 -6.65625 4.003906 -6.753906 4.359375 -6.765625 C 4.472656 -6.765625 4.585938 -6.757812 4.703125 -6.75 C 4.796875 -6.738281 4.898438 -6.722656 5.015625 -6.703125 C 5.128906 -6.691406 5.238281 -6.664062 5.34375 -6.625 L 5.53125 -6.765625 C 5.507812 -6.648438 5.484375 -6.488281 5.453125 -6.28125 C 5.421875 -6.070312 5.390625 -5.835938 5.359375 -5.578125 C 5.335938 -5.328125 5.3125 -5.054688 5.28125 -4.765625 C 5.257812 -4.472656 5.238281 -4.179688 5.21875 -3.890625 C 5.207031 -3.597656 5.191406 -3.3125 5.171875 -3.03125 C 5.148438 -2.757812 5.132812 -2.507812 5.125 -2.28125 C 5.113281 -2.050781 5.109375 -1.851562 5.109375 -1.6875 C 5.109375 -1.53125 5.109375 -1.425781 5.109375 -1.375 C 5.128906 -1.125 5.1875 -0.953125 5.28125 -0.859375 C 5.375 -0.773438 5.503906 -0.785156 5.671875 -0.890625 C 5.734375 -0.941406 5.8125 -1.023438 5.90625 -1.140625 C 5.988281 -1.234375 6.085938 -1.363281 6.203125 -1.53125 C 6.316406 -1.695312 6.457031 -1.910156 6.625 -2.171875 Z M 4.421875 -5.765625 C 4.015625 -5.816406 3.679688 -5.84375 3.421875 -5.84375 C 3.140625 -5.84375 2.894531 -5.796875 2.6875 -5.703125 C 2.488281 -5.617188 2.316406 -5.5 2.171875 -5.34375 C 2.023438 -5.195312 1.90625 -5.019531 1.8125 -4.8125 C 1.71875 -4.613281 1.640625 -4.40625 1.578125 -4.1875 C 1.523438 -3.96875 1.488281 -3.738281 1.46875 -3.5 C 1.457031 -3.269531 1.453125 -3.050781 1.453125 -2.84375 C 1.453125 -2.769531 1.453125 -2.671875 1.453125 -2.546875 C 1.460938 -2.421875 1.476562 -2.285156 1.5 -2.140625 C 1.53125 -2.003906 1.5625 -1.863281 1.59375 -1.71875 C 1.632812 -1.570312 1.679688 -1.4375 1.734375 -1.3125 C 1.796875 -1.195312 1.863281 -1.101562 1.9375 -1.03125 C 2.019531 -0.957031 2.113281 -0.921875 2.21875 -0.921875 C 2.320312 -0.921875 2.453125 -0.976562 2.609375 -1.09375 C 2.773438 -1.21875 2.972656 -1.425781 3.203125 -1.71875 C 3.335938 -1.90625 3.472656 -2.125 3.609375 -2.375 C 3.710938 -2.582031 3.828125 -2.84375 3.953125 -3.15625 C 4.078125 -3.476562 4.191406 -3.84375 4.296875 -4.25 Z M 4.421875 -5.765625 "/></g></g></g><g fill="#000000" fill-opacity="1"><g transform="translate(48.07164, 66.656258)"><g><path d="M 2.296875 -6.328125 C 2.328125 -6.253906 2.347656 -6.140625 2.359375 -5.984375 C 2.367188 -5.835938 2.375 -5.671875 2.375 -5.484375 C 2.375 -5.347656 2.367188 -5.203125 2.359375 -5.046875 C 2.359375 -4.890625 2.351562 -4.734375 2.34375 -4.578125 C 2.46875 -4.753906 2.601562 -4.9375 2.75 -5.125 C 2.894531 -5.320312 3.046875 -5.503906 3.203125 -5.671875 C 3.367188 -5.847656 3.539062 -6.007812 3.71875 -6.15625 C 3.894531 -6.300781 4.078125 -6.421875 4.265625 -6.515625 C 4.453125 -6.609375 4.640625 -6.664062 4.828125 -6.6875 C 5.023438 -6.71875 5.222656 -6.703125 5.421875 -6.640625 C 5.535156 -6.609375 5.628906 -6.554688 5.703125 -6.484375 C 5.773438 -6.410156 5.832031 -6.320312 5.875 -6.21875 C 5.914062 -6.125 5.941406 -6.007812 5.953125 -5.875 C 5.972656 -5.75 5.984375 -5.613281 5.984375 -5.46875 C 5.984375 -5.132812 5.96875 -4.800781 5.9375 -4.46875 C 5.914062 -4.144531 5.890625 -3.820312 5.859375 -3.5 C 5.828125 -3.1875 5.796875 -2.867188 5.765625 -2.546875 C 5.742188 -2.234375 5.734375 -1.921875 5.734375 -1.609375 C 5.734375 -1.390625 5.75 -1.21875 5.78125 -1.09375 C 5.820312 -0.96875 5.890625 -0.894531 5.984375 -0.875 C 6.078125 -0.882812 6.179688 -0.925781 6.296875 -1 C 6.390625 -1.0625 6.503906 -1.160156 6.640625 -1.296875 C 6.785156 -1.429688 6.9375 -1.628906 7.09375 -1.890625 L 7.046875 -1.390625 C 6.929688 -1.265625 6.796875 -1.109375 6.640625 -0.921875 C 6.492188 -0.742188 6.335938 -0.578125 6.171875 -0.421875 C 6.003906 -0.265625 5.835938 -0.128906 5.671875 -0.015625 C 5.503906 0.0859375 5.34375 0.128906 5.1875 0.109375 C 5.03125 0.0859375 4.898438 0 4.796875 -0.15625 C 4.691406 -0.320312 4.640625 -0.585938 4.640625 -0.953125 C 4.640625 -1.117188 4.644531 -1.320312 4.65625 -1.5625 C 4.664062 -1.800781 4.679688 -2.050781 4.703125 -2.3125 C 4.722656 -2.570312 4.742188 -2.835938 4.765625 -3.109375 C 4.796875 -3.378906 4.820312 -3.632812 4.84375 -3.875 C 4.863281 -4.125 4.882812 -4.347656 4.90625 -4.546875 C 4.925781 -4.753906 4.941406 -4.925781 4.953125 -5.0625 C 4.960938 -5.1875 4.953125 -5.300781 4.921875 -5.40625 C 4.890625 -5.507812 4.835938 -5.597656 4.765625 -5.671875 C 4.703125 -5.753906 4.625 -5.816406 4.53125 -5.859375 C 4.445312 -5.898438 4.347656 -5.921875 4.234375 -5.921875 C 4.117188 -5.921875 3.992188 -5.890625 3.859375 -5.828125 C 3.734375 -5.773438 3.609375 -5.6875 3.484375 -5.5625 C 3.421875 -5.488281 3.34375 -5.394531 3.25 -5.28125 C 3.15625 -5.175781 3.050781 -5.03125 2.9375 -4.84375 C 2.832031 -4.664062 2.722656 -4.445312 2.609375 -4.1875 C 2.492188 -3.9375 2.378906 -3.644531 2.265625 -3.3125 C 2.253906 -3.207031 2.242188 -3.109375 2.234375 -3.015625 C 2.234375 -2.921875 2.234375 -2.832031 2.234375 -2.75 C 2.222656 -2.539062 2.210938 -2.320312 2.203125 -2.09375 C 2.191406 -1.894531 2.175781 -1.671875 2.15625 -1.421875 C 2.132812 -1.179688 2.113281 -0.929688 2.09375 -0.671875 L 1.078125 0.21875 C 1.128906 -0.820312 1.171875 -1.679688 1.203125 -2.359375 C 1.242188 -3.035156 1.273438 -3.570312 1.296875 -3.96875 C 1.316406 -4.425781 1.335938 -4.78125 1.359375 -5.03125 C 1.367188 -5.3125 1.328125 -5.515625 1.234375 -5.640625 C 1.148438 -5.765625 1.039062 -5.828125 0.90625 -5.828125 C 0.800781 -5.828125 0.691406 -5.789062 0.578125 -5.71875 C 0.460938 -5.65625 0.347656 -5.578125 0.234375 -5.484375 C 0.347656 -5.597656 0.46875 -5.722656 0.59375 -5.859375 C 0.726562 -6.003906 0.867188 -6.132812 1.015625 -6.25 C 1.160156 -6.363281 1.304688 -6.457031 1.453125 -6.53125 C 1.609375 -6.613281 1.757812 -6.65625 1.90625 -6.65625 C 2 -6.65625 2.078125 -6.628906 2.140625 -6.578125 C 2.210938 -6.523438 2.265625 -6.441406 2.296875 -6.328125 Z M 2.296875 -6.328125 "/></g></g></g><g fill="#000000" fill-opacity="1"><g transform="translate(55.133749, 66.656258)"><g><path d="M 6.859375 -2.078125 L 6.71875 -1.375 C 6.488281 -1.175781 6.296875 -1.007812 6.140625 -0.875 C 5.984375 -0.75 5.859375 -0.648438 5.765625 -0.578125 C 5.660156 -0.484375 5.570312 -0.410156 5.5 -0.359375 C 5.425781 -0.304688 5.347656 -0.25 5.265625 -0.1875 C 5.191406 -0.125 5.109375 -0.0664062 5.015625 -0.015625 C 4.929688 0.0234375 4.84375 0.0625 4.75 0.09375 C 4.664062 0.125 4.582031 0.128906 4.5 0.109375 C 4.25 0.0859375 4.125 -0.421875 4.125 -1.421875 C 4.125 -1.859375 4.132812 -2.363281 4.15625 -2.9375 C 4.03125 -2.71875 3.910156 -2.519531 3.796875 -2.34375 C 3.691406 -2.164062 3.597656 -2.015625 3.515625 -1.890625 C 3.421875 -1.742188 3.328125 -1.613281 3.234375 -1.5 C 3.046875 -1.25 2.859375 -1.023438 2.671875 -0.828125 C 2.492188 -0.640625 2.320312 -0.472656 2.15625 -0.328125 C 1.988281 -0.191406 1.835938 -0.0820312 1.703125 0 C 1.578125 0.0703125 1.472656 0.113281 1.390625 0.125 C 1.316406 0.132812 1.226562 0.125 1.125 0.09375 C 1.03125 0.0625 0.9375 -0.00390625 0.84375 -0.109375 C 0.75 -0.210938 0.664062 -0.363281 0.59375 -0.5625 C 0.519531 -0.757812 0.472656 -1.019531 0.453125 -1.34375 C 0.441406 -1.40625 0.4375 -1.46875 0.4375 -1.53125 C 0.4375 -1.601562 0.4375 -1.671875 0.4375 -1.734375 C 0.4375 -2.046875 0.457031 -2.367188 0.5 -2.703125 C 0.550781 -3.046875 0.617188 -3.367188 0.703125 -3.671875 C 0.796875 -3.984375 0.894531 -4.265625 1 -4.515625 C 1.113281 -4.765625 1.238281 -4.957031 1.375 -5.09375 C 1.46875 -5.195312 1.582031 -5.304688 1.71875 -5.421875 C 1.863281 -5.546875 2.019531 -5.660156 2.1875 -5.765625 C 2.351562 -5.878906 2.519531 -5.988281 2.6875 -6.09375 C 2.863281 -6.207031 3.03125 -6.300781 3.1875 -6.375 C 3.351562 -6.457031 3.5 -6.523438 3.625 -6.578125 C 3.757812 -6.628906 3.863281 -6.660156 3.9375 -6.671875 L 4.0625 -6.671875 C 4.101562 -6.671875 4.15625 -6.671875 4.21875 -6.671875 C 4.28125 -6.671875 4.347656 -6.664062 4.421875 -6.65625 C 4.453125 -7.039062 4.476562 -7.414062 4.5 -7.78125 C 4.53125 -8.144531 4.554688 -8.488281 4.578125 -8.8125 C 4.597656 -9.144531 4.613281 -9.441406 4.625 -9.703125 C 4.644531 -9.972656 4.65625 -10.207031 4.65625 -10.40625 C 4.65625 -10.570312 4.640625 -10.695312 4.609375 -10.78125 C 4.578125 -10.875 4.53125 -10.957031 4.46875 -11.03125 C 4.4375 -11.0625 4.390625 -11.082031 4.328125 -11.09375 C 4.285156 -11.09375 4.226562 -11.082031 4.15625 -11.0625 C 4.082031 -11.050781 3.992188 -11.015625 3.890625 -10.953125 C 4.109375 -11.109375 4.289062 -11.238281 4.4375 -11.34375 C 4.59375 -11.445312 4.722656 -11.523438 4.828125 -11.578125 C 4.929688 -11.648438 5.019531 -11.707031 5.09375 -11.75 C 5.1875 -11.800781 5.273438 -11.828125 5.359375 -11.828125 C 5.453125 -11.828125 5.53125 -11.796875 5.59375 -11.734375 C 5.664062 -11.671875 5.71875 -11.570312 5.75 -11.4375 C 5.789062 -11.3125 5.800781 -11.140625 5.78125 -10.921875 C 5.769531 -10.804688 5.75 -10.609375 5.71875 -10.328125 C 5.695312 -10.054688 5.671875 -9.726562 5.640625 -9.34375 C 5.609375 -8.957031 5.570312 -8.535156 5.53125 -8.078125 C 5.5 -7.617188 5.460938 -7.148438 5.421875 -6.671875 C 5.378906 -6.191406 5.335938 -5.71875 5.296875 -5.25 C 5.265625 -4.78125 5.234375 -4.34375 5.203125 -3.9375 C 5.179688 -3.539062 5.160156 -3.191406 5.140625 -2.890625 C 5.128906 -2.585938 5.125 -2.363281 5.125 -2.21875 C 5.125 -1.769531 5.15625 -1.421875 5.21875 -1.171875 C 5.28125 -0.929688 5.390625 -0.8125 5.546875 -0.8125 C 5.660156 -0.8125 5.800781 -0.878906 5.96875 -1.015625 C 6.09375 -1.117188 6.210938 -1.226562 6.328125 -1.34375 C 6.421875 -1.4375 6.515625 -1.546875 6.609375 -1.671875 C 6.710938 -1.796875 6.796875 -1.929688 6.859375 -2.078125 Z M 4.359375 -5.75 C 4.109375 -5.800781 3.890625 -5.832031 3.703125 -5.84375 C 3.515625 -5.863281 3.359375 -5.875 3.234375 -5.875 C 2.992188 -5.875 2.78125 -5.8125 2.59375 -5.6875 C 2.414062 -5.570312 2.257812 -5.421875 2.125 -5.234375 C 1.988281 -5.046875 1.875 -4.832031 1.78125 -4.59375 C 1.6875 -4.351562 1.613281 -4.109375 1.5625 -3.859375 C 1.507812 -3.617188 1.46875 -3.382812 1.4375 -3.15625 C 1.414062 -2.9375 1.40625 -2.742188 1.40625 -2.578125 C 1.40625 -2.503906 1.40625 -2.410156 1.40625 -2.296875 C 1.414062 -2.191406 1.429688 -2.078125 1.453125 -1.953125 C 1.472656 -1.835938 1.5 -1.71875 1.53125 -1.59375 C 1.570312 -1.46875 1.617188 -1.351562 1.671875 -1.25 C 1.722656 -1.15625 1.785156 -1.078125 1.859375 -1.015625 C 1.929688 -0.953125 2.015625 -0.921875 2.109375 -0.921875 C 2.222656 -0.921875 2.359375 -0.988281 2.515625 -1.125 C 2.671875 -1.269531 2.875 -1.503906 3.125 -1.828125 C 3.238281 -1.992188 3.363281 -2.203125 3.5 -2.453125 C 3.601562 -2.660156 3.722656 -2.925781 3.859375 -3.25 C 3.992188 -3.570312 4.125 -3.957031 4.25 -4.40625 Z M 4.359375 -5.75 "/></g></g></g><g fill="#000000" fill-opacity="1"><g transform="translate(61.681314, 66.656258)"><g><path d="M 3.78125 -1.6875 C 3.695312 -1.570312 3.601562 -1.445312 3.5 -1.3125 C 3.394531 -1.175781 3.28125 -1.035156 3.15625 -0.890625 C 3.039062 -0.753906 2.914062 -0.617188 2.78125 -0.484375 C 2.644531 -0.359375 2.503906 -0.242188 2.359375 -0.140625 C 2.210938 -0.046875 2.066406 0.0234375 1.921875 0.078125 C 1.773438 0.140625 1.625 0.164062 1.46875 0.15625 C 1.34375 0.144531 1.238281 0.0859375 1.15625 -0.015625 C 1.070312 -0.117188 1.003906 -0.253906 0.953125 -0.421875 C 0.910156 -0.585938 0.882812 -0.773438 0.875 -0.984375 C 0.863281 -1.203125 0.863281 -1.425781 0.875 -1.65625 C 0.875 -1.769531 0.878906 -1.972656 0.890625 -2.265625 C 0.910156 -2.566406 0.929688 -2.914062 0.953125 -3.3125 C 0.984375 -3.71875 1.007812 -4.160156 1.03125 -4.640625 C 1.0625 -5.117188 1.085938 -5.601562 1.109375 -6.09375 C 1.140625 -6.59375 1.164062 -7.078125 1.1875 -7.546875 C 1.21875 -8.023438 1.242188 -8.457031 1.265625 -8.84375 C 1.285156 -9.226562 1.300781 -9.550781 1.3125 -9.8125 C 1.320312 -10.082031 1.328125 -10.265625 1.328125 -10.359375 C 1.328125 -10.585938 1.304688 -10.765625 1.265625 -10.890625 C 1.234375 -11.023438 1.144531 -11.09375 1 -11.09375 C 0.863281 -11.09375 0.65625 -11.023438 0.375 -10.890625 C 0.5625 -11.054688 0.722656 -11.195312 0.859375 -11.3125 C 1.003906 -11.425781 1.117188 -11.519531 1.203125 -11.59375 C 1.316406 -11.675781 1.40625 -11.742188 1.46875 -11.796875 C 1.601562 -11.910156 1.742188 -11.96875 1.890625 -11.96875 C 2.023438 -11.96875 2.140625 -11.914062 2.234375 -11.8125 C 2.335938 -11.71875 2.378906 -11.566406 2.359375 -11.359375 C 2.359375 -11.273438 2.347656 -11.097656 2.328125 -10.828125 C 2.316406 -10.554688 2.300781 -10.222656 2.28125 -9.828125 C 2.257812 -9.441406 2.238281 -9.003906 2.21875 -8.515625 C 2.195312 -8.035156 2.175781 -7.539062 2.15625 -7.03125 C 2.132812 -6.519531 2.109375 -6.007812 2.078125 -5.5 C 2.054688 -4.988281 2.035156 -4.515625 2.015625 -4.078125 C 2.003906 -3.640625 1.992188 -3.25 1.984375 -2.90625 C 1.972656 -2.570312 1.96875 -2.316406 1.96875 -2.140625 C 1.957031 -1.898438 1.96875 -1.695312 2 -1.53125 C 2.03125 -1.363281 2.070312 -1.222656 2.125 -1.109375 C 2.175781 -1.003906 2.238281 -0.925781 2.3125 -0.875 C 2.382812 -0.820312 2.460938 -0.796875 2.546875 -0.796875 C 2.640625 -0.796875 2.734375 -0.828125 2.828125 -0.890625 C 2.929688 -0.953125 3.023438 -1.03125 3.109375 -1.125 C 3.203125 -1.21875 3.289062 -1.320312 3.375 -1.4375 C 3.457031 -1.5625 3.53125 -1.679688 3.59375 -1.796875 C 3.664062 -1.921875 3.726562 -2.035156 3.78125 -2.140625 C 3.832031 -2.253906 3.867188 -2.34375 3.890625 -2.40625 Z M 3.78125 -1.6875 "/></g></g></g><g fill="#000000" fill-opacity="1"><g transform="translate(65.302411, 66.656258)"><g><path d="M 4.109375 -1.875 C 3.878906 -1.613281 3.671875 -1.382812 3.484375 -1.1875 C 3.296875 -1 3.128906 -0.835938 2.984375 -0.703125 C 2.804688 -0.546875 2.648438 -0.410156 2.515625 -0.296875 C 2.140625 -0.00390625 1.8125 0.140625 1.53125 0.140625 C 1.375 0.140625 1.238281 0.0976562 1.125 0.015625 C 1.007812 -0.0664062 0.910156 -0.171875 0.828125 -0.296875 C 0.742188 -0.429688 0.675781 -0.582031 0.625 -0.75 C 0.570312 -0.914062 0.53125 -1.082031 0.5 -1.25 C 0.476562 -1.425781 0.460938 -1.585938 0.453125 -1.734375 C 0.441406 -1.890625 0.4375 -2.023438 0.4375 -2.140625 C 0.4375 -2.421875 0.46875 -2.726562 0.53125 -3.0625 C 0.601562 -3.394531 0.703125 -3.726562 0.828125 -4.0625 C 0.953125 -4.394531 1.101562 -4.710938 1.28125 -5.015625 C 1.46875 -5.328125 1.679688 -5.601562 1.921875 -5.84375 C 2.160156 -6.082031 2.421875 -6.269531 2.703125 -6.40625 C 2.992188 -6.550781 3.304688 -6.625 3.640625 -6.625 C 3.722656 -6.625 3.796875 -6.609375 3.859375 -6.578125 C 3.921875 -6.546875 3.96875 -6.5 4 -6.4375 C 4.039062 -6.382812 4.066406 -6.320312 4.078125 -6.25 C 4.097656 -6.1875 4.109375 -6.117188 4.109375 -6.046875 C 4.109375 -5.859375 4.066406 -5.671875 3.984375 -5.484375 C 3.898438 -5.296875 3.785156 -5.109375 3.640625 -4.921875 C 3.492188 -4.742188 3.328125 -4.566406 3.140625 -4.390625 C 2.960938 -4.210938 2.769531 -4.046875 2.5625 -3.890625 C 2.363281 -3.734375 2.164062 -3.585938 1.96875 -3.453125 C 1.769531 -3.316406 1.59375 -3.191406 1.4375 -3.078125 L 1.4375 -2.9375 C 1.4375 -2.832031 1.441406 -2.703125 1.453125 -2.546875 C 1.460938 -2.398438 1.476562 -2.242188 1.5 -2.078125 C 1.53125 -1.910156 1.566406 -1.742188 1.609375 -1.578125 C 1.660156 -1.421875 1.722656 -1.273438 1.796875 -1.140625 C 1.867188 -1.015625 1.957031 -0.910156 2.0625 -0.828125 C 2.164062 -0.753906 2.28125 -0.71875 2.40625 -0.71875 C 2.46875 -0.71875 2.53125 -0.722656 2.59375 -0.734375 C 2.65625 -0.753906 2.722656 -0.789062 2.796875 -0.84375 C 2.898438 -0.9375 3.023438 -1.0625 3.171875 -1.21875 C 3.285156 -1.351562 3.421875 -1.53125 3.578125 -1.75 C 3.742188 -1.96875 3.921875 -2.242188 4.109375 -2.578125 Z M 2.90625 -5.671875 C 2.863281 -5.722656 2.800781 -5.757812 2.71875 -5.78125 C 2.632812 -5.800781 2.546875 -5.796875 2.453125 -5.765625 C 2.359375 -5.742188 2.265625 -5.695312 2.171875 -5.625 C 2.085938 -5.550781 2.019531 -5.453125 1.96875 -5.328125 C 1.875 -5.160156 1.773438 -4.914062 1.671875 -4.59375 C 1.578125 -4.269531 1.503906 -3.90625 1.453125 -3.5 C 1.597656 -3.570312 1.742188 -3.660156 1.890625 -3.765625 C 2.035156 -3.878906 2.175781 -3.992188 2.3125 -4.109375 C 2.445312 -4.234375 2.566406 -4.359375 2.671875 -4.484375 C 2.785156 -4.617188 2.867188 -4.753906 2.921875 -4.890625 C 2.984375 -5.023438 3.015625 -5.15625 3.015625 -5.28125 C 3.023438 -5.414062 2.988281 -5.546875 2.90625 -5.671875 Z M 2.90625 -5.671875 "/></g></g></g><g fill="#000000" fill-opacity="1"><g transform="translate(69.753211, 66.656258)"><g><path d="M 3.828125 -6.40625 C 3.796875 -6.351562 3.742188 -6.289062 3.671875 -6.21875 C 3.609375 -6.144531 3.515625 -6.050781 3.390625 -5.9375 C 3.265625 -5.832031 3.085938 -5.703125 2.859375 -5.546875 C 2.859375 -5.617188 2.847656 -5.675781 2.828125 -5.71875 C 2.804688 -5.769531 2.773438 -5.8125 2.734375 -5.84375 C 2.703125 -5.875 2.660156 -5.894531 2.609375 -5.90625 C 2.335938 -5.957031 2.125 -5.957031 1.96875 -5.90625 C 1.925781 -5.882812 1.894531 -5.835938 1.875 -5.765625 C 1.851562 -5.703125 1.84375 -5.625 1.84375 -5.53125 C 1.84375 -5.289062 1.882812 -5.078125 1.96875 -4.890625 C 2.0625 -4.710938 2.175781 -4.539062 2.3125 -4.375 C 2.445312 -4.21875 2.585938 -4.066406 2.734375 -3.921875 C 2.890625 -3.773438 3.035156 -3.625 3.171875 -3.46875 C 3.304688 -3.3125 3.414062 -3.148438 3.5 -2.984375 C 3.59375 -2.816406 3.640625 -2.632812 3.640625 -2.4375 C 3.640625 -2.269531 3.601562 -2.09375 3.53125 -1.90625 C 3.457031 -1.726562 3.347656 -1.5625 3.203125 -1.40625 C 3.078125 -1.28125 2.941406 -1.144531 2.796875 -1 C 2.648438 -0.863281 2.5 -0.734375 2.34375 -0.609375 C 2.195312 -0.492188 2.046875 -0.382812 1.890625 -0.28125 C 1.734375 -0.175781 1.578125 -0.09375 1.421875 -0.03125 C 1.160156 0.0625 0.910156 0.109375 0.671875 0.109375 C 0.503906 0.109375 0.359375 0.0820312 0.234375 0.03125 C 0.117188 -0.0078125 0.0507812 -0.078125 0.03125 -0.171875 C 0.0078125 -0.253906 0.03125 -0.347656 0.09375 -0.453125 C 0.164062 -0.566406 0.253906 -0.679688 0.359375 -0.796875 C 0.460938 -0.910156 0.566406 -1.019531 0.671875 -1.125 C 0.785156 -1.226562 0.878906 -1.304688 0.953125 -1.359375 C 0.941406 -1.148438 0.988281 -1 1.09375 -0.90625 C 1.195312 -0.820312 1.363281 -0.773438 1.59375 -0.765625 C 1.707031 -0.753906 1.828125 -0.757812 1.953125 -0.78125 C 2.085938 -0.8125 2.207031 -0.847656 2.3125 -0.890625 C 2.425781 -0.941406 2.515625 -1.003906 2.578125 -1.078125 C 2.648438 -1.160156 2.6875 -1.253906 2.6875 -1.359375 C 2.675781 -1.597656 2.625 -1.816406 2.53125 -2.015625 C 2.445312 -2.210938 2.335938 -2.398438 2.203125 -2.578125 C 2.066406 -2.753906 1.921875 -2.925781 1.765625 -3.09375 C 1.609375 -3.269531 1.460938 -3.445312 1.328125 -3.625 C 1.203125 -3.800781 1.09375 -3.984375 1 -4.171875 C 0.914062 -4.367188 0.875 -4.585938 0.875 -4.828125 C 0.875 -4.921875 0.882812 -5.007812 0.90625 -5.09375 C 0.9375 -5.1875 0.976562 -5.273438 1.03125 -5.359375 C 1.125 -5.503906 1.253906 -5.65625 1.421875 -5.8125 C 1.597656 -5.976562 1.78125 -6.125 1.96875 -6.25 C 2.164062 -6.382812 2.359375 -6.5 2.546875 -6.59375 C 2.742188 -6.6875 2.910156 -6.742188 3.046875 -6.765625 C 3.171875 -6.773438 3.285156 -6.769531 3.390625 -6.75 C 3.503906 -6.738281 3.59375 -6.71875 3.65625 -6.6875 C 3.726562 -6.65625 3.773438 -6.613281 3.796875 -6.5625 C 3.828125 -6.507812 3.835938 -6.457031 3.828125 -6.40625 Z M 3.828125 -6.40625 "/></g></g></g></svg>