<?xml version="1.0" standalone="no"?>
<!DOCTYPE svg PUBLIC "-//W3C//DTD SVG 20010904//EN"
 "http://www.w3.org/TR/2001/REC-SVG-20010904/DTD/svg10.dtd">
<svg version="1.0" xmlns="http://www.w3.org/2000/svg"
 width="709.000000pt" height="709.000000pt" viewBox="0 0 709.000000 709.000000"
 preserveAspectRatio="xMidYMid meet">

<g transform="translate(0.000000,709.000000) scale(0.100000,-0.100000)"
fill="#000000" stroke="none">
<path d="M4415 6998 c-2 -7 -22 -89 -43 -182 l-38 -169 -27 46 c-32 53 -89 86
-169 94 -133 13 -236 -62 -289 -211 -80 -229 21 -410 227 -408 49 0 124 28
139 52 14 23 22 7 14 -27 -5 -21 -9 -41 -9 -45 0 -9 80 -31 87 -24 4 4 203
850 203 862 0 1 -12 5 -27 8 -16 4 -36 9 -46 12 -9 3 -19 -1 -22 -8z m-243
-298 c44 -13 93 -52 113 -91 32 -60 5 -222 -48 -291 -76 -98 -195 -105 -274
-15 -107 121 0 397 157 406 8 1 32 -4 52 -9z"/>
<path d="M3441 6847 c-19 -6 -54 -30 -78 -52 l-43 -42 0 49 0 49 -47 -3 -48
-3 -3 -302 -2 -303 50 0 50 0 0 198 c0 170 3 202 19 237 43 93 142 132 218 85
62 -37 68 -61 71 -302 l4 -218 44 0 44 0 0 223 c0 251 -8 292 -63 344 -54 51
-135 66 -216 40z"/>
<path d="M2793 6789 c-91 -17 -198 -84 -189 -118 2 -9 7 -29 10 -44 l7 -29 41
37 c81 74 179 96 233 53 25 -19 55 -73 55 -97 0 -5 -53 -28 -117 -52 -134 -50
-183 -88 -203 -157 -17 -54 0 -139 36 -177 73 -79 223 -71 299 18 19 22 35 47
35 54 0 30 19 10 25 -28 7 -39 8 -40 38 -34 70 14 68 -6 16 234 -26 120 -54
232 -63 248 -21 41 -69 80 -114 93 -42 11 -50 11 -109 -1z m191 -379 c2 -100
-63 -170 -156 -170 -65 0 -108 38 -108 97 0 68 21 86 160 139 l85 32 9 -21 c4
-12 9 -47 10 -77z"/>
<path d="M2309 6386 l-147 -62 14 -32 c7 -18 16 -32 20 -32 4 0 70 26 146 57
142 59 150 66 125 109 -12 21 -14 20 -158 -40z"/>
<path d="M4959 6168 c-63 -156 -114 -286 -114 -289 0 -7 140 -119 148 -119 3
0 75 53 160 119 85 65 159 121 164 124 6 4 -27 -79 -74 -184 -78 -179 -83
-192 -66 -204 10 -7 45 -33 77 -59 32 -25 64 -42 70 -39 16 10 414 300 459
335 l37 30 -62 49 c-35 27 -67 49 -72 49 -4 0 -76 -59 -160 -132 -83 -72 -159
-138 -170 -147 -15 -13 -14 -7 7 35 25 50 167 363 167 369 0 3 -106 85 -127
98 -9 5 -68 -34 -180 -120 -92 -70 -172 -131 -179 -136 -7 -4 30 81 82 188 52
108 94 200 94 205 0 8 -132 110 -143 110 -3 0 -56 -127 -118 -282z"/>
<path d="M1859 6425 c-136 -50 -229 -137 -253 -238 -18 -74 52 -178 129 -193
24 -4 69 -2 110 6 114 21 144 23 160 10 23 -19 18 -46 -14 -78 -38 -37 -89
-62 -161 -75 l-57 -11 40 -62 39 -62 56 19 c210 72 322 236 249 363 -45 80
-116 101 -240 72 -94 -22 -124 -21 -138 5 -22 42 53 109 145 130 l54 12 -37
58 c-20 32 -38 58 -41 58 -3 0 -21 -6 -41 -14z"/>
<path d="M4545 6379 c-9 -17 -15 -32 -13 -34 8 -7 279 -125 287 -125 9 0 36
58 30 64 -7 6 -276 126 -282 126 -4 0 -14 -14 -22 -31z"/>
<path d="M1384 6104 c-211 -141 -251 -353 -97 -524 89 -99 224 -132 336 -82
57 25 162 122 188 175 23 44 19 54 -39 111 l-40 38 -19 -43 c-39 -87 -127
-141 -203 -124 -37 8 -105 65 -126 106 -21 42 -18 115 8 157 23 37 100 92 130
92 10 0 18 5 18 10 0 16 -90 110 -105 110 -7 0 -30 -12 -51 -26z"/>
<path d="M718 5804 c-52 -28 -74 -107 -43 -151 20 -29 75 -46 107 -34 14 5 37
24 51 41 75 88 -14 199 -115 144z"/>
<path d="M5695 5662 c-133 -66 -200 -161 -200 -287 1 -90 37 -168 114 -246
129 -129 304 -128 445 1 138 127 131 317 -16 463 -70 70 -115 90 -208 95 -66
3 -82 0 -135 -26z m229 -161 c42 -28 66 -70 66 -119 0 -36 -6 -49 -41 -87 -44
-48 -128 -95 -168 -95 -66 0 -140 95 -126 161 15 68 131 158 205 158 19 1 48
-8 64 -18z"/>
<path d="M911 5599 c-52 -69 -53 -71 -35 -89 42 -40 447 -351 455 -348 12 5
110 131 107 139 -3 7 -464 369 -470 369 -2 -1 -27 -32 -57 -71z"/>
<path d="M3398 5569 c-64 -54 -63 -77 4 -174 29 -41 55 -75 58 -75 11 0 130
178 130 194 0 20 -101 96 -126 96 -10 0 -40 -18 -66 -41z m129 -55 c4 -11 -51
-104 -62 -104 -3 0 -5 36 -5 81 l0 80 31 -22 c17 -12 33 -27 36 -35z"/>
<path d="M3684 5413 c-48 -71 -98 -143 -111 -161 -14 -18 -23 -38 -20 -45 18
-45 378 -403 442 -440 10 -5 29 20 69 91 62 109 70 153 41 248 -16 56 -125
251 -175 314 -38 48 -125 120 -145 120 -8 0 -53 -57 -101 -127z m149 4 l38
-32 -120 -87 c-67 -49 -121 -85 -121 -82 0 8 154 233 160 234 3 0 22 -15 43
-33z"/>
<path d="M3091 5484 c-100 -90 -177 -220 -238 -402 -42 -128 -41 -153 16 -251
32 -53 46 -69 56 -63 67 37 445 415 445 445 0 12 -213 316 -221 317 -4 0 -30
-21 -58 -46z m129 -144 c41 -60 76 -114 78 -120 2 -6 -48 26 -112 72 -63 46
-115 87 -116 92 0 9 60 65 70 65 3 0 39 -49 80 -109z"/>
<path d="M720 5319 c-36 -14 -69 -48 -93 -94 -28 -52 -30 -164 -4 -212 l18
-33 -31 0 c-117 0 -200 -166 -146 -293 16 -40 13 -43 -24 -22 -14 8 -30 14
-36 15 -9 0 -88 -160 -82 -165 8 -6 539 -245 544 -245 6 0 74 146 74 159 0 5
-77 43 -171 87 -182 83 -219 112 -219 165 0 17 7 43 15 58 32 62 77 56 284
-39 96 -44 178 -77 182 -73 4 5 22 42 42 84 l34 76 -96 43 c-214 96 -262 122
-282 154 -26 43 -24 87 6 120 40 44 81 36 267 -48 90 -41 169 -76 176 -78 9
-2 28 28 52 78 l38 82 -182 83 c-243 111 -297 125 -366 98z"/>
<path d="M4301 5068 c-22 -72 -80 -198 -138 -297 -30 -51 -51 -96 -46 -100 5
-3 45 -34 89 -67 85 -65 199 -139 249 -160 l31 -13 -3 67 c-9 176 -69 417
-140 557 l-29 57 -13 -44z m51 -193 l15 -54 -76 -65 c-42 -35 -77 -63 -79 -61
-5 4 112 235 119 235 3 0 13 -25 21 -55z"/>
<path d="M3360 5004 c-84 -94 -200 -206 -312 -300 -32 -27 -58 -51 -58 -54 0
-28 288 -337 413 -444 l57 -48 58 48 c92 79 262 253 340 349 l71 89 -231 225
c-127 124 -236 227 -242 228 -6 1 -49 -41 -96 -93z m261 -194 c57 -63 111
-124 119 -134 9 -12 -41 9 -127 53 -99 51 -148 71 -162 66 -11 -3 -81 -35
-155 -71 -75 -35 -139 -64 -143 -64 -4 0 8 14 27 31 19 17 93 88 163 157 l128
125 23 -24 c13 -13 70 -76 127 -139z"/>
<path d="M6088 5071 c-115 -38 -182 -92 -221 -180 -16 -36 -19 -60 -15 -125 8
-142 83 -262 196 -314 115 -52 290 -9 382 95 76 87 87 194 34 328 -66 166
-223 247 -376 196z m187 -183 c52 -23 84 -108 61 -162 -37 -90 -211 -149 -280
-95 -60 47 -75 135 -31 187 56 66 181 102 250 70z"/>
<path d="M2573 5018 c-51 -83 -102 -202 -125 -286 -20 -77 -32 -282 -16 -297
14 -14 224 117 357 223 l24 19 -76 139 c-42 76 -86 165 -99 196 -13 32 -25 58
-28 58 -3 0 -20 -24 -37 -52z m83 -189 c30 -61 53 -113 51 -115 -5 -5 -147
115 -147 125 0 4 5 23 11 42 6 19 12 40 15 47 2 6 6 12 9 12 2 0 30 -50 61
-111z"/>
<path d="M2755 4481 c-71 -48 -197 -127 -280 -176 -82 -48 -154 -91 -159 -95
-18 -18 193 -306 336 -455 l71 -75 125 65 c130 68 301 176 433 273 l76 56
-145 141 c-80 77 -185 188 -235 248 -49 59 -90 107 -91 106 0 0 -59 -40 -131
-88z m222 -129 c50 -64 90 -118 88 -120 -1 -2 -43 22 -92 52 -56 35 -101 56
-119 56 -16 0 -74 -14 -128 -30 -55 -17 -101 -29 -102 -27 -5 5 239 185 251
186 6 0 51 -52 102 -117z"/>
<path d="M3947 4466 c-43 -52 -146 -161 -230 -243 l-153 -149 46 -34 c184
-139 536 -350 584 -350 29 0 268 281 364 429 43 65 52 85 41 91 -8 5 -137 85
-288 179 -150 94 -276 171 -280 171 -4 0 -42 -42 -84 -94z m238 -91 c68 -49
125 -93 125 -97 0 -4 -53 11 -117 33 -126 42 -135 42 -198 -1 -50 -34 -125
-73 -125 -64 0 12 174 224 182 222 4 -2 64 -43 133 -93z"/>
<path d="M6242 4390 c-125 -35 -202 -125 -202 -235 0 -87 42 -173 96 -197 33
-15 30 -28 -5 -28 -17 0 -33 -5 -36 -10 -7 -11 14 -161 24 -172 3 -4 197 24
431 63 234 38 431 69 438 69 9 0 12 8 8 28 -3 15 -10 57 -16 93 l-11 65 -142
-22 c-78 -13 -157 -26 -175 -29 l-32 -6 25 37 c30 44 34 124 9 197 -21 63 -95
131 -165 151 -68 21 -168 19 -247 -4z m259 -206 c23 -23 33 -44 36 -76 5 -40
2 -49 -26 -81 -38 -43 -82 -59 -165 -60 -105 -2 -164 51 -153 135 11 80 80
120 199 116 72 -3 80 -5 109 -34z"/>
<path d="M374 4286 c-43 -19 -99 -89 -115 -144 -15 -50 -19 -219 -6 -264 8
-29 17 -33 94 -43 l53 -7 -17 39 c-22 52 -23 178 0 219 17 34 35 44 72 44 23
0 23 -2 27 -132 3 -105 7 -141 22 -171 27 -55 84 -90 157 -95 71 -5 109 8 149
54 66 76 65 199 -3 273 l-22 24 41 -6 c48 -6 46 -8 60 111 5 49 4 62 -7 62 -8
0 -88 11 -179 25 -183 28 -280 31 -326 11z m297 -191 c56 -29 83 -100 57 -148
-26 -49 -69 -60 -110 -27 -31 24 -40 64 -32 136 6 49 9 54 31 54 13 0 37 -7
54 -15z"/>
<path d="M4679 4069 c-82 -121 -179 -247 -292 -379 -31 -36 -53 -68 -49 -72
31 -29 384 -149 398 -135 8 7 55 186 64 240 15 92 12 268 -6 353 -27 132 -20
133 -115 -7z m65 -180 c-13 -22 -44 -46 -94 -73 -41 -22 -70 -33 -64 -25 6 7
44 59 85 114 l74 100 9 -42 c7 -34 5 -48 -10 -74z"/>
<path d="M2151 4148 c-41 -109 -44 -297 -7 -478 39 -189 37 -186 72 -181 85
10 364 114 364 136 0 12 -402 545 -411 545 -5 0 -13 -10 -18 -22z m128 -257
c39 -52 69 -96 67 -98 -2 -2 -40 19 -85 47 l-81 52 0 47 c0 49 8 67 21 54 4
-5 40 -50 78 -102z"/>
<path d="M3395 3943 c-103 -78 -335 -228 -458 -296 l-118 -65 78 -70 c164
-149 496 -392 554 -407 20 -5 44 7 120 61 226 162 409 302 466 357 l63 60
-140 78 c-149 84 -273 164 -411 265 -48 35 -88 64 -90 64 -2 0 -31 -21 -64
-47z m201 -139 c74 -59 137 -111 140 -115 6 -11 -142 43 -189 68 -56 30 -127
22 -277 -31 -74 -26 -129 -41 -122 -34 12 12 304 217 310 218 2 0 64 -48 138
-106z"/>
<path d="M217 3703 c-14 -13 -6 -70 16 -113 15 -30 35 -50 62 -64 l40 -21 -52
-3 -53 -3 0 -89 c0 -49 3 -91 8 -93 9 -6 592 19 598 26 3 3 2 44 -2 92 l-7 88
-169 -7 c-155 -6 -172 -5 -214 13 -55 25 -79 72 -70 138 l6 43 -79 0 c-43 0
-81 -3 -84 -7z"/>
<path d="M6116 3626 c-30 -29 -33 -52 -10 -84 10 -15 25 -22 48 -22 80 0 92
107 14 125 -21 5 -33 1 -52 -19z"/>
<path d="M2620 3494 c-45 -20 -207 -74 -504 -168 l-39 -12 123 -154 c114 -142
363 -410 401 -431 12 -6 80 15 230 70 248 90 326 123 427 178 l73 40 -118 83
c-136 96 -219 162 -391 313 -68 59 -129 107 -135 106 -7 0 -37 -11 -67 -25z
m187 -172 c73 -58 131 -107 129 -109 -2 -2 -68 28 -147 66 l-144 70 -108 -10
c-183 -17 -188 -11 -36 47 76 30 143 50 154 47 11 -3 80 -53 152 -111z"/>
<path d="M4073 3392 c-199 -170 -286 -239 -385 -306 -49 -33 -88 -63 -88 -68
0 -4 57 -37 128 -72 200 -100 507 -216 572 -216 58 0 565 560 534 590 -5 5
-65 23 -134 41 -69 17 -196 58 -283 90 -87 33 -169 59 -182 59 -15 0 -70 -40
-162 -118z m337 -9 c128 -49 158 -67 95 -58 -22 3 -85 10 -140 15 l-100 9
-144 -70 c-79 -38 -145 -68 -148 -66 -4 5 230 197 262 215 23 13 25 13 175
-45z"/>
<path d="M6241 3384 c-126 -34 -192 -135 -190 -293 0 -99 15 -133 62 -144 21
-5 40 -7 42 -5 2 2 -2 22 -10 43 -8 22 -14 69 -15 104 0 125 62 198 179 208
34 3 61 2 61 -3 0 -5 -16 -101 -34 -214 -19 -113 -32 -207 -29 -210 2 -2 50
-5 106 -5 110 0 143 11 199 63 63 58 86 197 47 282 -42 93 -120 151 -238 176
-82 17 -111 17 -180 -2z m272 -133 c53 -34 87 -91 87 -146 0 -49 -34 -111 -71
-131 -31 -16 -112 -24 -123 -13 -4 3 3 64 14 135 27 167 30 184 39 184 4 0 28
-13 54 -29z"/>
<path d="M520 3220 c-166 -43 -235 -120 -235 -262 1 -67 5 -84 35 -144 63
-123 180 -179 323 -155 172 29 277 135 277 280 0 82 -58 250 -95 281 -12 10
-28 10 -75 0 -33 -7 -60 -14 -60 -16 0 -2 13 -23 30 -46 55 -80 71 -196 34
-253 -20 -30 -73 -60 -78 -43 -3 7 -23 94 -46 193 -22 98 -42 180 -43 181 -1
0 -31 -7 -67 -16z m22 -282 l24 -103 -29 -3 c-64 -7 -127 44 -127 103 0 49 49
102 97 104 6 1 21 -43 35 -101z"/>
<path d="M4674 2907 l-202 -222 52 -12 c28 -7 71 -14 95 -15 42 -2 46 0 97 55
63 70 115 173 144 284 41 159 38 157 -186 -90z"/>
<path d="M2055 3075 c17 -121 98 -315 163 -394 l29 -34 99 17 c54 10 99 18
100 19 2 2 -159 180 -344 382 l-54 60 7 -50z"/>
<path d="M3220 2825 c-129 -63 -287 -133 -350 -156 -63 -23 -119 -45 -123 -49
-9 -8 171 -143 328 -248 139 -92 336 -203 370 -209 33 -5 130 41 300 144 134
82 447 305 438 313 -4 4 -57 24 -118 44 -157 54 -278 106 -452 197 -84 43
-153 79 -155 78 -2 0 -109 -52 -238 -114z m368 -36 c151 -86 154 -93 26 -58
-60 16 -120 32 -134 35 -14 3 -92 -11 -173 -30 -81 -20 -151 -36 -155 -35 -15
1 291 149 310 149 11 0 68 -27 126 -61z"/>
<path d="M6042 2808 c-106 -36 -167 -199 -112 -301 23 -42 22 -42 -27 -22 -20
8 -37 14 -38 13 -1 -2 -9 -22 -18 -46 -16 -40 -16 -43 0 -49 10 -4 129 -50
264 -104 135 -54 254 -99 264 -101 13 -2 23 9 35 38 l18 41 -184 73 c-225 90
-264 123 -264 223 0 86 75 154 155 141 22 -3 120 -37 219 -75 98 -38 182 -67
186 -64 10 6 34 75 28 80 -2 2 -90 38 -195 79 -200 79 -270 95 -331 74z"/>
<path d="M873 2682 l-52 -27 38 -40 c48 -52 76 -122 67 -169 -12 -66 -83 -125
-168 -141 -89 -17 -177 68 -186 181 -2 30 -6 54 -7 54 -2 0 -33 -14 -70 -31
l-67 -32 6 -41 c10 -63 70 -180 116 -226 62 -62 119 -85 210 -84 103 0 178 30
247 99 91 91 107 216 45 348 -33 72 -86 137 -111 137 -9 -1 -39 -13 -68 -28z"/>
<path d="M2398 2546 l-157 -31 32 -47 c102 -150 287 -325 369 -349 35 -10 180
1 388 30 l125 17 -79 49 c-119 75 -322 220 -407 290 -41 34 -84 65 -95 68 -10
3 -90 -9 -176 -27z"/>
<path d="M4204 2470 c-71 -55 -195 -144 -276 -198 -81 -53 -148 -100 -148
-103 0 -8 130 -26 333 -45 133 -12 175 -13 204 -4 55 19 226 181 310 295 l74
100 -153 27 c-84 15 -167 27 -184 27 -25 1 -58 -20 -160 -99z"/>
<path d="M5743 2055 c-76 -46 -105 -153 -63 -235 47 -92 172 -125 257 -68 112
74 107 243 -8 307 -53 30 -132 28 -186 -4z"/>
<path d="M3160 2030 c-52 -4 -133 -14 -180 -21 l-85 -13 75 -23 c272 -84 590
-100 863 -43 117 24 217 51 217 60 0 28 -667 58 -890 40z"/>
<path d="M1057 1966 c-104 -38 -146 -150 -96 -253 28 -58 87 -93 158 -93 138
0 220 132 160 258 -39 79 -138 119 -222 88z"/>
<path d="M1684 1847 c-66 -45 -127 -123 -154 -194 -18 -47 -21 -69 -15 -118 3
-33 9 -83 12 -112 7 -68 0 -95 -38 -138 -43 -49 -91 -48 -118 2 -17 33 -13 63
15 120 27 52 27 83 0 83 -8 0 -42 -33 -77 -72 -35 -40 -87 -99 -117 -130 -46
-50 -51 -60 -42 -78 12 -22 15 -23 76 -20 37 1 45 -3 74 -40 37 -47 114 -90
162 -90 28 0 44 11 102 73 78 81 173 220 182 265 4 21 -3 50 -27 103 -57 130
-49 212 25 259 33 20 37 20 65 5 17 -8 35 -24 41 -34 16 -31 12 -96 -10 -153
-25 -66 -25 -78 0 -78 20 0 200 195 200 217 0 19 -18 25 -39 13 -18 -9 -21 -6
-31 29 -22 83 -82 121 -188 121 -40 0 -59 -6 -98 -33z"/>
<path d="M5088 1794 c-46 -42 -88 -86 -95 -97 -18 -32 -16 -78 5 -110 24 -35
368 -411 432 -471 85 -80 126 -75 223 26 116 119 129 157 76 218 -16 19 -58
71 -92 115 -82 107 -330 359 -372 379 -64 31 -87 23 -177 -60z m170 -136 c164
-150 249 -242 305 -331 22 -34 19 -81 -5 -85 -31 -6 -417 382 -418 420 0 21
26 48 46 48 8 0 41 -23 72 -52z"/>
<path d="M4320 1620 c-61 -21 -120 -78 -120 -116 0 -37 11 -54 35 -54 46 0 70
-31 246 -313 15 -23 77 -136 139 -252 94 -173 114 -219 118 -262 6 -70 26 -89
73 -69 19 9 55 35 82 59 60 57 64 91 13 112 -27 11 -48 36 -92 107 -58 94 -73
128 -58 128 5 -1 56 -30 114 -65 58 -35 135 -81 172 -101 59 -33 67 -41 62
-61 -15 -57 42 -68 121 -23 77 44 108 76 100 103 -11 35 -35 47 -96 47 -52 0
-65 5 -175 72 -119 72 -213 139 -226 163 -13 22 60 212 99 257 8 9 13 27 11
40 -5 38 -51 35 -145 -11 -65 -32 -83 -45 -83 -62 0 -13 8 -23 21 -26 18 -5
20 -11 16 -42 -7 -50 -54 -151 -70 -151 -15 0 -52 63 -162 273 -71 135 -77
152 -71 189 5 31 3 45 -10 59 -21 24 -44 23 -114 -1z"/>
<path d="M2093 1608 c-17 -23 -73 -154 -73 -171 0 -19 35 -24 45 -7 11 19 55
10 113 -22 106 -58 108 -67 30 -117 -25 -16 -105 -77 -177 -135 -73 -59 -162
-126 -200 -150 -65 -42 -70 -48 -100 -119 -17 -42 -31 -80 -31 -86 0 -13 56
-42 142 -75 36 -13 111 -49 168 -80 58 -31 114 -56 125 -54 14 2 34 32 72 108
56 114 61 131 38 150 -12 10 -22 6 -55 -24 -45 -41 -48 -41 -125 -21 -105 27
-142 76 -92 122 12 11 54 41 92 65 39 25 117 84 175 132 58 48 128 101 155
117 68 38 105 78 111 121 6 32 3 37 -42 70 -27 20 -92 60 -144 89 -196 108
-207 112 -227 87z"/>
<path d="M3965 1275 c-55 -12 -120 -26 -145 -29 -25 -4 -56 -15 -69 -25 l-24
-18 17 -68 c21 -85 42 -135 55 -135 6 0 17 15 25 34 17 41 23 45 94 62 116 27
134 17 108 -63 -8 -26 -27 -113 -41 -193 -14 -80 -37 -193 -52 -251 l-27 -106
23 -69 c33 -102 31 -101 88 -86 26 7 77 24 113 37 36 13 118 36 183 51 78 17
120 31 124 42 8 19 -54 232 -72 251 -23 24 -43 5 -50 -48 -7 -55 -12 -60 -76
-94 -65 -35 -122 -42 -143 -18 -16 17 -16 26 -6 77 7 32 18 75 26 97 8 22 26
108 40 191 14 83 34 180 46 215 21 66 20 129 -2 156 -18 22 -116 18 -235 -10z"/>
<path d="M2625 1261 c-4 -7 -4 -23 -1 -36 4 -14 -3 -59 -14 -101 -11 -42 -25
-114 -31 -161 -27 -204 12 -274 165 -296 62 -9 76 -14 76 -29 0 -29 -39 -189
-62 -250 -23 -65 -38 -81 -62 -72 -24 9 -36 46 -36 112 0 78 -18 102 -75 102
-50 0 -58 -9 -69 -78 -8 -51 12 -103 56 -149 38 -39 69 -50 173 -58 104 -9
154 9 179 62 19 40 71 248 81 328 13 95 76 379 91 404 8 14 24 38 35 52 16 20
19 34 14 57 -8 39 -52 55 -151 56 -57 1 -76 -3 -93 -18 -27 -24 -27 -68 0 -92
19 -17 21 -26 15 -78 -7 -71 -61 -244 -84 -269 -29 -32 -132 1 -132 42 0 10
18 96 39 191 29 126 46 179 62 196 12 13 19 29 16 37 -11 29 -178 70 -192 48z"/>
<path d="M3405 1247 c-114 -44 -149 -103 -150 -252 0 -137 19 -179 130 -280
90 -81 112 -120 102 -182 -8 -47 -23 -63 -62 -63 -41 0 -79 41 -96 103 -6 23
-13 48 -15 55 -6 21 -43 14 -49 -10 -3 -13 -4 -95 -3 -183 3 -158 3 -160 26
-163 14 -2 36 8 59 28 34 30 38 31 94 25 71 -8 161 15 184 47 18 27 21 259 4
354 -14 79 -31 101 -96 130 -133 59 -179 112 -171 196 6 58 13 67 60 74 29 5
41 1 69 -24 30 -27 65 -86 83 -145 4 -11 13 -17 23 -15 16 3 18 18 18 152 0
115 -3 150 -13 154 -7 2 -16 -5 -19 -17 -7 -26 -8 -26 -67 4 -55 28 -67 29
-111 12z"/>
</g>
</svg>
