<svg xmlns="http://www.w3.org/2000/svg" xmlns:xlink="http://www.w3.org/1999/xlink" width="397" zoomAndPan="magnify" viewBox="0 0 297.75 419.249996" height="559" preserveAspectRatio="xMidYMid meet" version="1.2"><g id="9b53216469"><path style=" stroke:none;fill-rule:nonzero;fill:#858584;fill-opacity:1;" d="M 88.546875 269.859375 L 94.066406 269.859375 L 94.066406 279.121094 C 92.832031 279.617188 91.054688 279.992188 89.300781 279.992188 C 84.835938 279.992188 82.910156 278.496094 82.910156 271.085938 C 82.910156 263.707031 85.390625 262.035156 89.699219 262.035156 C 91.132812 262.035156 92.539062 262.253906 93.738281 262.609375 L 93.464844 264.382812 C 92.210938 264.058594 91.058594 263.855469 89.777344 263.855469 C 86.769531 263.855469 85.214844 264.90625 85.214844 270.984375 C 85.214844 277.09375 86.542969 278.167969 89.328125 278.167969 C 90.378906 278.167969 91.210938 277.964844 91.832031 277.691406 L 91.832031 271.664062 L 88.550781 271.664062 L 88.550781 269.859375 Z M 105.617188 270.863281 L 105.617188 279.691406 L 103.734375 279.691406 L 103.609375 278.570312 C 102.53125 279.316406 101.425781 279.941406 100.023438 279.941406 C 98.066406 279.941406 96.691406 278.769531 96.691406 276.367188 C 96.691406 273.734375 98.21875 272.230469 102.328125 272.230469 L 103.332031 272.230469 L 103.332031 270.984375 C 103.332031 269.460938 102.683594 268.761719 101.152344 268.761719 C 100.023438 268.761719 99.046875 268.9375 97.941406 269.207031 L 97.714844 267.515625 C 98.945312 267.207031 100.144531 266.984375 101.550781 266.984375 C 104.515625 266.984375 105.617188 268.164062 105.617188 270.863281 Z M 103.332031 273.789062 L 102.460938 273.789062 C 99.625 273.789062 98.769531 274.566406 98.769531 276.191406 C 98.769531 277.589844 99.5 278.214844 100.503906 278.214844 C 101.453125 278.214844 102.257812 277.761719 103.332031 276.964844 Z M 108.632812 279.691406 L 110.910156 279.691406 L 110.910156 261.230469 L 108.632812 261.230469 Z M 122.996094 272.667969 C 122.996094 273.117188 122.96875 273.535156 122.949219 274.011719 L 115.972656 274.011719 C 116.027344 277.640625 116.976562 278.167969 119.136719 278.167969 C 120.261719 278.167969 121.160156 277.992188 122.242188 277.714844 L 122.445312 279.441406 C 121.238281 279.742188 120.109375 279.941406 118.703125 279.941406 C 115.574219 279.941406 113.691406 278.917969 113.691406 273.511719 C 113.691406 268.308594 115.648438 266.882812 118.679688 266.882812 C 121.695312 266.882812 122.996094 268.082031 122.996094 272.667969 Z M 120.945312 272.464844 C 120.886719 269.339844 120.214844 268.660156 118.585938 268.660156 C 116.980469 268.660156 116.074219 269.410156 116.003906 272.464844 Z M 127.839844 268.582031 L 127.683594 267.230469 L 125.808594 267.230469 L 125.808594 279.6875 L 128.089844 279.6875 L 128.089844 270.28125 C 129.191406 269.433594 129.863281 269.058594 130.441406 269.058594 C 130.792969 269.058594 131.117188 269.152344 131.371094 269.277344 L 131.667969 267.125 C 131.472656 266.976562 131.164062 266.902344 130.765625 266.902344 C 129.816406 266.90625 129.019531 267.53125 127.839844 268.582031 Z M 134.757812 261.90625 C 133.679688 261.90625 133.351562 262.207031 133.351562 263.261719 C 133.351562 264.339844 133.652344 264.632812 134.757812 264.632812 C 135.859375 264.632812 136.164062 264.335938 136.164062 263.261719 C 136.160156 262.207031 135.859375 261.90625 134.757812 261.90625 Z M 133.625 279.691406 L 135.910156 279.691406 L 135.910156 267.234375 L 133.625 267.234375 Z M 147.761719 270.859375 L 147.761719 279.691406 L 145.890625 279.691406 L 145.761719 278.570312 C 144.683594 279.316406 143.578125 279.941406 142.171875 279.941406 C 140.21875 279.941406 138.84375 278.769531 138.84375 276.367188 C 138.84375 273.734375 140.371094 272.230469 144.480469 272.230469 L 145.488281 272.230469 L 145.488281 270.984375 C 145.488281 269.460938 144.832031 268.761719 143.300781 268.761719 C 142.171875 268.761719 141.199219 268.9375 140.089844 269.207031 L 139.867188 267.515625 C 141.097656 267.207031 142.300781 266.984375 143.703125 266.984375 C 146.660156 266.984375 147.761719 268.164062 147.761719 270.859375 Z M 145.488281 273.789062 L 144.605469 273.789062 C 141.773438 273.789062 140.921875 274.566406 140.921875 276.191406 C 140.921875 277.589844 141.652344 278.214844 142.652344 278.214844 C 143.605469 278.214844 144.410156 277.761719 145.488281 276.964844 Z M 165.050781 269.859375 C 162.167969 268.359375 161.515625 267.785156 161.515625 266.335938 C 161.515625 264.78125 162.570312 263.800781 164.898438 263.800781 C 166.257812 263.800781 167.207031 264.007812 168.261719 264.308594 L 168.535156 262.554688 C 167.511719 262.226562 166.351562 262 164.949219 262 C 161.132812 262 159.332031 263.796875 159.332031 266.503906 C 159.332031 269.011719 160.359375 269.933594 163.492188 271.585938 C 166.503906 273.128906 167.15625 273.683594 167.15625 275.261719 C 167.15625 277.0625 165.949219 278.191406 163.542969 278.191406 C 162.136719 278.191406 161.011719 277.960938 159.707031 277.617188 L 159.457031 279.367188 C 160.761719 279.765625 162.039062 279.988281 163.464844 279.988281 C 167.382812 279.988281 169.367188 278.039062 169.367188 275.011719 C 169.367188 272.484375 168.359375 271.617188 165.050781 269.859375 Z M 179.167969 268.484375 L 179.167969 267.234375 L 171.464844 267.234375 L 171.464844 269.035156 L 176.507812 269.035156 L 171.144531 278.390625 L 171.144531 279.691406 L 179.289062 279.691406 L 179.289062 277.886719 L 173.777344 277.886719 Z M 185.757812 278.117188 C 184.902344 278.117188 184.550781 277.742188 184.550781 276.445312 L 184.550781 268.988281 L 187.105469 268.988281 L 187.105469 267.230469 L 184.550781 267.230469 L 184.550781 263.453125 L 182.265625 263.777344 L 182.265625 267.226562 L 180.5625 267.226562 L 180.5625 268.984375 L 182.265625 268.984375 L 182.265625 276.988281 C 182.265625 279.039062 183.019531 279.894531 185.148438 279.894531 C 185.980469 279.894531 186.707031 279.765625 187.332031 279.566406 L 187.105469 277.886719 C 186.6875 278.042969 186.238281 278.117188 185.757812 278.117188 Z M 197.082031 276.691406 C 195.8125 277.589844 194.726562 278.070312 193.773438 278.070312 C 192.519531 278.070312 191.917969 277.464844 191.917969 275.585938 L 191.917969 267.230469 L 189.632812 267.230469 L 189.632812 275.914062 C 189.632812 278.789062 190.761719 279.941406 193.09375 279.941406 C 194.574219 279.941406 195.976562 279.289062 197.332031 278.386719 L 197.488281 279.6875 L 199.367188 279.6875 L 199.367188 267.230469 L 197.082031 267.230469 Z M 211.632812 267.234375 L 209.023438 267.234375 L 204.8125 272.765625 L 204.8125 261.234375 L 202.527344 261.234375 L 202.527344 279.691406 L 204.8125 279.691406 L 204.8125 273.441406 L 209.050781 279.691406 L 211.757812 279.691406 L 207.097656 272.988281 Z M 215.074219 264.632812 C 216.167969 264.632812 216.46875 264.335938 216.46875 263.257812 C 216.46875 262.207031 216.164062 261.90625 215.074219 261.90625 C 213.992188 261.90625 213.664062 262.207031 213.664062 263.257812 C 213.660156 264.335938 213.960938 264.632812 215.074219 264.632812 Z M 213.9375 279.691406 L 216.21875 279.691406 L 216.21875 267.234375 L 213.9375 267.234375 Z M 70.785156 302.230469 C 70.359375 304.15625 70.109375 305.785156 69.710938 308.007812 L 69.683594 308.007812 C 69.304688 305.808594 69.035156 304.257812 68.628906 302.230469 L 66.546875 292.222656 L 63.222656 292.222656 L 61.113281 302.230469 C 60.6875 304.207031 60.460938 305.835938 60.089844 308.007812 L 60.035156 308.007812 C 59.652344 305.785156 59.40625 304.183594 58.976562 302.207031 L 56.800781 292.226562 L 54.367188 292.226562 L 58.226562 309.617188 L 61.660156 309.617188 L 63.8125 299.179688 C 64.191406 297.332031 64.519531 295.648438 64.820312 293.804688 L 64.847656 293.804688 C 65.121094 295.679688 65.445312 297.378906 65.796875 299.179688 L 67.980469 309.617188 L 71.414062 309.617188 L 75.25 292.222656 L 72.945312 292.222656 Z M 80.863281 302.40625 C 78.90625 301.578125 78.480469 301.199219 78.480469 300.328125 C 78.480469 299.207031 79.253906 298.632812 80.761719 298.632812 C 81.613281 298.632812 82.492188 298.78125 83.34375 299.003906 L 83.59375 297.304688 C 82.816406 297.078125 81.816406 296.902344 80.863281 296.902344 C 77.875 296.902344 76.347656 298.203125 76.347656 300.503906 C 76.347656 302.277344 77.128906 303.03125 79.359375 303.976562 C 81.492188 304.90625 81.996094 305.285156 81.996094 306.253906 C 81.996094 307.40625 81.167969 308.136719 79.410156 308.136719 C 78.53125 308.136719 77.558594 307.984375 76.472656 307.710938 L 76.25 309.40625 C 77.25 309.714844 78.253906 309.863281 79.308594 309.863281 C 82.617188 309.863281 84.125 308.464844 84.125 306.109375 C 84.125 304.113281 83.265625 303.460938 80.863281 302.40625 Z M 96.332031 303.226562 C 96.332031 308.109375 94.226562 309.859375 91.523438 309.859375 C 90.492188 309.859375 89.585938 309.53125 88.761719 309.0625 L 88.734375 309.078125 C 88.8125 310.109375 88.835938 311.039062 88.835938 311.734375 L 88.835938 314.9375 L 86.554688 314.9375 L 86.554688 297.15625 L 88.433594 297.15625 L 88.585938 298.398438 C 89.839844 297.523438 90.996094 296.902344 92.347656 296.902344 C 94.828125 296.902344 96.332031 298.273438 96.332031 303.226562 Z M 94.023438 303.332031 C 94.023438 299.578125 93.195312 298.78125 91.71875 298.78125 C 90.890625 298.78125 90.011719 299.226562 88.835938 300.109375 L 88.835938 307.210938 C 89.640625 307.734375 90.34375 308.058594 91.167969 308.058594 C 92.71875 308.058594 94.023438 307.0625 94.023438 303.332031 Z M 108.867188 303.3125 C 108.867188 308.585938 106.984375 309.964844 103.753906 309.964844 C 100.492188 309.964844 98.738281 308.734375 98.738281 303.425781 C 98.738281 298.179688 100.625 296.800781 103.828125 296.800781 C 107.089844 296.800781 108.867188 298.027344 108.867188 303.3125 Z M 106.582031 303.410156 C 106.582031 299.324219 105.65625 298.570312 103.777344 298.570312 C 101.917969 298.570312 101.015625 299.324219 101.015625 303.351562 C 101.015625 307.433594 101.945312 308.179688 103.800781 308.179688 C 105.65625 308.179688 106.582031 307.460938 106.582031 303.410156 Z M 106.910156 292.121094 L 105.484375 290.699219 L 102.351562 294.277344 L 103.425781 295.355469 Z M 114.757812 296.226562 L 114.757812 291.144531 L 112.472656 291.144531 L 112.472656 297.800781 L 109.96875 299.601562 L 110.890625 301.101562 L 112.472656 299.925781 L 112.472656 309.613281 L 114.757812 309.613281 L 114.757812 298.378906 L 117.390625 296.5 L 116.433594 294.996094 Z M 123.226562 298.679688 C 124.054688 298.679688 124.808594 298.828125 125.539062 299.003906 L 125.757812 297.304688 C 124.953125 297.078125 123.976562 296.902344 123.054688 296.902344 C 120.074219 296.902344 118.039062 298.273438 118.039062 303.425781 C 118.039062 308.5625 119.644531 309.863281 122.882812 309.863281 C 123.804688 309.863281 124.835938 309.660156 125.660156 309.4375 L 125.488281 307.710938 C 124.757812 307.933594 123.929688 308.082031 123.253906 308.082031 C 121.226562 308.082031 120.316406 307.332031 120.316406 303.378906 C 120.320312 299.398438 121.476562 298.679688 123.226562 298.679688 Z M 135.417969 298.398438 L 135.417969 297.15625 L 127.71875 297.15625 L 127.71875 298.953125 L 132.757812 298.953125 L 127.394531 308.3125 L 127.394531 309.613281 L 135.542969 309.613281 L 135.542969 307.8125 L 130.027344 307.8125 Z M 146.71875 302.578125 C 146.71875 303.03125 146.695312 303.457031 146.671875 303.929688 L 139.695312 303.929688 C 139.75 307.5625 140.703125 308.082031 142.859375 308.082031 C 143.988281 308.082031 144.886719 307.90625 145.96875 307.636719 L 146.167969 309.359375 C 144.964844 309.65625 143.835938 309.859375 142.429688 309.859375 C 139.300781 309.859375 137.417969 308.828125 137.417969 303.425781 C 137.417969 298.226562 139.378906 296.796875 142.40625 296.796875 C 145.414062 296.800781 146.71875 298.003906 146.71875 302.578125 Z M 144.664062 302.378906 C 144.617188 299.257812 143.941406 298.570312 142.3125 298.570312 C 140.703125 298.570312 139.800781 299.324219 139.726562 302.378906 Z M 153.339844 302.40625 C 151.382812 301.578125 150.960938 301.199219 150.960938 300.328125 C 150.960938 299.207031 151.738281 298.632812 153.238281 298.632812 C 154.089844 298.632812 154.972656 298.78125 155.820312 299.003906 L 156.074219 297.304688 C 155.292969 297.078125 154.292969 296.902344 153.339844 296.902344 C 150.355469 296.902344 148.832031 298.203125 148.832031 300.503906 C 148.832031 302.277344 149.605469 303.03125 151.839844 303.976562 C 153.964844 304.90625 154.46875 305.285156 154.46875 306.253906 C 154.46875 307.40625 153.640625 308.136719 151.882812 308.136719 C 151.007812 308.136719 150.03125 307.984375 148.953125 307.710938 L 148.722656 309.40625 C 149.726562 309.714844 150.730469 309.863281 151.785156 309.863281 C 155.09375 309.863281 156.597656 308.464844 156.597656 306.109375 C 156.597656 304.113281 155.738281 303.460938 153.339844 302.40625 Z M 165.625 296.902344 C 164.144531 296.902344 162.765625 297.550781 161.382812 298.453125 L 161.238281 297.15625 L 159.351562 297.15625 L 159.351562 309.613281 L 161.632812 309.613281 L 161.632812 300.15625 C 162.917969 299.257812 163.992188 298.78125 164.945312 298.78125 C 166.195312 298.78125 166.800781 299.375 166.800781 301.257812 L 166.800781 309.617188 L 169.082031 309.617188 L 169.082031 300.933594 C 169.082031 298.054688 167.953125 296.902344 165.625 296.902344 Z M 180.609375 307.636719 L 180.808594 309.359375 C 179.609375 309.65625 178.484375 309.859375 177.082031 309.859375 C 173.945312 309.859375 172.066406 308.828125 172.066406 303.425781 C 172.066406 298.226562 174.015625 296.796875 177.054688 296.796875 C 180.066406 296.796875 181.363281 298.003906 181.363281 302.578125 C 181.363281 303.03125 181.339844 303.457031 181.3125 303.929688 L 174.339844 303.929688 C 174.394531 307.5625 175.347656 308.082031 177.5 308.082031 C 178.632812 308.082031 179.535156 307.90625 180.609375 307.636719 Z M 174.371094 302.378906 L 179.304688 302.378906 C 179.257812 299.257812 178.582031 298.570312 176.949219 298.570312 C 175.347656 298.570312 174.445312 299.324219 174.371094 302.378906 Z M 185.847656 294.554688 C 186.957031 294.554688 187.25 294.25 187.25 293.175781 C 187.25 292.121094 186.953125 291.824219 185.847656 291.824219 C 184.769531 291.824219 184.445312 292.121094 184.445312 293.175781 C 184.445312 294.25 184.75 294.554688 185.847656 294.554688 Z M 184.722656 310.589844 C 184.722656 312.417969 184.292969 313.414062 182.765625 313.414062 C 182.308594 313.414062 181.789062 313.363281 181.3125 313.257812 L 181.113281 314.988281 C 181.738281 315.117188 182.339844 315.183594 182.996094 315.183594 C 186.128906 315.183594 187.003906 313.539062 187.003906 310.386719 L 187.003906 297.15625 L 184.722656 297.15625 Z M 209.285156 305.53125 C 209.285156 308.9375 207.457031 310.613281 203.292969 310.613281 L 198.660156 310.613281 L 198.660156 293.222656 L 203.167969 293.222656 C 207.230469 293.222656 208.808594 294.097656 208.808594 297.304688 C 208.808594 299.578125 207.808594 300.804688 206.226562 301.355469 C 207.90625 301.679688 209.285156 302.804688 209.285156 305.53125 Z M 200.964844 300.726562 L 203.121094 300.726562 C 205.273438 300.726562 206.527344 300.027344 206.527344 297.652344 C 206.527344 295.503906 205.625 295.027344 203.09375 295.027344 L 200.960938 295.027344 L 200.960938 300.726562 Z M 206.957031 305.605469 C 206.957031 303.457031 206.152344 302.480469 203.167969 302.480469 L 200.964844 302.480469 L 200.964844 308.800781 L 203.371094 308.800781 C 206 308.800781 206.957031 307.804688 206.957031 305.605469 Z M 229.394531 293.21875 L 227.238281 303.222656 C 226.8125 305.15625 226.558594 306.78125 226.160156 309.007812 L 226.132812 309.007812 C 225.757812 306.800781 225.480469 305.257812 225.078125 303.222656 L 222.996094 293.21875 L 219.664062 293.21875 L 217.554688 303.222656 C 217.128906 305.207031 216.90625 306.828125 216.523438 309.007812 L 216.480469 309.007812 C 216.101562 306.78125 215.851562 305.179688 215.425781 303.207031 L 213.242188 293.222656 L 210.8125 293.222656 L 214.675781 310.613281 L 218.105469 310.613281 L 220.265625 300.183594 C 220.636719 298.324219 220.964844 296.648438 221.265625 294.796875 L 221.289062 294.796875 C 221.566406 296.675781 221.890625 298.378906 222.246094 300.183594 L 224.421875 310.613281 L 227.859375 310.613281 L 231.695312 293.222656 L 229.394531 293.222656 Z M 245.007812 310.613281 L 242.582031 310.613281 L 241.222656 305.875 L 235.132812 305.875 L 233.777344 310.613281 L 231.472656 310.613281 L 236.53125 293.222656 L 239.890625 293.222656 Z M 240.789062 304.050781 L 239.488281 299.5 C 238.964844 297.746094 238.589844 296.421875 238.160156 294.746094 L 238.136719 294.746094 C 237.710938 296.421875 237.359375 297.75 236.835938 299.523438 L 235.53125 304.050781 Z M 96.027344 332.957031 C 95.699219 334.355469 95.472656 335.558594 95.171875 337.085938 L 95.148438 337.085938 C 94.847656 335.582031 94.59375 334.382812 94.246094 332.957031 L 92.589844 326.199219 L 89.484375 326.199219 L 87.90625 332.957031 C 87.554688 334.382812 87.300781 335.683594 87.027344 337.085938 L 87 337.085938 C 86.730469 335.582031 86.5 334.429688 86.125 332.957031 L 84.445312 326.199219 L 82.089844 326.199219 L 85.371094 338.660156 L 88.503906 338.660156 L 90.152344 331.878906 C 90.484375 330.5 90.734375 329.222656 90.984375 327.75 L 91.011719 327.75 C 91.289062 329.203125 91.539062 330.527344 91.863281 331.902344 L 93.566406 338.660156 L 96.71875 338.660156 L 99.882812 326.199219 L 97.652344 326.199219 Z M 118.910156 321.273438 L 116.230469 321.273438 L 110.613281 329.550781 L 110.613281 321.273438 L 108.308594 321.273438 L 108.308594 338.660156 L 110.613281 338.660156 L 110.613281 330.082031 L 116.40625 338.660156 L 119.191406 338.660156 L 113 329.675781 Z M 129.117188 329.828125 L 129.117188 338.660156 L 127.230469 338.660156 L 127.109375 337.535156 C 126.027344 338.285156 124.925781 338.90625 123.519531 338.90625 C 121.566406 338.90625 120.1875 337.730469 120.1875 335.324219 C 120.1875 332.703125 121.71875 331.203125 125.828125 331.203125 L 126.832031 331.203125 L 126.832031 329.953125 C 126.832031 328.425781 126.179688 327.722656 124.652344 327.722656 C 123.519531 327.722656 122.542969 327.898438 121.445312 328.175781 L 121.214844 326.476562 C 122.449219 326.175781 123.652344 325.953125 125.054688 325.953125 C 128.011719 325.953125 129.117188 327.128906 129.117188 329.828125 Z M 126.832031 332.753906 L 125.957031 332.753906 C 123.125 332.753906 122.273438 333.527344 122.273438 335.152344 C 122.273438 336.558594 122.996094 337.183594 124 337.183594 C 124.953125 337.183594 125.757812 336.730469 126.832031 335.933594 Z M 136.183594 337.085938 C 135.332031 337.085938 134.980469 336.710938 134.980469 335.40625 L 134.980469 327.957031 L 137.539062 327.957031 L 137.539062 326.195312 L 134.980469 326.195312 L 134.980469 322.425781 L 132.703125 322.75 L 132.703125 326.199219 L 130.996094 326.199219 L 130.996094 327.957031 L 132.703125 327.957031 L 132.703125 335.960938 C 132.703125 338.011719 133.449219 338.859375 135.585938 338.859375 C 136.414062 338.859375 137.136719 338.738281 137.765625 338.542969 L 137.539062 336.855469 C 137.113281 337.007812 136.664062 337.085938 136.183594 337.085938 Z M 149.648438 332.359375 C 149.648438 337.632812 147.761719 339.007812 144.535156 339.007812 C 141.273438 339.007812 139.519531 337.777344 139.519531 332.480469 C 139.519531 327.222656 141.402344 325.847656 144.605469 325.847656 C 147.871094 325.847656 149.648438 327.074219 149.648438 332.359375 Z M 147.367188 332.457031 C 147.367188 328.375 146.433594 327.628906 144.558594 327.628906 C 142.710938 327.628906 141.804688 328.375 141.804688 332.40625 C 141.804688 336.484375 142.730469 337.230469 144.589844 337.230469 C 146.433594 337.230469 147.367188 336.511719 147.367188 332.457031 Z M 165.140625 332.957031 C 164.816406 334.355469 164.589844 335.558594 164.285156 337.085938 L 164.261719 337.085938 C 163.960938 335.582031 163.710938 334.382812 163.359375 332.957031 L 161.707031 326.199219 L 158.597656 326.199219 L 157.019531 332.957031 C 156.667969 334.382812 156.421875 335.683594 156.140625 337.085938 L 156.113281 337.085938 C 155.839844 335.582031 155.621094 334.429688 155.242188 332.957031 L 153.558594 326.199219 L 151.207031 326.199219 L 154.488281 338.660156 L 157.625 338.660156 L 159.277344 331.878906 C 159.601562 330.5 159.851562 329.222656 160.105469 327.75 L 160.128906 327.75 C 160.402344 329.203125 160.65625 330.527344 160.980469 331.902344 L 162.683594 338.660156 L 165.84375 338.660156 L 169.003906 326.199219 L 166.773438 326.199219 Z M 171.355469 338.660156 L 173.636719 338.660156 L 173.636719 326.199219 L 171.355469 326.199219 Z M 172.484375 320.871094 C 171.402344 320.871094 171.082031 321.179688 171.082031 322.222656 C 171.082031 323.300781 171.375 323.597656 172.484375 323.597656 C 173.589844 323.597656 173.890625 323.300781 173.890625 322.222656 C 173.890625 321.175781 173.585938 320.871094 172.484375 320.871094 Z M 181.613281 327.722656 C 182.441406 327.722656 183.191406 327.878906 183.917969 328.050781 L 184.140625 326.351562 C 183.335938 326.128906 182.363281 325.953125 181.433594 325.953125 C 178.453125 325.953125 176.421875 327.332031 176.421875 332.480469 C 176.421875 337.609375 178.023438 338.910156 181.253906 338.910156 C 182.1875 338.910156 183.210938 338.714844 184.042969 338.492188 L 183.867188 336.761719 C 183.136719 336.980469 182.308594 337.128906 181.632812 337.128906 C 179.605469 337.128906 178.699219 336.378906 178.699219 332.429688 C 178.703125 328.453125 179.851562 327.722656 181.613281 327.722656 Z M 194.871094 329.828125 L 194.871094 338.660156 L 192.988281 338.660156 L 192.867188 337.535156 C 191.785156 338.285156 190.683594 338.90625 189.277344 338.90625 C 187.324219 338.90625 185.941406 337.730469 185.941406 335.324219 C 185.941406 332.703125 187.472656 331.203125 191.585938 331.203125 L 192.585938 331.203125 L 192.585938 329.953125 C 192.585938 328.425781 191.9375 327.722656 190.410156 327.722656 C 189.28125 327.722656 188.300781 327.898438 187.199219 328.175781 L 186.972656 326.476562 C 188.207031 326.175781 189.410156 325.953125 190.8125 325.953125 C 193.769531 325.953125 194.871094 327.128906 194.871094 329.828125 Z M 192.589844 332.753906 L 191.714844 332.753906 C 188.882812 332.753906 188.027344 333.527344 188.027344 335.152344 C 188.027344 336.558594 188.753906 337.183594 189.757812 337.183594 C 190.714844 337.183594 191.515625 336.730469 192.589844 335.933594 Z M 202.398438 327.722656 C 203.226562 327.722656 203.980469 327.878906 204.703125 328.050781 L 204.933594 326.351562 C 204.132812 326.128906 203.148438 325.953125 202.222656 325.953125 C 199.238281 325.953125 197.207031 327.332031 197.207031 332.480469 C 197.207031 337.609375 198.8125 338.910156 202.046875 338.910156 C 202.976562 338.910156 204.003906 338.714844 204.832031 338.492188 L 204.65625 336.761719 C 203.925781 336.980469 203.097656 337.128906 202.421875 337.128906 C 200.390625 337.128906 199.488281 336.378906 199.488281 332.429688 C 199.492188 328.453125 200.644531 327.722656 202.398438 327.722656 Z M 213.828125 325.953125 C 212.398438 325.953125 211.042969 326.550781 209.765625 327.378906 L 209.738281 327.351562 C 209.792969 326.25 209.839844 325.347656 209.839844 324.445312 L 209.839844 320.195312 L 207.5625 320.195312 L 207.5625 338.660156 L 209.839844 338.660156 L 209.839844 329.203125 C 211.121094 328.304688 212.199219 327.828125 213.152344 327.828125 C 214.398438 327.828125 215.007812 328.425781 215.007812 330.308594 L 215.007812 338.664062 L 217.289062 338.664062 L 217.289062 329.980469 C 217.289062 327.097656 216.160156 325.953125 213.828125 325.953125 Z M 213.828125 325.953125 "/><path style=" stroke:none;fill-rule:nonzero;fill:#ed2941;fill-opacity:1;" d="M 206.152344 100.011719 C 204.136719 105.84375 199.984375 110.972656 196.351562 114.519531 C 198.699219 117.652344 200.394531 120.628906 201.925781 123.960938 L 196.726562 129.085938 C 209.253906 151.628906 204 180.523438 183.746094 198.148438 C 161.890625 217.175781 123.65625 214.375 104.78125 192.785156 C 86.367188 171.722656 86.617188 140.792969 104.144531 120.089844 C 104.839844 119.265625 105.898438 117.792969 106.664062 116.996094 C 108.507812 123.257812 113.03125 128.550781 117.101562 132.226562 C 115.890625 134.269531 115.308594 136.027344 114.480469 138.152344 L 119.589844 142.875 C 117.878906 146.734375 117.144531 150.496094 117.144531 154.988281 C 117.144531 163.617188 121.292969 171.1875 126.972656 176.839844 C 132.636719 182.488281 139.820312 186.242188 148.464844 186.242188 C 156.667969 186.242188 164.132812 183.097656 169.714844 177.945312 C 175.914062 172.234375 179.785156 164.0625 179.785156 154.988281 C 179.785156 146.398438 175.898438 139.019531 170.277344 133.363281 C 164.601562 127.667969 157.15625 123.726562 148.464844 123.726562 C 142.894531 123.726562 138.476562 124.757812 133.941406 127.300781 L 128.503906 122.261719 C 126.496094 123.367188 124.390625 124.554688 122.535156 126.054688 C 118.992188 123.941406 114.410156 118.097656 113.117188 111.648438 C 131.582031 97.6875 156.851562 96.972656 176.023438 108.265625 L 181.078125 103.273438 C 184.019531 104.671875 187.402344 106.441406 190.273438 108.445312 C 194.746094 105.320312 198.355469 98.464844 199.835938 93.890625 C 186.3125 82.351562 168.675781 75.464844 148.742188 75.464844 C 103.332031 75.464844 66.113281 111.109375 66.113281 156.414062 C 66.113281 201.722656 103.332031 236.261719 148.742188 236.261719 C 194.136719 236.261719 227.65625 201.722656 227.65625 156.414062 C 227.652344 134.28125 219.617188 114.5 206.152344 100.011719 Z M 206.152344 100.011719 "/></g></svg>