<svg xmlns="http://www.w3.org/2000/svg" xmlns:xlink="http://www.w3.org/1999/xlink" width="500" zoomAndPan="magnify" viewBox="0 0 375 374.999991" height="500" preserveAspectRatio="xMidYMid meet" version="1.0"><defs><g/><clipPath id="5e0af22242"><path d="M 145 117 L 212 117 L 212 202 L 145 202 Z M 145 117 " clip-rule="nonzero"/></clipPath><clipPath id="86a4b2c541"><path d="M 156.378906 112.816406 L 216.503906 121.496094 L 204.933594 201.664062 L 144.808594 192.988281 Z M 156.378906 112.816406 " clip-rule="nonzero"/></clipPath><clipPath id="ba19f7e795"><path d="M 156.378906 112.816406 L 222.445312 122.351562 L 200.695312 273.039062 L 134.628906 263.503906 Z M 156.378906 112.816406 " clip-rule="nonzero"/></clipPath></defs><g fill="#5b4f47" fill-opacity="1"><g transform="translate(118.453749, 226.521176)"><g><path d="M 1.40625 -4.890625 L 1.40625 -2.84375 L 4.46875 -2.84375 L 4.46875 -2.21875 L 1.40625 -2.21875 L 1.40625 0 L 0.65625 0 L 0.65625 -5.5 L 4.5625 -5.5 L 4.5625 -4.890625 Z M 1.40625 -4.890625 "/></g></g></g><g fill="#5b4f47" fill-opacity="1"><g transform="translate(126.52647, 226.521176)"><g><path d="M 0.65625 0 L 0.65625 -5.5 L 1.40625 -5.5 L 1.40625 -0.609375 L 4.171875 -0.609375 L 4.171875 0 Z M 0.65625 0 "/></g></g></g><g fill="#5b4f47" fill-opacity="1"><g transform="translate(134.162447, 226.521176)"><g><path d="M 5.828125 -2.765625 C 5.828125 -2.191406 5.71875 -1.6875 5.5 -1.25 C 5.28125 -0.820312 4.960938 -0.492188 4.546875 -0.265625 C 4.140625 -0.0351562 3.65625 0.078125 3.09375 0.078125 C 2.53125 0.078125 2.046875 -0.0351562 1.640625 -0.265625 C 1.234375 -0.492188 0.921875 -0.820312 0.703125 -1.25 C 0.484375 -1.6875 0.375 -2.191406 0.375 -2.765625 C 0.375 -3.648438 0.613281 -4.335938 1.09375 -4.828125 C 1.582031 -5.328125 2.253906 -5.578125 3.109375 -5.578125 C 3.671875 -5.578125 4.15625 -5.460938 4.5625 -5.234375 C 4.96875 -5.015625 5.28125 -4.691406 5.5 -4.265625 C 5.71875 -3.847656 5.828125 -3.347656 5.828125 -2.765625 Z M 5.0625 -2.765625 C 5.0625 -3.453125 4.890625 -3.988281 4.546875 -4.375 C 4.210938 -4.769531 3.734375 -4.96875 3.109375 -4.96875 C 2.472656 -4.96875 1.984375 -4.773438 1.640625 -4.390625 C 1.304688 -4.003906 1.140625 -3.460938 1.140625 -2.765625 C 1.140625 -2.078125 1.3125 -1.53125 1.65625 -1.125 C 2 -0.726562 2.476562 -0.53125 3.09375 -0.53125 C 3.726562 -0.53125 4.210938 -0.722656 4.546875 -1.109375 C 4.890625 -1.503906 5.0625 -2.054688 5.0625 -2.765625 Z M 5.0625 -2.765625 "/></g></g></g><g fill="#5b4f47" fill-opacity="1"><g transform="translate(143.568793, 226.521176)"><g><path d="M 4.53125 0 L 3.109375 -2.28125 L 1.40625 -2.28125 L 1.40625 0 L 0.65625 0 L 0.65625 -5.5 L 3.234375 -5.5 C 3.859375 -5.5 4.335938 -5.359375 4.671875 -5.078125 C 5.003906 -4.796875 5.171875 -4.410156 5.171875 -3.921875 C 5.171875 -3.515625 5.050781 -3.171875 4.8125 -2.890625 C 4.582031 -2.609375 4.257812 -2.429688 3.84375 -2.359375 L 5.390625 0 Z M 4.421875 -3.921875 C 4.421875 -4.234375 4.3125 -4.472656 4.09375 -4.640625 C 3.882812 -4.804688 3.578125 -4.890625 3.171875 -4.890625 L 1.40625 -4.890625 L 1.40625 -2.875 L 3.203125 -2.875 C 3.585938 -2.875 3.882812 -2.960938 4.09375 -3.140625 C 4.3125 -3.328125 4.421875 -3.585938 4.421875 -3.921875 Z M 4.421875 -3.921875 "/></g></g></g><g fill="#5b4f47" fill-opacity="1"><g transform="translate(152.530596, 226.521176)"><g><path d="M 3.03125 -2.28125 L 3.03125 0 L 2.28125 0 L 2.28125 -2.28125 L 0.171875 -5.5 L 1 -5.5 L 2.671875 -2.875 L 4.328125 -5.5 L 5.15625 -5.5 Z M 3.03125 -2.28125 "/></g></g></g><g fill="#5b4f47" fill-opacity="1"><g transform="translate(161.051757, 226.521176)"><g><path d="M 4.953125 -1.515625 C 4.953125 -1.003906 4.753906 -0.609375 4.359375 -0.328125 C 3.960938 -0.0546875 3.40625 0.078125 2.6875 0.078125 C 1.351562 0.078125 0.578125 -0.382812 0.359375 -1.3125 L 1.078125 -1.46875 C 1.160156 -1.132812 1.335938 -0.890625 1.609375 -0.734375 C 1.878906 -0.578125 2.25 -0.5 2.71875 -0.5 C 3.195312 -0.5 3.566406 -0.582031 3.828125 -0.75 C 4.085938 -0.914062 4.21875 -1.160156 4.21875 -1.484375 C 4.21875 -1.660156 4.175781 -1.800781 4.09375 -1.90625 C 4.019531 -2.019531 3.90625 -2.113281 3.75 -2.1875 C 3.601562 -2.257812 3.425781 -2.320312 3.21875 -2.375 C 3.019531 -2.425781 2.796875 -2.476562 2.546875 -2.53125 C 2.109375 -2.625 1.773438 -2.71875 1.546875 -2.8125 C 1.328125 -2.914062 1.148438 -3.023438 1.015625 -3.140625 C 0.890625 -3.265625 0.789062 -3.40625 0.71875 -3.5625 C 0.65625 -3.71875 0.625 -3.898438 0.625 -4.109375 C 0.625 -4.578125 0.800781 -4.9375 1.15625 -5.1875 C 1.519531 -5.445312 2.035156 -5.578125 2.703125 -5.578125 C 3.328125 -5.578125 3.800781 -5.476562 4.125 -5.28125 C 4.457031 -5.09375 4.691406 -4.769531 4.828125 -4.3125 L 4.09375 -4.1875 C 4.019531 -4.476562 3.867188 -4.6875 3.640625 -4.8125 C 3.410156 -4.945312 3.097656 -5.015625 2.703125 -5.015625 C 2.253906 -5.015625 1.914062 -4.941406 1.6875 -4.796875 C 1.457031 -4.648438 1.34375 -4.429688 1.34375 -4.140625 C 1.34375 -3.972656 1.382812 -3.832031 1.46875 -3.71875 C 1.5625 -3.613281 1.691406 -3.519531 1.859375 -3.4375 C 2.035156 -3.363281 2.375 -3.269531 2.875 -3.15625 C 3.039062 -3.125 3.207031 -3.085938 3.375 -3.046875 C 3.550781 -3.003906 3.710938 -2.953125 3.859375 -2.890625 C 4.015625 -2.835938 4.160156 -2.773438 4.296875 -2.703125 C 4.429688 -2.628906 4.546875 -2.535156 4.640625 -2.421875 C 4.742188 -2.316406 4.820312 -2.1875 4.875 -2.03125 C 4.925781 -1.882812 4.953125 -1.710938 4.953125 -1.515625 Z M 4.953125 -1.515625 "/></g></g></g><g fill="#5b4f47" fill-opacity="1"><g transform="translate(169.572921, 226.521176)"><g><path d="M 2.8125 -4.890625 L 2.8125 0 L 2.0625 0 L 2.0625 -4.890625 L 0.171875 -4.890625 L 0.171875 -5.5 L 4.6875 -5.5 L 4.6875 -4.890625 Z M 2.8125 -4.890625 "/></g></g></g><g fill="#5b4f47" fill-opacity="1"><g transform="translate(177.645643, 226.521176)"><g><path d="M 3.03125 -2.28125 L 3.03125 0 L 2.28125 0 L 2.28125 -2.28125 L 0.171875 -5.5 L 1 -5.5 L 2.671875 -2.875 L 4.328125 -5.5 L 5.15625 -5.5 Z M 3.03125 -2.28125 "/></g></g></g><g fill="#5b4f47" fill-opacity="1"><g transform="translate(186.166806, 226.521176)"><g><path d="M 4.3125 0 L 2.109375 -2.65625 L 1.40625 -2.109375 L 1.40625 0 L 0.65625 0 L 0.65625 -5.5 L 1.40625 -5.5 L 1.40625 -2.734375 L 4.046875 -5.5 L 4.921875 -5.5 L 2.578125 -3.109375 L 5.234375 0 Z M 4.3125 0 "/></g></g></g><g fill="#5b4f47" fill-opacity="1"><g transform="translate(194.68797, 226.521176)"><g><path d="M 4.546875 0 L 3.921875 -1.609375 L 1.421875 -1.609375 L 0.78125 0 L 0.015625 0 L 2.25 -5.5 L 3.109375 -5.5 L 5.3125 0 Z M 2.671875 -4.9375 L 2.640625 -4.828125 C 2.566406 -4.609375 2.46875 -4.332031 2.34375 -4 L 1.640625 -2.1875 L 3.703125 -2.1875 L 3 -4 C 2.925781 -4.175781 2.851562 -4.378906 2.78125 -4.609375 Z M 2.671875 -4.9375 "/></g></g></g><g fill="#5b4f47" fill-opacity="1"><g transform="translate(203.209133, 226.521176)"><g/></g></g><g fill="#5b4f47" fill-opacity="1"><g transform="translate(208.622405, 226.521176)"><g><path d="M 4.953125 -1.515625 C 4.953125 -1.003906 4.753906 -0.609375 4.359375 -0.328125 C 3.960938 -0.0546875 3.40625 0.078125 2.6875 0.078125 C 1.351562 0.078125 0.578125 -0.382812 0.359375 -1.3125 L 1.078125 -1.46875 C 1.160156 -1.132812 1.335938 -0.890625 1.609375 -0.734375 C 1.878906 -0.578125 2.25 -0.5 2.71875 -0.5 C 3.195312 -0.5 3.566406 -0.582031 3.828125 -0.75 C 4.085938 -0.914062 4.21875 -1.160156 4.21875 -1.484375 C 4.21875 -1.660156 4.175781 -1.800781 4.09375 -1.90625 C 4.019531 -2.019531 3.90625 -2.113281 3.75 -2.1875 C 3.601562 -2.257812 3.425781 -2.320312 3.21875 -2.375 C 3.019531 -2.425781 2.796875 -2.476562 2.546875 -2.53125 C 2.109375 -2.625 1.773438 -2.71875 1.546875 -2.8125 C 1.328125 -2.914062 1.148438 -3.023438 1.015625 -3.140625 C 0.890625 -3.265625 0.789062 -3.40625 0.71875 -3.5625 C 0.65625 -3.71875 0.625 -3.898438 0.625 -4.109375 C 0.625 -4.578125 0.800781 -4.9375 1.15625 -5.1875 C 1.519531 -5.445312 2.035156 -5.578125 2.703125 -5.578125 C 3.328125 -5.578125 3.800781 -5.476562 4.125 -5.28125 C 4.457031 -5.09375 4.691406 -4.769531 4.828125 -4.3125 L 4.09375 -4.1875 C 4.019531 -4.476562 3.867188 -4.6875 3.640625 -4.8125 C 3.410156 -4.945312 3.097656 -5.015625 2.703125 -5.015625 C 2.253906 -5.015625 1.914062 -4.941406 1.6875 -4.796875 C 1.457031 -4.648438 1.34375 -4.429688 1.34375 -4.140625 C 1.34375 -3.972656 1.382812 -3.832031 1.46875 -3.71875 C 1.5625 -3.613281 1.691406 -3.519531 1.859375 -3.4375 C 2.035156 -3.363281 2.375 -3.269531 2.875 -3.15625 C 3.039062 -3.125 3.207031 -3.085938 3.375 -3.046875 C 3.550781 -3.003906 3.710938 -2.953125 3.859375 -2.890625 C 4.015625 -2.835938 4.160156 -2.773438 4.296875 -2.703125 C 4.429688 -2.628906 4.546875 -2.535156 4.640625 -2.421875 C 4.742188 -2.316406 4.820312 -2.1875 4.875 -2.03125 C 4.925781 -1.882812 4.953125 -1.710938 4.953125 -1.515625 Z M 2.109375 -5.96875 L 2.109375 -6.046875 L 2.953125 -6.921875 L 3.765625 -6.921875 L 3.765625 -6.8125 L 2.546875 -5.96875 Z M 2.109375 -5.96875 "/></g></g></g><g fill="#5b4f47" fill-opacity="1"><g transform="translate(217.143568, 226.521176)"><g><path d="M 0.65625 0 L 0.65625 -5.5 L 1.40625 -5.5 L 1.40625 -0.609375 L 4.171875 -0.609375 L 4.171875 0 Z M 0.65625 0 "/></g></g></g><g fill="#5b4f47" fill-opacity="1"><g transform="translate(224.779548, 226.521176)"><g><path d="M 2.84375 0.078125 C 2.394531 0.078125 2.003906 0 1.671875 -0.15625 C 1.335938 -0.320312 1.078125 -0.5625 0.890625 -0.875 C 0.703125 -1.1875 0.609375 -1.5625 0.609375 -2 L 0.609375 -5.5 L 1.359375 -5.5 L 1.359375 -2.0625 C 1.359375 -1.5625 1.484375 -1.179688 1.734375 -0.921875 C 1.992188 -0.660156 2.363281 -0.53125 2.84375 -0.53125 C 3.34375 -0.53125 3.726562 -0.660156 4 -0.921875 C 4.269531 -1.191406 4.40625 -1.585938 4.40625 -2.109375 L 4.40625 -5.5 L 5.15625 -5.5 L 5.15625 -2.0625 C 5.15625 -1.625 5.054688 -1.242188 4.859375 -0.921875 C 4.671875 -0.597656 4.40625 -0.347656 4.0625 -0.171875 C 3.71875 -0.00390625 3.3125 0.078125 2.84375 0.078125 Z M 2.84375 0.078125 "/></g></g></g><g fill="#5b4f47" fill-opacity="1"><g transform="translate(233.741353, 226.521176)"><g><path d="M 4.90625 -1.546875 C 4.90625 -1.054688 4.726562 -0.675781 4.375 -0.40625 C 4.019531 -0.132812 3.523438 0 2.890625 0 L 0.65625 0 L 0.65625 -5.5 L 2.65625 -5.5 C 3.9375 -5.5 4.578125 -5.050781 4.578125 -4.15625 C 4.578125 -3.832031 4.484375 -3.5625 4.296875 -3.34375 C 4.117188 -3.125 3.867188 -2.972656 3.546875 -2.890625 C 3.972656 -2.835938 4.304688 -2.691406 4.546875 -2.453125 C 4.785156 -2.210938 4.90625 -1.910156 4.90625 -1.546875 Z M 3.84375 -4.0625 C 3.84375 -4.363281 3.738281 -4.578125 3.53125 -4.703125 C 3.332031 -4.828125 3.039062 -4.890625 2.65625 -4.890625 L 1.40625 -4.890625 L 1.40625 -3.15625 L 2.65625 -3.15625 C 3.050781 -3.15625 3.347656 -3.226562 3.546875 -3.375 C 3.742188 -3.53125 3.84375 -3.757812 3.84375 -4.0625 Z M 4.15625 -1.609375 C 4.15625 -2.253906 3.695312 -2.578125 2.78125 -2.578125 L 1.40625 -2.578125 L 1.40625 -0.59375 L 2.84375 -0.59375 C 3.300781 -0.59375 3.632812 -0.675781 3.84375 -0.84375 C 4.050781 -1.019531 4.15625 -1.273438 4.15625 -1.609375 Z M 4.15625 -1.609375 "/></g></g></g><g fill="#5b4f47" fill-opacity="1"><g transform="translate(242.262517, 226.521176)"><g><path d="M 4.21875 0 L 1.28125 -4.671875 L 1.296875 -4.296875 L 1.3125 -3.65625 L 1.3125 0 L 0.65625 0 L 0.65625 -5.5 L 1.515625 -5.5 L 4.484375 -0.78125 C 4.453125 -1.289062 4.4375 -1.660156 4.4375 -1.890625 L 4.4375 -5.5 L 5.109375 -5.5 L 5.109375 0 Z M 4.21875 0 "/></g></g></g><g fill="#5b4f47" fill-opacity="1"><g transform="translate(251.224322, 226.521176)"><g><path d="M 4.546875 0 L 3.921875 -1.609375 L 1.421875 -1.609375 L 0.78125 0 L 0.015625 0 L 2.25 -5.5 L 3.109375 -5.5 L 5.3125 0 Z M 2.671875 -4.9375 L 2.640625 -4.828125 C 2.566406 -4.609375 2.46875 -4.332031 2.34375 -4 L 1.640625 -2.1875 L 3.703125 -2.1875 L 3 -4 C 2.925781 -4.175781 2.851562 -4.378906 2.78125 -4.609375 Z M 2.671875 -4.9375 "/></g></g></g><path stroke-linecap="round" transform="matrix(0.750701, 0, 0, 0.75, 49.626796, 206.789341)" fill="none" stroke-linejoin="miter" d="M 0.502344 0.499629 L 367.159553 0.499629 " stroke="#5b4f47" stroke-width="1" stroke-opacity="1" stroke-miterlimit="4"/><g fill="#5b4f47" fill-opacity="1"><g transform="translate(91.773682, 185.9814)"><g><path d="M 19.863281 -8.195312 C 18.78125 -3.371094 16.121094 -0.246094 11.816406 -0.246094 C 6.546875 -0.246094 4.136719 -4.875 4.136719 -10.238281 C 4.136719 -15.507812 6.867188 -19.789062 11.175781 -19.789062 C 14.300781 -19.789062 16 -17.28125 16.761719 -14.152344 L 19.222656 -14.816406 C 17.550781 -18.191406 14.992188 -20.183594 11.175781 -20.183594 C 5.761719 -20.183594 1.476562 -16.074219 1.476562 -10.09375 C 1.476562 -4.109375 5.070312 0.492188 11.199219 0.492188 C 16.269531 0.492188 19.078125 -2.953125 20.207031 -8.195312 Z M 19.863281 -8.195312 "/></g></g></g><g fill="#5b4f47" fill-opacity="1"><g transform="translate(115.424472, 185.9814)"><g><path d="M 1.476562 -19.691406 C 1.625 -17.625 1.671875 -16.640625 1.671875 -14.84375 L 1.671875 -8.367188 C 1.671875 -1.355469 4.578125 0.492188 9.15625 0.492188 C 13.539062 0.492188 15.703125 -1.921875 15.703125 -8.367188 L 15.703125 -14.84375 C 15.703125 -16.640625 15.730469 -17.625 15.902344 -19.691406 L 15.113281 -19.691406 C 15.285156 -17.625 15.308594 -16.640625 15.308594 -14.84375 L 15.308594 -8.367188 C 15.308594 -2.265625 13.339844 -0.125 9.574219 -0.125 C 5.6875 -0.125 4.085938 -2.511719 4.085938 -8.367188 L 4.085938 -14.84375 C 4.085938 -16.640625 4.136719 -17.625 4.28125 -19.691406 Z M 1.476562 -19.691406 "/></g></g></g><g fill="#5b4f47" fill-opacity="1"><g transform="translate(135.260797, 185.9814)"><g><path d="M 1.722656 0 L 6.941406 0 C 13.195312 0 16.960938 -3.570312 16.960938 -9.847656 C 16.960938 -16.394531 13.070312 -19.691406 6.941406 -19.691406 L 1.722656 -19.691406 C 1.871094 -17.625 1.921875 -16.640625 1.921875 -14.84375 L 1.921875 -4.847656 C 1.921875 -3.050781 1.871094 -2.066406 1.722656 0 Z M 6.867188 -0.394531 L 4.332031 -0.394531 L 4.332031 -19.296875 L 6.867188 -19.296875 C 11.222656 -19.296875 14.300781 -16.246094 14.300781 -9.847656 C 14.300781 -3.691406 11.222656 -0.394531 6.867188 -0.394531 Z M 6.867188 -0.394531 "/></g></g></g><g fill="#5b4f47" fill-opacity="1"><g transform="translate(156.155324, 185.9814)"><g><path d="M 14.277344 -2.632812 L 9.476562 -19.691406 L 6.570312 -19.691406 C 6.746094 -19.152344 6.746094 -18.878906 6.621094 -18.363281 L 2.117188 -2.484375 C 1.847656 -1.574219 1.773438 -1.082031 1.230469 0 L 1.945312 0 C 2.042969 -1.058594 2.238281 -1.574219 2.511719 -2.511719 L 3.839844 -7.164062 L 10.4375 -7.164062 L 11.714844 -2.632812 C 12.011719 -1.574219 12.183594 -1.109375 12.234375 0 L 15.308594 0 C 14.816406 -0.960938 14.597656 -1.5 14.277344 -2.632812 Z M 3.9375 -7.558594 L 7.136719 -18.855469 L 10.339844 -7.558594 Z M 3.9375 -7.558594 "/></g></g></g><g fill="#5b4f47" fill-opacity="1"><g transform="translate(175.154924, 185.9814)"><g/></g></g><g fill="#5b4f47" fill-opacity="1"><g transform="translate(184.655276, 185.9814)"><g><path d="M 1.722656 0 L 2.511719 0 C 2.339844 -2.066406 2.3125 -3.050781 2.3125 -4.847656 L 2.3125 -18.4375 L 10.832031 0.492188 L 11.273438 0.492188 L 19.371094 -18.511719 L 19.371094 -4.847656 C 19.371094 -3.050781 19.347656 -2.066406 19.199219 0 L 22.003906 0 C 21.832031 -2.066406 21.808594 -3.050781 21.808594 -4.847656 L 21.808594 -14.84375 C 21.808594 -16.640625 21.832031 -17.625 22.003906 -19.691406 L 19.46875 -19.691406 L 12.136719 -2.78125 L 4.429688 -19.691406 L 1.722656 -19.691406 C 1.871094 -17.625 1.921875 -16.640625 1.921875 -14.84375 L 1.921875 -4.847656 C 1.921875 -3.050781 1.871094 -2.066406 1.722656 0 Z M 1.722656 0 "/></g></g></g><g fill="#5b4f47" fill-opacity="1"><g transform="translate(210.840844, 185.9814)"><g><path d="M 14.277344 -2.632812 L 9.476562 -19.691406 L 6.570312 -19.691406 C 6.746094 -19.152344 6.746094 -18.878906 6.621094 -18.363281 L 2.117188 -2.484375 C 1.847656 -1.574219 1.773438 -1.082031 1.230469 0 L 1.945312 0 C 2.042969 -1.058594 2.238281 -1.574219 2.511719 -2.511719 L 3.839844 -7.164062 L 10.4375 -7.164062 L 11.714844 -2.632812 C 12.011719 -1.574219 12.183594 -1.109375 12.234375 0 L 15.308594 0 C 14.816406 -0.960938 14.597656 -1.5 14.277344 -2.632812 Z M 3.9375 -7.558594 L 7.136719 -18.855469 L 10.339844 -7.558594 Z M 3.9375 -7.558594 "/></g></g></g><g fill="#5b4f47" fill-opacity="1"><g transform="translate(229.84045, 185.9814)"><g><path d="M 1.722656 0 L 2.511719 0 C 2.339844 -2.066406 2.3125 -3.050781 2.3125 -4.847656 L 2.3125 -18.4375 L 10.832031 0.492188 L 11.273438 0.492188 L 19.371094 -18.511719 L 19.371094 -4.847656 C 19.371094 -3.050781 19.347656 -2.066406 19.199219 0 L 22.003906 0 C 21.832031 -2.066406 21.808594 -3.050781 21.808594 -4.847656 L 21.808594 -14.84375 C 21.808594 -16.640625 21.832031 -17.625 22.003906 -19.691406 L 19.46875 -19.691406 L 12.136719 -2.78125 L 4.429688 -19.691406 L 1.722656 -19.691406 C 1.871094 -17.625 1.921875 -16.640625 1.921875 -14.84375 L 1.921875 -4.847656 C 1.921875 -3.050781 1.871094 -2.066406 1.722656 0 Z M 1.722656 0 "/></g></g></g><g fill="#5b4f47" fill-opacity="1"><g transform="translate(256.026018, 185.9814)"><g><path d="M 14.449219 -17.402344 C 14.917969 -18.289062 15.136719 -18.730469 15.777344 -19.691406 L 15.113281 -19.691406 C 14.71875 -18.730469 14.523438 -18.339844 14.03125 -17.378906 L 9.820312 -9.253906 L 5.515625 -17.378906 C 5.019531 -18.289062 4.773438 -18.730469 4.457031 -19.691406 L 1.230469 -19.691406 C 1.945312 -18.804688 2.265625 -18.3125 2.757812 -17.378906 L 7.457031 -8.492188 L 7.457031 -4.847656 C 7.457031 -3.050781 7.433594 -2.066406 7.261719 0 L 10.066406 0 C 9.917969 -2.066406 9.894531 -3.050781 9.894531 -4.847656 L 9.894531 -8.492188 Z M 14.449219 -17.402344 "/></g></g></g><g clip-path="url(#5e0af22242)"><g clip-path="url(#86a4b2c541)"><g clip-path="url(#ba19f7e795)"><path fill="#5b4f47" d="M 190.6875 246.730469 C 186.839844 245.222656 183.34375 243.152344 179.847656 241.085938 C 176.625 239.179688 173.25 237.617188 169.742188 236.304688 C 169.417969 236.183594 168.972656 236.21875 168.660156 236.34375 C 164.851562 237.796875 161.066406 239.277344 157.019531 239.988281 C 154.308594 240.453125 151.601562 240.722656 148.898438 240.136719 C 148.136719 239.976562 147.359375 239.597656 146.714844 239.136719 C 145.808594 238.46875 145.777344 237.488281 146.496094 236.589844 C 147.359375 235.515625 148.542969 234.953125 149.800781 234.550781 C 154.269531 233.09375 158.8125 232.992188 163.382812 233.894531 C 165.265625 234.265625 167.082031 234.894531 168.925781 235.355469 C 169.210938 235.421875 169.566406 235.324219 169.855469 235.195312 C 172.714844 233.875 175.574219 232.550781 178.433594 231.230469 C 179.246094 230.859375 180.03125 230.484375 180.765625 230.152344 C 180.4375 228.859375 180.035156 227.578125 179.785156 226.269531 C 179.085938 222.457031 178.882812 218.617188 178.902344 214.734375 C 178.902344 210.339844 178.828125 205.929688 178.777344 201.527344 C 178.75 199.175781 178.773438 196.808594 178.695312 194.453125 C 178.613281 191.804688 178.378906 189.179688 178.246094 186.546875 C 178.019531 181.675781 177.742188 176.824219 177.632812 171.972656 C 177.546875 168.492188 177.730469 165.023438 177.792969 161.539062 C 177.859375 157.175781 177.65625 152.824219 177.007812 148.480469 C 176.984375 148.304688 176.917969 148.097656 176.785156 147.984375 C 175.074219 146.613281 173.339844 145.238281 171.628906 143.867188 C 167.28125 140.40625 163.703125 136.199219 160.34375 131.808594 C 157.460938 128.042969 156.164062 123.632812 155.765625 118.933594 C 155.671875 117.722656 156.179688 117.234375 157.359375 117.550781 C 158.539062 117.867188 159.722656 118.304688 160.820312 118.855469 C 164.179688 120.511719 167.25 122.46875 169.53125 125.488281 C 171.382812 127.929688 172.757812 130.617188 173.839844 133.460938 C 175.507812 137.855469 176.714844 142.378906 177.386719 147.042969 C 177.492188 147.839844 178.1875 148.28125 178.902344 147.921875 C 179.636719 147.5625 180.300781 147.046875 181.003906 146.589844 C 181.085938 146.527344 181.136719 146.339844 181.125 146.238281 C 180.667969 144.660156 180.898438 143.054688 181.082031 141.46875 C 181.621094 136.882812 182.519531 132.34375 183.847656 127.894531 C 184.660156 125.152344 185.660156 122.464844 187.324219 120.089844 C 187.726562 119.511719 188.242188 118.976562 188.796875 118.542969 C 189.921875 117.679688 191.066406 117.894531 191.933594 119.023438 C 192.714844 120.0625 193.054688 121.261719 193.191406 122.523438 C 193.5 125.476562 192.871094 128.292969 191.933594 131.066406 C 190.082031 136.441406 187.21875 141.183594 183.292969 145.304688 C 182.859375 145.757812 182.40625 146.179688 181.953125 146.628906 C 182.613281 147.796875 183.738281 148.328125 184.964844 148.648438 C 185.058594 148.664062 185.195312 148.585938 185.277344 148.523438 C 187.722656 146.679688 190.167969 144.808594 192.640625 142.964844 C 195.410156 140.898438 198.132812 138.824219 200.964844 136.839844 C 203.355469 135.207031 206.035156 133.929688 208.902344 133.074219 C 209.386719 132.925781 209.886719 132.851562 210.382812 132.824219 C 211.144531 132.789062 211.613281 133.269531 211.457031 134.03125 C 211.351562 134.578125 211.128906 135.105469 210.839844 135.578125 C 209.5625 137.664062 207.886719 139.425781 206.097656 141.121094 C 202.160156 144.851562 197.648438 147.597656 192.28125 148.828125 C 190.054688 149.335938 187.804688 149.671875 185.511719 149.4375 C 185.367188 149.417969 185.164062 149.484375 185.074219 149.59375 C 182.546875 151.988281 180.726562 154.78125 180.476562 158.359375 C 180.410156 159.351562 180.5625 160.328125 181.019531 161.222656 C 181.613281 162.359375 182.867188 162.835938 184.015625 162.339844 C 184.355469 162.195312 184.648438 161.871094 184.953125 161.621094 C 185.292969 161.988281 185.222656 162.292969 184.734375 162.640625 C 183.398438 163.570312 181.429688 163.140625 180.585938 161.675781 C 179.765625 160.238281 179.746094 158.695312 180.019531 157.121094 C 180.558594 154.242188 182 151.886719 184.015625 149.808594 C 184.183594 149.636719 184.328125 149.488281 184.535156 149.246094 C 183.242188 148.867188 182.164062 148.222656 181.417969 147.089844 C 180.207031 147.695312 179.292969 149.101562 177.554688 148.4375 C 177.609375 148.90625 177.625 149.300781 177.691406 149.675781 C 178.242188 153.664062 178.351562 157.664062 178.308594 161.6875 C 178.269531 166.371094 178.15625 171.070312 178.210938 175.769531 C 178.242188 178.777344 178.519531 181.773438 178.671875 184.777344 C 178.894531 189.351562 179.191406 193.914062 179.292969 198.472656 C 179.417969 203.867188 179.449219 209.246094 179.429688 214.640625 C 179.417969 218.621094 179.628906 222.585938 180.359375 226.523438 C 180.585938 227.679688 180.984375 228.8125 181.253906 229.832031 C 183.941406 229.191406 186.433594 228.550781 188.976562 228.039062 C 190.164062 227.792969 191.410156 227.804688 192.613281 227.78125 C 193.644531 227.757812 194.628906 228.070312 195.523438 228.640625 C 196.847656 229.492188 197.046875 230.816406 196.035156 232.0625 C 195.234375 233.019531 194.191406 233.652344 193.011719 234.019531 C 189.578125 235.0625 186.265625 234.804688 183.183594 232.917969 C 182.351562 232.40625 181.722656 231.511719 180.929688 230.710938 C 177.4375 232.359375 173.808594 234.082031 170.136719 235.796875 C 171.40625 236.324219 172.632812 236.820312 173.875 237.363281 C 176.84375 238.671875 179.667969 240.300781 182.441406 241.949219 C 185.082031 243.5 187.757812 244.960938 190.609375 246.082031 C 191.164062 246.308594 191.671875 246.359375 192.265625 246.125 C 193.664062 245.617188 195.132812 245.441406 196.617188 245.679688 C 196.878906 245.71875 197.171875 245.734375 197.398438 245.863281 C 197.621094 246.019531 197.949219 246.285156 197.941406 246.503906 C 197.933594 246.722656 197.664062 247.074219 197.40625 247.160156 C 196.339844 247.59375 195.21875 247.554688 194.078125 247.488281 C 193.566406 247.460938 193.007812 247.429688 192.519531 247.261719 C 191.796875 247.011719 191.195312 247.121094 190.53125 247.464844 C 185.828125 250.035156 181.140625 252.65625 176.898438 255.925781 C 176.734375 256.050781 176.59375 256.175781 176.3125 256.429688 C 185.320312 256.945312 193.757812 259.042969 201.558594 263.347656 C 201.667969 263.410156 201.773438 263.546875 201.882812 263.636719 C 201.851562 263.679688 201.839844 263.753906 201.808594 263.796875 C 201.433594 263.695312 201.019531 263.683594 200.703125 263.492188 C 197.710938 261.839844 194.53125 260.621094 191.273438 259.613281 C 188.722656 258.804688 186.058594 258.273438 183.40625 257.820312 C 180.921875 257.386719 178.402344 257.21875 175.914062 256.980469 C 175.648438 256.96875 175.328125 257.140625 175.109375 257.304688 C 172.941406 259.09375 170.691406 260.773438 168.21875 262.125 C 164.976562 263.90625 161.605469 265.398438 157.890625 266.007812 C 156.1875 266.300781 154.472656 266.296875 152.761719 265.929688 C 150.105469 265.351562 149.289062 263.035156 151.03125 260.964844 C 151.980469 259.832031 153.269531 259.1875 154.617188 258.671875 C 157.679688 257.476562 160.878906 257.011719 164.132812 256.699219 C 167.734375 256.339844 171.347656 256.226562 174.976562 256.359375 C 175.195312 256.367188 175.449219 256.304688 175.617188 256.15625 C 180.230469 252.523438 185.300781 249.617188 190.445312 246.863281 C 190.546875 246.855469 190.578125 246.808594 190.6875 246.730469 Z M 176.789062 147.445312 C 176.804688 147.179688 176.816406 147.109375 176.800781 147.03125 C 175.988281 141.636719 174.539062 136.421875 172.351562 131.390625 C 169.964844 125.867188 166.042969 121.832031 160.523438 119.375 C 159.464844 118.902344 158.371094 118.503906 157.269531 118.171875 C 156.472656 117.933594 156.269531 118.148438 156.347656 118.96875 C 156.734375 123.589844 158.039062 127.933594 160.90625 131.644531 C 164.269531 135.988281 167.828125 140.167969 172.179688 143.605469 C 173.6875 144.847656 175.171875 146.113281 176.789062 147.445312 Z M 181.558594 145.960938 C 181.628906 145.96875 181.703125 145.980469 181.773438 145.992188 C 181.972656 145.800781 182.195312 145.613281 182.398438 145.398438 C 185.902344 141.824219 188.617188 137.746094 190.511719 133.109375 C 191.757812 130.0625 192.742188 126.980469 192.660156 123.644531 C 192.628906 122.175781 192.390625 120.773438 191.542969 119.527344 C 190.832031 118.496094 189.925781 118.339844 188.980469 119.132812 C 188.476562 119.574219 187.964844 120.0625 187.632812 120.648438 C 186.808594 122.140625 186.019531 123.6875 185.378906 125.257812 C 184.132812 128.300781 183.351562 131.511719 182.761719 134.726562 C 182.25 137.605469 181.851562 140.53125 181.480469 143.433594 C 181.386719 144.273438 181.53125 145.125 181.558594 145.960938 Z M 174.667969 257.144531 C 174.628906 257.066406 174.589844 257.011719 174.550781 256.933594 C 171.335938 256.808594 168.136719 256.933594 164.9375 257.230469 C 161.859375 257.519531 158.789062 257.929688 155.835938 258.898438 C 154.265625 259.425781 152.730469 260.0625 151.59375 261.3125 C 150.105469 262.980469 150.675781 264.796875 152.847656 265.355469 C 152.960938 265.394531 153.082031 265.414062 153.179688 265.425781 C 155.132812 265.804688 157.085938 265.671875 158.984375 265.238281 C 162.601562 264.417969 165.949219 262.921875 169.09375 260.980469 C 171.003906 259.792969 172.816406 258.441406 174.667969 257.144531 Z M 185.835938 148.875 C 186.105469 148.886719 186.25 148.910156 186.394531 148.929688 C 188.585938 149 190.691406 148.644531 192.804688 148.097656 C 197.660156 146.84375 201.796875 144.3125 205.441406 140.929688 C 207.335938 139.175781 209.171875 137.316406 210.449219 135.058594 C 210.707031 134.628906 210.71875 134.046875 210.839844 133.550781 C 210.324219 133.546875 209.753906 133.441406 209.265625 133.589844 C 206.382812 134.421875 203.675781 135.691406 201.226562 137.414062 C 198.476562 139.339844 195.804688 141.394531 193.089844 143.398438 C 190.839844 145.078125 188.59375 146.730469 186.34375 148.410156 C 186.183594 148.507812 186.039062 148.660156 185.835938 148.875 Z M 168.242188 235.84375 C 168.15625 235.757812 168.117188 235.703125 168.070312 235.695312 C 164.605469 234.585938 161.0625 233.855469 157.410156 233.914062 C 154.636719 233.953125 151.894531 234.289062 149.339844 235.363281 C 148.507812 235.707031 147.71875 236.253906 147.042969 236.863281 C 146.316406 237.492188 146.421875 238.289062 147.226562 238.820312 C 147.832031 239.199219 148.550781 239.476562 149.242188 239.625 C 151.023438 240.003906 152.816406 239.945312 154.609375 239.738281 C 158.242188 239.335938 161.738281 238.347656 165.132812 237.03125 C 166.144531 236.640625 167.179688 236.25 168.242188 235.84375 Z M 181.753906 230.441406 C 182.238281 231.316406 182.796875 232.03125 183.636719 232.496094 C 186.394531 234.066406 189.335938 234.367188 192.386719 233.585938 C 193.660156 233.257812 194.773438 232.660156 195.628906 231.660156 C 196.453125 230.703125 196.324219 229.710938 195.242188 229.089844 C 194.605469 228.726562 193.84375 228.421875 193.136719 228.394531 C 191.875 228.308594 190.570312 228.367188 189.324219 228.527344 C 186.722656 228.910156 184.246094 229.625 181.753906 230.441406 Z M 192.730469 246.65625 C 194.277344 246.953125 195.839844 247.15625 197.355469 246.492188 C 195.789062 245.976562 194.246094 246.167969 192.730469 246.65625 Z M 192.730469 246.65625 " fill-opacity="1" fill-rule="nonzero"/><path fill="#5b4f47" d="M 153.648438 266.226562 C 153.363281 266.1875 153.074219 266.144531 152.816406 266.082031 C 151.507812 265.796875 150.539062 265.070312 150.214844 264.070312 C 149.871094 263.070312 150.179688 261.941406 151.039062 260.917969 C 152.042969 259.71875 153.4375 259.0625 154.679688 258.582031 C 157.894531 257.335938 161.316406 256.878906 164.222656 256.589844 C 167.921875 256.21875 171.5625 256.109375 175.066406 256.25 C 175.261719 256.253906 175.492188 256.1875 175.628906 256.085938 C 180.40625 252.328125 185.578125 249.386719 190.484375 246.773438 C 186.828125 245.316406 183.484375 243.367188 179.808594 241.199219 C 176.765625 239.394531 173.375 237.78125 169.722656 236.449219 C 169.445312 236.335938 169.027344 236.347656 168.714844 236.472656 L 168.089844 236.726562 C 164.542969 238.070312 160.890625 239.472656 157.046875 240.140625 C 154.613281 240.570312 151.746094 240.914062 148.871094 240.304688 C 148.136719 240.148438 147.335938 239.761719 146.648438 239.273438 C 146.203125 238.964844 145.945312 238.535156 145.886719 238.089844 C 145.8125 237.589844 145.988281 237.054688 146.402344 236.550781 C 147.328125 235.390625 148.632812 234.84375 149.761719 234.472656 C 154.003906 233.078125 158.589844 232.863281 163.417969 233.828125 C 164.582031 234.070312 165.738281 234.382812 166.863281 234.714844 C 167.570312 234.914062 168.273438 235.113281 168.984375 235.289062 C 169.195312 235.34375 169.5 235.292969 169.8125 235.140625 C 171.9375 234.175781 174.066406 233.164062 176.136719 232.195312 L 178.371094 231.148438 C 178.921875 230.886719 179.46875 230.648438 179.996094 230.40625 L 180.621094 230.128906 C 180.53125 229.75 180.414062 229.367188 180.320312 229.011719 C 180.078125 228.144531 179.835938 227.257812 179.675781 226.351562 C 179.050781 223.039062 178.773438 219.359375 178.769531 214.8125 C 178.761719 211.808594 178.742188 208.726562 178.679688 205.761719 C 178.660156 204.367188 178.640625 202.996094 178.621094 201.601562 C 178.605469 200.839844 178.617188 200.085938 178.605469 199.328125 C 178.609375 197.765625 178.601562 196.125 178.539062 194.527344 C 178.484375 193.03125 178.390625 191.480469 178.289062 189.996094 C 178.226562 188.890625 178.148438 187.730469 178.089844 186.621094 C 178.027344 185.515625 177.96875 184.40625 177.929688 183.300781 C 177.753906 179.613281 177.546875 175.796875 177.476562 172.046875 C 177.417969 169.71875 177.492188 167.359375 177.546875 165.09375 C 177.589844 163.953125 177.613281 162.785156 177.632812 161.613281 C 177.710938 156.835938 177.445312 152.574219 176.871094 148.582031 C 176.847656 148.40625 176.777344 148.226562 176.6875 148.164062 C 175.523438 147.238281 174.339844 146.285156 173.199219 145.363281 C 172.652344 144.917969 172.078125 144.46875 171.53125 144.023438 C 166.878906 140.300781 163.214844 135.835938 160.25 131.964844 C 157.574219 128.453125 156.078125 124.230469 155.632812 119.011719 C 155.582031 118.34375 155.722656 117.875 156.027344 117.625 C 156.332031 117.378906 156.78125 117.320312 157.394531 117.480469 C 158.546875 117.792969 159.710938 118.230469 160.878906 118.789062 C 164.929688 120.742188 167.617188 122.792969 169.613281 125.425781 C 171.363281 127.730469 172.769531 130.351562 173.941406 133.429688 C 175.625 137.871094 176.828125 142.441406 177.488281 147.035156 C 177.53125 147.40625 177.734375 147.703125 178.007812 147.839844 C 178.257812 147.976562 178.550781 147.96875 178.839844 147.839844 C 179.390625 147.578125 179.9375 147.191406 180.449219 146.851562 C 180.613281 146.75 180.777344 146.628906 180.9375 146.53125 C 180.964844 146.507812 181.007812 146.371094 180.992188 146.316406 C 180.554688 144.765625 180.730469 143.203125 180.925781 141.691406 L 180.953125 141.5 C 181.492188 136.910156 182.421875 132.332031 183.71875 127.925781 C 184.4375 125.488281 185.414062 122.625 187.199219 120.097656 C 187.601562 119.519531 188.125 118.960938 188.699219 118.53125 C 189.25 118.097656 189.839844 117.914062 190.417969 117.996094 C 191.015625 118.082031 191.554688 118.429688 192.003906 119.03125 C 192.726562 119.964844 193.144531 121.152344 193.304688 122.589844 C 193.566406 125.167969 193.171875 127.898438 192.039062 131.179688 C 190.1875 136.554688 187.265625 141.359375 183.390625 145.46875 C 183.105469 145.769531 182.816406 146.066406 182.480469 146.363281 C 182.363281 146.492188 182.226562 146.59375 182.109375 146.722656 C 182.683594 147.660156 183.578125 148.253906 185.015625 148.632812 C 185.039062 148.636719 185.113281 148.621094 185.226562 148.542969 C 186.128906 147.867188 187.011719 147.1875 187.917969 146.511719 C 189.453125 145.363281 191.023438 144.148438 192.585938 142.984375 C 193.136719 142.574219 193.710938 142.144531 194.261719 141.734375 C 196.429688 140.117188 198.652344 138.4375 200.914062 136.855469 C 203.28125 135.195312 205.964844 133.921875 208.910156 133.003906 C 209.371094 132.875 209.875 132.773438 210.417969 132.753906 C 210.835938 132.71875 211.207031 132.871094 211.417969 133.121094 C 211.625 133.371094 211.695312 133.722656 211.617188 134.101562 C 211.515625 134.625 211.289062 135.179688 211 135.671875 C 209.648438 137.898438 207.839844 139.738281 206.253906 141.242188 C 201.949219 145.289062 197.421875 147.832031 192.382812 148.988281 C 190.535156 149.40625 188.09375 149.859375 185.558594 149.617188 C 185.441406 149.597656 185.285156 149.648438 185.199219 149.734375 C 182.328125 152.496094 180.878906 155.242188 180.644531 158.410156 C 180.566406 159.449219 180.746094 160.402344 181.167969 161.21875 C 181.746094 162.304688 182.929688 162.746094 184.003906 162.265625 C 184.210938 162.171875 184.410156 161.980469 184.605469 161.816406 C 184.691406 161.730469 184.800781 161.648438 184.886719 161.5625 L 184.96875 161.5 L 185.054688 161.585938 C 185.246094 161.785156 185.320312 161.964844 185.292969 162.15625 C 185.261719 162.375 185.109375 162.570312 184.835938 162.777344 C 184.179688 163.242188 183.347656 163.417969 182.519531 163.222656 C 181.664062 163.027344 180.933594 162.507812 180.523438 161.785156 C 179.777344 160.507812 179.597656 159.039062 179.945312 157.136719 C 180.429688 154.445312 181.757812 152.046875 183.96875 149.777344 C 184.082031 149.671875 184.171875 149.5625 184.289062 149.433594 L 184.347656 149.367188 C 183.015625 148.929688 182.078125 148.28125 181.414062 147.308594 C 181.121094 147.460938 180.847656 147.664062 180.574219 147.871094 C 179.777344 148.464844 178.957031 149.054688 177.738281 148.683594 C 177.75 148.757812 177.761719 148.855469 177.75 148.929688 C 177.785156 149.203125 177.796875 149.472656 177.832031 149.722656 C 178.449219 154.109375 178.480469 158.464844 178.445312 161.757812 C 178.4375 163 178.40625 164.242188 178.398438 165.488281 C 178.347656 168.875 178.308594 172.386719 178.328125 175.808594 C 178.339844 177.765625 178.464844 179.761719 178.605469 181.6875 C 178.675781 182.726562 178.742188 183.785156 178.785156 184.84375 C 178.832031 186.046875 178.90625 187.230469 178.976562 188.4375 C 179.160156 191.761719 179.328125 195.179688 179.425781 198.566406 C 179.554688 203.273438 179.59375 208.238281 179.5625 214.734375 C 179.558594 219.351562 179.847656 223.105469 180.496094 226.59375 C 180.648438 227.398438 180.882812 228.164062 181.113281 228.929688 C 181.195312 229.210938 181.277344 229.492188 181.359375 229.773438 C 182.121094 229.589844 182.855469 229.425781 183.566406 229.234375 C 185.417969 228.792969 187.167969 228.363281 188.957031 228.011719 C 190.039062 227.800781 191.171875 227.769531 192.273438 227.757812 L 192.617188 227.757812 C 193.671875 227.738281 194.683594 228.03125 195.601562 228.628906 C 196.273438 229.066406 196.703125 229.640625 196.78125 230.289062 C 196.882812 230.9375 196.640625 231.585938 196.132812 232.222656 C 195.363281 233.160156 194.308594 233.839844 193.054688 234.21875 C 189.46875 235.316406 186.144531 234.957031 183.128906 233.105469 C 182.546875 232.753906 182.082031 232.222656 181.578125 231.660156 C 181.363281 231.433594 181.132812 231.179688 180.921875 230.929688 L 170.441406 235.867188 C 170.765625 236.011719 171.066406 236.128906 171.390625 236.25 C 172.222656 236.589844 173.101562 236.960938 173.929688 237.324219 C 176.855469 238.601562 179.542969 240.160156 182.519531 241.910156 C 184.683594 243.199219 187.585938 244.816406 190.664062 246.042969 C 191.242188 246.269531 191.707031 246.289062 192.246094 246.097656 C 193.667969 245.570312 195.160156 245.417969 196.621094 245.632812 C 196.621094 245.632812 196.648438 245.632812 196.648438 245.632812 L 196.765625 245.652344 C 197.007812 245.6875 197.269531 245.722656 197.472656 245.851562 C 197.539062 245.886719 198.078125 246.230469 198.074219 246.597656 C 198.082031 246.890625 197.734375 247.257812 197.472656 247.367188 C 196.355469 247.816406 195.164062 247.765625 194.09375 247.710938 C 193.5625 247.679688 193.003906 247.648438 192.511719 247.480469 C 191.859375 247.265625 191.3125 247.308594 190.625 247.671875 C 185.867188 250.257812 181.261719 252.84375 176.992188 256.136719 C 176.882812 256.21875 176.796875 256.304688 176.660156 256.40625 C 176.660156 256.40625 176.632812 256.425781 176.632812 256.425781 C 186.09375 257.011719 194.285156 259.292969 201.632812 263.332031 C 201.722656 263.394531 201.808594 263.480469 201.894531 263.542969 C 201.917969 263.570312 201.960938 263.597656 201.980469 263.625 L 202.046875 263.683594 L 201.921875 264.035156 L 201.828125 264.019531 C 201.710938 263.980469 201.589844 263.960938 201.46875 263.945312 C 201.210938 263.882812 200.921875 263.839844 200.695312 263.710938 C 198.089844 262.257812 195.109375 261.046875 191.292969 259.835938 C 189.089844 259.152344 186.675781 258.585938 183.449219 258.046875 C 181.535156 257.71875 179.582031 257.535156 177.667969 257.382812 C 177.089844 257.324219 176.53125 257.292969 175.953125 257.230469 C 175.738281 257.199219 175.441406 257.378906 175.222656 257.542969 C 173.253906 259.140625 170.910156 260.949219 168.328125 262.386719 C 164.371094 264.550781 161.183594 265.753906 157.976562 266.265625 C 156.492188 266.394531 155.042969 266.429688 153.648438 266.226562 Z M 169.5 236.121094 C 169.597656 236.136719 169.691406 236.148438 169.785156 236.1875 C 173.433594 237.542969 176.851562 239.136719 179.914062 240.972656 C 183.632812 243.195312 187.023438 245.148438 190.726562 246.613281 L 190.914062 246.6875 L 190.773438 246.8125 C 190.746094 246.835938 190.71875 246.855469 190.691406 246.875 C 190.660156 246.921875 190.609375 246.9375 190.582031 246.957031 C 185.699219 249.574219 180.527344 252.492188 175.773438 256.253906 C 175.605469 256.402344 175.300781 256.480469 175.058594 256.46875 C 171.554688 256.328125 167.914062 256.4375 164.238281 256.8125 C 161.332031 257.101562 157.960938 257.566406 154.773438 258.792969 C 153.578125 259.253906 152.214844 259.890625 151.242188 261.042969 C 150.445312 261.980469 150.164062 263.0625 150.476562 263.960938 C 150.785156 264.886719 151.667969 265.550781 152.902344 265.828125 C 154.488281 266.179688 156.222656 266.207031 157.980469 265.898438 C 161.164062 265.382812 164.324219 264.175781 168.257812 262.035156 C 170.835938 260.621094 173.179688 258.808594 175.121094 257.234375 C 175.367188 257.050781 175.710938 256.855469 176.027344 256.875 C 176.605469 256.9375 177.160156 256.992188 177.746094 257.027344 C 179.652344 257.203125 181.636719 257.367188 183.546875 257.691406 C 186.769531 258.257812 189.214844 258.804688 191.417969 259.488281 C 195.257812 260.679688 198.261719 261.917969 200.867188 263.367188 C 201.074219 263.472656 201.308594 263.53125 201.574219 263.566406 C 201.644531 263.578125 201.742188 263.59375 201.808594 263.625 C 201.785156 263.625 201.789062 263.597656 201.765625 263.597656 C 201.699219 263.539062 201.640625 263.457031 201.570312 263.421875 C 194.15625 259.320312 185.914062 257.082031 176.375 256.511719 L 176.082031 256.492188 L 176.304688 256.304688 C 176.414062 256.222656 176.472656 256.160156 176.554688 256.097656 C 176.695312 255.996094 176.78125 255.886719 176.890625 255.828125 C 181.183594 252.539062 185.792969 249.929688 190.550781 247.34375 C 191.269531 246.933594 191.914062 246.882812 192.613281 247.128906 C 193.078125 247.292969 193.613281 247.320312 194.121094 247.347656 C 195.167969 247.398438 196.332031 247.46875 197.398438 247.039062 C 197.609375 246.945312 197.84375 246.664062 197.84375 246.492188 C 197.839844 246.367188 197.625 246.140625 197.359375 245.957031 C 197.203125 245.859375 196.960938 245.828125 196.746094 245.796875 L 196.625 245.777344 C 196.625 245.777344 196.601562 245.773438 196.601562 245.773438 C 195.164062 245.566406 193.746094 245.730469 192.347656 246.234375 C 191.757812 246.441406 191.242188 246.441406 190.59375 246.179688 C 187.488281 244.972656 184.59375 243.332031 182.402344 242.039062 C 179.449219 240.292969 176.761719 238.734375 173.835938 237.457031 C 173.007812 237.09375 172.132812 236.722656 171.300781 236.382812 C 170.90625 236.226562 170.515625 236.050781 170.097656 235.890625 L 169.84375 235.78125 L 180.976562 230.546875 L 181.042969 230.605469 C 181.300781 230.863281 181.554688 231.144531 181.785156 231.398438 C 182.273438 231.929688 182.734375 232.460938 183.273438 232.785156 C 186.222656 234.578125 189.472656 234.949219 193.007812 233.871094 C 194.238281 233.488281 195.234375 232.851562 195.976562 231.957031 C 196.449219 231.386719 196.660156 230.785156 196.570312 230.207031 C 196.484375 229.632812 196.117188 229.117188 195.492188 228.710938 C 194.617188 228.144531 193.65625 227.859375 192.652344 227.859375 L 192.308594 227.859375 C 191.230469 227.875 190.101562 227.882812 189.042969 228.097656 C 187.253906 228.449219 185.503906 228.878906 183.652344 229.320312 C 182.890625 229.503906 182.105469 229.683594 181.316406 229.886719 L 181.214844 229.921875 L 181.179688 229.820312 C 181.101562 229.515625 181.003906 229.183594 180.902344 228.875 C 180.667969 228.109375 180.4375 227.34375 180.289062 226.515625 C 179.640625 223.027344 179.351562 219.246094 179.359375 214.628906 C 179.363281 208.15625 179.324219 203.167969 179.21875 198.460938 C 179.144531 195.082031 178.953125 191.65625 178.773438 188.332031 C 178.703125 187.125 178.652344 185.945312 178.582031 184.738281 C 178.539062 183.683594 178.46875 182.621094 178.394531 181.609375 C 178.28125 179.6875 178.152344 177.691406 178.117188 175.730469 C 178.078125 172.28125 178.144531 168.773438 178.167969 165.378906 C 178.175781 164.136719 178.207031 162.894531 178.214844 161.648438 C 178.25 158.355469 178.214844 154.027344 177.601562 149.640625 C 177.566406 149.367188 177.527344 149.117188 177.523438 148.820312 C 177.519531 148.675781 177.488281 148.546875 177.488281 148.378906 L 177.46875 148.179688 L 177.652344 148.253906 C 178.859375 148.722656 179.625 148.148438 180.445312 147.558594 C 180.75 147.332031 181.074219 147.113281 181.417969 146.941406 L 181.523438 146.882812 L 181.585938 146.964844 C 182.25 147.964844 183.203125 148.640625 184.636719 149.066406 L 184.824219 149.117188 L 184.480469 149.460938 C 184.363281 149.589844 184.25 149.695312 184.136719 149.800781 C 181.953125 152.050781 180.65625 154.40625 180.15625 157.042969 C 179.816406 158.875 180.003906 160.296875 180.707031 161.519531 C 181.101562 162.1875 181.765625 162.675781 182.546875 162.859375 C 183.308594 163.019531 184.0625 162.882812 184.660156 162.457031 C 184.878906 162.292969 185.023438 162.144531 185.019531 161.996094 C 185.035156 161.902344 185 161.796875 184.917969 161.6875 C 184.859375 161.753906 184.804688 161.792969 184.722656 161.855469 C 184.523438 162.046875 184.300781 162.234375 184.039062 162.34375 C 182.835938 162.878906 181.511719 162.394531 180.878906 161.179688 C 180.441406 160.308594 180.242188 159.328125 180.324219 158.242188 C 180.570312 155.003906 182.027344 152.207031 184.953125 149.40625 C 185.070312 149.277344 185.324219 149.214844 185.496094 149.214844 C 187.980469 149.476562 190.394531 149.019531 192.242188 148.601562 C 197.226562 147.464844 201.730469 144.9375 206.007812 140.914062 C 207.59375 139.410156 209.375 137.589844 210.71875 135.414062 C 211.007812 134.941406 211.207031 134.410156 211.324219 133.914062 C 211.394531 133.605469 211.335938 133.328125 211.167969 133.132812 C 211 132.9375 210.722656 132.847656 210.351562 132.867188 C 209.832031 132.890625 209.328125 132.988281 208.894531 133.121094 C 205.972656 134.019531 203.292969 135.292969 200.953125 136.933594 C 198.691406 138.515625 196.46875 140.171875 194.300781 141.789062 C 193.753906 142.199219 193.175781 142.628906 192.628906 143.039062 C 191.066406 144.203125 189.496094 145.394531 187.957031 146.566406 C 187.050781 147.242188 186.171875 147.921875 185.265625 148.597656 C 185.15625 148.679688 184.996094 148.777344 184.855469 148.730469 C 183.320312 148.339844 182.363281 147.6875 181.753906 146.648438 L 181.714844 146.570312 L 181.773438 146.503906 C 181.917969 146.355469 182.0625 146.203125 182.226562 146.082031 C 182.539062 145.785156 182.828125 145.484375 183.113281 145.183594 C 186.984375 141.101562 189.878906 136.3125 191.722656 130.984375 C 192.855469 127.730469 193.242188 125.050781 192.972656 122.496094 C 192.835938 121.082031 192.433594 119.972656 191.730469 119.066406 C 191.320312 118.519531 190.828125 118.203125 190.300781 118.125 C 189.796875 118.054688 189.28125 118.222656 188.761719 118.613281 C 188.207031 119.046875 187.71875 119.5625 187.320312 120.113281 C 185.5625 122.621094 184.59375 125.4375 183.875 127.875 C 182.578125 132.28125 181.652344 136.835938 181.109375 141.425781 L 181.082031 141.617188 C 180.917969 143.105469 180.746094 144.644531 181.164062 146.148438 C 181.195312 146.273438 181.132812 146.535156 181 146.613281 C 180.835938 146.710938 180.671875 146.832031 180.511719 146.933594 C 179.996094 147.296875 179.453125 147.660156 178.875 147.941406 C 178.507812 148.109375 178.136719 148.128906 177.816406 147.960938 C 177.476562 147.789062 177.234375 147.414062 177.179688 146.964844 C 176.515625 142.398438 175.339844 137.832031 173.652344 133.410156 C 172.5 130.363281 171.085938 127.761719 169.339844 125.460938 C 167.472656 122.964844 164.800781 120.945312 160.773438 118.996094 C 159.628906 118.4375 158.46875 118.003906 157.335938 117.71875 C 156.792969 117.566406 156.421875 117.609375 156.175781 117.792969 C 155.921875 118.003906 155.839844 118.40625 155.882812 118.972656 C 156.308594 124.164062 157.808594 128.339844 160.425781 131.769531 C 163.390625 135.644531 167.03125 140.101562 171.6875 143.800781 C 172.234375 144.246094 172.804688 144.695312 173.351562 145.140625 C 174.492188 146.0625 175.679688 146.992188 176.839844 147.941406 C 177.039062 148.09375 177.089844 148.417969 177.105469 148.492188 C 177.703125 152.488281 177.964844 156.777344 177.886719 161.554688 C 177.867188 162.722656 177.84375 163.890625 177.800781 165.035156 C 177.742188 167.320312 177.671875 169.65625 177.730469 171.984375 C 177.824219 175.738281 178.007812 179.550781 178.1875 183.214844 C 178.25 184.324219 178.308594 185.433594 178.347656 186.539062 C 178.402344 187.667969 178.484375 188.804688 178.542969 189.914062 C 178.648438 191.394531 178.742188 192.945312 178.796875 194.445312 C 178.859375 196.042969 178.867188 197.679688 178.863281 199.242188 C 178.875 200 178.863281 200.757812 178.878906 201.515625 C 178.894531 202.910156 178.917969 204.28125 178.9375 205.675781 C 178.976562 208.640625 179.023438 211.699219 179.027344 214.730469 C 179.03125 219.273438 179.3125 222.929688 179.910156 226.242188 C 180.078125 227.121094 180.316406 228.007812 180.558594 228.875 C 180.671875 229.28125 180.785156 229.6875 180.898438 230.097656 L 180.929688 230.199219 L 180.117188 230.570312 C 179.59375 230.8125 179.042969 231.074219 178.492188 231.3125 L 176.261719 232.359375 C 174.1875 233.328125 172.039062 234.3125 169.9375 235.304688 C 169.753906 235.378906 169.308594 235.582031 168.933594 235.480469 C 168.222656 235.304688 167.492188 235.101562 166.789062 234.898438 C 165.683594 234.570312 164.53125 234.257812 163.367188 234.015625 C 158.585938 233.058594 154.023438 233.277344 149.835938 234.652344 C 148.730469 235.007812 147.480469 235.535156 146.585938 236.652344 C 146.222656 237.113281 146.058594 237.578125 146.121094 238 C 146.160156 238.398438 146.40625 238.75 146.78125 239.023438 C 147.445312 239.511719 148.203125 239.863281 148.914062 240.015625 C 151.765625 240.621094 154.605469 240.273438 156.992188 239.863281 C 160.808594 239.191406 164.457031 237.8125 167.980469 236.464844 L 168.605469 236.214844 C 168.886719 236.132812 169.214844 236.082031 169.5 236.121094 Z M 153.710938 265.648438 C 153.515625 265.621094 153.347656 265.597656 153.160156 265.546875 C 153.066406 265.53125 152.972656 265.496094 152.851562 265.476562 L 152.804688 265.472656 C 151.71875 265.191406 150.976562 264.570312 150.722656 263.777344 C 150.472656 262.984375 150.75 262.070312 151.503906 261.253906 C 152.671875 259.953125 154.257812 259.304688 155.777344 258.789062 C 158.914062 257.753906 162.152344 257.367188 164.902344 257.128906 C 168.351562 256.820312 171.496094 256.734375 174.515625 256.828125 L 174.589844 256.839844 L 174.804688 257.214844 L 174.722656 257.273438 C 174.148438 257.679688 173.578125 258.085938 173.003906 258.492188 C 171.75 259.386719 170.464844 260.300781 169.148438 261.136719 C 165.863281 263.203125 162.449219 264.640625 159.007812 265.414062 C 157.140625 265.804688 155.386719 265.890625 153.710938 265.648438 Z M 174.457031 257.066406 C 171.464844 256.949219 168.339844 257.0625 164.917969 257.351562 C 162.167969 257.585938 158.953125 257.980469 155.839844 259.019531 C 154.324219 259.511719 152.789062 260.144531 151.65625 261.394531 C 150.957031 262.152344 150.714844 262.996094 150.929688 263.710938 C 151.144531 264.425781 151.820312 264.988281 152.835938 265.253906 L 152.882812 265.261719 C 152.980469 265.277344 153.074219 265.3125 153.167969 265.328125 C 154.980469 265.664062 156.871094 265.617188 158.925781 265.132812 C 162.339844 264.355469 165.726562 262.9375 168.984375 260.890625 C 170.300781 260.082031 171.585938 259.167969 172.816406 258.269531 C 173.359375 257.882812 173.882812 257.496094 174.425781 257.109375 Z M 193.691406 246.941406 C 193.355469 246.894531 193.019531 246.84375 192.6875 246.773438 L 192.234375 246.683594 L 192.675781 246.527344 C 194.445312 245.953125 195.949219 245.898438 197.371094 246.375 L 197.675781 246.46875 L 197.390625 246.597656 C 196.160156 247.152344 194.914062 247.117188 193.691406 246.941406 Z M 193.246094 246.632812 C 194.460938 246.859375 195.742188 246.96875 196.984375 246.515625 C 195.832031 246.199219 194.625 246.246094 193.246094 246.632812 Z M 149.988281 239.878906 C 149.722656 239.839844 149.460938 239.800781 149.199219 239.738281 C 148.460938 239.585938 147.746094 239.285156 147.140625 238.90625 C 146.714844 238.625 146.449219 238.269531 146.410156 237.871094 C 146.367188 237.472656 146.566406 237.113281 146.933594 236.773438 C 147.691406 236.101562 148.5 235.582031 149.28125 235.257812 C 151.550781 234.3125 154.113281 233.851562 157.398438 233.8125 C 160.710938 233.753906 164.199219 234.355469 168.105469 235.605469 C 168.15625 235.609375 168.195312 235.664062 168.242188 235.695312 C 168.261719 235.722656 168.28125 235.75 168.324219 235.78125 L 168.480469 235.902344 L 167.367188 236.328125 C 166.613281 236.609375 165.914062 236.898438 165.1875 237.160156 C 161.378906 238.640625 157.921875 239.507812 154.640625 239.863281 C 152.800781 240.0625 151.328125 240.070312 149.988281 239.878906 Z M 161.804688 234.328125 C 160.292969 234.109375 158.8125 234.019531 157.390625 234.03125 C 154.152344 234.078125 151.589844 234.539062 149.375 235.464844 C 148.621094 235.773438 147.835938 236.292969 147.105469 236.945312 C 146.796875 237.21875 146.628906 237.535156 146.65625 237.859375 C 146.683594 238.179688 146.882812 238.476562 147.269531 238.703125 C 147.851562 239.082031 148.546875 239.351562 149.234375 239.5 C 150.753906 239.816406 152.414062 239.859375 154.578125 239.613281 C 157.835938 239.25 161.269531 238.378906 165.078125 236.902344 C 165.804688 236.617188 166.53125 236.351562 167.257812 236.066406 L 167.984375 235.78125 C 165.828125 235.105469 163.769531 234.613281 161.804688 234.328125 Z M 187.601562 234.019531 C 186.1875 233.816406 184.832031 233.351562 183.546875 232.605469 C 182.800781 232.179688 182.183594 231.527344 181.621094 230.496094 L 181.542969 230.359375 L 181.675781 230.304688 C 183.886719 229.574219 186.519531 228.78125 189.242188 228.417969 C 190.511719 228.257812 191.792969 228.199219 193.078125 228.289062 C 193.710938 228.328125 194.460938 228.558594 195.25 229.015625 C 195.796875 229.316406 196.152344 229.734375 196.230469 230.207031 C 196.328125 230.710938 196.128906 231.242188 195.6875 231.765625 C 194.867188 232.699219 193.765625 233.371094 192.367188 233.730469 C 190.742188 234.132812 189.160156 234.246094 187.601562 234.019531 Z M 181.9375 230.515625 C 182.46875 231.421875 183.019531 232.015625 183.695312 232.40625 C 186.34375 233.910156 189.253906 234.28125 192.355469 233.484375 C 193.675781 233.136719 194.769531 232.515625 195.539062 231.597656 C 195.921875 231.140625 196.113281 230.679688 196.027344 230.253906 C 195.960938 229.851562 195.648438 229.488281 195.171875 229.226562 C 194.402344 228.796875 193.722656 228.574219 193.117188 228.539062 C 191.855469 228.453125 190.574219 228.511719 189.328125 228.675781 C 186.65625 229.023438 184.097656 229.800781 181.9375 230.515625 Z M 185.558594 148.957031 L 185.753906 148.765625 C 185.839844 148.703125 185.894531 148.636719 185.953125 148.574219 C 186.066406 148.46875 186.179688 148.363281 186.289062 148.28125 C 188.539062 146.601562 190.785156 144.945312 193.035156 143.269531 C 193.832031 142.675781 194.628906 142.082031 195.421875 141.488281 C 197.289062 140.09375 199.210938 138.636719 201.171875 137.285156 C 203.621094 135.5625 206.328125 134.289062 209.238281 133.464844 C 209.59375 133.371094 209.984375 133.378906 210.347656 133.40625 C 210.519531 133.40625 210.6875 133.429688 210.832031 133.425781 L 210.980469 133.421875 L 210.9375 133.5625 C 210.886719 133.726562 210.863281 133.894531 210.84375 134.039062 C 210.792969 134.398438 210.710938 134.777344 210.542969 135.09375 C 209.203125 137.417969 207.34375 139.296875 205.503906 141.011719 C 201.546875 144.691406 197.390625 147.023438 192.816406 148.195312 C 190.375 148.820312 188.328125 149.085938 186.355469 149.023438 C 186.257812 149.007812 186.160156 149.019531 186.015625 148.996094 C 185.945312 148.988281 185.871094 148.976562 185.777344 148.960938 Z M 210.679688 133.648438 C 210.554688 133.65625 210.4375 133.636719 210.3125 133.644531 C 209.949219 133.617188 209.605469 133.617188 209.277344 133.691406 C 206.414062 134.523438 203.710938 135.792969 201.285156 137.496094 C 199.351562 138.855469 197.40625 140.285156 195.539062 141.699219 C 194.742188 142.292969 193.949219 142.886719 193.152344 143.480469 C 190.902344 145.160156 188.65625 146.8125 186.40625 148.492188 C 186.296875 148.574219 186.210938 148.660156 186.097656 148.765625 C 186.097656 148.765625 186.097656 148.765625 186.070312 148.785156 C 186.191406 148.800781 186.261719 148.8125 186.363281 148.804688 C 188.3125 148.863281 190.332031 148.59375 192.746094 147.988281 C 197.269531 146.835938 201.402344 144.5 205.328125 140.863281 C 207.140625 139.171875 209.003906 137.289062 210.335938 135.015625 C 210.496094 134.746094 210.546875 134.386719 210.601562 134.027344 C 210.644531 133.886719 210.660156 133.769531 210.679688 133.648438 Z M 176.898438 147.707031 L 176.703125 147.554688 C 176.199219 147.140625 175.699219 146.703125 175.191406 146.3125 C 174.121094 145.425781 173.117188 144.570312 172.085938 143.738281 C 167.480469 140.042969 163.8125 135.605469 160.820312 131.730469 C 158.15625 128.316406 156.652344 124.140625 156.21875 118.996094 C 156.167969 118.5 156.230469 118.242188 156.425781 118.097656 C 156.59375 117.953125 156.863281 117.941406 157.308594 118.078125 C 158.34375 118.375 159.433594 118.777344 160.585938 119.285156 C 166.039062 121.683594 170.03125 125.753906 172.457031 131.332031 C 174.574219 136.183594 176.0625 141.453125 176.925781 147.027344 C 176.941406 147.078125 176.933594 147.125 176.921875 147.21875 C 176.914062 147.269531 176.902344 147.339844 176.910156 147.464844 Z M 156.921875 118.21875 C 156.753906 118.195312 156.628906 118.203125 156.570312 118.265625 C 156.460938 118.347656 156.425781 118.585938 156.472656 118.960938 C 156.910156 124.054688 158.394531 128.203125 161.011719 131.585938 C 163.984375 135.433594 167.652344 139.875 172.261719 143.542969 C 173.292969 144.375 174.324219 145.207031 175.367188 146.117188 C 175.804688 146.472656 176.238281 146.851562 176.679688 147.210938 C 176.6875 147.136719 176.695312 147.089844 176.675781 147.0625 C 175.835938 141.519531 174.339844 136.269531 172.246094 131.449219 C 169.839844 125.898438 165.890625 121.882812 160.484375 119.492188 C 159.355469 118.984375 158.261719 118.585938 157.253906 118.292969 C 157.113281 118.246094 157.015625 118.234375 156.921875 118.21875 Z M 181.804688 146.117188 L 181.445312 146.066406 L 181.433594 145.964844 C 181.425781 145.695312 181.410156 145.449219 181.378906 145.175781 C 181.335938 144.609375 181.300781 144.015625 181.359375 143.4375 C 181.777344 140.203125 182.144531 137.492188 182.640625 134.730469 C 183.332031 130.949219 184.164062 127.917969 185.257812 125.242188 C 185.90625 123.625 186.746094 122.058594 187.519531 120.609375 C 187.855469 119.972656 188.421875 119.441406 188.867188 119.066406 C 189.34375 118.648438 189.832031 118.472656 190.289062 118.539062 C 190.289062 118.539062 190.289062 118.539062 190.3125 118.542969 C 190.792969 118.613281 191.214844 118.917969 191.597656 119.484375 C 192.546875 120.871094 192.710938 122.457031 192.753906 123.683594 C 192.839844 127.164062 191.773438 130.308594 190.597656 133.191406 C 188.738281 137.761719 186.011719 141.910156 182.457031 145.503906 C 182.3125 145.652344 182.171875 145.78125 182.03125 145.90625 C 181.972656 145.972656 181.890625 146.03125 181.832031 146.097656 Z M 181.671875 145.855469 L 181.71875 145.859375 C 181.773438 145.820312 181.832031 145.753906 181.863281 145.710938 C 182.003906 145.585938 182.148438 145.433594 182.289062 145.308594 C 185.792969 141.710938 188.519531 137.582031 190.371094 133.0625 C 191.542969 130.203125 192.605469 127.082031 192.515625 123.648438 C 192.492188 122.449219 192.320312 120.910156 191.410156 119.582031 C 191.066406 119.09375 190.691406 118.792969 190.28125 118.757812 C 189.898438 118.703125 189.484375 118.863281 189.039062 119.238281 C 188.589844 119.613281 188.054688 120.121094 187.722656 120.710938 C 186.925781 122.160156 186.117188 123.703125 185.46875 125.320312 C 184.371094 127.996094 183.546875 131.003906 182.878906 134.765625 C 182.382812 137.527344 182.015625 140.238281 181.597656 143.472656 C 181.519531 144.023438 181.582031 144.59375 181.601562 145.160156 C 181.640625 145.386719 181.65625 145.632812 181.671875 145.855469 Z M 181.671875 145.855469 " fill-opacity="1" fill-rule="nonzero"/></g></g></g></svg>