<?xml version="1.0" encoding="UTF-8" standalone="no"?>
<!-- Created with Inkscape (http://www.inkscape.org/) -->

<svg
   version="1.1"
   id="svg1"
   width="466.66666"
   height="238.66667"
   viewBox="0 0 466.66666 238.66667"
   sodipodi:docname="logo pasieka mor zupa.eps"
   xmlns:inkscape="http://www.inkscape.org/namespaces/inkscape"
   xmlns:sodipodi="http://sodipodi.sourceforge.net/DTD/sodipodi-0.dtd"
   xmlns="http://www.w3.org/2000/svg"
   xmlns:svg="http://www.w3.org/2000/svg">
  <defs
     id="defs1" />
  <sodipodi:namedview
     id="namedview1"
     pagecolor="#ffffff"
     bordercolor="#000000"
     borderopacity="0.25"
     inkscape:showpageshadow="2"
     inkscape:pageopacity="0.0"
     inkscape:pagecheckerboard="0"
     inkscape:deskcolor="#d1d1d1">
    <inkscape:page
       x="0"
       y="0"
       inkscape:label="1"
       id="page1"
       width="466.66666"
       height="238.66667"
       margin="0"
       bleed="0" />
  </sodipodi:namedview>
  <g
     id="g1"
     inkscape:groupmode="layer"
     inkscape:label="1">
    <path
       id="path1"
       d="m 3303.59,36.9102 c -5.93,0 -9.84,2.9687 -11.68,8.9492 -1.36,5.5117 -2.07,10.5508 -2.07,15.1211 0,3.1992 0.71,9.4101 2.07,18.5508 1.84,9.1796 4.14,17.8906 6.88,26.1287 2.73,8.719 5.74,13.051 8.94,13.051 0.47,5.039 2.27,11.488 5.51,19.258 3.21,7.812 7.31,12.383 12.35,13.75 v 0.703 c 0.93,1.367 2.07,2.738 3.43,4.098 1.41,1.41 2.78,2.781 4.14,4.14 l 0.71,1.371 v -0.66 l 0.66,9.609 c 2.31,1.36 4.14,3.668 5.51,6.872 1.37,3.668 3.2,6.41 5.51,8.238 l 2.07,-2.07 c 3.2,3.679 6.64,7.351 10.31,11.019 4.1,4.141 6.17,8.941 6.17,14.449 2.31,3.633 4.81,6.883 7.58,9.614 3.2,3.199 6.17,6.41 8.91,9.609 h 2.07 c 2.3,2.309 4.8,3.437 7.57,3.437 l 2.74,3.442 v 7.57 l 2.77,2.07 c 2.27,3.211 5.28,7.782 8.91,13.75 3.67,5.942 5.51,10.551 5.51,13.75 0,1.372 -1.14,2.071 -3.44,2.071 -1.84,0 -3.87,-0.461 -6.17,-1.36 -2.31,-0.472 -3.91,-0.711 -4.81,-0.711 v 3.442 l 35.04,29.566 v 0.672 c 5.98,4.141 11.72,8.469 17.19,13.078 5.51,5.043 11.25,9.383 17.19,13.051 5.04,-0.898 10.54,-2.5 16.52,-4.809 5.94,-1.832 10.08,-5.269 12.38,-10.308 v -8.942 c -3.24,-3.21 -8.71,-8.949 -16.52,-17.191 -7.77,-8.238 -16.72,-17.66 -26.8,-28.199 -10.08,-10.078 -20.19,-20.16 -30.27,-30.238 -10.08,-9.614 -19.02,-17.653 -26.8,-24.063 -7.34,-6.41 -12.38,-9.84 -15.12,-10.309 l -8.28,-7.582 3.44,-6.168 -3.44,-6.878 c -3.63,-0.903 -7.54,-3.903 -11.68,-8.942 -3.67,-4.57 -5.5,-8.949 -5.5,-13.051 -4.11,-1.839 -6.88,-3.91 -8.25,-6.211 -0.89,-2.269 -2.26,-4.57 -4.1,-6.878 -1.4,-2.258 -5.27,-4.571 -11.72,-6.872 l -2.03,-3.437 V 117.34 l 2.74,-2.07 -3.44,1.371 -2.74,-5.469 h -1.4 c -1.37,-4.613 -2.03,-9.41 -2.03,-14.4532 l 3.43,-8.2383 c 1.8,2.3008 5.47,5.7383 10.98,10.3086 5.51,5.0389 8.01,8.7109 7.58,10.9809 l 5.51,5.5 c 1.36,4.609 4.57,10.32 9.61,17.191 5.5,7.34 11.44,13.988 17.89,19.961 6.4,5.937 11.91,8.949 16.48,8.949 v 0.66 l 10.31,-0.66 c 6.41,-3.25 10.32,-8.711 11.68,-16.531 1.37,-7.77 3.44,-16.949 6.21,-27.5 3.21,-10.07 10.08,-20.6212 20.63,-31.6408 l 10.98,6.8789 h 2.07 c 1.83,2.3008 4.57,4.3711 8.24,6.211 4.14,1.8319 7.58,3.4409 10.31,4.8009 l 0.7,-0.699 c 0,-2.27 -3.43,-6.1722 -10.31,-11.6801 -6.4,-5.5117 -13.28,-10.5507 -20.62,-15.1211 -7.35,-4.5703 -12.62,-7.3398 -15.82,-8.2382 l -2.07,1.3672 -6.88,-1.3672 -2.07,3.4375 c -11.44,1.3711 -19.69,4.332 -24.73,8.9414 -5.03,5.039 -8.47,10.5078 -10.31,16.4883 -1.37,5.9802 -2.54,11.4412 -3.44,16.4802 -0.93,5.082 -3.43,8.281 -7.57,9.653 -3.21,-3.204 -6.18,-6.403 -8.95,-9.653 -2.73,-3.199 -5.51,-6.64 -8.24,-10.308 -4.14,-1.84 -8.24,-6.1722 -12.38,-13.0512 -3.68,-6.871 -7.31,-14.4492 -10.98,-22.6914 -3.2,-8.2382 -6.88,-15.3476 -11.02,-21.289 -4.14,-5.9805 -8.71,-8.9492 -13.75,-8.9492 z m 82.5,229.6488 -0.66,2.031 2.03,4.851 4.14,-0.711 1.37,-4.8 z M 3214.22,48.5898 c -4.57,0 -9.84,2.7813 -15.82,8.25 -5.51,5.5 -10.08,9.6407 -13.75,12.379 -0.43,5.9804 -1.84,11.25 -4.1,15.8203 -2.31,5.039 -3.44,10.5507 -3.44,16.4809 0,8.281 2.97,17.89 8.91,28.91 6.44,11.449 14.45,22.461 24.06,32.968 10.12,11.012 20.19,20.192 30.27,27.5 10.55,7.34 19.92,11.012 28.2,11.012 v 1.371 c 7.78,-1.832 14.65,-7.543 20.63,-17.191 5.94,-9.61 8.91,-18.32 8.91,-26.129 0,-1.801 -0.43,-4.102 -1.37,-6.871 -0.9,-2.738 -2.5,-4.11 -4.81,-4.11 -5.97,2.309 -11.01,5.508 -15.11,9.61 -4.14,4.14 -9.89,6.211 -17.19,6.211 -6.88,0 -13.99,-3 -21.33,-8.942 -7.34,-5.98 -13.98,-13.519 -19.92,-22.699 -5.98,-8.711 -10.78,-17.89 -14.45,-27.5 -3.68,-9.1795 -5.51,-16.9491 -5.51,-23.3592 0,-0.461 0.23,-1.6016 0.7,-3.4297 0.9,-1.8398 1.6,-3.25 2.07,-4.1406 3.21,-2.3086 7.11,-3.4414 11.68,-3.4414 5.04,0.4726 9.38,0.4726 13.05,0 l 0.7,-0.6993 1.37,3.4297 c 6.41,0.9414 12.38,2.3086 17.89,4.1407 v 4.1406 h 4.1 l -0.66,2.039 3.43,-0.6679 c 2.27,0.8984 3.91,1.8398 4.81,2.7383 1.37,1.3593 2.97,2.539 4.8,3.4296 l 3.44,-2.0703 v 0.711 l 12.38,11.6795 h 0.71 l 2.73,-1.3709 v 0.6992 c 5.98,5.4727 12.15,10.5117 18.56,15.1207 6.87,4.571 11.91,10.551 15.11,17.852 l 8.95,5.508 0.7,-1.367 c 0,-3.204 -1.13,-6.172 -3.44,-8.942 -2.3,-2.738 -4.8,-4.57 -7.57,-5.512 -4.57,-8.707 -10.32,-16.019 -17.19,-21.988 -6.88,-5.9412 -13.99,-12.1483 -21.29,-18.5584 h -2.77 l -0.67,-3.4414 c -8.28,-5.9688 -17.19,-12.3789 -26.83,-19.25 -9.61,-6.8789 -19.93,-10.3204 -30.94,-10.3204 z m 118.24,90.0822 -5.47,1.367 v 4.141 l 6.17,2.031 0.71,-2.031 z m -127.19,86.637 c -1.36,0 -5.04,0.429 -10.97,1.371 -5.51,1.371 -8.28,2.968 -8.28,4.8 0,6.879 3.43,11.918 10.31,15.122 7.34,3.199 13.32,6.41 17.89,9.648 h 1.37 c 6.44,5.039 13.98,8.48 22.69,10.309 9.18,1.8 17.66,2.972 25.43,3.441 l -0.66,-0.699 c -8.71,-2.742 -16.53,-7.821 -23.4,-15.121 -6.88,-6.879 -13.28,-13.52 -19.26,-19.961 -5.47,-5.938 -10.51,-8.949 -15.12,-8.949 z M 3116.6,34.1797 3105.59,49.9609 c -0.47,3.1993 -1.14,6.211 -2.07,8.9493 -0.9,3.1992 -1.37,6.3984 -1.37,9.6406 0,4.1094 0.23,8.25 0.7,12.3476 0.43,4.1407 0.9,8.2813 1.37,12.3829 l 4.8,11.6797 -0.66,0.699 c 2.26,5.512 4.57,12.621 6.87,21.328 2.27,8.711 5.04,17.422 8.25,26.102 3.67,9.18 8,16.75 13.04,22.691 5.04,6.449 11.25,9.649 18.56,9.649 5.04,0 10.78,-1.84 17.19,-5.508 6.44,-3.672 9.64,-8.473 9.64,-14.453 0,-2.27 -1.83,-6.41 -5.5,-12.379 -3.21,-5.942 -7.11,-12.578 -11.68,-19.93 -4.61,-6.871 -9.18,-13.039 -13.75,-18.551 -4.14,-5.039 -7.11,-8.007 -8.95,-8.949 -4.14,-7.3397 -9.84,-15.8202 -17.19,-25.4295 -7.34,-9.6407 -11.01,-18.5508 -11.01,-26.8321 0,-3.1992 0.47,-6.1679 1.4,-8.9101 1.37,-2.7695 2.04,-5.7383 2.04,-8.9375 z m -167.07,5.4687 c -5.51,4.1407 -8.24,9.6524 -8.24,16.5235 0,5.039 0.43,9.8476 1.37,14.4179 1.36,5.0313 2.26,10.1094 2.73,15.1485 h 0.7 c 14.65,40.7817 33.44,77.8907 56.37,111.3707 22.93,33.911 49.06,66.442 78.36,97.621 -0.43,3.2 1.84,8.04 6.88,14.45 5.5,6.41 11.48,12.808 17.89,19.261 6.87,6.399 11.68,10.539 14.45,12.34 2.73,0 6.87,-1.133 12.38,-3.441 5.47,-2.262 10.51,-5.039 15.12,-8.238 4.57,-2.731 6.87,-5.704 6.87,-8.942 0,-3.211 -2.53,-8.91 -7.57,-17.191 -5.04,-7.77 -10.79,-15.348 -17.19,-22.66 -5.94,-6.868 -10.98,-10.539 -15.12,-11.008 v 7.578 l -4.14,-2.078 v 0.668 l -4.1,3.441 c -2.31,-3.211 -5.27,-6.18 -8.95,-8.91 -3.2,-2.301 -7.34,-3.441 -12.38,-3.441 v -1.399 l -2.73,-4.808 h -1.41 v -3.442 h -3.44 c -6.4,0 -11.68,-2.262 -15.78,-6.871 v -6.168 l 2.07,-0.711 v 0.711 l 3.44,2.731 0.66,-0.661 c -4.57,-11.492 -11.21,-22.461 -19.92,-33.011 -8.24,-10.551 -16.76,-21.09 -25.47,-31.641 -8.24,-10.551 -14.88,-21.988 -19.92,-34.379 -3.2,-2.301 -7.34,-6.64 -12.38,-13.039 -4.57,-5.98 -8.71,-12.391 -12.38,-19.262 -3.64,-6.41 -5.47,-11.449 -5.47,-15.1207 0,-1.8281 0,-3.4375 0,-4.8399 0,-1.3671 0.23,-2.9687 0.66,-4.8086 v 0.711 c 11.91,9.6092 20.2,18.7892 24.77,27.5002 4.57,9.179 7.77,16.949 9.61,23.359 2.3,6.871 5.5,11.91 9.64,15.149 4.11,3.64 11.92,4.812 23.36,3.441 v 0.66 c 4.57,4.141 10.08,9.18 16.53,15.121 6.4,5.981 13.04,11.25 19.92,15.821 7.34,4.609 13.98,6.878 19.92,6.878 0.94,0 2.07,-0.468 3.44,-1.371 1.83,-0.468 3.01,-0.898 3.44,-1.371 l 4.84,-6.867 c 0,-4.141 -1.6,-8.25 -4.84,-12.391 -3.21,-3.671 -5.94,-6.871 -8.25,-9.601 h -1.36 v -2.777 l -38.52,-32.301 c -0.9,-1.84 -1.37,-3.68 -1.37,-5.512 0,-4.098 1.18,-9.379 3.44,-15.82 2.31,-5.938 5.51,-11.4495 9.65,-16.4885 4.57,-4.5703 9.37,-6.8711 14.41,-6.8711 h 8.25 l 6.87,5.5117 v 0.6602 l 2.07,-0.6602 8.95,4.8008 0.7,-0.7031 c -1.41,-4.5704 -5.04,-10.0782 -11.02,-16.4883 -5.93,-6.4024 -12.61,-12.1407 -19.92,-17.1797 -6.87,-4.5703 -12.85,-6.8789 -17.89,-6.8789 -9.18,0 -16.29,2.9687 -21.33,8.9492 -5.04,5.9297 -8.9,12.8086 -11.68,20.6172 -2.26,8.2422 -4.33,15.3517 -6.17,21.2927 -1.83,5.981 -4.14,8.949 -6.87,8.949 -3.68,0 -7.35,-2.5 -11.02,-7.539 -3.67,-5.082 -6.17,-8.9527 -7.54,-11.7222 -2.3,-1.8399 -4.61,-3.8672 -6.87,-6.168 -2.31,-2.3125 -4.61,-4.5703 -6.88,-6.8789 h -1.4 l -6.18,-6.1719 1.37,-1.4102 -5.51,-6.871 2.07,-3.4375 h -2.07 l -4.1,-6.8711 v -2.7383 h -0.7 l -3.44,2.7383 v -2.0704 h -0.7 l 2.77,-2.7382 -4.8,-3.4414 -7.58,-6.8711 -0.7,-4.1407 z m 102.42,96.9536 h 1.37 c 3.24,2.308 7.34,5.507 12.38,9.609 5.04,4.609 9.65,9.41 13.75,14.449 4.61,5.039 6.88,9.418 6.88,13.051 l -2.03,4.84 -0.71,-1.403 c -2.3,-0.898 -6.17,-2.968 -11.68,-6.168 -5.03,-2.742 -7.81,-5.75 -8.24,-8.949 l -4.14,2.071 -1.37,-3.442 -0.7,0.711 c -4.1,-2.781 -6.17,-6.883 -6.17,-12.391 0,-2.3 0,-4.371 0,-6.21 0.43,-1.79 0.66,-3.86 0.66,-6.168 z M 2781.76,12.8516 c -2.74,4.1367 -4.1,8.2382 -4.1,12.3789 0,3.2109 0.66,6.1797 2.03,8.9492 0.93,2.7305 2.07,5.2305 3.43,7.5391 h 0.71 l -0.71,0.7031 c 3.25,4.5664 8.29,10.5469 15.16,17.8476 7.31,7.3516 15.12,13.9922 23.36,19.961 8.24,5.9414 14.88,9.1484 19.96,9.6093 l 4.1,2.7813 c 2.31,3.6289 5.75,7.0703 10.32,10.3089 5.03,3.629 9.41,6.64 13.08,8.91 l 4.1,-0.668 -0.66,2.738 2.03,1.36 -2.03,6.878 c -4.61,1.832 -10.55,4.141 -17.89,6.872 -6.88,2.781 -13.28,6.21 -19.26,10.32 -5.51,4.609 -8.24,9.879 -8.24,15.82 0,4.57 4.1,11.012 12.38,19.25 8.24,8.25 18.09,16.488 29.57,24.77 11.92,8.711 23.13,16.019 33.67,21.992 11.02,5.937 18.79,8.949 23.36,8.949 5.98,2.258 10.32,5.93 13.09,10.969 2.73,5.039 5.27,9.648 7.54,13.75 2.77,4.609 6.44,6.879 11.01,6.879 5.98,0 11.02,-2.969 15.12,-8.949 4.61,-5.93 7.81,-11.211 9.65,-15.782 -0.47,-1.828 -1.84,-3.437 -4.14,-4.84 -1.84,-1.367 -3.2,-3.199 -4.14,-5.468 -5.47,-4.61 -10.08,-10.309 -13.75,-17.192 -3.21,-6.437 -6.41,-12.847 -9.61,-19.258 l -12.38,-6.871 -2.07,2.731 h -0.67 c -1.83,-2.262 -3.67,-4.328 -5.51,-6.168 -1.83,-1.832 -3.2,-3.902 -4.14,-6.211 -1.83,-1.832 -3.63,-4.57 -5.47,-8.242 -1.4,-3.199 -3.43,-5.039 -6.21,-5.508 l -0.66,1.41 c 2.26,7.301 4.57,14.649 6.87,21.988 2.27,7.77 4.81,15.352 7.54,22.692 l 1.37,0.668 1.41,10.312 c -4.61,0 -8.95,-1.133 -13.09,-3.441 -4.1,-2.262 -8.71,-3.199 -13.75,-2.731 -1.84,-1.371 -5.04,-4.14 -9.61,-8.238 -4.14,-4.141 -8.24,-7.82 -12.38,-11.019 -4.14,-3.204 -7.35,-5.043 -9.65,-5.512 -2.73,-5.039 -6.88,-9.84 -12.34,-14.41 -5.04,-4.61 -7.58,-10.121 -7.58,-16.52 0,-2.738 1.37,-4.57 4.14,-5.512 2.73,-0.429 5.27,-0.668 7.54,-0.668 v -4.14 l 1.36,0.711 11.02,-2.781 2.07,2.07 c 5.94,-1.36 13.28,-3.668 21.99,-6.871 9.18,-2.739 17.19,-6.641 24.07,-11.68 7.34,-5.039 11.01,-11.68 11.01,-19.918 0,-3.25 -0.7,-6.4491 -2.07,-9.6522 -1.37,-3.1993 -3.2,-6.4102 -5.51,-9.6094 l -10.97,-11.0196 -17.19,1.3711 c -3.24,-2.2617 -8.71,-4.3398 -16.52,-6.1718 -7.78,-1.3672 -15.12,-2.7383 -22,-4.1407 -6.4,-1.3671 -9.64,-2.9687 -9.64,-4.8086 l -6.18,5.5118 c -2.3,-4.1407 -5.74,-6.1719 -10.31,-6.1719 -4.57,0 -9.18,0 -13.75,0 -4.14,0 -8.94,-2.5391 -14.45,-7.5781 -5.04,-5.043 -9.61,-10.5508 -13.75,-16.5235 -4.1,-6.4062 -6.64,-11.6797 -7.54,-15.7773 z m -162.27,39.8789 c -3.63,0 -7.3,1.1406 -10.97,3.4414 -3.68,2.2695 -5.51,5.707 -5.51,10.3086 0,2.7383 0.94,7.3476 2.73,13.75 1.84,6.4101 4.14,13.289 6.88,20.6285 3.24,7.77 6.21,14.653 8.94,20.621 3.21,5.942 5.74,9.61 7.58,10.981 2.31,8.277 4.81,16.519 7.54,24.769 2.77,8.711 4.61,17.418 5.51,26.129 0.47,2.301 0.7,4.801 0.7,7.539 0,2.774 0,5.512 0,8.282 0,2.73 0,5.511 0,8.242 0,2.738 0.23,5.277 0.66,7.578 l 1.41,4.801 c 4.57,0 8.01,-3 10.31,-8.942 2.27,-5.507 3.87,-12.148 4.81,-19.961 0.9,-7.777 1.37,-15.347 1.37,-22.66 0.46,-6.867 0.93,-11.91 1.36,-15.148 l -2.07,-11.68 0.71,-1.371 c -0.47,-2.309 -1.37,-4.809 -2.74,-7.578 -1.41,-2.731 -1.83,-5.473 -1.41,-8.242 -1.79,-4.571 -3.63,-9.141 -5.46,-13.75 -1.84,-4.571 -3.21,-9.379 -4.14,-14.4182 4.14,3.2109 8.24,6.4102 12.38,9.6092 4.1,3.211 7.54,7.11 10.31,11.68 3.67,0.941 7.58,4.379 11.68,10.32 4.14,6.442 8.24,13.512 12.38,21.32 4.14,7.782 8.01,14.649 11.68,20.629 4.14,5.942 8.01,8.942 11.68,8.942 5.04,0 9.42,-2.301 13.09,-6.871 4.1,-4.141 6.4,-8.282 6.87,-12.379 l 1.37,-2.071 c -1.84,-8.25 -4.14,-16.492 -6.87,-24.769 -2.74,-8.242 -4.15,-16.949 -4.15,-26.09 v -8.9491 c 0.94,-1.8321 2.31,-3.6719 4.15,-5.5117 1.83,-1.8321 3.9,-2.961 6.17,-3.4297 2.77,2.3008 5.74,3.8984 8.94,4.8008 3.21,1.3671 6.41,2.7695 9.65,4.1406 l -0.7,1.3672 -2.07,0.6992 1.36,0.6717 8.29,5.5 0.66,3.442 4.81,1.367 v 6.211 c 2.3,3.199 4.84,6.871 7.57,10.98 2.74,4.61 5.98,7.57 9.61,8.942 6.45,9.179 12.85,19.257 19.26,30.238 6.41,11.48 13.75,21.32 21.99,29.57 0,-0.43 0,-1.14 0,-2.07 0.47,-0.899 0.71,-1.61 0.71,-2.039 0,-3.242 -1.14,-6.442 -3.44,-9.641 -1.84,-2.738 -3.2,-5.512 -4.14,-8.25 v -1.359 l -3.44,-3.442 -0.66,1.371 v -3.441 l -0.71,-2.738 h 0.71 l -5.51,-8.281 -2.74,-0.661 0.67,-1.371 h -0.67 l -0.7,0.672 c -0.9,0 -0.7,-0.672 0.7,-2.07 -1.83,-3.211 -3.67,-6.18 -5.5,-8.91 -1.37,-2.77 -3.21,-5.27 -5.51,-7.578 v -1.372 l -4.14,0.668 -1.37,-4.097 1.37,-1.371 -7.54,-6.211 c 0,-6.879 -3.67,-14.879 -11.02,-24.059 -6.87,-9.1795 -15.11,-16.9608 -24.72,-23.3592 -9.18,-6.4492 -17.19,-9.4219 -24.07,-8.9492 l -6.87,0.6679 c -10.12,6.4414 -16.06,12.3789 -17.89,17.8907 -1.37,5.5 -2.07,13.9808 -2.07,25.4298 0,4.14 0.23,8.281 0.7,12.379 0.9,4.14 1.84,8.242 2.74,12.383 l -2.74,0.699 c -2.3,-3.242 -7.34,-9.41 -15.12,-18.59 -7.34,-8.711 -15.58,-18.32 -24.76,-28.8712 -9.18,-10.0703 -17.66,-18.789 -25.43,-26.1289 -7.35,-7.3398 -12.38,-10.9804 -15.16,-10.9804 z M 2559.02,8.05078 2545.27,23.8711 c -2.3,9.1406 -4.84,18.5508 -7.57,28.1602 -2.31,9.1796 -3.91,18.5585 -4.81,28.1992 l 3.44,13.0508 -1.37,0.6992 c 1.84,5.039 3.63,10.0785 5.47,15.1215 2.3,5.507 3.44,10.777 3.44,15.82 -2.27,-2.301 -4.81,-4.613 -7.54,-6.871 -2.31,-2.313 -4.14,-5.039 -5.51,-8.25 -1.84,-1.832 -3.44,-4.141 -4.8,-6.871 -1.37,-2.77 -3.21,-5.0784 -5.51,-6.8792 l -0.71,-6.211 c -6.4,-1.3593 -12.81,-4.5703 -19.21,-9.6093 -5.98,-4.6094 -11.96,-9.1797 -17.89,-13.75 -5.98,-4.1407 -12.39,-6.211 -19.26,-6.211 -3.21,0 -7.35,0.2422 -12.39,0.711 -4.57,0.8984 -8,2.3008 -10.31,4.0976 -5.94,1.4024 -10.31,3.0117 -13.04,4.8438 -2.31,2.2695 -4.15,6.4062 -5.51,12.3789 l 2.73,8.9101 -2.03,5.5079 c 2.27,7.3402 3.87,12.6212 4.81,15.8202 1.36,3.199 3.2,5.941 5.5,8.242 2.74,2.309 7.07,5.739 13.05,10.309 0.47,2.308 1.6,3.91 3.44,4.808 2.3,1.403 4.33,2.301 6.17,2.774 l 0.7,3.437 6.88,8.243 2.07,-1.372 4.1,6.18 c 3.24,2.301 6.44,3.668 9.65,4.141 3.67,0.898 7.11,2.258 10.31,4.097 0.9,5.043 3.91,8.051 8.95,8.942 5.5,1.371 8.71,3.91 9.6,7.582 h 2.78 l 11.68,7.539 4.1,-2.031 9.65,6.172 c 2.73,0 5.27,0.238 7.54,0.699 2.77,0.429 5.27,0.668 7.58,0.668 l 2.73,-1.367 c -9.14,-3.204 -19.69,-8.481 -31.6,-15.821 -11.92,-6.871 -23.63,-15.121 -35.08,-24.73 -11.02,-9.172 -20.16,-19.25 -27.5,-30.27 -7.34,-10.98 -11.02,-21.9919 -11.02,-33.0115 0,-8.7109 4.61,-13.039 13.75,-13.039 8.29,0 16.76,2.5 25.47,7.539 9.14,5.0703 17.42,11.25 24.73,18.5895 7.34,7.301 12.62,14.411 15.82,21.289 l 11.68,9.653 c 0.94,2.258 2.07,3.859 3.44,4.801 1.4,0.898 2.3,2.5 2.77,4.808 3.2,0.469 5.51,3.199 6.88,8.238 1.36,5.043 2.96,10.551 4.8,16.524 1.84,6.406 4.34,11.918 7.58,16.488 3.2,4.61 8.01,6.871 14.41,6.871 5.04,0 10.78,-2.261 17.19,-6.871 6.41,-4.109 9.65,-9.14 9.65,-15.121 0,-3.199 -2.77,-9.418 -8.28,-18.559 -5.47,-9.179 -11.92,-19.96 -19.22,-32.3 -6.88,-12.379 -13.09,-25.2308 -18.6,-38.5198 -5.46,-13.2813 -8.24,-25.8907 -8.24,-37.8086 0,-5.043 0.94,-10.0821 2.78,-15.1211 2.26,-5.0313 3.63,-10.1094 4.1,-15.1524 z M 2367.89,60.2695 c -6.87,0 -12.15,2.7813 -15.82,8.2813 l -15.82,7.539 c -1.84,4.1407 -2.73,9.1797 -2.73,15.1211 0,9.6481 2.26,19.9611 6.87,30.9371 5.04,11.481 9.84,21.09 14.41,28.903 -3.2,1.84 -5.93,4.109 -8.24,6.879 -2.3,2.73 -4.57,5.468 -6.87,8.242 l -2.07,1.367 c -1.84,-1.84 -3.91,-3.437 -6.17,-4.809 -2.31,-1.359 -4.61,-2.3 -6.88,-2.769 -4.14,-4.102 -10.08,-10.981 -17.89,-20.621 -7.77,-9.141 -16.25,-18.789 -25.43,-28.871 -9.18,-9.61 -18.13,-18.0901 -26.84,-25.4299 -8.24,-7.3399 -14.88,-11.0196 -19.92,-11.0196 l -0.7,1.4102 c 0.47,2.7305 2.54,5.6992 6.21,8.9101 4.1,3.6719 7.11,6.4415 8.95,8.2813 0.89,3.6289 3.2,6.8672 6.87,9.6089 3.63,2.731 7.07,4.801 10.31,6.168 h 0.67 l 4.14,6.211 3.44,2.071 -0.71,0.66 4.81,3.441 c 0.93,2.309 2.3,4.379 4.14,6.207 1.83,1.84 3.43,3.633 4.8,5.473 v 1.41 c 10.08,7.77 19.26,16.25 27.5,25.43 8.71,9.609 17.66,19.019 26.84,28.16 l 0.66,0.699 -0.66,4.141 c 0,5.039 1.13,10.551 3.44,16.488 2.73,6.41 5.7,11.25 8.94,14.449 3.2,4.571 7.07,9.383 11.68,14.422 5.04,5.5 10.55,8.281 16.48,8.281 4.58,0 7.35,-2.312 8.25,-6.882 0.93,-4.137 1.4,-7.809 1.4,-11.008 0,-11.449 -3,-20.391 -8.94,-26.801 -5.98,-5.98 -12.15,-10.551 -18.56,-13.75 -5.97,-3.238 -8.94,-6.68 -8.94,-10.352 l 10.97,-4.808 4.14,3.441 0.71,-0.66 h 1.37 c 2.73,1.359 5.5,2.5 8.24,3.43 2.73,1.371 5.74,2.039 8.94,2.039 2.74,0 5.51,-0.899 8.24,-2.738 2.74,-1.372 5.04,-2.731 6.88,-4.141 l 0.7,-6.172 c 0.43,-4.141 -1.4,-8.711 -5.5,-13.75 -3.68,-4.57 -8.25,-10.078 -13.75,-16.488 -5.51,-5.973 -10.32,-13.321 -14.46,-22.031 -4.1,-8.239 -6.17,-17.8481 -6.17,-28.8598 0,-2.7383 0.43,-5.711 1.37,-8.9493 1.36,-2.7304 3.9,-4.1015 7.58,-4.1015 5.46,0 11.68,2.0703 18.55,6.1719 6.88,4.1406 13.75,8.707 20.63,13.75 6.87,5.5078 12.57,9.6487 17.18,12.3787 l 2.74,-3.43 c 0,-3.2105 -2.74,-7.1089 -8.25,-11.6792 -5.5,-4.6094 -12.14,-9.1797 -19.92,-13.75 -7.81,-4.6094 -15.39,-8.4805 -22.69,-11.6797 -6.88,-3.2422 -11.92,-4.8516 -15.12,-4.8516 z m -228.94,8.9493 c -6.88,0 -12.62,1.6015 -17.19,4.8007 -4.61,3.6797 -8.71,8.4805 -12.38,14.461 h -1.37 l 0.66,5.5 -1.37,-0.6992 v 4.1406 l 3.44,2.7381 h -1.36 l -4.15,3.43 h 1.37 l 1.41,2.781 v 1.359 l -1.41,3.442 v 1.367 h -1.37 l -9.61,4.801 v 2.07 c -3.2,3.211 -5.97,6.641 -8.28,10.32 -1.79,4.141 -2.73,8.469 -2.73,13.04 0,6.449 2.77,13.992 8.24,22.699 5.98,8.711 12.85,16.519 20.63,23.402 8.28,6.867 15.58,10.309 22.03,10.309 3.2,3.199 7.77,4.8 13.75,4.8 l 2.03,2.071 3.44,-0.699 c 5.04,2.308 10.54,2.968 16.52,2.07 l 0.66,1.367 h 38.52 c 3.67,0 8.24,-0.898 13.75,-2.738 5.98,-1.832 10.55,-3.199 13.75,-4.141 4.14,-4.57 9.65,-8.238 16.52,-10.969 6.88,-2.312 10.32,-7.351 10.32,-15.16 0,-9.609 -2.78,-18.793 -8.29,-27.5 -5.46,-8.711 -11.91,-15.582 -19.21,-20.621 h -0.71 c -0.47,-1.371 -2.77,-3.68 -6.87,-6.879 -3.67,-2.73 -7.81,-5.703 -12.39,-8.902 -4.14,-2.777 -6.87,-4.848 -8.24,-6.219 l -2.07,-6.1717 c -3.2,0 -6.17,-1.168 -8.94,-3.4375 -2.74,-1.832 -4.1,-4.3711 -4.1,-7.5703 0.89,-1.8399 2.96,-3.4414 6.17,-4.8086 3.2,-0.9414 5.97,-1.3711 8.24,-1.3711 l -2.74,-1.3594 c -14.68,0 -25.89,-1.1719 -33.71,-3.4805 -7.77,-1.8007 -13.94,-3.6328 -18.55,-5.4726 -4.57,-1.8281 -9.38,-2.7695 -14.41,-2.7695 z m 18.55,17.8906 c 14.22,6.8711 24.06,12.1523 29.57,15.8206 5.94,4.101 10.08,7.539 12.34,10.308 2.31,3.211 5.28,7.313 8.95,12.352 3.67,5.031 10.31,12.14 19.96,21.32 v 1.371 c -1.84,0 -3.44,0.239 -4.84,0.699 0.47,4.11 1.4,8.008 2.77,11.68 1.84,4.141 2.73,8.481 2.73,13.051 0,8.277 -3.2,14.918 -9.6,19.961 -5.98,5.508 -12.86,8.238 -20.63,8.238 -4.14,0 -8.48,-0.461 -13.09,-1.359 -4.1,-0.942 -8,-2.071 -11.68,-3.442 l -8.94,0.661 c -7.31,-2.731 -15.59,-6.872 -24.73,-12.34 -8.71,-5.508 -16.29,-12.149 -22.69,-19.961 -6.41,-7.348 -9.61,-15.59 -9.61,-24.731 0,-4.609 0.9,-8.508 2.73,-11.718 l 2.74,-0.661 v 2.071 l 3.43,2.031 4.81,10.309 v 2.781 l 4.14,6.168 1.37,-0.668 2.07,4.109 3.43,2.07 v 0.7 c 1.37,0.429 2.78,0.898 4.15,1.371 1.83,0.469 3.43,1.129 4.8,2.07 0,3.668 1.6,5.699 4.8,6.168 3.21,0.941 5.04,2.973 5.51,6.211 h 4.14 l 4.81,5.469 2.73,-2.028 6.21,4.098 h 6.17 v -2.07 c -6.87,-1.84 -14.45,-6.879 -22.69,-15.117 -8.24,-7.774 -15.12,-16.481 -20.63,-26.133 -5.5,-9.61 -8,-18.321 -7.57,-26.129 l 0.7,-12.3517 c 5.04,-2.2969 10.08,-5.0391 15.12,-8.2774 5.04,-2.7304 10.54,-4.1015 16.52,-4.1015 z m -19.96,-4.8086 4.14,2.039 -15.82,7.5704 -1.37,-0.6993 2.74,-6.1718 z M 1611.6,28.6719 c -5.04,0 -10.55,2.0664 -16.52,6.1679 -5.94,3.6797 -11.45,8.25 -16.49,13.75 -4.57,5.5118 -8,10.3204 -10.31,14.461 5.51,5.5 9.18,11.2109 11.02,17.1797 3.63,3.6797 6.87,7.7812 9.61,12.3906 2.73,4.5703 5.04,9.1409 6.87,13.7499 h 2.07 c 1.84,2.731 3.2,5.699 4.1,8.899 1.41,3.25 3.01,6.21 4.85,8.949 l 3.43,13.082 10.32,5.469 7.54,11.718 5.5,7.543 -3.43,4.141 0.7,2.738 2.73,0.699 3.44,-2.73 6.17,6.172 h -1.36 l -4.11,-2.071 4.81,11.68 v 1.36 l -6.21,-4.098 c 0.94,2.738 2.3,5.277 4.14,7.539 1.83,2.309 4.37,3.437 7.58,3.437 l 4.1,9.653 -0.67,4.14 14.42,18.547 -1.37,5.512 c 1.84,2.73 3.44,5.23 4.81,7.539 1.83,2.77 3.2,5.742 4.14,8.941 l 8.94,2.739 0.67,2.769 -3.44,7.543 c 0,6.879 3.67,10.778 11.01,11.719 l -4.14,2.031 -0.66,0.699 5.51,5.508 0.66,-2.769 4.81,4.84 -3.44,4.812 c 2.3,3.199 3.67,6.641 4.14,10.309 0.47,4.101 0.7,8.011 0.7,11.679 8.71,10.551 13.99,20.86 15.78,30.942 2.31,10.539 3.68,22.219 4.14,35.07 l -4.14,3.438 c -10.97,-0.469 -21.52,-2.297 -31.6,-5.508 -9.65,-3.199 -19.49,-7.34 -29.57,-12.379 -10.55,-5.512 -17.89,-10.781 -21.99,-15.82 -4.14,-5.043 -7.58,-10.082 -10.31,-15.122 -2.31,-5.031 -7.11,-10.781 -14.46,-17.179 -3.2,-3.211 -8,-6.172 -14.41,-8.949 -5.98,-2.262 -8.52,-6.641 -7.58,-13.051 -13.28,-4.602 -21.56,-12.852 -24.76,-24.762 -2.74,-11.91 -4.11,-23.828 -4.11,-35.738 -0.46,-0.473 -0.93,-1.371 -1.36,-2.742 -0.47,-1.399 -0.94,-2.539 -1.41,-3.43 -4.57,4.101 -7.54,10.742 -8.91,19.922 -1.4,9.609 -2.07,17.418 -2.07,23.359 0,10.11 3.87,20.621 11.68,31.641 7.78,11.437 17.89,22.461 30.24,33 12.85,10.98 26.37,20.859 40.58,29.578 14.22,8.711 27.97,15.582 41.25,20.621 13.29,5.469 24.3,8.238 33.01,8.238 8.71,0 18.32,-2.066 28.87,-6.207 10.98,-3.633 20.39,-9.14 28.2,-16.48 8.24,-7.352 12.35,-15.821 12.35,-25.43 0,-7.351 -2.5,-16.062 -7.54,-26.141 -5.04,-9.601 -9.18,-17.652 -12.39,-24.058 -1.36,-0.902 -5.5,-6.172 -12.38,-15.82 -6.87,-9.614 -14.88,-21.524 -24.06,-35.743 -9.18,-13.75 -18.32,-27.738 -27.5,-41.949 -9.18,-13.75 -16.95,-25.672 -23.36,-35.75 -5.98,-10.07 -9.41,-16.051 -10.31,-17.89 -2.31,-3.2 -5.51,-7.54 -9.65,-13.04 -4.1,-5.511 -6.17,-10.32 -6.17,-14.46 l 0.66,-4.801 c 6.88,6.871 16.29,16.953 28.2,30.269 12.39,13.75 25.9,29.102 40.55,46.063 15.16,16.949 30.74,33.898 46.76,50.859 16.52,17.418 32.34,33.469 47.46,48.121 15.59,14.688 29.77,26.367 42.62,35.078 12.85,9.18 23.16,13.75 30.93,13.75 3.21,0 8.25,-0.23 15.12,-0.699 6.88,-0.43 13.09,-1.84 18.56,-4.109 5.97,-1.832 8.94,-5.27 8.94,-10.313 0,-3.199 -0.43,-6.398 -1.37,-9.648 -0.89,-2.731 -1.13,-5.93 -0.7,-9.61 -4.57,-16.949 -9.14,-33.671 -13.75,-50.191 -4.57,-16.488 -12.15,-32.07 -22.66,-46.758 -2.3,-3.203 -3.43,-8.011 -3.43,-14.41 0,-2.781 0.19,-4.609 0.66,-5.512 -2.3,-3.668 -2.97,-7.109 -2.07,-10.308 0.94,-2.781 -0.9,-6.641 -5.47,-11.68 0,-3.25 0.9,-5.98 2.74,-8.281 2.3,-1.84 3.9,-4.11 4.8,-6.879 5.98,9.18 13.52,20.859 22.7,35.078 9.18,14.691 19.25,30.039 30.23,46.051 11.49,16.058 23.17,31.64 35.08,46.762 12.38,15.117 24.3,27.968 35.74,38.519 11.49,10.969 21.8,18.32 30.94,21.988 3.67,0 9.41,-0.23 17.19,-0.699 7.81,-0.43 14.92,-1.609 21.32,-3.441 6.88,-1.84 10.32,-5.27 10.32,-10.309 0,-9.609 -1.6,-22.23 -4.81,-37.82 -2.77,-15.11 -6.44,-30 -11.01,-44.68 -4.57,-14.648 -9.85,-25.898 -15.82,-33.68 l 6.21,-10.308 c -2.78,-5.043 -4.85,-10.551 -6.21,-16.524 -1.37,-5.468 -4.11,-10.738 -8.25,-15.777 0,-9.652 -1.13,-19.262 -3.43,-28.91 -2.31,-9.141 -3.44,-18.789 -3.44,-28.871 0,-1.828 0.23,-3.8986 0.7,-6.1681 0.43,-2.3008 0.43,-4.6133 0,-6.8711 l 4.1,-8.9492 c 3.21,0.8984 6.45,2.0703 9.65,3.4375 3.21,1.8398 5.47,4.3398 6.88,7.582 l 4.1,0.6602 h 5.51 c 6.4,5.9804 12.85,11.6797 19.25,17.1877 6.88,5.98 13.29,11.91 19.26,17.89 l 2.07,-2.07 c -7.34,-13.75 -17.42,-27.7382 -30.27,-41.9492 -12.38,-14.1796 -23.13,-28.6406 -32.31,-43.3203 -0.93,-0.4297 -2.3,-0.8984 -4.14,-1.3711 -1.36,-0.8984 -2.5,-1.3671 -3.43,-1.3671 -8.71,0 -16.96,4.1406 -24.73,12.3789 -7.34,7.7812 -11.02,16.0586 -11.02,24.7695 0,20.6211 1.37,41.4493 4.15,62.5393 3.2,21.562 5.93,42.191 8.24,61.871 l -1.37,8.25 c 5.04,17.422 8.71,35.07 10.98,52.961 2.3,17.859 4.14,35.98 5.5,54.301 -4.14,-2.262 -10.78,-8.711 -19.92,-19.262 -9.18,-10.539 -19.72,-23.121 -31.64,-37.809 -11.91,-14.652 -23.83,-29.761 -35.74,-45.351 -11.48,-15.16 -21.8,-28.91 -30.94,-41.25 -9.18,-12.379 -15.58,-21.328 -19.26,-26.84 -2.3,-3.668 -5.74,-9.141 -10.31,-16.481 -4.14,-7.339 -8.01,-14.687 -11.68,-21.988 -3.2,-7.3515 -5.27,-13.3202 -6.21,-17.8905 -0.43,-2.7422 -0.9,-6.8789 -1.37,-12.3907 0,-5.039 -0.89,-9.8398 -2.73,-14.4492 -1.41,-4.1015 -4.14,-6.1718 -8.28,-6.1718 -4.57,0 -8.67,2.3007 -12.35,6.871 -3.67,5.0391 -5.5,9.1797 -5.5,12.3907 0,8.7109 1.13,20.6211 3.43,35.7385 2.31,15.582 4.57,31.41 6.88,47.461 2.3,16.019 3.44,28.871 3.44,38.48 0,2.301 -0.24,4.371 -0.71,6.211 0,1.828 -0.23,3.43 -0.66,4.801 l 3.44,4.808 3.43,22.692 4.11,-1.371 h 2.07 l 3.43,4.808 -2.07,5.512 -8.24,-2.781 c 0.94,12.859 3.2,25.238 6.88,37.148 4.14,11.922 6.64,24.063 7.57,36.453 -11.48,-4.14 -22.03,-10.55 -31.64,-19.261 -9.18,-8.711 -18.08,-17.891 -26.79,-27.5 -8.71,-9.649 -18.13,-18.36 -28.21,-26.129 l -2.07,-4.141 c -3.67,-2.738 -10.31,-9.14 -19.92,-19.262 -9.18,-9.609 -19.49,-21.058 -30.94,-34.378 -11.48,-12.809 -22.69,-25.661 -33.71,-38.469 -10.54,-12.852 -19.25,-24.071 -26.13,-33.711 -6.41,-9.61 -9.14,-15.7892 -8.24,-18.5587 -3.67,-5.9415 -7.54,-11.6797 -11.68,-17.1915 -4.14,-5.5 -8.01,-10.7812 -11.68,-15.8203 0.9,-1.8281 1.37,-3.4297 1.37,-4.8007 0,-4.0977 -2.31,-6.168 -6.88,-6.168 -4.14,0 -6.64,-1.3711 -7.58,-4.1406 l 4.85,-6.1797 c -0.47,-1.8321 -1.6,-3.9024 -3.44,-6.211 -1.41,-2.7304 -3.24,-4.0976 -5.51,-4.0976 z m 78.36,232.3791 c 4.61,1.84 6.88,4.808 6.88,8.949 v 2.031 l -4.81,-2.73 v -2.742 z m -11.68,-11.012 0.7,0.699 2.74,1.371 v -1.371 z m -23.36,-51.559 2.74,0.7 4.14,8.941 h -2.07 z m 451.68,-68.05 -4.1,1.371 3.44,5.5 1.36,0.668 1.37,-2.071 z M 1344.41,8.05078 1330.66,23.8711 c -2.3,9.1406 -4.8,18.5508 -7.57,28.1602 -2.31,9.1796 -3.91,18.5585 -4.81,28.1992 l 3.44,13.0508 -1.37,0.6992 c 1.84,5.039 3.67,10.0785 5.51,15.1215 2.26,5.507 3.44,10.777 3.44,15.82 -2.31,-2.301 -4.85,-4.613 -7.58,-6.871 -2.31,-2.313 -4.14,-5.039 -5.51,-8.25 -1.83,-1.832 -3.44,-4.141 -4.8,-6.871 -1.37,-2.77 -3.21,-5.0784 -5.51,-6.8792 l -0.67,-6.211 c -6.44,-1.3593 -12.85,-4.5703 -19.25,-9.6093 -5.98,-4.6094 -11.92,-9.1797 -17.89,-13.75 -5.94,-4.1407 -12.39,-6.211 -19.26,-6.211 -3.21,0 -7.31,0.2422 -12.38,0.711 -4.57,0.8984 -8.01,2.3008 -10.32,4.0976 -5.93,1.4024 -10.31,3.0117 -13.04,4.8438 -2.31,2.2695 -4.14,6.4062 -5.51,12.3789 l 2.77,8.9101 -2.07,5.5079 c 2.27,7.3402 3.91,12.6212 4.81,15.8202 1.36,3.199 3.2,5.941 5.5,8.242 2.74,2.309 7.11,5.739 13.05,10.309 0.47,2.308 1.6,3.91 3.44,4.808 2.3,1.403 4.37,2.301 6.21,2.774 l 0.66,3.437 6.88,8.243 2.07,-1.372 4.14,6.18 c 3.2,2.301 6.41,3.668 9.61,4.141 3.67,0.898 7.11,2.258 10.31,4.097 0.94,5.043 3.91,8.051 8.95,8.942 5.5,1.371 8.71,3.91 9.61,7.582 h 2.77 l 11.68,7.539 4.14,-2.031 9.61,6.172 c 2.73,0 5.27,0.238 7.58,0.699 2.73,0.429 5.27,0.668 7.54,0.668 l 2.77,-1.367 c -9.18,-3.204 -19.73,-8.481 -31.64,-15.821 -11.92,-6.871 -23.59,-15.121 -35.08,-24.73 -10.98,-9.172 -20.16,-19.25 -27.5,-30.27 -7.3,-10.98 -10.98,-21.9919 -10.98,-33.0115 0,-8.7109 4.57,-13.039 13.75,-13.039 8.25,0 16.72,2.5 25.43,7.539 9.18,5.0703 17.43,11.25 24.77,18.5895 7.3,7.301 12.58,14.411 15.78,21.289 l 11.72,9.653 c 0.9,2.258 2.03,3.859 3.44,4.801 1.36,0.898 2.26,2.5 2.73,4.808 3.2,0.469 5.51,3.199 6.88,8.238 1.36,5.043 2.97,10.551 4.8,16.524 1.84,6.406 4.38,11.918 7.58,16.488 3.2,4.61 8.01,6.871 14.41,6.871 5.04,0 10.78,-2.261 17.19,-6.871 6.45,-4.109 9.65,-9.14 9.65,-15.121 0,-3.199 -2.77,-9.418 -8.24,-18.559 -5.51,-9.179 -11.92,-19.96 -19.26,-32.3 -6.88,-12.379 -13.09,-25.2308 -18.56,-38.5198 -5.5,-13.2813 -8.28,-25.8907 -8.28,-37.8086 0,-5.043 0.94,-10.0821 2.78,-15.1211 2.26,-5.0313 3.67,-10.1094 4.1,-15.1524 z M 1025.43,39.6484 c -5.51,4.1407 -8.24,9.6524 -8.24,16.5235 0,5.039 0.43,9.8476 1.36,14.4179 1.37,5.0313 2.27,10.1094 2.74,15.1485 h 0.7 c 14.65,40.7817 33.44,77.8907 56.37,111.3707 22.93,33.911 49.02,66.442 78.36,97.621 -0.43,3.2 1.83,8.04 6.87,14.45 5.51,6.41 11.49,12.808 17.89,19.261 6.88,6.399 11.68,10.539 14.46,12.34 2.73,0 6.87,-1.133 12.38,-3.441 5.47,-2.262 10.51,-5.039 15.12,-8.238 4.57,-2.731 6.87,-5.704 6.87,-8.942 0,-3.211 -2.54,-8.91 -7.58,-17.191 -5.03,-7.77 -10.78,-15.348 -17.18,-22.66 -5.94,-6.868 -10.98,-10.539 -15.12,-11.008 v 7.578 l -4.14,-2.078 v 0.668 l -4.1,3.441 c -2.31,-3.211 -5.28,-6.18 -8.95,-8.91 -3.2,-2.301 -7.34,-3.441 -12.38,-3.441 v -1.399 l -2.74,-4.808 h -1.4 v -3.442 h -3.44 c -6.4,0 -11.68,-2.262 -15.78,-6.871 v -6.168 l 2.03,-0.711 v 0.711 l 3.44,2.731 0.7,-0.661 c -4.57,-11.492 -11.21,-22.461 -19.92,-33.011 -8.28,-10.551 -16.76,-21.09 -25.47,-31.641 -8.24,-10.551 -14.88,-21.988 -19.92,-34.379 -3.2,-2.301 -7.34,-6.64 -12.38,-13.039 -4.57,-5.98 -8.71,-12.391 -12.39,-19.262 -3.67,-6.41 -5.47,-11.449 -5.47,-15.1207 0,-1.8281 0,-3.4375 0,-4.8399 0,-1.3671 0.2,-2.9687 0.67,-4.8086 v 0.711 c 11.91,9.6092 20.16,18.7892 24.76,27.5002 4.57,9.179 7.78,16.949 9.61,23.359 2.31,6.871 5.51,11.91 9.65,15.149 4.1,3.64 11.92,4.812 23.36,3.441 v 0.66 c 4.57,4.141 10.08,9.18 16.49,15.121 6.44,5.981 13.08,11.25 19.96,15.821 7.34,4.609 13.98,6.878 19.92,6.878 0.94,0 2.07,-0.468 3.44,-1.371 1.83,-0.468 3,-0.898 3.43,-1.371 l 4.81,-6.867 c 0,-4.141 -1.6,-8.25 -4.81,-12.391 -3.2,-3.671 -5.93,-6.871 -8.24,-9.601 h -1.37 v -2.777 l -38.51,-32.301 c -0.9,-1.84 -1.37,-3.68 -1.37,-5.512 0,-4.098 1.13,-9.379 3.44,-15.82 2.3,-5.938 5.51,-11.4495 9.61,-16.4885 4.61,-4.5703 9.41,-6.8711 14.45,-6.8711 h 8.24 l 6.88,5.5117 v 0.6602 l 2.07,-0.6602 8.94,4.8008 0.71,-0.7031 c -1.41,-4.5704 -5.08,-10.0782 -11.02,-16.4883 -5.97,-6.4024 -12.62,-12.1407 -19.92,-17.1797 -6.87,-4.5703 -12.85,-6.8789 -17.89,-6.8789 -9.18,0 -16.29,2.9687 -21.33,8.9492 -5.04,5.9297 -8.94,12.8086 -11.68,20.6172 -2.3,8.2422 -4.33,15.3517 -6.17,21.2927 -1.84,5.981 -4.14,8.949 -6.87,8.949 -3.68,0 -7.35,-2.5 -11.02,-7.539 -3.67,-5.082 -6.17,-8.9527 -7.58,-11.7222 -2.26,-1.8399 -4.57,-3.8672 -6.87,-6.168 -2.27,-2.3125 -4.57,-4.5703 -6.88,-6.8789 h -1.37 l -6.17,-6.1719 1.37,-1.4102 -5.51,-6.871 2.07,-3.4375 h -2.07 l -4.1,-6.8711 v -2.7383 h -0.7 l -3.44,2.7383 v -2.0704 h -0.7 l 2.77,-2.7382 -4.8,-3.4414 -7.58,-6.8711 -0.71,-4.1407 z m 102.42,96.9536 h 1.37 c 3.24,2.308 7.34,5.507 12.38,9.609 5.04,4.609 9.65,9.41 13.75,14.449 4.61,5.039 6.88,9.418 6.88,13.051 l -2.07,4.84 -0.67,-1.403 c -2.3,-0.898 -6.21,-2.968 -11.68,-6.168 -5.04,-2.742 -7.81,-5.75 -8.28,-8.949 l -4.1,2.071 -1.37,-3.442 -0.7,0.711 c -4.14,-2.781 -6.17,-6.883 -6.17,-12.391 0,-2.3 0,-4.371 0,-6.21 0.43,-1.79 0.66,-3.86 0.66,-6.168 z M 912.699,48.5898 c -4.148,0 -9.179,2.7813 -15.121,8.25 -5.508,5.5 -10.078,9.6407 -13.75,12.379 -0.937,5.9804 -2.539,11.25 -4.848,15.8203 -2.261,5.039 -3.429,10.3125 -3.429,15.8199 0,8.243 3,17.852 8.937,28.871 6.453,11.442 14.461,22.692 24.063,33.668 10.078,11.012 20.199,20.192 30.277,27.5 10.551,7.34 19.922,11.012 28.16,11.012 v 1.371 c 6.453,-1.371 12.391,-5.511 17.891,-12.383 5.98,-6.878 8.949,-13.277 8.949,-19.218 0,-5.508 -3.437,-11.25 -10.308,-17.192 -6.411,-5.508 -14.461,-10.777 -24.071,-15.816 -9.179,-4.613 -18.359,-8.242 -27.5,-11.012 -8.711,-2.738 -15.578,-4.109 -20.621,-4.109 v -1.403 c -3.207,-5.039 -6.449,-11.449 -9.648,-19.218 -2.731,-7.3402 -4.102,-14.2191 -4.102,-20.6292 0,-2.3008 0.66,-4.8399 2.07,-7.5703 3.204,-2.3086 7.301,-3.4414 12.34,-3.4414 5.043,0.4726 9.184,0.4726 12.391,0 l 0.699,-0.6993 2.07,3.4297 c 5.942,0.4688 11.68,1.8399 17.192,4.1407 v 4.1406 h 4.101 v 2.039 l 2.77,-0.6679 c 2.269,0.8984 3.867,1.8398 4.809,2.7383 1.359,1.3593 2.96,2.539 4.8,3.4296 l 4.141,-2.0703 v 0.711 l 12.34,11.6795 h 0.711 l 2.066,-1.3709 v 0.6992 c 5.942,5.4727 12.383,10.5117 19.262,15.1207 6.87,4.571 11.91,10.551 15.11,17.852 l 7.54,5.508 1.41,-1.367 c 0,-3.204 -1.17,-6.172 -3.44,-8.942 -2.3,-2.738 -5.04,-4.57 -8.28,-5.512 -3.63,-8.707 -9.14,-16.019 -16.481,-21.988 -6.879,-5.9412 -13.988,-12.1483 -21.328,-18.5584 h -2.031 l -0.711,-3.4414 c -8.707,-5.9688 -17.891,-12.3789 -27.5,-19.25 -9.18,-6.8789 -19.488,-10.3204 -30.93,-10.3204 z m 13.039,88.0122 h 1.41 v 1.367 c 3.204,0.941 8.672,3.672 16.481,8.242 8.25,4.609 16.062,9.41 23.359,14.449 7.352,5.512 11.25,9.418 11.723,11.68 h 0.668 l -0.668,3.441 0.668,3.438 c -0.469,0 -1.367,0 -2.738,0 -1.371,0.472 -2.539,0.703 -3.442,0.703 -5.969,-4.141 -11.91,-8.043 -17.89,-11.684 -5.93,-3.668 -11.911,-7.34 -17.848,-11.008 h -1.41 l -0.66,-5.511 c -2.77,-1.84 -4.801,-4.098 -6.211,-6.879 -1.371,-2.262 -2.5,-5.039 -3.442,-8.238 z m 104.532,2.07 -4.14,1.367 -0.7,4.141 6.87,2.031 0.71,-2.031 z m -154.68,86.637 c -1.371,0 -5.039,0.429 -10.981,1.371 -5.507,1.371 -8.281,2.968 -8.281,4.8 0,6.879 3.442,11.918 10.313,15.122 7.339,3.199 13.32,6.41 17.89,9.648 h 1.367 c 6.403,5.039 13.981,8.48 22.692,10.309 9.18,1.8 17.66,2.972 25.43,3.441 l -0.661,-0.699 c -8.711,-2.742 -16.519,-7.821 -23.398,-15.121 -6.871,-6.879 -13.281,-13.52 -19.262,-19.961 -5.469,-5.938 -10.5,-8.949 -15.109,-8.949 z M 786.91,34.1797 775.898,49.9609 c -0.468,3.1993 -1.128,6.211 -2.066,8.9493 -0.902,3.1992 -1.371,6.3984 -1.371,9.6406 0,4.1094 0.238,8.25 0.699,12.3476 0.43,4.1407 0.899,8.2813 1.371,12.3829 l 4.809,11.6797 -0.668,0.699 c 2.269,5.512 4.566,12.621 6.879,21.328 2.258,8.711 5.039,17.422 8.238,26.102 3.672,9.18 8.012,16.75 13.051,22.691 5.039,6.449 11.25,9.649 18.551,9.649 5.039,0 10.781,-1.84 17.187,-5.508 6.442,-3.672 9.652,-8.473 9.652,-14.453 0,-2.27 -1.839,-6.41 -5.511,-12.379 -3.199,-5.942 -7.11,-12.578 -11.68,-19.93 -4.609,-6.871 -9.18,-13.039 -13.75,-18.551 -4.141,-5.039 -7.109,-8.007 -8.949,-8.949 -4.141,-7.3397 -9.84,-15.8202 -17.18,-25.4295 -7.351,-9.6407 -11.019,-18.5508 -11.019,-26.8321 0,-3.1992 0.468,-6.1679 1.41,-8.9101 1.359,-2.7695 2.027,-5.7383 2.027,-8.9375 z M 578.59,12.8516 c -2.731,4.1367 -4.102,8.2382 -4.102,12.3789 0,3.2109 0.672,6.1797 2.071,8.9492 0.902,2.7305 2.031,5.2305 3.441,7.5391 h 0.66 L 580,42.4219 c 3.199,4.5664 8.238,10.5469 15.121,17.8476 7.34,7.3516 15.109,13.9922 23.359,19.961 8.239,5.9414 14.918,9.1484 19.961,9.6093 l 4.098,2.7813 c 2.301,3.6289 5.742,7.0703 10.313,10.3089 5.039,3.629 9.418,6.64 13.089,8.91 l 4.098,-0.668 -0.66,2.738 2.07,1.36 -2.07,6.878 c -4.609,1.832 -10.547,4.141 -17.899,6.872 -6.871,2.781 -13.281,6.21 -19.25,10.32 -5.511,4.609 -8.25,9.879 -8.25,15.82 0,4.57 4.141,11.012 12.391,19.25 8.238,8.25 18.078,16.488 29.57,24.77 11.911,8.711 23.118,16.019 33.668,21.992 11.012,5.937 18.789,8.949 23.403,8.949 5.937,2.258 10.308,5.93 13.039,10.969 2.738,5.039 5.281,9.648 7.578,13.75 2.742,4.609 6.41,6.879 10.98,6.879 5.981,0 11.012,-2.969 15.121,-8.949 4.61,-5.93 7.809,-11.211 9.649,-15.782 -0.469,-1.828 -1.84,-3.437 -4.149,-4.84 -1.832,-1.367 -3.199,-3.199 -4.101,-5.468 -5.508,-4.61 -10.109,-10.309 -13.75,-17.192 -3.238,-6.437 -6.438,-12.847 -9.649,-19.258 l -12.378,-6.871 -2.032,2.731 h -0.699 c -1.84,-2.262 -3.672,-4.328 -5.512,-6.168 -1.839,-1.832 -3.199,-3.902 -4.097,-6.211 -1.84,-1.832 -3.672,-4.57 -5.512,-8.242 -1.371,-3.199 -3.441,-5.039 -6.211,-5.508 l -0.668,1.41 c 2.27,7.301 4.578,14.649 6.879,21.988 2.27,7.77 4.801,15.352 7.539,22.692 l 1.41,0.668 1.36,10.312 c -4.61,0 -8.938,-1.133 -13.079,-3.441 -4.109,-2.262 -8.71,-3.199 -13.75,-2.731 -1.839,-1.371 -5.039,-4.14 -9.609,-8.238 -4.141,-4.141 -8.25,-7.82 -12.391,-11.019 -4.101,-3.204 -7.339,-5.043 -9.601,-5.512 -2.777,-5.039 -6.879,-9.84 -12.391,-14.41 -5.039,-4.61 -7.578,-10.121 -7.578,-16.52 0,-2.738 1.41,-4.57 4.141,-5.512 2.738,-0.429 5.281,-0.668 7.578,-0.668 v -4.14 l 1.371,0.711 10.98,-2.781 2.071,2.07 c 5.969,-1.36 13.281,-3.668 21.988,-6.871 9.18,-2.739 17.191,-6.641 24.063,-11.68 7.347,-5.039 11.019,-11.68 11.019,-19.918 0,-3.25 -0.711,-6.4491 -2.07,-9.6522 -1.371,-3.1993 -3.211,-6.4102 -5.512,-9.6094 l -10.98,-11.0196 -17.18,1.3711 c -3.207,-2.2617 -8.719,-4.3398 -16.527,-6.1718 -7.77,-1.3672 -15.122,-2.7383 -21.993,-4.1407 -6.41,-1.3671 -9.609,-2.9687 -9.609,-4.8086 l -6.211,5.5118 c -2.269,-4.1407 -5.699,-6.1719 -10.309,-6.1719 -4.57,0 -9.14,0 -13.75,0 -4.101,0 -8.949,-2.5391 -14.421,-7.5781 -5.039,-5.043 -9.649,-10.5508 -13.75,-16.5235 -4.137,-6.4062 -6.637,-11.6797 -7.579,-15.7773 z M 526.371,8.05078 512.621,23.8711 c -2.269,9.1406 -4.812,18.5508 -7.543,28.1602 -2.308,9.1796 -3.906,18.5585 -4.808,28.1992 l 3.441,13.0508 -1.41,0.6992 c 1.84,5.039 3.679,10.0785 5.508,15.1215 2.312,5.507 3.441,10.777 3.441,15.82 -2.27,-2.301 -4.801,-4.613 -7.539,-6.871 -2.301,-2.313 -4.141,-5.039 -5.512,-8.25 -1.828,-1.832 -3.429,-4.141 -4.801,-6.871 -1.41,-2.77 -3.199,-5.0784 -5.507,-6.8792 l -0.7,-6.211 c -6.41,-1.3593 -12.812,-4.5703 -19.261,-9.6093 -5.942,-4.6094 -11.91,-9.1797 -17.852,-13.75 -5.976,-4.1407 -12.379,-6.211 -19.258,-6.211 -3.199,0 -7.34,0.2422 -12.379,0.711 -4.57,0.8984 -8.011,2.3008 -10.32,4.0976 -5.93,1.4024 -10.312,3.0117 -13.043,4.8438 -2.308,2.2695 -4.137,6.4062 -5.508,12.3789 l 2.731,8.9101 -2.031,5.5079 c 2.269,7.3402 3.871,12.6212 4.808,15.8202 1.371,3.199 3.203,5.941 5.512,8.242 2.73,2.309 7.07,5.739 13.039,10.309 0.473,2.308 1.601,3.91 3.441,4.808 2.309,1.403 4.34,2.301 6.168,2.774 l 0.711,3.437 6.871,8.243 2.071,-1.372 4.097,6.18 c 3.242,2.301 6.453,3.668 9.653,4.141 3.668,0.898 7.109,2.258 10.308,4.097 0.903,5.043 3.91,8.051 8.949,8.942 5.473,1.371 8.711,3.91 9.614,7.582 h 2.726 l 11.723,7.539 4.098,-2.031 9.652,6.172 c 2.738,0 5.269,0.238 7.539,0.699 2.77,0.429 5.27,0.668 7.578,0.668 l 2.731,-1.367 c -9.137,-3.204 -19.68,-8.481 -31.598,-15.821 -11.91,-6.871 -23.633,-15.121 -35.082,-24.73 -11.008,-9.172 -20.149,-19.25 -27.5,-30.27 -7.34,-10.98 -11.008,-21.9919 -11.008,-33.0115 0,-8.7109 4.609,-13.039 13.75,-13.039 8.277,0 16.758,2.5 25.469,7.539 9.14,5.0703 17.379,11.25 24.719,18.5895 7.351,7.301 12.621,14.411 15.82,21.289 l 11.68,9.653 c 0.941,2.258 2.07,3.859 3.441,4.801 1.371,0.898 2.301,2.5 2.77,4.808 3.21,0.469 5.468,3.199 6.878,8.238 1.372,5.043 2.973,10.551 4.801,16.524 1.84,6.406 4.34,11.918 7.539,16.488 3.242,4.61 8.051,6.871 14.461,6.871 5.031,0 10.781,-2.261 17.18,-6.871 6.41,-4.109 9.652,-9.14 9.652,-15.121 0,-3.199 -2.769,-9.418 -8.281,-18.559 -5.469,-9.179 -11.91,-19.96 -19.219,-32.3 -6.91,-12.379 -13.082,-25.2308 -18.59,-38.5198 -5.511,-13.2813 -8.242,-25.8907 -8.242,-37.8086 0,-5.043 0.93,-10.0821 2.731,-15.1211 2.3,-5.0313 3.672,-10.1094 4.14,-15.1524 z M 175.078,17.6602 c -6.879,0 -15.117,1.1289 -24.726,3.4296 -9.653,1.8399 -18.364,5.2813 -26.133,10.3204 -7.34,4.5703 -11.02,11.25 -11.02,19.9609 0,12.8086 3.68,28.6289 11.02,47.418 7.34,19.2619 16.722,39.6519 28.16,61.1719 11.492,21.559 23.641,43.09 36.449,64.648 13.32,21.52 25.902,41.25 37.813,59.141 11.91,18.32 21.8,33.199 29.57,44.691 -5.039,0 -14.41,-1.171 -28.199,-3.441 -13.282,-2.301 -28.403,-5.27 -45.352,-8.949 -16.961,-3.672 -33.711,-8.039 -50.199,-13.082 -16.051,-4.571 -29.57,-9.61 -40.5508,-15.117 C 80.8984,282.809 74.9219,277.77 74.0195,272.73 l 5.5118,-2.07 c 3.1992,1.84 6.4101,2.781 9.6093,2.781 3.668,0.43 7.3399,0.661 11.0194,0.661 l 9.61,3.437 -0.668,-1.367 C 98.9805,269.77 89.8398,262.422 81.6016,254.18 73.3203,246.371 65.0781,238.121 56.8398,229.41 l -4.1406,-1.359 -2.7383,-4.813 -7.582,-1.398 -0.6601,-1.371 0.6601,-12.379 -23.3594,11.711 c -1.8281,5.039 -4.5703,9.609 -8.2382,13.75 -3.20317,4.109 -4.83989,8.91 -4.83989,14.418 17.41799,21.562 38.27739,37.812 62.57809,48.832 24.2891,11.437 48.3595,22.929 72.1795,34.371 l -0.66,-0.703 c 0.902,-0.43 2.262,-0.899 4.102,-1.367 1.839,-0.43 3.199,-0.661 4.14,-0.661 3.668,0 7.34,0.661 10.981,2.071 3.668,1.789 7.34,3.199 11.008,4.097 v -1.371 c 4.14,0.903 8.25,1.84 12.39,2.742 4.102,1.399 8.469,3 13.039,4.84 v -1.41 l 10.321,3.442 v 0.699 l 3.429,-0.699 -0.66,0.699 c 0,0.898 0.231,1.14 0.66,0.711 0.942,-0.473 1.371,-0.942 1.371,-1.41 l 4.141,0.699 1.367,3.437 4.141,-1.367 -1.367,1.367 1.367,-0.699 0.66,-0.668 h 10.32 l 4.84,2.078 1.371,2.031 18.551,-0.671 0.699,0.671 6.18,2.77 c 3.199,0 6.211,0 8.941,0 3.199,0.469 6.41,0.66 9.61,0.66 3.199,3.68 5.98,8.051 8.281,13.09 2.738,5.039 7.066,7.539 13.047,7.539 6.41,0 12.152,-1.367 17.191,-4.098 5.039,-2.781 10.539,-4.14 16.481,-4.14 0.937,-2.742 4.609,-5.512 11.019,-8.25 6.399,-2.301 13.512,-4.332 21.32,-6.172 8.25,-1.399 16.02,-2.539 23.36,-3.43 7.351,-0.469 12.621,-0.711 15.82,-0.711 l 29.57,-8.937 2.071,0.699 c 4.109,0 9.847,-2.77 17.187,-8.238 7.313,-5.512 14.653,-11.492 21.992,-17.891 7.309,-6.41 12.391,-11.25 15.122,-14.461 0.898,-3.199 1.839,-6.64 2.738,-10.308 0.93,-3.672 2.301,-7.114 4.14,-10.313 -1.839,-17.418 -5.039,-30.469 -9.609,-39.18 -4.609,-8.238 -11.25,-14.218 -19.961,-17.89 -8.711,-3.629 -20.629,-7.539 -35.75,-11.68 l -8.941,0.699 v -3.437 h -1.367 l -2.774,2.738 -27.5,-8.238 v 4.14 c -8.668,-5.98 -15.348,-8.953 -19.918,-8.953 -4.14,0 -10.781,-0.468 -19.93,-1.359 l -0.699,1.359 c -1.832,-1.828 -3.672,-2.968 -5.511,-3.437 -1.829,0 -3.899,0 -6.168,0 -7.34,0 -13.981,-1.832 -19.961,-5.5 -5.942,-3.211 -12.582,-4.571 -19.922,-4.141 v -3.441 l -3.438,0.703 -2.73,2.738 -1.41,-2.738 v -0.703 l -1.371,0.703 c -0.899,0.469 -1.829,0.699 -2.731,0.699 -0.937,0.43 -1.84,0.668 -2.769,0.668 -2.27,0 -4.571,-0.469 -6.879,-1.367 -2.262,-0.473 -4.571,-0.703 -6.871,-0.703 l 0.699,4.14 c -0.469,-0.468 -5.27,-0.898 -14.449,-1.371 -9.141,-0.468 -18.79,-1.367 -28.872,-2.769 -9.609,-1.367 -16.488,-3.867 -20.628,-7.539 -0.469,-3.668 -1.598,-8.711 -3.43,-15.121 -1.84,-5.969 -5.281,-8.938 -10.32,-8.938 v 4.801 l -4.141,5.508 h -0.66 c -1.84,0 -3.438,-0.942 -4.809,-2.77 -0.93,-1.371 -0.93,-3.211 0,-5.469 -1.398,-1.839 -2.769,-3.671 -4.14,-5.511 -1.36,-1.371 -2.071,-3.2 -2.071,-5.508 l 3.442,-6.172 5.507,1.371 2.731,-1.371 c 0,-1.41 -2.731,-5.039 -8.238,-11.02 C 179.879,115.512 174.18,108.199 168.199,99.4883 162.27,91.25 158.59,82.5391 157.23,73.3594 l -8.281,-4.8086 5.5,-3.4297 2.781,-5.5117 -4.851,-8.9492 2.781,-2.7305 c 0.461,-2.3086 0.891,-4.6094 1.36,-6.8789 0.902,-2.7695 2.07,-5.0313 3.441,-6.8711 l 3.437,-1.3711 c 4.571,0 9.84,1.6016 15.821,4.8125 6.402,3.1992 12.621,7.1094 18.551,11.6797 6.41,4.1406 11.449,7.3398 15.121,9.6094 l 2.769,-3.4414 c -0.461,-1.8399 -3,-5.2696 -7.57,-10.3086 -4.141,-5.4688 -8.711,-10.75 -13.75,-15.7813 -5.039,-5.0781 -8.481,-8.9492 -10.32,-11.7187 z M 223.91,192.301 c 29.801,6.41 59.328,12.39 88.668,17.859 29.332,5.969 58.242,14.219 86.641,24.762 l 0.703,0.699 c 8.238,3.207 16.957,6.879 26.129,10.981 9.148,4.609 17.187,10.308 24.07,17.187 6.867,6.871 10.309,15.121 10.309,24.762 -1.84,4.109 -4.379,8.48 -7.578,13.051 -3.204,5.039 -7.582,7.808 -13.051,8.238 l 1.371,-0.66 c -9.184,3.199 -18.121,7.34 -26.832,12.379 -8.25,5.043 -17.43,8.011 -27.5,8.953 v -0.711 h -2.07 c -2.739,1.371 -5.239,2.078 -7.54,2.078 -1.839,0 -3.679,-0.238 -5.511,-0.707 -1.84,-0.473 -3.91,-0.66 -6.168,-0.66 l -5.512,4.097 h -8.238 c -5.039,0 -10.121,0 -15.16,0 -5.039,0.469 -10.082,0.942 -15.121,1.371 -6.399,-5.941 -14.219,-13.75 -23.36,-23.359 -8.711,-9.652 -16.949,-19.5 -24.762,-29.57 -7.347,-10.082 -12.808,-19.262 -16.488,-27.5 v -6.879 c -7.808,-3.203 -13.98,-10.313 -18.551,-21.332 -4.14,-10.5 -8.711,-19.219 -13.789,-26.09 l -1.371,-4.84 2.071,-2.738 z m -107.269,85.238 1.371,4.801 2.066,-1.36 1.371,-2.07 -1.371,-1.371 z M 220.469,61.6797 215.66,63.0508 c 0,2.2578 1.371,4.3281 4.11,6.168 3.199,2.3007 5.742,3.6718 7.57,4.1406 l 2.07,-1.3711 z M 1568.36,535.66 c -10.63,8.75 -40.74,34.031 -46.13,50.391 -0.63,1.648 -0.47,2.738 0.04,4.301 10.31,0.429 19.25,4.687 25.66,7.027 16.48,6.062 31.95,13.992 43.12,21.141 33.6,21.441 63.99,46.441 89.89,72.652 19.84,20 37.5,36.988 57.3,55.777 8.21,8.321 19.14,18.563 25.28,22.313 2.93,1.758 6.71,5.859 10,5.386 2.14,-0.898 5.19,-5.668 6.4,-9.918 1.17,-3.05 -0.08,-6.14 -0.7,-9.218 -3.48,-6.41 -7.23,-13.953 -10.08,-19.692 -5.19,-10.468 -21.21,-35.269 -33.48,-51.91 -3.75,-5.121 -8.98,-12.191 -11.56,-15.711 -7.46,-10.148 -10.39,-13.551 -23.44,-27.258 -6.25,-6.601 -23.59,-23.91 -26.87,-26.839 -4.22,-3.981 -8.56,-8.282 -7.7,-13.633 0.71,-4.258 5.67,-5.629 8.79,-6.207 5.86,-0.512 9.22,0.039 14.53,2.218 11.72,5.59 19.97,11.29 29.93,17.899 3.36,2.262 32.26,24.101 36.91,29.57 8.95,10.582 18.24,21.36 25.63,33.672 2.81,4.289 5.89,8.899 9.25,14.719 8.67,12.82 12.93,28.359 18.09,41.25 1.37,4.531 3.32,9.109 4.41,13.441 0.67,2.66 1.33,5.629 1.53,6.559 0.62,3.68 4.53,4.262 7.18,4.691 l 3.6,-0.98 c 1.99,-0.539 6.83,-1.871 10.78,-3 3.9,-1.102 8.98,-2.539 11.25,-3.172 2.62,-0.738 5.12,-1.641 6.91,-2.457 2.78,-1.293 4.85,-3.16 4.85,-5.781 -0.32,-4.77 -2.39,-9.301 -3.52,-13.442 -5.62,-21.09 -12.38,-44.328 -23.87,-62.969 -9.37,-15.582 -13.67,-20.46 -23.9,-33.71 -9.22,-11.95 -20.43,-22.032 -30.82,-32.5 -0.16,-0.27 -0.47,-1.008 -0.67,-1.719 -0.47,-1.832 0,-3.75 1.25,-5.031 1.18,-1.18 3.75,-2.071 6.64,-2.27 17.23,2.148 35.55,10.469 48.01,19.059 14.34,9.461 27.35,26.531 38.32,42.89 7.46,11.25 11.53,19.031 17.85,34.34 0.98,2.34 1.96,4.731 2.23,5.313 2.66,7.457 4.65,15.199 6.95,22.769 2.39,7.43 3.28,12.309 2.85,20.117 -0.11,3.051 0.12,5.16 2.5,6.563 19.26,2.66 41.33,-8 55.51,-15.781 46.56,-28.469 71.8,-74.758 84.03,-122.461 6.91,-26.989 11.91,-53.239 15.43,-80.661 1.95,-8.597 -0.2,-17.187 -6.84,-21.718 -4.41,-3.442 -9.69,-3.008 -14.84,-1.801 -28.83,4.461 -54.5,0.551 -85.16,-2.539 -48.28,-7.34 -115.82,-15.231 -172.77,-22.141 -27.89,-3.008 -48.87,-3.289 -75.12,-0.32 -47.27,7.152 -98.52,33.281 -135.43,60.781 z M 1223.28,615 c -23.51,27.578 -10.62,80 -3.36,109.84 6.33,26.14 14.57,36.449 24.18,56.371 -65.9,41.519 -89.3,87.848 -112.42,154.059 -1.37,3.832 -1.52,4.179 -2.62,5.199 -2.89,2.769 -3.9,6.562 -3.9,14.84 0.58,6.64 -0.12,10.589 2.26,16.882 1.84,3.829 6.02,6.129 8.52,7.77 5.15,0.937 10.27,1.41 13.9,-0.781 2.86,-1.989 4.61,-4.801 6.61,-7.809 2.18,-3.91 4.14,-7.461 4.92,-12.152 0.82,-4.18 0.74,-8.598 -0.71,-11.449 -1.13,-2.149 -2.34,-3.508 -5.66,-6.321 l -1.33,-1.14 c 1.06,-10.387 3.6,-16.008 5.94,-23.2 13.98,-42.578 55.66,-101.058 96.84,-119.14 2.18,-0.508 3.12,0.66 4.17,2.152 3.21,4.57 9.54,10.859 15.9,15.82 2.97,2.457 5,5.149 3.4,7.848 -47.58,50.191 -74.65,139.262 -50.97,193.441 1.87,3.86 3.28,8.39 3.39,11.32 0.12,2.35 0.39,4.61 0.78,6.41 1.14,5.27 3.76,11.13 5.4,11.99 6.64,2.62 14.57,2.23 18.71,-2.38 8.16,-8.44 11.68,-19.57 6.91,-29.77 -1.91,-3.82 -4.06,-6.01 -7.38,-7.92 -3.13,0 -6.72,0.07 -9.3,-1.29 -17.07,-63.52 3.95,-118.051 40.66,-159.61 3.68,-3.75 6.53,-8.441 10.47,-11.921 1.14,-1.008 1.45,-0.821 2.78,-0.309 7.54,3.98 15.47,8.551 22.58,9.73 21.91,3.36 40.93,-13.128 50.66,-24.5 36.64,-39.449 44.77,-96.519 41.01,-145.859 -0.46,-6.242 -1.91,-12.031 -5.15,-17.531 -4.42,-7.43 -12.7,-11.801 -17.11,-14.18 -38.79,-20 -82.27,-41.719 -124.06,-43.871 -17.7,-0.898 -34.42,5.27 -46.02,17.461 z m 335.63,25.43 c -2.82,3.09 -4.38,6.211 -5.51,10.941 -1.25,4.328 -0.63,7.688 0.74,11.481 10.9,5.937 26.56,12.738 41.02,21.41 17.38,10.117 34.53,22.929 49.06,33.668 21.56,15.898 39.37,30.468 60.55,47.109 15.62,12.422 30.85,25.621 46.17,38.199 26.79,22.032 55.35,46.024 81.25,67.782 19.8,17.609 31.83,30.312 49.53,49.96 9.96,11.051 23.05,25.43 29.1,31.95 16.6,17.422 33.01,38.59 46.17,56.09 16.17,21.37 32.85,48.25 44.22,66.76 7.54,13.24 13.59,24.65 19.77,39.61 14.41,41.25 37.42,97.31 24.57,137.5 -2.93,8.01 -5.98,14.1 -9.57,19.02 -12.35,14.73 -29.1,16.29 -45.55,11.88 -16.21,-4.45 -43.16,-13.83 -44.88,-15.59 -8.52,-17.54 -15.67,-37.34 -26.25,-54.45 -13.71,-23.01 -29.18,-46.09 -44.22,-69.88 -3.4,-5.43 -26.37,-39.81 -31.8,-47.62 -17.11,-24.61 -34.45,-49.92 -50.94,-72.5 -20.78,-29.02 -42.73,-61.328 -59.33,-86.801 -8.99,-13.75 -22.58,-32.34 -34.85,-47.648 -22.69,-28.321 -31.87,-39.61 -36.64,-45.121 -2.57,-2.93 -7.93,-9.141 -11.95,-13.789 -17.15,-19.879 -31.99,-36.172 -39.3,-43.121 -15.66,-15.282 -32.69,-31.649 -48.51,-43.36 -11.49,-7.308 -19.92,-14.301 -32.11,-19.961 -9.57,-5.429 -16.88,-7.859 -26.21,-8.359 -2.19,2.14 -5,4.332 -6.21,7.14 -10.32,24.649 -16.37,48.321 -19.69,65.86 -3.83,19.808 -3.16,39.648 -2.34,58.601 -0.47,13.008 3.55,27.457 6.48,37.809 5.55,21.289 16.17,45.941 22.5,59.84 4.92,10.859 6.91,14.609 17.03,31.84 7.7,13.98 17.23,29.49 23.52,38.4 3.98,5.66 16.48,22.85 28.12,38.67 19.14,25.43 39.92,46.91 60.31,68.4 22.89,24.76 49.46,47.03 73.09,64.22 27.03,21.83 61.48,41.64 92.85,60.62 7.81,4.73 29.77,15.63 46.37,23.01 18.44,8.83 35.86,15.16 54.8,22.38 5.51,2.5 11.06,3.75 16.41,6.53 7.73,8.79 13.01,20.7 17.38,29.45 4.53,8.98 13.6,27.07 20.2,40.19 6.6,13.13 12.93,26.02 14.06,28.6 13.09,27.15 24.14,55.15 30.08,73.28 16.64,46.45 33.24,96.64 38.16,143.91 1.25,26.91 1.49,69.1 -13.01,94.29 -8.24,14.46 -18.47,26.72 -31.09,32.5 -19.06,6.17 -36.17,8.17 -55.35,7.07 -26.72,-3.4 -50.63,-6.99 -76.06,-15 -35.93,-10.97 -75.35,-30.23 -104.41,-49.33 -25.19,-17.46 -49.53,-35.28 -72.11,-55.35 -20.82,-18.52 -40.58,-38.25 -59.92,-58.25 -31.37,-29.8 -62.07,-69.33 -81.56,-93.04 -16.37,-20.55 -29.85,-40.78 -45.39,-62.39 -5.94,-8.24 -8.71,-12.46 -26.72,-40.93 -24.46,-32.93 -39.46,-69.38 -58.64,-104.96 -10.27,-21.25 -21.68,-44.5 -29.64,-63.48 -2.31,-5.63 -6.72,-18.83 -13.05,-39.18 -5.78,-17.34 -9.1,-33.24 -14.06,-50.78 -5.51,-20.59 -7.66,-42.42 -11.14,-63.95 -3.2,-26.91 -1.09,-49.68 1.33,-73.04 2.93,-30.821 10.78,-57.782 15.04,-74.848 l 3.67,-14.922 4.42,-12.539 c 4.45,-14.18 10,-28.199 16.13,-40.621 3.75,-7.5 7.19,-15.59 12.11,-28.36 1.72,-3.519 2.27,-7.308 2.42,-10.82 -0.82,1.051 -1.83,1.949 -2.89,2.692 -2.73,2.968 -4.88,5.859 -7.23,9.136 -0.89,1.602 -5.31,9.262 -8.2,14.262 -4.53,8.32 -9.18,15.199 -12.69,22.891 -6.61,12.379 -11.96,25.16 -17.5,37.379 -7.82,17.781 -12.39,35.16 -16.68,55.781 -2.54,12.148 -4.22,20.469 -5.04,24.57 -4.57,21.84 -5.78,37.739 -5.86,59.259 0.23,25 -0.28,50 1.4,74.96 l 2.97,16.96 c 3.95,27.26 10.71,53.98 18.79,79.22 9.57,30 13.6,41.79 16.45,48.51 10.11,24.06 11.95,28.05 21.09,46.45 12.66,25.5 23.98,51.21 39.14,75.23 29.65,49.38 65.55,97.7 97.62,139.18 18.55,24.1 38.9,47.81 59.72,69.3 25.51,25.78 51.37,54.72 77.93,78.16 18.05,14.96 31.41,29.38 49.77,42.62 2.85,2.07 6.13,4.45 7.27,5.31 24.21,18.71 46.6,31.06 73.28,44.42 28.24,13.35 65.82,28.08 97.38,33.94 21.52,4.84 45.04,6.37 64.45,4.61 8.91,-0.82 25.55,-4.3 38.68,-8.09 13.82,-3.98 26.91,-10.04 37.34,-17.54 10.58,-7.65 16.48,-13.71 24.84,-25.35 10.08,-14.1 15.51,-26.48 19.53,-44.57 1.49,-6.64 1.18,-4.53 4.11,-29.06 4.84,-40.86 -6.18,-85.39 -15.67,-117.89 -12.3,-32.58 -20.27,-65.51 -34.06,-96.17 -11.37,-23.67 -24.42,-54.18 -35.51,-75.59 -2.34,-4.53 -8.05,-15.7 -12.62,-24.84 -6.44,-12.93 -8.75,-17.77 -10.43,-21.99 -1.17,-2.97 -2.07,-5.47 -1.99,-5.55 21.49,3.2 43.44,6.33 63.28,4.53 14.61,-1.76 29.34,-4.41 41.84,-12.38 10.43,-7.46 19.06,-12.93 24.73,-24.69 6.28,-12.38 8.39,-26.72 8.59,-37.42 0.51,-16.8 -4.96,-33.28 -9.81,-48.09 -4.41,-13.55 -10.23,-28.71 -17.77,-46.29 -7.38,-17.57 -13.83,-28.79 -21.91,-46.36 -14.22,-29.42 -38.79,-65.55 -58.87,-93.44 -11.33,-16.368 -24.14,-32.661 -33.12,-44.06 -20.98,-25.469 -45.51,-53.32 -66.06,-74.769 -13.63,-14.371 -28.55,-29.571 -41.33,-42.262 -9.92,-10.668 -20.82,-20.277 -31.79,-29.809 -9.03,-7.89 -18.25,-16.211 -27.31,-23.59 -21.95,-17.89 -46.48,-34.929 -67.66,-50.859 -21.36,-16.211 -40.66,-33.32 -60.97,-48.949 -21.76,-16.641 -45.67,-31.442 -67.23,-43.594 -10.7,-4.808 -21.37,-14.808 -31.87,-15.277 -4.03,-0.313 -6.64,0.82 -8.75,3.129 z m -8.21,131.992 c 15.08,13.707 24.5,20.738 38.91,37.269 27.5,30.93 52.97,60.93 75.35,88.508 16.33,20.633 35.08,46.449 51.92,70.391 12.22,17.351 24.68,34.73 36.6,52.43 8.28,12.34 11.32,16.79 15.5,22.65 12.23,15.74 21.68,31.99 32.58,47.74 19.06,27.34 23.52,33.9 36.25,53.82 8.75,13.68 11.17,17.54 29.53,47.31 10.36,19.34 24.54,36.8 33.01,56.95 -20.12,-7.3 -42.19,-15.78 -59.88,-25.27 -21.49,-10.94 -39.96,-21.21 -58.52,-32.74 -46.4,-27.73 -83.86,-57.93 -119.41,-90.58 -2.23,-2.03 -5,-4.57 -6.21,-5.67 -16.25,-15.74 -34.38,-32.85 -48.56,-48.75 -24.88,-26.28 -42.77,-50.66 -60.78,-81.171 -13.36,-23.707 -26.09,-46.438 -34.1,-72.418 -4.45,-14.371 -8.55,-30.981 -11.76,-47.422 -1.87,-9.649 -1.91,-10.039 -2.22,-19.688 -0.43,-17.972 0.7,-32.422 2.22,-52.691 0.98,-10.43 -0.19,-19.77 3.32,-28.399 0.63,-1.171 0.78,-1.332 1.68,-1.453 15.63,0.594 34.53,20.864 44.57,29.184 z"
       style="fill:#000000;fill-opacity:1;fill-rule:nonzero;stroke:none"
       transform="matrix(0.13333333,0,0,-0.13333333,0,238.66667)" />
  </g>
</svg>
