<?xml version="1.0" encoding="UTF-8"?>
<svg id="Paneuropa_Logo_-_Full_czarne_spady" data-name="Paneuropa Logo - Full czarne spady" xmlns="http://www.w3.org/2000/svg" viewBox="0 0 1311.14 415.15">
  <defs>
    <style>
      .cls-1 {
        stroke-width: 0px;
      }
    </style>
  </defs>
  <g id="LOGO_-_PE" data-name="LOGO - PE">
    <g id="ZNAKI">
      <g id="Start">
        <polygon class="cls-1" points="725.7 168.54 728.37 176.29 736.57 176.44 730.03 181.38 732.42 189.22 725.7 184.52 718.98 189.22 721.38 181.38 714.83 176.44 723.03 176.29 725.7 168.54"/>
        <polygon class="cls-1" points="687.77 179.07 690.44 186.82 698.65 186.97 692.1 191.91 694.49 199.75 687.77 195.05 681.05 199.75 683.45 191.91 676.9 186.97 685.1 186.82 687.77 179.07"/>
        <polygon class="cls-1" points="660.19 207.16 662.86 214.91 671.06 215.05 664.51 219.99 666.91 227.84 660.19 223.13 653.47 227.84 655.87 219.99 649.32 215.05 657.52 214.91 660.19 207.16"/>
        <polygon class="cls-1" points="650.35 245.27 653.02 253.02 661.22 253.17 654.67 258.11 657.07 265.95 650.35 261.25 643.63 265.95 646.02 258.11 639.47 253.17 647.67 253.02 650.35 245.27"/>
        <polygon class="cls-1" points="658.65 284.05 661.32 291.81 669.52 291.95 662.97 296.89 665.37 304.73 658.65 300.03 651.93 304.73 654.32 296.89 647.78 291.95 655.98 291.81 658.65 284.05"/>
        <polygon class="cls-1" points="686.73 311.64 689.4 319.39 697.6 319.53 691.06 324.47 693.45 332.32 686.73 327.61 680.01 332.32 682.41 324.47 675.86 319.53 684.06 319.39 686.73 311.64"/>
        <polygon class="cls-1" points="724.85 321.48 727.52 329.23 735.72 329.38 729.17 334.32 731.57 342.16 724.85 337.46 718.13 342.16 720.52 334.32 713.97 329.38 722.17 329.23 724.85 321.48"/>
        <polygon class="cls-1" points="763.5 311.95 766.17 319.7 774.37 319.85 767.83 324.79 770.22 332.63 763.5 327.93 756.78 332.63 759.18 324.79 752.63 319.85 760.83 319.7 763.5 311.95"/>
        <polygon class="cls-1" points="792.21 284.37 794.89 292.12 803.09 292.27 796.54 297.2 798.93 305.05 792.21 300.35 785.49 305.05 787.89 297.2 781.34 292.27 789.54 292.12 792.21 284.37"/>
        <polygon class="cls-1" points="803.29 246.12 805.96 253.88 814.16 254.02 807.61 258.96 810.01 266.81 803.29 262.1 796.57 266.81 798.96 258.96 792.41 254.02 800.61 253.88 803.29 246.12"/>
        <polygon class="cls-1" points="793.76 207.47 796.43 215.22 804.63 215.37 798.08 220.31 800.48 228.15 793.76 223.45 787.04 228.15 789.43 220.31 782.88 215.37 791.08 215.22 793.76 207.47"/>
        <polygon class="cls-1" points="766.17 178.76 768.85 186.51 777.05 186.66 770.5 191.59 772.89 199.44 766.17 194.74 759.45 199.44 761.85 191.59 755.3 186.66 763.5 186.51 766.17 178.76"/>
      </g>
      <path class="cls-1" d="m1238.02,189.01c-23.78,54.36-104.8,85.85-134.02,100.8-31.26,14.27-35.33-12.91-35.33-12.91-29.22,4.08-34.66-27.86-16.99-36.69,18.35-8.83,91.97-32.72,116.88-45.53,24.91-12.81,38.88-26.14,38.88-26.14-10.19,29.9-36.84,51.29-36.84,51.29,9.51-2.72,53.84-20.62,67.43-30.81Z"/>
    </g>
    <g id="PE">
      <g>
        <path class="cls-1" d="m146.24,241.11c0,19.67-14.24,31.58-37.79,31.58h-22.39v27.44h-12.94v-90.59h35.33c23.55,0,37.79,11.91,37.79,31.58Zm-12.94,0c0-12.94-8.67-20.32-25.24-20.32h-22v40.64h22c16.57,0,25.24-7.38,25.24-20.32Z"/>
        <path class="cls-1" d="m218.46,277.48h-48.14l-9.97,22.65h-13.33l41.03-90.59h12.81l41.16,90.59h-13.59l-9.97-22.65Zm-4.53-10.35l-19.54-44.39-19.54,44.39h39.08Z"/>
        <path class="cls-1" d="m333.38,209.54v90.59h-10.61l-54.36-67.56v67.56h-12.94v-90.59h10.61l54.36,67.56v-67.56h12.94Z"/>
        <path class="cls-1" d="m426.3,288.87v11.26h-65.74v-90.59h63.93v11.26h-50.99v27.83h45.43v11h-45.43v29.25h52.8Z"/>
        <path class="cls-1" d="m446.48,261.04v-51.51h12.94v50.99c0,20.06,9.19,29.12,25.5,29.12s25.62-9.06,25.62-29.12v-50.99h12.55v51.51c0,26.27-14.37,40.12-38.31,40.12s-38.31-13.85-38.31-40.12Z"/>
        <path class="cls-1" d="m610.2,300.13l-19.54-27.83c-1.81.13-3.75.26-5.69.26h-22.39v27.57h-12.94v-90.59h35.33c23.55,0,37.79,11.91,37.79,31.58,0,13.98-7.25,24.07-19.93,28.6l21.48,30.41h-14.11Zm-.39-59.01c0-12.94-8.67-20.32-25.24-20.32h-22v40.77h22c16.57,0,25.24-7.51,25.24-20.45Z"/>
      </g>
      <g>
        <path class="cls-1" d="m902.52,241.63c0,19.67-14.24,31.58-37.79,31.58h-22.39v27.44h-12.94v-90.59h35.33c23.55,0,37.79,11.91,37.79,31.58Zm-12.94,0c0-12.94-8.67-20.32-25.24-20.32h-22v40.64h22c16.57,0,25.24-7.38,25.24-20.32Z"/>
        <path class="cls-1" d="m974.74,278h-48.14l-9.96,22.65h-13.33l41.03-90.59h12.81l41.16,90.59h-13.59l-9.97-22.65Zm-4.53-10.35l-19.54-44.39-19.54,44.39h39.08Z"/>
      </g>
    </g>
    <g>
      <path class="cls-1" d="m95.65,117.2c-12.83,0-22.5-9.3-22.5-21.64s9.67-21.64,22.5-21.64,22.39,9.3,22.39,21.64-9.62,21.64-22.39,21.64Zm0-36.14c-8.54,0-14.74,6.1-14.74,14.51s6.2,14.51,14.74,14.51,14.62-6.1,14.62-14.51-6.15-14.51-14.62-14.51Z"/>
      <path class="cls-1" d="m155.19,116.74l-8.68-12.36c-.68.04-1.35.08-2.04.08h-8.97v12.28h-7.76v-42.35h16.74c11,0,17.83,5.77,17.83,15.07,0,6.18-2.95,10.82-8.33,13.2l9.95,14.09h-8.73Zm-10.89-19.18c4.67,0,10.24-1.41,10.24-8.11s-5.57-8.05-10.24-8.05h-8.8v16.16h8.8Z"/>
      <path class="cls-1" d="m191.74,117.2c-13.04,0-22.5-9.1-22.5-21.64s9.51-21.64,22.62-21.64c6.76,0,12.38,2.27,16.25,6.56l.64.71-4.94,4.94-.71-.68c-3.1-2.99-6.6-4.39-11.01-4.39-8.74,0-15.08,6.1-15.08,14.51s6.32,14.51,15.03,14.51c3.23,0,6-.71,8.45-2.15v-13.59h7.53v17.2l-.36.3c-4.05,3.41-9.85,5.37-15.92,5.37Z"/>
      <path class="cls-1" d="m250.41,116.74l-4.44-10.09h-20.14l-4.44,10.09h-8.14l19.18-42.35h7l19.24,42.35h-8.26Zm-7.34-16.7l-7.17-16.29-7.17,16.29h14.34Z"/>
      <polygon class="cls-1" points="295.49 116.74 272.76 88.48 272.76 116.74 264.99 116.74 264.99 74.39 271.2 74.39 293.93 102.64 293.93 74.39 301.7 74.39 301.7 116.74 295.49 116.74"/>
      <rect class="cls-1" x="314.69" y="74.39" width="7.76" height="42.35"/>
      <polygon class="cls-1" points="331.86 116.74 331.86 111.46 356.14 81.4 332.27 81.4 332.27 74.39 366.84 74.39 366.84 79.66 342.68 109.72 367.59 109.72 367.59 116.74 331.86 116.74"/>
      <path class="cls-1" d="m406.69,116.74l-4.44-10.09h-20.14l-4.44,10.09h-8.14l19.18-42.35h7l19.24,42.35h-8.26Zm-7.34-16.7l-7.17-16.29-7.17,16.29h14.34Z"/>
      <path class="cls-1" d="m439.74,117.2c-12.73,0-22.33-9.3-22.33-21.64s9.42-21.64,22.39-21.64c6.58,0,12.29,2.35,16.08,6.62l.64.72-5.16,5-.7-.73c-2.85-3.01-6.33-4.47-10.63-4.47-8.61,0-14.85,6.1-14.85,14.51s6.25,14.51,14.85,14.51c4.27,0,7.74-1.48,10.63-4.53l.7-.73,5.16,5-.64.72c-3.83,4.31-9.56,6.68-16.14,6.68Z"/>
      <path class="cls-1" d="m471.45,117.2c-5.25,0-9.83-2.28-12.58-6.25l-.44-.63,4.68-5.49.74,1.05c2.04,2.89,4.59,4.36,7.6,4.36,3.98,0,5.92-2.35,5.92-7.19v-21.65h-14.58v-7.02h22.29v28.38c0,9.44-4.71,14.43-13.62,14.43Z"/>
      <path class="cls-1" d="m527.35,116.74l-4.44-10.09h-20.14l-4.44,10.09h-8.14l19.18-42.35h7l19.24,42.35h-8.26Zm-7.34-16.7l-7.17-16.29-7.17,16.29h14.34Z"/>
      <path class="cls-1" d="m573.08,117.2c-6.3,0-12.64-2.1-16.13-5.34l-.54-.5,3.02-6.37,1,.9c2.97,2.68,7.93,4.41,12.65,4.41,5.7,0,8.97-1.9,8.97-5.23s-3.61-4.5-9.55-5.94c-6.63-1.61-14.89-3.61-14.89-12.68,0-6.06,4.32-12.53,16.45-12.53,5.07,0,10.13,1.4,13.54,3.75l.67.46-2.67,6.46-1.01-.64c-3.15-2.02-6.89-3.13-10.53-3.13-5.59,0-8.8,1.97-8.8,5.4s3.63,4.52,9.6,5.97c6.61,1.6,14.84,3.59,14.84,12.54,0,5.75-4.35,12.47-16.62,12.47Z"/>
      <polygon class="cls-1" points="606.44 116.74 606.44 81.4 592.6 81.4 592.6 74.39 627.98 74.39 627.98 81.4 614.15 81.4 614.15 116.74 606.44 116.74"/>
      <path class="cls-1" d="m652.12,117.2c-11.48,0-18.06-6.88-18.06-18.87v-23.94h7.76v23.71c0,8.05,3.39,11.97,10.36,11.97s10.41-3.92,10.41-11.97v-23.71h7.59v23.94c0,11.99-6.58,18.87-18.06,18.87Z"/>
      <path class="cls-1" d="m682.88,116.74v-42.35h18.01c13.42,0,22.79,8.71,22.79,21.18s-9.37,21.18-22.79,21.18h-18.01Zm17.66-7.02c9.34,0,15.37-5.56,15.37-14.16s-6.03-14.16-15.37-14.16h-9.9v28.32h9.9Z"/>
      <polygon class="cls-1" points="733.38 116.74 733.38 74.39 763.86 74.39 763.86 81.4 741.14 81.4 741.14 91.79 761.38 91.79 761.38 98.69 741.14 98.69 741.14 109.72 764.66 109.72 764.66 116.74 733.38 116.74"/>
      <polygon class="cls-1" points="805.38 116.74 782.65 88.48 782.65 116.74 774.88 116.74 774.88 74.39 781.09 74.39 803.82 102.64 803.82 74.39 811.59 74.39 811.59 116.74 805.38 116.74"/>
      <path class="cls-1" d="m843.62,117.2c-12.73,0-22.33-9.3-22.33-21.64s9.42-21.64,22.39-21.64c6.58,0,12.29,2.35,16.08,6.62l.64.72-5.16,5-.7-.73c-2.85-3.01-6.33-4.47-10.63-4.47-8.61,0-14.85,6.1-14.85,14.51s6.25,14.51,14.85,14.51c4.27,0,7.74-1.48,10.63-4.53l.7-.73,5.16,5-.64.72c-3.83,4.31-9.56,6.68-16.14,6.68Z"/>
      <polygon class="cls-1" points="898.27 116.74 883.23 99.29 876.9 105.71 876.9 116.74 869.14 116.74 869.14 74.39 876.9 74.39 876.9 95.46 897.39 74.39 906.71 74.39 888.48 93.59 907.6 116.74 898.27 116.74"/>
      <path class="cls-1" d="m942.35,116.74l-4.44-10.09h-20.14l-4.44,10.09h-8.14l19.18-42.35h7l19.24,42.35h-8.26Zm-7.34-16.7l-7.17-16.29-7.17,16.29h14.34Z"/>
    </g>
  </g>
</svg>