<?xml version="1.0" encoding="UTF-8"?>
<svg id="Paneuropa_Logo_-_Full_biale_spady" data-name="Paneuropa Logo - Full biale spady" xmlns="http://www.w3.org/2000/svg" viewBox="0 0 1311.14 415.15">
  <defs>
    <style>
      .cls-1 {
        fill: #fff;
        stroke-width: 0px;
      }
    </style>
  </defs>
  <g id="LOGO_-_PE" data-name="LOGO - PE">
    <g id="ZNAKI">
      <g id="Start">
        <polygon class="cls-1" points="725.7 167.57 728.37 175.33 736.57 175.47 730.03 180.41 732.42 188.25 725.7 183.55 718.98 188.25 721.38 180.41 714.83 175.47 723.03 175.33 725.7 167.57"/>
        <polygon class="cls-1" points="687.77 178.1 690.44 185.86 698.64 186 692.1 190.94 694.49 198.78 687.77 194.08 681.05 198.78 683.45 190.94 676.9 186 685.1 185.86 687.77 178.1"/>
        <polygon class="cls-1" points="660.19 206.19 662.86 213.94 671.06 214.09 664.51 219.02 666.91 226.87 660.19 222.17 653.47 226.87 655.87 219.02 649.32 214.09 657.52 213.94 660.19 206.19"/>
        <polygon class="cls-1" points="650.35 244.3 653.02 252.05 661.22 252.2 654.67 257.14 657.07 264.98 650.35 260.28 643.63 264.98 646.02 257.14 639.47 252.2 647.67 252.05 650.35 244.3"/>
        <polygon class="cls-1" points="658.65 283.09 661.32 290.84 669.52 290.99 662.97 295.92 665.37 303.77 658.65 299.06 651.93 303.77 654.32 295.92 647.77 290.99 655.97 290.84 658.65 283.09"/>
        <polygon class="cls-1" points="686.73 310.67 689.4 318.42 697.6 318.57 691.06 323.5 693.45 331.35 686.73 326.65 680.01 331.35 682.41 323.5 675.86 318.57 684.06 318.42 686.73 310.67"/>
        <polygon class="cls-1" points="724.85 320.51 727.52 328.27 735.72 328.41 729.17 333.35 731.56 341.19 724.85 336.49 718.13 341.19 720.52 333.35 713.97 328.41 722.17 328.27 724.85 320.51"/>
        <polygon class="cls-1" points="763.5 310.98 766.17 318.74 774.37 318.88 767.82 323.82 770.22 331.66 763.5 326.96 756.78 331.66 759.18 323.82 752.63 318.88 760.83 318.73 763.5 310.98"/>
        <polygon class="cls-1" points="792.21 283.4 794.88 291.15 803.09 291.3 796.54 296.24 798.93 304.08 792.21 299.38 785.49 304.08 787.89 296.24 781.34 291.3 789.54 291.15 792.21 283.4"/>
        <polygon class="cls-1" points="803.29 245.16 805.96 252.91 814.16 253.06 807.61 257.99 810.01 265.84 803.29 261.13 796.57 265.84 798.96 257.99 792.41 253.06 800.61 252.91 803.29 245.16"/>
        <polygon class="cls-1" points="793.76 206.5 796.43 214.25 804.63 214.4 798.08 219.34 800.48 227.18 793.76 222.48 787.04 227.18 789.43 219.34 782.88 214.4 791.08 214.25 793.76 206.5"/>
        <polygon class="cls-1" points="766.17 177.79 768.85 185.54 777.05 185.69 770.5 190.63 772.89 198.47 766.17 193.77 759.45 198.47 761.85 190.63 755.3 185.69 763.5 185.54 766.17 177.79"/>
      </g>
      <path class="cls-1" d="m1238.02,188.04c-23.78,54.36-104.8,85.85-134.02,100.8-31.26,14.27-35.33-12.91-35.33-12.91-29.22,4.08-34.66-27.86-16.99-36.69,18.35-8.83,91.97-32.72,116.88-45.53,24.91-12.81,38.88-26.14,38.88-26.14-10.19,29.9-36.84,51.29-36.84,51.29,9.51-2.72,53.84-20.62,67.43-30.81Z"/>
    </g>
    <g id="PE">
      <g>
        <path class="cls-1" d="m146.24,240.15c0,19.67-14.24,31.58-37.79,31.58h-22.39v27.44h-12.94v-90.59h35.33c23.55,0,37.79,11.91,37.79,31.58Zm-12.94,0c0-12.94-8.67-20.32-25.24-20.32h-22v40.64h22c16.57,0,25.24-7.38,25.24-20.32Z"/>
        <path class="cls-1" d="m218.46,276.51h-48.14l-9.97,22.65h-13.33l41.03-90.59h12.81l41.16,90.59h-13.59l-9.97-22.65Zm-4.53-10.35l-19.54-44.39-19.54,44.39h39.08Z"/>
        <path class="cls-1" d="m333.38,208.57v90.59h-10.61l-54.36-67.56v67.56h-12.94v-90.59h10.61l54.36,67.56v-67.56h12.94Z"/>
        <path class="cls-1" d="m426.3,287.9v11.26h-65.74v-90.59h63.93v11.26h-50.99v27.83h45.43v11h-45.43v29.25h52.8Z"/>
        <path class="cls-1" d="m446.48,260.08v-51.51h12.94v50.99c0,20.06,9.19,29.12,25.5,29.12s25.62-9.06,25.62-29.12v-50.99h12.55v51.51c0,26.27-14.37,40.12-38.31,40.12s-38.31-13.85-38.31-40.12Z"/>
        <path class="cls-1" d="m610.19,299.16l-19.54-27.83c-1.81.13-3.75.26-5.69.26h-22.39v27.57h-12.94v-90.59h35.33c23.55,0,37.79,11.91,37.79,31.58,0,13.98-7.25,24.07-19.93,28.6l21.48,30.41h-14.11Zm-.39-59.01c0-12.94-8.67-20.32-25.24-20.32h-22v40.77h22c16.57,0,25.24-7.51,25.24-20.45Z"/>
      </g>
      <g>
        <path class="cls-1" d="m902.52,240.66c0,19.67-14.24,31.58-37.79,31.58h-22.39v27.44h-12.94v-90.59h35.33c23.55,0,37.79,11.91,37.79,31.58Zm-12.94,0c0-12.94-8.67-20.32-25.24-20.32h-22v40.64h22c16.57,0,25.24-7.38,25.24-20.32Z"/>
        <path class="cls-1" d="m974.74,277.03h-48.14l-9.96,22.65h-13.33l41.03-90.59h12.81l41.16,90.59h-13.59l-9.97-22.65Zm-4.53-10.35l-19.54-44.39-19.54,44.39h39.08Z"/>
      </g>
    </g>
    <g>
      <path class="cls-1" d="m95.65,116.23c-12.83,0-22.5-9.3-22.5-21.64s9.67-21.64,22.5-21.64,22.39,9.3,22.39,21.64-9.62,21.64-22.39,21.64Zm0-36.14c-8.54,0-14.74,6.1-14.74,14.51s6.2,14.51,14.74,14.51,14.62-6.1,14.62-14.51-6.15-14.51-14.62-14.51Z"/>
      <path class="cls-1" d="m155.19,115.77l-8.68-12.36c-.67.04-1.35.08-2.04.08h-8.97v12.28h-7.76v-42.35h16.74c11,0,17.83,5.77,17.83,15.07,0,6.18-2.95,10.82-8.33,13.2l9.95,14.09h-8.73Zm-10.89-19.18c4.67,0,10.24-1.41,10.24-8.11s-5.57-8.05-10.24-8.05h-8.8v16.16h8.8Z"/>
      <path class="cls-1" d="m191.74,116.23c-13.04,0-22.5-9.1-22.5-21.64s9.51-21.64,22.62-21.64c6.76,0,12.38,2.27,16.25,6.56l.64.71-4.94,4.94-.71-.68c-3.1-3-6.6-4.39-11.01-4.39-8.74,0-15.08,6.1-15.08,14.51s6.32,14.51,15.03,14.51c3.23,0,6-.71,8.45-2.15v-13.59h7.53v17.2l-.36.3c-4.04,3.41-9.85,5.37-15.92,5.37Z"/>
      <path class="cls-1" d="m250.41,115.77l-4.44-10.09h-20.14l-4.44,10.09h-8.14l19.18-42.35h7l19.24,42.35h-8.26Zm-7.34-16.7l-7.17-16.29-7.17,16.29h14.34Z"/>
      <polygon class="cls-1" points="295.49 115.77 272.76 87.52 272.76 115.77 264.99 115.77 264.99 73.42 271.2 73.42 293.93 101.67 293.93 73.42 301.7 73.42 301.7 115.77 295.49 115.77"/>
      <rect class="cls-1" x="314.69" y="73.42" width="7.76" height="42.35"/>
      <polygon class="cls-1" points="331.86 115.77 331.86 110.5 356.14 80.43 332.27 80.43 332.27 73.42 366.84 73.42 366.84 78.69 342.68 108.75 367.59 108.75 367.59 115.77 331.86 115.77"/>
      <path class="cls-1" d="m406.69,115.77l-4.44-10.09h-20.14l-4.44,10.09h-8.14l19.18-42.35h7l19.24,42.35h-8.26Zm-7.34-16.7l-7.17-16.29-7.17,16.29h14.34Z"/>
      <path class="cls-1" d="m439.74,116.23c-12.73,0-22.33-9.3-22.33-21.64s9.42-21.64,22.39-21.64c6.58,0,12.29,2.35,16.08,6.62l.64.72-5.16,5-.7-.73c-2.85-3.01-6.33-4.47-10.63-4.47-8.61,0-14.85,6.1-14.85,14.51s6.25,14.51,14.85,14.51c4.26,0,7.74-1.48,10.63-4.53l.7-.73,5.16,5-.64.72c-3.83,4.31-9.56,6.68-16.14,6.68Z"/>
      <path class="cls-1" d="m471.45,116.23c-5.25,0-9.83-2.28-12.58-6.25l-.44-.63,4.68-5.49.74,1.05c2.04,2.89,4.59,4.36,7.6,4.36,3.98,0,5.92-2.35,5.92-7.19v-21.65h-14.58v-7.02h22.29v28.38c0,9.44-4.71,14.43-13.62,14.43Z"/>
      <path class="cls-1" d="m527.35,115.77l-4.44-10.09h-20.14l-4.44,10.09h-8.14l19.18-42.35h7l19.24,42.35h-8.26Zm-7.34-16.7l-7.17-16.29-7.17,16.29h14.34Z"/>
      <path class="cls-1" d="m573.08,116.23c-6.3,0-12.64-2.1-16.13-5.34l-.54-.5,3.02-6.37,1,.9c2.96,2.68,7.93,4.41,12.65,4.41,5.7,0,8.97-1.91,8.97-5.23s-3.61-4.5-9.55-5.94c-6.64-1.61-14.89-3.61-14.89-12.67,0-6.06,4.32-12.53,16.45-12.53,5.07,0,10.13,1.4,13.54,3.75l.67.46-2.67,6.46-1.01-.64c-3.16-2.02-6.89-3.13-10.53-3.13-5.59,0-8.8,1.97-8.8,5.4s3.63,4.52,9.6,5.97c6.61,1.6,14.84,3.59,14.84,12.54,0,5.75-4.35,12.47-16.62,12.47Z"/>
      <polygon class="cls-1" points="606.44 115.77 606.44 80.43 592.6 80.43 592.6 73.42 627.98 73.42 627.98 80.43 614.15 80.43 614.15 115.77 606.44 115.77"/>
      <path class="cls-1" d="m652.11,116.23c-11.48,0-18.06-6.88-18.06-18.87v-23.94h7.76v23.71c0,8.05,3.39,11.97,10.36,11.97s10.41-3.92,10.41-11.97v-23.71h7.59v23.94c0,11.99-6.58,18.87-18.06,18.87Z"/>
      <path class="cls-1" d="m682.88,115.77v-42.35h18.01c13.42,0,22.79,8.71,22.79,21.18s-9.37,21.18-22.79,21.18h-18.01Zm17.66-7.02c9.34,0,15.37-5.56,15.37-14.16s-6.03-14.16-15.37-14.16h-9.9v28.32h9.9Z"/>
      <polygon class="cls-1" points="733.38 115.77 733.38 73.42 763.86 73.42 763.86 80.43 741.14 80.43 741.14 90.83 761.38 90.83 761.38 97.73 741.14 97.73 741.14 108.75 764.66 108.75 764.66 115.77 733.38 115.77"/>
      <polygon class="cls-1" points="805.38 115.77 782.65 87.52 782.65 115.77 774.88 115.77 774.88 73.42 781.09 73.42 803.82 101.67 803.82 73.42 811.59 73.42 811.59 115.77 805.38 115.77"/>
      <path class="cls-1" d="m843.62,116.23c-12.73,0-22.33-9.3-22.33-21.64s9.42-21.64,22.39-21.64c6.58,0,12.29,2.35,16.08,6.62l.64.72-5.16,5-.7-.73c-2.85-3.01-6.33-4.47-10.63-4.47-8.61,0-14.85,6.1-14.85,14.51s6.25,14.51,14.85,14.51c4.27,0,7.74-1.48,10.63-4.53l.7-.73,5.16,5-.64.72c-3.83,4.31-9.56,6.68-16.14,6.68Z"/>
      <polygon class="cls-1" points="898.27 115.77 883.23 98.32 876.9 104.75 876.9 115.77 869.14 115.77 869.14 73.42 876.9 73.42 876.9 94.49 897.39 73.42 906.71 73.42 888.48 92.62 907.6 115.77 898.27 115.77"/>
      <path class="cls-1" d="m942.35,115.77l-4.44-10.09h-20.14l-4.44,10.09h-8.14l19.18-42.35h7l19.24,42.35h-8.26Zm-7.34-16.7l-7.17-16.29-7.17,16.29h14.34Z"/>
    </g>
  </g>
</svg>